<?xml version="1.0" encoding="UTF-8"?>
<!DOCTYPE svg PUBLIC "-//W3C//DTD SVG 1.1//EN" "http://www.w3.org/Graphics/SVG/1.1/DTD/svg11.dtd">
<!-- Creator: CorelDRAW X7 -->
<svg xmlns="http://www.w3.org/2000/svg" xml:space="preserve" width="100px" height="100px" version="1.1" style="shape-rendering:geometricPrecision; text-rendering:geometricPrecision; image-rendering:optimizeQuality; fill-rule:evenodd; clip-rule:evenodd"
viewBox="0 0 100 100"
 xmlns:xlink="http://www.w3.org/1999/xlink">
 <defs>
  <style type="text/css">
   <![CDATA[
    .fil1 {fill:#FEFEFE}
    .fil0 {fill:#EECC16}
   ]]>
  </style>
 </defs>
 <g id="Layer_x0020_1">
  <metadata id="CorelCorpID_0Corel-Layer"/>
  <g id="_592613856">
   <path class="fil0" d="M43 42l19 4c0,-1 1,-2 2,-4 -9,-6 -18,-23 -42,-20 3,2 8,4 12,6 4,2 8,5 9,6 -10,1 -32,-16 -36,-18 2,14 17,24 25,32 -8,-3 -12,-8 -16,-12 0,14 19,22 33,25 3,-1 -6,-15 -6,-19z"/>
   <path class="fil1" d="M62 46l-19 -4c0,4 9,18 6,19 -2,2 -8,11 -9,13 6,-1 13,-5 21,-7 4,5 7,13 13,18 1,-8 0,-15 0,-23 7,-1 10,-2 20,-6l-20 -7 0 -21c-6,7 -10,15 -12,18z"/>
  </g>
 </g>
</svg>
