<?xml version="1.0" encoding="UTF-8"?>
<!DOCTYPE svg PUBLIC "-//W3C//DTD SVG 1.1//EN" "http://www.w3.org/Graphics/SVG/1.1/DTD/svg11.dtd">
<!-- Creator: CorelDRAW X7 -->
<svg xmlns="http://www.w3.org/2000/svg" xml:space="preserve" width="600px" height="600px" version="1.1" style="shape-rendering:geometricPrecision; text-rendering:geometricPrecision; image-rendering:optimizeQuality; fill-rule:evenodd; clip-rule:evenodd"
viewBox="0 0 600 600"
 xmlns:xlink="http://www.w3.org/1999/xlink">
 <defs>
  <style type="text/css">
   <![CDATA[
    .fil6 {fill:none}
    .fil4 {fill:#FEFEFE}
    .fil2 {fill:#D9DADA}
    .fil5 {fill:#B2B3B3}
    .fil8 {fill:#2B2A29}
    .fil0 {fill:#1C1B17}
    .fil3 {fill:#A9D5F3}
    .fil1 {fill:#D8E9F3}
    .fil7 {fill:url(#id0)}
   ]]>
  </style>
  <radialGradient id="id0" gradientUnits="userSpaceOnUse" gradientTransform="matrix(1.29142 1.57374 -1.57374 1.29142 239 -501)" cx="280.585" cy="204.03" r="176.958" fx="280.585" fy="204.03">
   <stop offset="0" style="stop-opacity:1; stop-color:#FEFEFE"/>
   <stop offset="0.121569" style="stop-opacity:1; stop-color:#FFF162"/>
   <stop offset="0.329412" style="stop-opacity:1; stop-color:#FFED00"/>
   <stop offset="0.690196" style="stop-opacity:1; stop-color:#F18A17"/>
   <stop offset="1" style="stop-opacity:1; stop-color:#EF7F1A"/>
  </radialGradient>
 </defs>
 <g id="Layer_x0020_1">
  <metadata id="CorelCorpID_0Corel-Layer"/>
  <g id="_591819640">
   <path class="fil0" d="M265 215c-5,-6 -9,-21 -11,-29 -1,-5 -5,-16 -5,-20 0,-5 7,-11 0,-15 -4,-2 -5,3 -8,4 -1,-3 -4,-6 -7,-7 -3,-1 0,0 -4,0 -2,2 -2,4 -2,7 -1,-1 -2,-1 -3,-1 -4,0 -1,-1 -5,1 -1,2 -1,4 0,7 -5,3 -3,10 1,12 14,5 16,-2 20,15 2,5 4,10 5,15l2 14c0,8 0,5 -8,11 -10,7 -22,12 -30,20 4,4 2,0 6,5 4,7 11,14 16,21 4,4 6,8 10,13 3,4 10,10 11,15 -3,2 -3,4 -6,6 -2,-2 -5,-4 -7,-6 -3,-4 -3,-6 -6,-9 -5,-5 -8,-11 -12,-16l-6 -6c-3,-3 -6,-8 -9,-12 -3,-3 -2,-3 1,-6 2,-1 2,-3 2,-5l-3 2c-11,7 -19,18 -25,30 -1,3 -1,4 -4,6 -2,3 -6,2 -9,1l-33 -10c-2,-1 -3,-2 -4,-4 0,0 0,0 0,0l0 -3c0,-1 1,-2 1,-3 -2,-3 -3,-4 -7,-3 -2,0 -5,3 -7,5 -3,4 -1,1 -5,3 -4,2 -3,4 -5,7 2,3 3,4 5,6 0,0 -1,1 -1,2 0,0 0,1 -1,1l0 4c3,2 11,3 15,1 5,-3 5,-1 10,-1 5,1 14,3 18,5 2,1 2,1 3,1 2,1 3,1 4,2 3,1 5,1 8,3 -1,5 -1,11 -1,13l0 1c0,1 0,2 -1,3 -1,5 -1,3 0,8 0,3 -2,4 -1,7 -3,2 -3,-1 -12,1l-9 2c-1,0 -3,0 -3,1 -21,6 -45,18 -56,37l-1 3c0,0 0,0 0,0 -3,8 -6,15 -8,24 -1,3 0,1 -1,3l-2 12c-1,3 1,-3 -2,1l0 3c-1,4 -3,11 -2,15 2,11 28,43 36,52 4,4 6,5 10,9 6,4 7,4 12,4 7,1 4,2 12,1 13,-1 15,-4 23,-13 6,-8 4,-28 1,-37 -5,-15 -25,-38 -27,-51 -2,-12 2,-25 8,-35 4,-7 6,-8 12,-12 4,-3 3,-4 7,-5 5,-2 8,-1 10,4l2 5c1,4 1,6 3,10 4,7 7,13 11,20 8,14 21,22 34,30l1 2c3,-1 5,2 8,4 3,2 15,9 20,10 6,2 10,3 17,3 3,0 0,-1 3,2 0,0 0,3 0,5l-1 5c0,0 0,0 -1,0l0 2c0,0 0,1 0,1 0,0 0,1 0,1l0 8c0,2 0,1 0,4 0,4 1,9 -3,12 -6,5 -9,5 -10,13 0,0 2,2 2,2 0,0 2,0 3,1 3,3 2,10 12,6 4,-1 3,-2 6,-5l4 1c8,-8 0,-12 -6,-16 1,-3 1,-2 1,-5 1,-6 3,-13 5,-19l1 -6c0,-2 1,-3 1,-5 0,-1 0,-2 1,-2 0,-4 -1,-1 1,-4l14 0c10,-2 27,-10 36,-18 3,-3 12,-9 14,-12 2,-2 3,-5 5,-7 4,-4 6,-8 9,-12 3,-4 7,-10 10,-13 3,-4 4,-10 8,-12 3,2 16,17 18,21l4 15c0,2 1,4 2,6l5 -1c3,0 -2,-1 1,1l3 1c2,1 3,1 5,-1 3,-3 1,-1 1,-4 2,1 2,1 4,0 3,-2 1,-1 2,-3 2,-4 -3,-7 -5,-11 2,0 5,-2 5,-5 1,-3 -3,-6 -6,-5 -3,2 -4,2 -7,2 0,0 0,0 0,0 -4,0 -5,-2 -7,-5 -3,-4 -7,-7 -10,-11 -8,-10 -11,-11 -7,-21 2,-5 3,-11 5,-16 0,0 0,0 0,0l1 -5c0,0 0,0 0,0 0,0 1,0 1,0 6,0 5,-7 15,-14 7,2 11,4 17,3l14 -3c26,-7 33,-12 55,-30 8,-6 16,-19 21,-27 1,-2 2,-5 2,-6l5 -14c3,-7 4,-15 4,-24 0,-7 -1,-18 -4,-25 -5,-12 -4,-25 -15,-44 -8,-13 -22,-27 -36,-34 -13,-6 -27,-14 -41,-18l-10 -3c-10,-2 -21,-2 -31,-1 -9,1 -21,3 -29,9 -6,3 -10,5 -16,9 -18,16 -21,21 -31,40 -4,8 -8,17 -10,26l-3 18c1,2 1,1 0,3l-4 7c-14,18 -7,8 -17,12 -3,1 -6,2 -8,3 -7,3 -9,2 -14,4z"/>
   <path class="fil1" d="M455 100c-9,-6 -18,-8 -28,-10 -2,0 -4,-1 -6,-1 -4,-1 -8,-2 -12,-1 -3,0 -3,-1 -8,1 -4,1 -6,0 -11,1 0,0 -1,0 -1,0 -20,5 -30,11 -46,26 -5,4 -8,8 -11,13l-8 13 -10 28c-1,2 -2,5 -2,6 0,3 0,1 -1,4 -1,4 1,7 1,8 0,1 0,1 0,2l2 4c0,1 0,1 1,1 0,0 0,0 0,1 0,1 0,0 1,2 7,-4 21,-6 29,-7l9 -1c3,0 1,0 4,0l10 -1c1,0 4,0 5,-1 4,-1 15,-21 20,-10 1,1 1,0 1,1l1 11c2,4 11,14 15,16 2,1 3,2 5,4 8,7 7,-2 14,0 3,1 2,1 4,3l-2 9c-2,6 0,5 -4,13l-11 44c-1,4 -9,18 -8,21 0,2 6,4 8,5 3,0 0,0 3,-1 4,6 3,6 14,6l8 -1c15,-5 4,1 25,-7 5,-3 12,-6 17,-10 5,-3 11,-9 16,-13 3,-2 5,-5 8,-7 5,-6 16,-23 18,-30l4 -14c1,-6 3,-11 2,-18l-1 -12c0,-1 -1,-3 -1,-4l-1 -4c-3,-17 -10,-39 -20,-54 -4,-5 -16,-17 -22,-20 -7,-4 -23,-10 -31,-16z"/>
   <path class="fil2" d="M415 281c-1,4 -5,10 -7,15 8,2 21,2 30,0 46,-8 66,-32 79,-73 -25,52 -47,54 -70,57 -13,2 -24,2 -32,1z"/>
   <path class="fil3" d="M415 281c-1,4 -5,10 -7,15 8,2 21,2 30,0 46,-8 66,-32 79,-73 -25,52 -47,54 -70,57 -13,2 -24,2 -32,1z"/>
   <path class="fil2" d="M309 194c0,1 -2,3 -3,4l-2 5c-2,3 -2,5 -6,6l1 7c0,8 7,25 11,32 7,11 22,27 32,37 6,6 12,10 18,14 10,8 25,19 37,21 8,1 7,-5 14,-11 0,0 0,-1 0,-1 -6,-4 -6,-3 -12,-7 -10,-8 -36,-17 -50,-33 -4,-5 -11,-14 -14,-19 -1,-3 -3,-6 -5,-9 -3,-4 -3,-6 -5,-10 -1,-1 -3,-3 -3,-5 -3,-5 -6,-8 -7,-13l-4 -11c-1,-3 -1,-2 -2,-4 0,-1 0,-1 0,-3z"/>
   <path class="fil4" d="M305 237c2,5 3,8 5,11 0,0 0,1 1,1 2,-2 4,-5 7,-8 1,-1 4,-5 7,-9 0,-1 0,-1 0,-2 -1,-1 -3,-3 -3,-5 -1,0 -1,0 -1,-1 -5,4 -11,9 -16,13z"/>
   <path class="fil4" d="M302 230c0,1 1,2 1,3 4,-3 11,-8 16,-13 -1,-1 -1,-2 -2,-3 -5,5 -11,9 -15,13z"/>
   <path class="fil5" d="M362 300c5,5 12,10 20,14 2,-3 4,-6 9,-10 3,-2 5,-4 6,-5 -6,-4 -15,-8 -23,-13 -1,1 -2,2 -3,4 -1,1 -5,6 -9,10z"/>
   <path class="fil6" d="M396 299c-1,2 -2,3 -5,5 -5,4 -7,7 -9,10m-20 -14c4,-4 8,-9 9,-10 1,-2 2,-3 3,-4"/>
   <path class="fil4" d="M389 210c1,-5 -3,-13 -11,-13 -8,0 -14,-2 -21,3 -5,3 -9,8 -9,13 -1,4 1,9 5,13 4,5 7,8 13,5 13,-5 13,-1 21,-12l2 -3c0,0 0,0 0,-1 0,-2 -1,0 0,-5z"/>
   <path class="fil4" d="M403 222c-2,-1 -4,-3 -6,-2 -2,1 -5,4 -7,6 -2,2 -10,14 -12,18 -1,6 4,12 9,16 4,3 8,6 16,0 3,-2 4,-2 7,-5 0,0 2,-3 2,-4 3,-5 4,-10 1,-16 -2,-4 -6,-11 -10,-13z"/>
   <path class="fil7" d="M246 345l-7 -7c-1,-1 -2,-1 -3,-2 -3,-3 -6,-8 -6,-12 2,-3 12,-10 15,-13 -7,-7 -6,-8 -11,-13 -7,-8 -14,-18 -21,-26 -4,-4 -8,-8 -11,-13 -12,9 -14,21 -23,32 -2,3 -3,0 -6,0 -4,0 -7,-1 -11,-2 -2,0 -1,0 -3,-1 -2,-1 -8,-2 -11,-3 -1,0 -2,0 -2,0 -6,-1 1,-1 -9,-3l-1 -1c-1,0 -7,-2 -8,-4 0,-4 2,-5 -1,-8 -4,1 -4,4 -2,8 -2,1 -4,-1 -7,-2 -3,0 -2,1 -5,4 3,2 7,3 8,6l-5 5c2,2 4,2 6,1 5,0 4,-1 8,-4l10 3c4,1 10,3 14,4l2 1c5,2 9,4 14,6 3,0 4,1 3,5 -1,4 0,9 -1,14 -1,7 0,12 0,19 -6,2 -8,-1 -14,1 -8,2 -14,3 -21,6 -2,0 -3,0 -4,1l-18 8c-12,8 -25,20 -29,35l-4 14c-2,5 -2,11 -4,16l-1 3c0,0 0,0 0,0 -1,8 -4,14 1,21 8,13 22,34 31,44 2,3 16,12 20,13 2,0 4,1 7,1 5,-1 10,-1 14,-3 4,-2 10,-7 12,-11l2 -7c1,-9 0,-6 0,-14 0,-3 0,-4 0,-7 -5,-20 -23,-35 -28,-51 -2,-8 -1,-6 -2,-14 0,-5 0,-11 1,-14l2 -6c4,-8 18,-24 25,-27 3,-1 8,-1 12,-1 0,0 0,1 0,1 5,0 9,-2 16,-4 2,0 2,0 4,-1 6,-2 8,-2 14,-5 2,-1 3,-1 5,0 -7,5 -28,11 -36,14 1,1 4,7 4,8 1,2 1,1 3,1l10 -2c1,-1 3,-2 4,-2 6,0 2,2 2,2 -1,0 -7,3 -9,4l-9 3c8,15 10,26 25,39 0,0 2,1 3,2 2,2 1,0 4,3 3,2 5,5 9,7 6,3 12,6 18,10 2,-3 1,-3 3,-7 1,-2 1,-4 3,-9 1,-3 2,-5 3,-7 1,-3 2,-6 3,-9 2,-13 4,-6 6,-17 0,-1 0,-2 1,-4 1,-3 5,-10 4,-13 -1,-3 -17,-14 -18,-16zm-36 -96c4,4 2,0 6,5 4,7 11,14 16,21 4,4 6,8 10,13 3,4 10,10 11,15 -3,2 -3,4 -6,6 -2,-2 -5,-4 -7,-6 -3,-4 -3,-6 -6,-9 -5,-5 -8,-11 -12,-16l-6 -6c-3,-3 -6,-8 -9,-12 -3,-3 -2,-3 1,-6 2,-1 2,-3 2,-5l0 0zm90 -12c-1,3 1,7 0,11l0 7c0,2 0,5 0,7l-1 8c0,0 1,0 1,0 0,1 0,1 0,1l-1 9c0,0 0,0 0,0 1,5 0,1 0,6 0,0 0,0 0,0l0 4c1,2 0,4 -1,6 -5,-5 -2,-5 -2,-11l0 -8c2,-9 1,-18 2,-26 1,-10 0,-9 0,-19 0,0 0,0 0,0l-1 -5c-1,-1 -1,-4 -1,-6 -1,-2 -1,-8 -3,-10 -1,0 -3,1 -4,2 -6,5 -3,8 -3,15 0,8 -2,13 -1,21 2,22 0,15 0,26 0,2 1,4 1,6 1,4 5,7 9,10l-2 -1c0,0 -1,0 -1,0 -4,-2 -3,-4 -7,-5 -1,2 0,0 -1,2 0,1 0,0 0,2l-2 0c-1,-3 0,4 0,-2l0 -2c-8,2 -38,33 -44,37l-5 4c1,2 2,2 3,3 2,4 2,5 6,8 5,5 2,3 11,11 8,6 14,14 21,22l2 0c6,-1 1,5 17,-9 3,-3 3,-3 3,-6 5,-1 13,-12 16,-16 4,-4 8,-8 9,-13 1,-3 0,-3 1,-5 7,2 20,0 28,1 1,0 3,0 4,0 3,0 2,0 4,0 4,0 8,-1 13,-1l12 0c2,0 3,0 4,-1 -3,-3 -7,-4 -11,-7 -33,-21 -32,-23 -59,-51 -3,-4 -6,-8 -9,-13l-5 -7c-1,-3 0,-1 0,-2 -1,-1 -1,-3 -3,-3zm123 -18l-7 -3c-6,-4 -22,-19 -24,-24 -2,-5 0,-9 -3,-13 -11,4 -6,11 -14,12l-10 2c0,0 1,0 1,0 -1,1 15,-1 22,5 6,5 7,18 2,22 7,-3 9,-4 14,-2 0,0 4,2 5,3 3,2 3,4 5,7 3,7 7,12 4,20l-3 6c-3,1 -5,5 -8,6 -9,6 -9,9 -20,4 -6,-4 -9,-9 -11,-15 -3,1 -5,1 -8,0 0,0 0,0 -1,0 -1,0 1,0 -1,0 -1,1 -1,1 -1,2 0,0 0,0 0,0 0,1 0,1 0,1 -2,10 17,22 25,27 1,1 3,2 5,2 3,1 4,1 6,3 -1,1 -1,2 -1,3l-9 -5c-3,-1 0,1 -3,-1 -10,-6 -13,-10 -22,-18 -2,-2 -3,-4 -4,-6 0,-2 -1,-5 0,-6 0,0 0,-1 0,-1l-4 -1c-2,-1 -3,-3 -5,-3 -3,0 1,2 -2,0 -3,-3 0,-2 -5,-4 -1,0 -2,-1 -2,-1l-2 -1c-1,-1 -3,-4 -5,-6l2 -2c-5,-4 -7,-6 -10,-11l-2 -4c-1,-2 -2,-5 0,-6 2,1 1,7 6,12 2,3 4,5 6,7 2,2 2,4 4,7 3,3 9,7 12,8 11,5 8,0 9,-4 3,-2 2,-1 4,-2l7 6c3,-5 0,-3 3,-7 0,0 1,-1 1,-2 2,-2 4,-6 6,-9 -6,2 -13,6 -19,7 -12,4 -18,-8 -20,-16 -2,-5 -2,-5 0,-10 1,-3 3,-6 6,-9 2,-2 7,-4 11,-6l-19 1c0,0 0,0 0,0 0,0 -1,0 -1,0 -6,1 -13,1 -18,5l-8 2c1,2 1,2 1,4 1,10 6,17 12,27 1,2 2,3 4,6 3,9 10,17 17,24 6,7 12,13 19,18 3,1 5,3 7,4 4,3 10,4 14,7 4,4 10,7 14,8l3 -8c0,0 0,-1 0,-1 1,-3 2,-4 3,-7 2,-5 2,-10 5,-15l1 -3c2,-6 2,-12 4,-19 1,-2 1,-4 1,-5 1,-6 1,-5 3,-11 1,-2 1,-3 2,-5 0,-1 0,-2 0,-2 1,-3 2,-7 2,-9 -1,-1 -3,0 -5,1 -2,3 -2,2 -1,4zm-156 146c-1,2 -6,15 -6,16 -2,7 -2,5 -4,8 -3,12 -4,14 -8,25 -6,13 0,8 -4,14 2,2 4,3 6,4l10 -18c2,-5 4,-7 4,-10l2 -6c1,-1 0,0 1,-2l3 -11c0,-3 0,-7 3,-11l-7 -9zm41 -17c-3,5 -8,8 -8,11l1 1c8,9 20,21 29,29 2,2 4,4 6,6 7,6 5,2 11,9l1 1c2,2 2,1 3,1 3,-1 2,-2 5,-5 1,-1 1,-1 3,-2 -4,-5 -9,-10 -13,-14 -6,-6 -8,-7 -12,-12 -5,-6 -14,-14 -19,-19 -2,-2 -6,-4 -7,-6zm-67 -187c-3,-4 -4,-8 -8,-10l-2 2c0,1 1,4 1,5 0,1 1,1 1,2l1 4c-4,-1 -3,-1 -6,-4 -4,-3 -3,-1 -5,-2 0,1 1,3 1,5 1,1 1,1 1,2 1,4 1,1 0,3 -2,0 -2,0 -4,-1 1,0 -1,2 13,7 3,1 5,-1 7,2 0,0 1,2 1,2 0,0 1,2 1,3 1,2 1,4 2,6l1 5c3,12 1,3 2,13 1,2 2,5 2,9 0,4 1,7 2,13l-27 14c-10,6 -11,7 -3,15 1,1 3,4 3,4 4,4 10,14 18,23 3,3 3,3 5,8 2,3 4,5 8,9 10,-5 19,-20 27,-19 0,0 0,0 0,0 0,0 1,0 1,0 -1,-3 -1,-4 0,-7l-1 -26c0,0 0,-1 0,-1 0,-8 1,-18 1,-23 -1,-6 0,-6 -1,-8 -3,-1 -3,0 -7,1l-4 1c0,0 0,0 -1,0 -2,0 -4,1 -6,0 -6,-4 -6,-8 -8,-13 -1,-2 -2,-4 -3,-7l-1 -5c-2,-7 -1,-6 -4,-15l-4 -15c-1,1 5,-4 3,-9 -4,3 -5,5 -7,7zm84 163c-1,3 0,2 -1,5 -2,3 -3,2 -3,5 2,1 5,1 7,1 4,-1 5,-2 9,0 -4,2 -1,1 -5,1 -1,1 -2,1 -3,1 -2,0 -5,0 -7,0 -4,0 -4,-1 -7,3 -1,1 -4,5 -6,7 2,0 2,1 6,5 10,9 40,43 44,44 2,0 0,0 2,-1 0,0 1,-2 2,-2l7 -10c10,-13 6,-9 11,-18 1,-3 3,-4 5,-4 2,1 17,19 19,22l5 11c0,0 -1,4 2,11l3 -4c3,3 4,5 6,6 2,-5 -3,-5 2,-10 1,2 5,8 6,3 0,-4 -5,-7 -7,-9 3,-4 5,-3 6,-7 -4,-4 0,3 -11,1 -4,-1 -6,-4 -9,-8 -7,-8 -16,-15 -20,-24 0,0 5,-12 5,-17l2 -7c1,-2 1,-3 1,-5l-8 -1c-6,0 -4,0 -13,0 -2,0 -2,0 -5,1l-31 1c-4,0 0,0 -7,0l-4 0c-2,-1 0,-1 -3,-1zm-28 38c-7,3 -10,13 -19,11 -5,4 -5,11 -6,16 0,1 -1,2 -1,3 -1,3 -1,2 -1,4l-1 6c0,0 -1,1 -1,1 0,0 0,0 0,0 0,6 -7,18 -9,23 -2,3 -2,6 -4,7 3,2 7,3 11,4l5 0c1,0 3,0 3,0 0,0 4,-2 3,4 -1,5 -1,6 -1,11 0,1 -1,9 -1,14 0,5 0,11 -2,14 -3,3 -4,3 -7,5 -1,1 -3,4 -3,6 2,1 0,0 3,0l2 0c1,5 -2,6 4,9 2,-1 4,-2 5,-4 1,-3 0,1 0,-1 0,-1 -1,-1 -1,-4 0,2 3,0 4,0l4 2c2,-1 2,-2 3,-4 -6,-8 -3,-2 -9,-6 -1,-8 3,-19 5,-28 1,-2 1,-3 1,-5l1 -12 2 0c3,0 6,1 13,0 12,-3 5,0 16,-5 6,-3 12,-7 17,-10 2,-1 13,-9 15,-13 -4,-8 -19,-18 -25,-26 -7,-7 -19,-15 -26,-22z"/>
   <path class="fil8" d="M377 201c-3,-2 -3,-1 -4,2 0,2 2,4 4,2 2,-2 2,-3 0,-4z"/>
   <path class="fil8" d="M398 227c-3,-2 -2,0 -4,1 -1,1 2,5 4,2 2,-1 2,-3 0,-3z"/>
   <path class="fil8" d="M308 210c-8,-6 -5,13 0,4 0,-1 0,-4 0,-4z"/>
   <path class="fil8" d="M399 310c-1,-1 -2,-2 -4,1 -2,2 2,3 4,2 2,-1 2,-2 0,-3z"/>
   <path class="fil4" d="M347 126c1,-2 17,-12 20,-14l9 14c-6,4 -12,9 -17,14l-12 -14zm26 -17c29,-15 66,-11 98,8 -39,-15 -71,-11 -89,6l-9 -14z"/>
  </g>
 </g>
</svg>
