<?xml version="1.0" encoding="UTF-8"?>
<!DOCTYPE svg PUBLIC "-//W3C//DTD SVG 1.1//EN" "http://www.w3.org/Graphics/SVG/1.1/DTD/svg11.dtd">
<!-- Creator: CorelDRAW X7 -->
<svg xmlns="http://www.w3.org/2000/svg" xml:space="preserve" width="1000px" height="1500px" version="1.1" style="shape-rendering:geometricPrecision; text-rendering:geometricPrecision; image-rendering:optimizeQuality; fill-rule:evenodd; clip-rule:evenodd"
viewBox="0 0 1000 1500"
 xmlns:xlink="http://www.w3.org/1999/xlink">
 <defs>
  <style type="text/css">
   <![CDATA[
    .fil4 {fill:#FEFEFE}
    .fil8 {fill:#D9DADA}
    .fil9 {fill:#C5C6C6}
    .fil12 {fill:#898989}
    .fil7 {fill:#2B2A29}
    .fil3 {fill:#2B2A29}
    .fil11 {fill:#FFF16A}
    .fil5 {fill:#FFED00}
    .fil15 {fill:#87251D}
    .fil6 {fill:#DE2025}
    .fil2 {fill:#7690C9}
    .fil14 {fill:#7E71B1}
    .fil1 {fill:#A2D9F7;fill-rule:nonzero}
    .fil0 {fill:#7690C9;fill-rule:nonzero}
    .fil10 {fill:url(#id10)}
    .fil13 {fill:url(#id11)}
    .fil16 {fill:url(#id12)}
   ]]>
  </style>
      <mask id="id0">
  <linearGradient id="id1" gradientUnits="userSpaceOnUse" x1="245.478" y1="233.62" x2="242.495" y2="432.657">
   <stop offset="0" style="stop-opacity:1; stop-color:white"/>
   <stop offset="1" style="stop-opacity:0; stop-color:white"/>
  </linearGradient>
       <rect style="fill:url(#id1)" x="190" y="220" width="108" height="227"/>
      </mask>
      <mask id="id2">
  <linearGradient id="id3" gradientUnits="userSpaceOnUse" x1="347.227" y1="404.733" x2="346.079" y2="509.944">
   <stop offset="0" style="stop-opacity:1; stop-color:white"/>
   <stop offset="1" style="stop-opacity:0; stop-color:white"/>
  </linearGradient>
       <rect style="fill:url(#id3)" x="280" y="356" width="132" height="203"/>
      </mask>
     <mask id="id4">
  <linearGradient id="id5" gradientUnits="userSpaceOnUse" x1="445.178" y1="188.827" x2="394.948" y2="113.671">
   <stop offset="0" style="stop-opacity:1; stop-color:white"/>
   <stop offset="1" style="stop-opacity:0; stop-color:white"/>
  </linearGradient>
      <rect style="fill:url(#id5)" x="376" y="88" width="87.9544" height="126.37"/>
     </mask>
     <mask id="id6">
  <linearGradient id="id7" gradientUnits="userSpaceOnUse" x1="437.905" y1="230.253" x2="315.073" y2="292.683">
   <stop offset="0" style="stop-opacity:1; stop-color:white"/>
   <stop offset="1" style="stop-opacity:0; stop-color:white"/>
  </linearGradient>
      <rect style="fill:url(#id7)" x="294" y="116" width="165" height="290"/>
     </mask>
     <mask id="id8">
  <linearGradient id="id9" gradientUnits="userSpaceOnUse" x1="373.917" y1="208.986" x2="289.783" y2="288.188">
   <stop offset="0" style="stop-opacity:1; stop-color:white"/>
   <stop offset="1" style="stop-opacity:0; stop-color:white"/>
  </linearGradient>
      <rect style="fill:url(#id9)" x="279" y="119" width="105" height="260"/>
     </mask>
  <linearGradient id="id10" gradientUnits="userSpaceOnUse" x1="272.116" y1="348.004" x2="317.345" y2="430.937">
   <stop offset="0" style="stop-opacity:1; stop-color:#898989"/>
   <stop offset="0.360784" style="stop-opacity:1; stop-color:#FEFEFE"/>
   <stop offset="1" style="stop-opacity:1; stop-color:#898989"/>
  </linearGradient>
  <linearGradient id="id11" gradientUnits="userSpaceOnUse" xlink:href="#id10" x1="267.32" y1="401.183" x2="288.453" y2="440.779">
  </linearGradient>
  <radialGradient id="id12" gradientUnits="userSpaceOnUse" gradientTransform="matrix(2.91123 -0 -0 1.90458 -660 -242)" cx="345.264" cy="267.803" r="58.3028" fx="345.264" fy="267.803">
   <stop offset="0" style="stop-opacity:1; stop-color:#FEFEFE"/>
   <stop offset="1" style="stop-opacity:1; stop-color:#A2D9F7"/>
  </radialGradient>
 </defs>
 <g id="Layer_x0020_1">
  <metadata id="CorelCorpID_0Corel-Layer"/>
  <g id="_599567032">
   <g>
    <path class="fil0" d="M388 347c7,12 19,33 24,46 17,42 20,84 14,124 -5,39 -18,76 -35,106 -9,17 -20,32 -31,45 -13,16 -39,29 -68,44 -37,19 -81,42 -116,77 -43,44 -68,91 -80,137 -8,29 -11,58 -9,86 1,27 7,54 15,79 17,47 44,87 74,111 72,57 166,41 238,29 27,-4 51,-8 70,-7 72,3 184,82 266,149l0 17c-82,-67 -195,-147 -267,-151 -18,0 -42,4 -69,8 -72,12 -167,28 -242,-31 -32,-26 -60,-67 -78,-117 -9,-27 -15,-56 -16,-86 -2,-30 1,-62 10,-94 13,-49 39,-98 84,-143 35,-36 80,-59 117,-79 29,-15 54,-28 66,-42 10,-12 21,-27 30,-43 15,-28 28,-62 32,-98 5,-36 2,-75 -13,-113 -4,-12 -15,-31 -23,-43l7 -11z"/>
    <path class="fil1" d="M394 379l6 -10 4 6 -7 10 -3 -6zm9 19l8 -9 2 7 -7 9 -3 -7zm7 21l9 -7 2 7 -8 7 -3 -7zm6 22l9 -4 1 8 -9 5 -1 -9zm3 24l9 -1 0 8 -9 2 0 -9zm0 25l10 2 -1 8 -9 -2 0 -8zm-2 24l9 4 -1 9 -9 -5 1 -8zm-4 24l8 6 -1 8 -9 -7 2 -7zm-6 22l8 8 -3 7 -7 -8 2 -7zm-8 21l8 9 -3 7 -7 -9 2 -7zm-8 19l7 10 -4 7 -6 -10 3 -7zm-10 18l6 12 -3 6 -7 -12 4 -6zm-11 17l6 12 -3 5 -6 -12 3 -5zm-11 15l6 13 -4 5 -6 -13 4 -5zm-12 13l4 14 -5 4 -3 -15 4 -3zm-13 9l3 15 -4 3 -4 -15 5 -3zm-14 8l3 15 -4 3 -3 -15 4 -3zm-13 8l2 15 -4 2 -3 -15 5 -2zm-14 7l3 15 -5 2 -3 -15 5 -2zm-14 7l3 15 -5 3 -2 -16 4 -2zm-13 7l3 15 -5 3 -3 -15 5 -3zm-14 8l3 15 -5 2 -2 -15 4 -2zm-13 7l3 15 -5 3 -3 -15 5 -3zm-14 9l3 15 -4 3 -3 -15 4 -3zm-13 9l3 14 -4 4 -4 -15 5 -3zm-13 10l4 14 -5 3 -4 -14 5 -3zm-13 10l4 14 -4 4 -4 -14 4 -4zm-13 12l5 13 -4 5 -5 -14 4 -4zm-12 13l5 13 -4 4 -5 -13 4 -4zm-12 13l6 13 -4 5 -6 -13 4 -5zm-11 15l6 12 -4 6 -6 -13 4 -5zm-11 16l6 12 -3 5 -7 -11 4 -6zm-10 17l6 11 -3 6 -7 -11 4 -6zm-10 18l7 10 -3 7 -7 -10 3 -7zm-8 20l7 8 -2 7 -8 -8 3 -7zm-8 21l8 7 -2 7 -8 -7 2 -7zm-6 22l9 5 -2 8 -9 -5 2 -8zm-4 23l8 4 -1 8 -9 -3 2 -9zm-3 24l9 2 0 8 -10 -1 1 -9zm-1 25l9 -1 1 9 -10 0 0 -8zm2 24l8 -3 1 9 -9 3 0 -9zm3 24l8 -4 2 8 -9 4 -1 -8zm5 24l8 -7 2 8 -8 6 -2 -7zm6 21l8 -7 2 7 -8 8 -2 -8zm8 21l7 -9 3 7 -8 9 -2 -7zm8 20l7 -11 3 7 -6 10 -4 -6zm10 18l6 -12 4 6 -6 11 -4 -5zm11 16l5 -12 4 5 -6 12 -3 -5zm11 15l5 -13 4 5 -5 13 -4 -5zm12 14l4 -14 5 5 -5 13 -4 -4zm12 12l4 -14 5 3 -4 15 -5 -4zm13 10l3 -14 5 3 -3 14 -5 -3zm13 9l4 -15 4 3 -3 15 -5 -3zm14 7l3 -15 4 3 -2 15 -5 -3zm14 7l2 -16 5 2 -2 15 -5 -1zm14 5l1 -16 5 2 -1 15 -5 -1zm14 4l1 -16 5 1 -1 16 -5 -1zm14 3l1 -16 5 1 -1 15 -5 0zm14 1l1 -15 5 0 -1 16 -5 -1zm15 2l0 -16 5 0 0 16 -5 0zm14 0l0 -15 5 0 0 15 -5 0zm14 0l0 -16 5 0 0 16 -5 0zm14 0l0 -16 5 -1 0 16 -5 1zm15 -2l-1 -15 5 -1 1 16 -5 0zm14 -1l-1 -16 5 0 1 15 -5 1zm14 -2l-1 -16 5 0 1 15 -5 1zm14 -2l0 -16 5 0 0 15 -5 1zm15 -2l-1 -16 5 -1 1 16 -5 1zm14 -3l-1 -15 5 -1 1 16 -5 0zm14 -2l-1 -15 5 -1 1 15 -5 1zm14 -2l0 -16 4 0 1 15 -5 1zm15 -2l-1 -15 5 -1 0 16 -4 0zm14 -1l0 -15 5 0 0 15 -5 0zm14 1l1 -16 4 1 0 16 -5 -1zm14 2l2 -15 4 1 -1 15 -5 -1zm14 4l2 -16 5 2 -2 15 -5 -1zm14 5l2 -16 5 2 -2 15 -5 -1zm14 5l3 -15 4 2 -2 15 -5 -2zm14 6l3 -15 4 2 -2 15 -5 -2zm14 7l3 -15 4 2 -2 15 -5 -2zm14 7l2 -15 5 3 -3 15 -4 -3zm13 8l3 -15 5 3 -3 14 -5 -2zm14 8l3 -15 4 3 -3 15 -4 -3zm13 8l3 -15 5 3 -3 15 -5 -3zm13 9l4 -15 4 3 -3 15 -5 -3zm14 9l3 -15 5 3 -4 15 -4 -3zm13 9l4 -15 4 4 -3 14 -5 -3zm13 9l4 -14 4 3 -3 15 -5 -4zm13 10l4 -14 4 3 -3 14 -5 -3zm13 10l4 -15 5 4 -4 14 -5 -3zm14 10l3 -15 5 4 -4 14 -4 -3zm13 10l3 -14 5 3 -4 14 -4 -3zm12 10l4 -14 1 1 0 15 0 2 -5 -4z"/>
   </g>
   <g>
    <g>
     <path class="fil2" d="M297 228l0 0c-12,40 -19,82 -20,122l0 0c-14,-24 -38,-39 -62,54 -8,32 -14,37 -23,41 -1,-10 -1,-20 -1,-30 0,-179 58,-212 106,-187zm-51 46c7,9 8,25 2,36 -5,11 -16,12 -23,3 -7,-8 -8,-24 -2,-35 5,-11 16,-12 23,-4zm-27 62c5,5 6,15 2,22 -4,7 -10,8 -15,2 -4,-5 -5,-15 -1,-22 3,-7 10,-8 14,-2zm-10 48c2,3 3,8 1,12 -2,4 -6,4 -8,1 -3,-3 -3,-8 -1,-12 2,-4 5,-4 8,-1z"/>
     <path class="fil2" d="M400 357l0 0c-23,26 -49,45 -74,54l0 0c18,16 33,49 -23,104 -19,19 -21,28 -21,43 6,-2 13,-3 19,-5 115,-35 124,-129 99,-196zm-19 85c-8,-8 -18,-7 -24,4 -6,11 -4,27 3,36 7,8 17,7 23,-4 6,-11 5,-27 -2,-36zm-35 52c-4,-5 -11,-4 -14,3 -4,7 -3,17 1,22 5,6 11,5 15,-2 4,-7 3,-17 -2,-23zm-28 26c-3,-3 -6,-3 -8,1 -2,4 -2,9 1,12 2,3 6,3 8,-1 2,-4 1,-9 -1,-12z"/>
    </g>
    <path class="fil3" d="M298 225l1 2 0 2c-12,38 -19,80 -20,122l-1 6 -3 -5 0 0c-4,-7 -9,-14 -15,-17 -22,-8 -38,48 -44,70 -2,10 -5,20 -8,28 -3,5 -6,9 -10,12 -2,1 -4,2 -6,3l-2 1 0 -3c0,-11 -1,-21 -1,-31 0,-47 4,-103 21,-144 11,-28 27,-47 48,-52 13,-3 27,0 39,6l1 0zm104 130c6,18 11,38 11,58 1,15 -1,29 -4,43 -4,15 -11,29 -19,40 -23,33 -58,50 -89,59 -6,2 -13,4 -19,6l-2 0 0 -3c0,-4 0,-7 1,-10 1,-7 3,-12 6,-16 4,-8 10,-14 15,-19 14,-13 46,-48 37,-79 -3,-9 -9,-15 -14,-20l0 0 -3 -4 3 -1c27,-10 52,-29 74,-54l2 -2 1 2 0 0zm-157 -78c-6,-8 -16,-7 -21,3 -5,9 -4,23 2,31 6,8 16,7 21,-3 5,-9 4,-24 -2,-31zm-27 61c-3,-5 -9,-4 -12,2 -3,5 -2,14 1,18 4,5 9,4 12,-2 3,-5 3,-13 -1,-18zm-10 48c-2,-2 -5,-2 -6,1 -1,2 -1,6 1,8 1,2 4,2 5,-1 2,-2 1,-6 0,-8zm171 59c-6,-8 -15,-7 -20,3 -5,9 -5,24 2,31 6,8 15,7 20,-3 6,-9 5,-24 -2,-31zm-34 52c-3,-5 -9,-4 -12,1 -3,6 -2,14 1,19 4,5 10,4 13,-2 3,-6 2,-14 -2,-18zm-28 25c-2,-2 -4,-2 -6,1 -1,2 -1,6 1,8 1,2 4,2 5,-1 2,-2 1,-6 0,-8z"/>
    <path class="fil2" d="M297 228l0 0c-12,40 -19,82 -20,122l0 0c-14,-24 -38,-39 -62,54 -8,32 -14,37 -23,41 -1,-10 -1,-20 -1,-30 0,-179 58,-212 106,-187zm103 129l0 0c-23,26 -49,45 -74,54l0 0c18,16 33,49 -23,104 -19,19 -21,28 -21,43 6,-2 13,-3 19,-5 115,-35 124,-129 99,-196zm-19 85c-8,-8 -18,-7 -24,4 -6,11 -4,27 3,36 7,8 17,7 23,-4 6,-11 5,-27 -2,-36zm-35 52c-4,-5 -11,-4 -14,3 -4,7 -3,17 1,22 5,6 11,5 15,-2 4,-7 3,-17 -2,-23zm-28 26c-3,-3 -6,-3 -8,1 -2,4 -2,9 1,12 2,3 6,3 8,-1 2,-4 1,-9 -1,-12zm-72 -246c7,9 8,25 2,36 -5,11 -16,12 -23,3 -7,-8 -8,-24 -2,-35 5,-11 16,-12 23,-4zm-27 62c5,5 6,15 2,22 -4,7 -10,8 -15,2 -4,-5 -5,-15 -1,-22 3,-7 10,-8 14,-2zm-10 48c2,3 3,8 1,12 -2,4 -6,4 -8,1 -3,-3 -3,-8 -1,-12 2,-4 5,-4 8,-1z"/>
    <g>
     <path class="fil4" style="mask:url(#id0)" d="M297 228l0 0c-12,40 -19,82 -20,122l0 0c-14,-24 -38,-39 -62,54 -8,32 -14,37 -23,41 -1,-10 -1,-20 -1,-30 0,-179 58,-212 106,-187zm-51 46c7,9 8,25 2,36 -5,11 -16,12 -23,3 -7,-8 -8,-24 -2,-35 5,-11 16,-12 23,-4zm-27 62c5,5 6,15 2,22 -4,7 -10,8 -15,2 -4,-5 -5,-15 -1,-22 3,-7 10,-8 14,-2zm-10 48c2,3 3,8 1,12 -2,4 -6,4 -8,1 -3,-3 -3,-8 -1,-12 2,-4 5,-4 8,-1z"/>
     <path class="fil4" style="mask:url(#id2)" d="M400 357l0 0c-23,26 -49,45 -74,54l0 0c18,16 33,49 -23,104 -19,19 -21,28 -21,43 6,-2 13,-3 19,-5 115,-35 124,-129 99,-196zm-19 85c-8,-8 -18,-7 -24,4 -6,11 -4,27 3,36 7,8 17,7 23,-4 6,-11 5,-27 -2,-36zm-35 52c-4,-5 -11,-4 -14,3 -4,7 -3,17 1,22 5,6 11,5 15,-2 4,-7 3,-17 -2,-23zm-28 26c-3,-3 -6,-3 -8,1 -2,4 -2,9 1,12 2,3 6,3 8,-1 2,-4 1,-9 -1,-12z"/>
    </g>
    <path class="fil5" d="M280 420c-12,-12 -54,-22 -67,29 -2,7 -13,57 -12,58 13,-26 42,-74 13,14 -17,50 -21,15 -38,123 1,1 68,-117 40,-38 22,-25 36,-48 46,-82 4,-12 16,-18 8,13 37,-68 11,-116 10,-117z"/>
    <path class="fil3" d="M458 89c6,29 8,59 6,89 -2,33 -8,65 -17,94 -14,45 -35,85 -63,112 -12,12 -25,21 -40,27 -13,5 -27,7 -41,4 -6,-1 -11,-3 -16,-5l-1 0 -1 -1c-2,-8 -4,-16 -6,-24 -9,-42 -7,-87 4,-128 11,-47 33,-87 59,-117 17,-19 36,-34 57,-44 18,-8 38,-11 58,-9l1 1 0 1z"/>
    <path class="fil2" d="M287 407c-28,-81 -5,-195 56,-264 35,-41 77,-58 114,-53 10,54 8,120 -11,181 -33,105 -101,162 -159,136z"/>
    <path class="fil6" d="M377 112c27,-18 54,-26 80,-22 7,38 8,80 2,123 -16,-4 -34,-17 -49,-36 -15,-19 -26,-42 -33,-65z"/>
    <path class="fil7" style="mask:url(#id4)" d="M377 112c27,-18 54,-26 80,-22 7,38 8,80 2,123 -16,-4 -34,-17 -49,-36 -15,-19 -26,-42 -33,-65z"/>
    <path class="fil3" d="M396 204c10,13 17,32 18,52 1,20 -3,41 -11,56 -9,16 -21,26 -34,28 -13,2 -27,-4 -37,-17 -10,-13 -17,-31 -18,-52 -2,-20 2,-40 11,-56 8,-16 20,-26 34,-28 13,-2 26,4 37,17z"/>
    <path class="fil8" d="M394 206c21,26 24,73 7,105 -17,31 -47,36 -68,10 -21,-26 -24,-72 -7,-104 17,-32 48,-37 68,-11z"/>
    <path class="fil3" d="M386 223c15,18 17,52 5,74 -12,23 -34,26 -49,8 -15,-19 -17,-52 -5,-75 12,-23 34,-26 49,-7z"/>
    <path class="fil3" d="M393 209c2,3 2,7 0,10 -1,2 -4,3 -6,0 -1,-2 -2,-6 0,-9 1,-2 4,-3 6,-1z"/>
    <polygon class="fil9" points="391,209 391,213 394,213 394,215 391,215 391,219 390,220 390,216 387,216 387,214 389,213 389,209 "/>
    <path class="fil3" d="M340 309c2,2 2,6 0,9 -1,2 -4,3 -6,1 -1,-3 -2,-7 0,-9 1,-3 4,-4 6,-1z"/>
    <polygon class="fil9" points="338,308 338,312 340,312 341,314 338,315 338,319 337,319 336,315 334,315 334,313 336,313 336,309 "/>
    <path class="fil3" d="M334 218c2,3 2,7 1,10 -2,2 -4,3 -6,0 -2,-2 -2,-6 -1,-9 2,-2 4,-3 6,-1z"/>
    <polygon class="fil9" points="332,218 332,222 335,222 335,224 332,224 333,228 331,229 331,225 328,225 328,223 331,222 330,218 "/>
    <path class="fil3" d="M399 299c2,3 2,7 1,10 -2,2 -5,3 -6,0 -2,-2 -2,-6 -1,-9 2,-2 4,-3 6,-1z"/>
    <polygon class="fil9" points="397,299 397,303 400,303 400,305 397,305 397,310 396,310 396,306 393,306 393,304 396,303 395,299 "/>
    <path class="fil3" d="M351 203c0,2 0,4 -1,4 -1,1 -3,0 -3,-2 0,-1 0,-3 1,-4 1,-1 3,0 3,2z"/>
    <path class="fil3" d="M373 201c-1,2 -2,3 -3,3 -1,0 -2,-2 -2,-4 1,-1 2,-3 3,-2 1,0 2,2 2,3z"/>
    <path class="fil3" d="M404 244c-2,1 -3,0 -3,-2 -1,-1 0,-3 1,-4 1,0 2,0 3,2 0,2 0,4 -1,4z"/>
    <path class="fil3" d="M405 277c-2,0 -2,-2 -2,-4 0,-1 1,-2 2,-2 1,0 2,2 2,4 0,1 -1,2 -2,2z"/>
    <path class="fil3" d="M377 325c-1,-2 0,-4 1,-5 1,0 2,1 3,2 0,2 -1,4 -2,4 -1,1 -2,0 -2,-1z"/>
    <path class="fil3" d="M355 326c0,-2 1,-3 2,-3 2,1 2,2 2,4 0,2 -1,3 -2,3 -1,0 -2,-2 -2,-4z"/>
    <path class="fil3" d="M324 283c1,0 2,1 3,2 0,2 0,4 -1,4 -2,1 -3,0 -3,-2 -1,-1 0,-3 1,-4z"/>
    <path class="fil3" d="M323 250c1,1 2,2 2,4 0,2 -2,3 -3,3 -1,-1 -2,-2 -1,-4 0,-2 1,-3 2,-3z"/>
    <path class="fil3" d="M277 353l45 55c2,3 2,7 1,10l-4 7c-2,3 -5,4 -7,1l-44 -55c-2,-3 -3,-7 -1,-11l4 -6c1,-4 4,-4 6,-1z"/>
    <path class="fil10" d="M276 355l45 55c1,2 1,5 0,7l-4 7c-1,2 -2,2 -4,0l-44 -55c-2,-2 -2,-5 -1,-7l4 -7c1,-2 3,-2 4,0z"/>
    <path class="fil4" d="M383 118c1,-1 11,-7 13,-8l3 10c-4,3 -8,7 -12,11l-4 -13zm16 -10c21,-13 42,-16 54,-12 -20,-1 -36,13 -51,22l-3 -10z"/>
    <path class="fil11" d="M280 420c-9,-9 -40,-17 -51,21 -1,6 -9,44 -8,44 9,-19 31,-56 9,11 -12,38 -15,11 -29,92 1,1 52,-87 30,-28 17,-19 28,-36 36,-62 2,-9 11,-14 6,10 27,-51 8,-88 7,-88z"/>
    <path class="fil4" d="M282 415c-5,-4 -20,-8 -25,11 -1,3 -5,22 -4,22 4,-10 15,-28 4,5 -6,19 -8,6 -14,47 0,0 26,-44 15,-15 8,-9 14,-18 17,-31 2,-4 6,-6 4,5 13,-25 4,-43 3,-44z"/>
    <path class="fil3" d="M281 381l22 27c4,4 4,12 1,18l-3 7c-3,5 -9,6 -12,1l-22 -27c-3,-4 -4,-12 -1,-18l4 -7c3,-5 8,-6 11,-1z"/>
    <path class="fil12" d="M280 383l22 27c3,3 3,10 1,14l-4 7c-2,4 -6,5 -9,1l-22 -27c-2,-4 -3,-10 -1,-14l4 -7c2,-4 6,-5 9,-1z"/>
    <path class="fil3" d="M269 403l22 27c2,2 2,6 1,8 -2,3 -4,3 -6,1l-21 -27c-2,-2 -2,-6 -1,-8 1,-3 4,-3 5,-1z"/>
    <path class="fil13" d="M268 405l22 27c1,1 1,3 0,5l0 0c0,1 -2,1 -3,0l-21 -27c-1,-1 -1,-3 -1,-5l0 0c1,-1 2,-1 3,0z"/>
    <path class="fil14" style="mask:url(#id6)" d="M295 378c54,12 115,-44 144,-141 13,-39 18,-81 17,-120 4,46 0,98 -15,146 -26,85 -76,138 -124,143l-22 -28z"/>
    <path class="fil15" d="M447 209c7,-31 10,-62 9,-92 3,30 2,62 -3,94 -2,-1 -4,-1 -6,-2z"/>
    <path class="fil4" style="mask:url(#id8)" d="M281 361c-6,-74 21,-160 72,-216 9,-10 18,-18 27,-25 1,3 2,7 3,11 -6,5 -12,11 -18,18 -54,59 -81,152 -71,228l-13 -16z"/>
    <path class="fil16" d="M385 225c14,17 16,49 4,71 -11,21 -32,25 -46,7 -14,-18 -16,-50 -5,-71 12,-22 33,-25 47,-7z"/>
   </g>
  </g>
 </g>
</svg>
