<?xml version="1.0" encoding="UTF-8"?>
<!DOCTYPE svg PUBLIC "-//W3C//DTD SVG 1.1//EN" "http://www.w3.org/Graphics/SVG/1.1/DTD/svg11.dtd">
<!-- Creator: CorelDRAW X7 -->
<svg xmlns="http://www.w3.org/2000/svg" xml:space="preserve" width="120px" height="120px" version="1.1" style="shape-rendering:geometricPrecision; text-rendering:geometricPrecision; image-rendering:optimizeQuality; fill-rule:evenodd; clip-rule:evenodd"
viewBox="0 0 120 120"
 xmlns:xlink="http://www.w3.org/1999/xlink">
 <defs>
  <style type="text/css">
   <![CDATA[
    .fil1 {fill:#FEFEFE}
    .fil0 {fill:#FEFEFE}
   ]]>
  </style>
 </defs>
 <g id="Layer_x0020_1">
  <metadata id="CorelCorpID_0Corel-Layer"/>
  <path class="fil1" d="M66 59c0,4 -4,8 -8,8 -4,0 -8,-4 -8,-8 0,-4 4,-8 8,-8 4,0 8,4 8,8zm33 18c-1,-4 -2,-9 -4,-14 3,-6 5,-12 6,-17 6,4 9,9 9,14 0,7 -4,12 -11,17zm-6 -19c-2,-5 -5,-10 -8,-15 -1,-3 -1,-2 -3,-4 -1,-1 -4,-1 -6,-2 3,3 4,4 6,8 4,6 7,12 9,18 -2,4 -4,7 -6,11 -3,4 -5,7 -8,11 -5,1 -11,1 -17,1 -4,0 -8,0 -12,0 -2,-1 -7,-2 -7,-2 -5,-1 -10,-2 -14,-4 1,-4 2,-8 3,-12 1,2 3,5 5,7 2,4 3,5 5,8 2,0 4,0 6,1 -3,-4 -5,-5 -8,-11 -2,-4 -4,-7 -6,-11 2,-5 5,-11 8,-16 3,-4 5,-8 8,-11l0 0c4,-1 8,-1 12,-1 5,0 10,1 15,1 2,1 4,1 6,2 6,1 12,3 17,6 -1,5 -3,10 -5,15zm-10 25c2,-2 4,-4 5,-7 2,-3 3,-5 5,-8 1,4 1,8 2,11 -4,2 -8,3 -12,4zm-12 8c-3,4 -6,6 -9,8 -4,-2 -7,-4 -10,-7 -2,0 -4,0 -6,-1 4,4 8,8 12,11 -9,5 -18,7 -24,3 -5,-3 -8,-10 -7,-19l0 -2c5,3 12,4 19,5 2,1 4,1 6,1 3,0 5,0 8,0 4,0 9,0 13,0 -1,0 -1,1 -2,1zm-61 -31c0,-6 4,-12 12,-17 1,0 2,-1 4,-2 4,-2 10,-4 16,-5 0,0 0,0 0,1 -2,2 -3,4 -5,7 -3,4 -5,9 -7,13 -2,-5 -3,-9 -4,-14 -1,1 -2,2 -3,2 0,6 2,12 5,18 -3,5 -4,10 -5,15 -8,-5 -13,-11 -13,-18zm43 -30c3,-3 6,-6 10,-9 2,2 5,5 8,8 2,0 4,0 6,1 -4,-4 -7,-8 -11,-11 10,-7 19,-9 25,-4 6,3 8,10 8,19 0,2 0,3 -1,5 -5,-3 -13,-6 -21,-7 -2,-1 -4,-1 -6,-1 -4,-1 -7,-1 -11,-1 -3,0 -5,0 -8,0 0,0 1,0 1,0zm49 11l0 0c1,-2 1,-3 1,-5 1,-11 -2,-21 -9,-25 -9,-5 -20,-3 -31,5 -8,-6 -15,-9 -22,-9 -4,0 -8,0 -11,2 -7,5 -10,16 -9,28l0 0c1,-1 3,-1 4,-2 0,-10 2,-19 8,-22 2,-2 5,-2 8,-2 5,0 12,3 18,8 -4,3 -9,7 -13,12 -8,1 -15,3 -21,6 -1,1 -3,1 -4,2 -9,5 -15,13 -15,21 0,9 6,17 17,22 0,1 0,1 0,2 -1,11 2,20 9,25 8,5 19,3 30,-5 6,4 12,6 17,6 4,0 8,-1 11,-3 6,-5 9,-13 9,-24 -1,1 -3,2 -4,2 0,9 -3,15 -8,18 -2,2 -5,2 -8,2 -4,0 -9,-1 -13,-3 4,-3 8,-7 12,-12 0,0 1,-1 1,-2 6,-1 11,-2 16,-5 1,0 3,-1 4,-2 10,-5 15,-12 15,-21 0,-7 -4,-14 -12,-19z"/>
 </g>
</svg>
