<?xml version="1.0" encoding="UTF-8"?>
<!DOCTYPE svg PUBLIC "-//W3C//DTD SVG 1.1//EN" "http://www.w3.org/Graphics/SVG/1.1/DTD/svg11.dtd">
<!-- Creator: CorelDRAW X7 -->
<svg xmlns="http://www.w3.org/2000/svg" xml:space="preserve" width="170px" height="200px" version="1.1" style="shape-rendering:geometricPrecision; text-rendering:geometricPrecision; image-rendering:optimizeQuality; fill-rule:evenodd; clip-rule:evenodd"
viewBox="0 0 170 200"
 xmlns:xlink="http://www.w3.org/1999/xlink">
 <defs>
  <style type="text/css">
   <![CDATA[
    .fil2 {fill:#FEFEFE}
    .fil6 {fill:#D9DADA}
    .fil7 {fill:#C5C6C6}
    .fil10 {fill:#898989}
    .fil5 {fill:#2B2A29}
    .fil1 {fill:#2B2A29}
    .fil9 {fill:#FFF16A}
    .fil3 {fill:#FFED00}
    .fil13 {fill:#87251D}
    .fil4 {fill:#DE2025}
    .fil0 {fill:#7690C9}
    .fil12 {fill:#7E71B1}
    .fil8 {fill:url(#id10)}
    .fil11 {fill:url(#id11)}
    .fil14 {fill:url(#id12)}
   ]]>
  </style>
     <mask id="id0">
  <linearGradient id="id1" gradientUnits="userSpaceOnUse" x1="47.8268" y1="56.8612" x2="46.8063" y2="124.99">
   <stop offset="0" style="stop-opacity:1; stop-color:white"/>
   <stop offset="1" style="stop-opacity:0; stop-color:white"/>
  </linearGradient>
      <rect style="fill:url(#id1)" x="19" y="51" width="57.5226" height="78.9728"/>
     </mask>
     <mask id="id2">
  <linearGradient id="id3" gradientUnits="userSpaceOnUse" x1="101.032" y1="115.274" x2="100.64" y2="151.289">
   <stop offset="0" style="stop-opacity:1; stop-color:white"/>
   <stop offset="1" style="stop-opacity:0; stop-color:white"/>
  </linearGradient>
      <rect style="fill:url(#id3)" x="66" y="98" width="70.1499" height="70.8892"/>
     </mask>
    <mask id="id4">
  <linearGradient id="id5" gradientUnits="userSpaceOnUse" x1="149.099" y1="43.8488" x2="129.11" y2="13.9407">
   <stop offset="0" style="stop-opacity:1; stop-color:white"/>
   <stop offset="1" style="stop-opacity:0; stop-color:white"/>
  </linearGradient>
     <rect style="fill:url(#id5)" x="116" y="7" width="46.9811" height="44.6532"/>
    </mask>
    <mask id="id6">
  <linearGradient id="id7" gradientUnits="userSpaceOnUse" x1="143.159" y1="52.8773" x2="89.6182" y2="80.0901">
   <stop offset="0" style="stop-opacity:1; stop-color:white"/>
   <stop offset="1" style="stop-opacity:0; stop-color:white"/>
  </linearGradient>
     <rect style="fill:url(#id7)" x="73" y="16" width="87.1685" height="100.621"/>
    </mask>
    <mask id="id8">
  <linearGradient id="id9" gradientUnits="userSpaceOnUse" x1="109.722" y1="46.4615" x2="76.5161" y2="77.7208">
   <stop offset="0" style="stop-opacity:1; stop-color:white"/>
   <stop offset="1" style="stop-opacity:0; stop-color:white"/>
  </linearGradient>
     <rect style="fill:url(#id9)" x="65" y="17" width="55.8962" height="90.1378"/>
    </mask>
  <linearGradient id="id10" gradientUnits="userSpaceOnUse" x1="61.9813" y1="95.995" x2="85.5575" y2="124.279">
   <stop offset="0" style="stop-opacity:1; stop-color:#898989"/>
   <stop offset="0.360784" style="stop-opacity:1; stop-color:#FEFEFE"/>
   <stop offset="1" style="stop-opacity:1; stop-color:#898989"/>
  </linearGradient>
  <linearGradient id="id11" gradientUnits="userSpaceOnUse" xlink:href="#id10" x1="59.4809" y1="114.132" x2="70.4983" y2="127.635">
  </linearGradient>
  <radialGradient id="id12" gradientUnits="userSpaceOnUse" gradientTransform="matrix(1.9045 -0 -0 1.9045 -91 -62)" cx="100.112" cy="68.6439" r="150.688" fx="100.112" fy="68.6439">
   <stop offset="0" style="stop-opacity:1; stop-color:#FEFEFE"/>
   <stop offset="1" style="stop-opacity:1; stop-color:#A2D9F7"/>
  </radialGradient>
 </defs>
 <g id="Layer_x0020_1">
  <metadata id="CorelCorpID_0Corel-Layer"/>
  <g id="_396854112">
   <g>
    <path class="fil0" d="M75 55l0 0c-6,14 -10,28 -11,42l0 0c-7,-9 -19,-14 -32,18 -4,11 -7,13 -12,14 0,-3 0,-7 0,-10 -1,-61 30,-72 55,-64zm-27 16c4,3 5,8 2,12 -3,4 -9,4 -13,1 -3,-3 -4,-8 -1,-12 3,-4 9,-4 12,-1zm-13 21c2,2 2,5 0,7 -2,3 -5,3 -7,1 -3,-2 -3,-5 -1,-7 2,-3 5,-3 8,-1zm-6 16c1,1 1,3 0,4 -1,2 -3,2 -4,1 -1,-1 -1,-3 0,-4 1,-2 3,-2 4,-1z"/>
    <path class="fil0" d="M129 99l0 0c-12,9 -26,15 -39,19l0 0c9,5 17,16 -12,35 -10,6 -11,10 -11,15 3,-1 7,-2 10,-2 60,-12 65,-44 52,-67zm-11 29c-3,-3 -9,-2 -12,1 -3,4 -2,10 2,13 3,3 9,2 12,-2 3,-3 2,-9 -2,-12zm-17 18c-3,-2 -6,-2 -8,1 -2,2 -2,5 1,7 2,2 6,2 7,0 2,-3 2,-6 0,-8zm-15 9c-1,-1 -3,-1 -4,0 -1,1 -1,3 0,4 1,1 3,1 4,0 1,-1 1,-3 0,-4z"/>
   </g>
   <path class="fil1" d="M75 54l1 1 0 0c-6,13 -10,28 -11,42l0 2 -1 -2 0 0c-2,-2 -5,-4 -9,-5 -11,-3 -19,16 -22,24 -1,3 -3,6 -5,9 -1,2 -2,3 -5,4 -1,0 -2,1 -3,1l-1 0 0 -1c0,-3 0,-7 0,-10 0,-16 2,-35 10,-49 6,-10 15,-16 26,-18 7,-1 14,0 20,2l0 0zm54 45c4,6 6,12 7,19 0,5 -1,10 -3,15 -2,5 -5,10 -9,14 -12,11 -31,17 -47,20 -3,0 -7,1 -10,1l-1 1 0 -2c0,-1 0,-2 0,-3 1,-2 2,-4 4,-5 2,-3 5,-5 8,-7 7,-4 24,-16 19,-27 -2,-3 -5,-5 -8,-7l0 0 -1 -1 2 0c14,-4 27,-10 38,-19l1 0 0 1 0 0zm-81 -27c-4,-3 -8,-3 -11,1 -3,3 -2,8 1,10 3,3 8,3 11,-1 2,-3 2,-8 -1,-10zm-14 21c-2,-2 -5,-2 -6,0 -2,2 -2,5 0,7 2,1 5,1 7,-1 1,-2 1,-5 -1,-6zm-6 16c-1,-1 -2,-1 -3,0 0,1 0,2 1,3 1,1 2,1 3,0 0,-1 0,-2 -1,-3zm90 20c-3,-3 -8,-2 -11,1 -3,3 -2,8 1,11 3,2 8,2 11,-1 3,-4 2,-8 -1,-11zm-18 18c-2,-2 -5,-2 -6,0 -2,2 -1,5 0,7 2,1 5,1 7,-1 1,-2 1,-5 -1,-6zm-15 8c-1,0 -2,0 -3,1 0,1 0,2 1,2 1,1 2,1 3,0 0,-1 0,-2 -1,-3z"/>
   <path class="fil0" d="M75 55l0 0c-6,14 -10,28 -11,42l0 0c-7,-9 -19,-14 -32,18 -4,11 -7,13 -12,14 0,-3 0,-7 0,-10 -1,-61 30,-72 55,-64zm54 44l0 0c-12,9 -26,15 -39,19l0 0c9,5 17,16 -12,35 -10,6 -11,10 -11,15 3,-1 7,-2 10,-2 60,-12 65,-44 52,-67zm-11 29c-3,-3 -9,-2 -12,1 -3,4 -2,10 2,13 3,3 9,2 12,-2 3,-3 2,-9 -2,-12zm-17 18c-3,-2 -6,-2 -8,1 -2,2 -2,5 1,7 2,2 6,2 7,0 2,-3 2,-6 0,-8zm-15 9c-1,-1 -3,-1 -4,0 -1,1 -1,3 0,4 1,1 3,1 4,0 1,-1 1,-3 0,-4zm-38 -84c4,3 5,8 2,12 -3,4 -9,4 -13,1 -3,-3 -4,-8 -1,-12 3,-4 9,-4 12,-1zm-13 21c2,2 2,5 0,7 -2,3 -5,3 -7,1 -3,-2 -3,-5 -1,-7 2,-3 5,-3 8,-1zm-6 16c1,1 1,3 0,4 -1,2 -3,2 -4,1 -1,-1 -1,-3 0,-4 1,-2 3,-2 4,-1z"/>
   <g>
    <path class="fil2" style="mask:url(#id0)" d="M75 55l0 0c-6,14 -10,28 -11,42l0 0c-7,-9 -19,-14 -32,18 -4,11 -7,13 -12,14 0,-3 0,-7 0,-10 -1,-61 30,-72 55,-64zm-27 16c4,3 5,8 2,12 -3,4 -9,4 -13,1 -3,-3 -4,-8 -1,-12 3,-4 9,-4 12,-1zm-13 21c2,2 2,5 0,7 -2,3 -5,3 -7,1 -3,-2 -3,-5 -1,-7 2,-3 5,-3 8,-1zm-6 16c1,1 1,3 0,4 -1,2 -3,2 -4,1 -1,-1 -1,-3 0,-4 1,-2 3,-2 4,-1z"/>
    <path class="fil2" style="mask:url(#id2)" d="M129 99l0 0c-12,9 -26,15 -39,19l0 0c9,5 17,16 -12,35 -10,6 -11,10 -11,15 3,-1 7,-2 10,-2 60,-12 65,-44 52,-67zm-11 29c-3,-3 -9,-2 -12,1 -3,4 -2,10 2,13 3,3 9,2 12,-2 3,-3 2,-9 -2,-12zm-17 18c-3,-2 -6,-2 -8,1 -2,2 -2,5 1,7 2,2 6,2 7,0 2,-3 2,-6 0,-8zm-15 9c-1,-1 -3,-1 -4,0 -1,1 -1,3 0,4 1,1 3,1 4,0 1,-1 1,-3 0,-4z"/>
   </g>
   <path class="fil3" d="M66 121c-6,-4 -28,-8 -35,9 -1,3 -7,20 -6,20 7,-9 22,-25 7,5 -9,17 -11,5 -20,42 0,0 35,-40 21,-13 11,-9 18,-16 24,-28 2,-4 8,-6 4,4 19,-23 6,-39 5,-39z"/>
   <path class="fil1" d="M159 8c3,10 4,20 3,30 -1,11 -4,22 -9,32 -7,15 -18,29 -32,38 -7,4 -14,8 -21,9 -7,2 -15,3 -22,2 -3,0 -6,-1 -9,-2l0 0 0 0c-1,-3 -3,-6 -3,-8 -5,-15 -4,-30 2,-44 6,-16 17,-30 30,-40 9,-6 19,-12 30,-15 10,-3 20,-4 30,-3l1 0 0 1z"/>
   <path class="fil0" d="M70 116c-15,-27 -3,-66 29,-90 18,-14 40,-20 59,-18 6,19 4,41 -6,62 -16,36 -52,55 -82,46z"/>
   <path class="fil4" d="M117 15c14,-6 28,-8 41,-7 4,13 5,27 1,42 -8,-2 -17,-6 -25,-12 -8,-7 -14,-15 -17,-23z"/>
   <path class="fil5" style="mask:url(#id4)" d="M117 15c14,-6 28,-8 41,-7 4,13 5,27 1,42 -8,-2 -17,-6 -25,-12 -8,-7 -14,-15 -17,-23z"/>
   <path class="fil1" d="M126 47c6,4 9,11 10,18 1,7 -2,13 -6,19 -4,5 -11,9 -18,9 -7,1 -13,-1 -19,-5 -5,-5 -9,-11 -9,-18 -1,-7 1,-14 5,-19 5,-6 11,-9 18,-10 7,-1 14,2 19,6z"/>
   <path class="fil6" d="M126 48c11,9 12,24 3,35 -8,11 -24,13 -35,4 -11,-9 -13,-25 -4,-36 9,-11 25,-12 36,-3z"/>
   <path class="fil1" d="M121 53c8,7 9,18 3,26 -7,7 -18,9 -26,2 -7,-6 -9,-17 -2,-25 6,-8 17,-9 25,-3z"/>
   <path class="fil1" d="M125 49c1,0 1,2 0,3 -1,1 -2,1 -3,0 -1,-1 -1,-2 0,-3 1,-1 2,-1 3,0z"/>
   <polygon class="fil7" points="124,49 124,50 125,50 125,51 124,51 124,52 123,52 123,51 122,51 122,50 123,50 123,49 "/>
   <path class="fil1" d="M97 83c1,0 1,2 1,3 -1,1 -3,1 -4,0 0,-1 -1,-2 0,-3 1,-1 2,-1 3,0z"/>
   <polygon class="fil7" points="96,82 96,84 98,84 98,84 96,85 96,86 96,86 96,85 94,85 94,84 95,84 95,83 "/>
   <path class="fil1" d="M94 52c1,1 1,2 1,3 -1,1 -3,1 -3,0 -1,-1 -2,-2 -1,-3 1,-1 2,-1 3,0z"/>
   <polygon class="fil7" points="93,52 93,53 95,53 95,54 93,54 94,55 93,55 93,54 91,54 91,53 93,53 92,52 "/>
   <path class="fil1" d="M128 79c1,1 1,3 0,4 0,0 -2,1 -3,0 -1,-1 -1,-2 0,-3 1,-1 2,-1 3,-1z"/>
   <polygon class="fil7" points="127,79 127,81 128,81 129,81 127,81 127,83 127,83 126,82 125,82 125,81 126,81 126,79 "/>
   <path class="fil1" d="M103 47c0,0 0,1 -1,1 0,0 -1,0 -1,-1 0,0 0,-1 1,-1 0,0 1,0 1,1z"/>
   <path class="fil1" d="M114 46c0,1 0,1 -1,1 -1,0 -1,-1 -1,-1 0,-1 1,-1 1,-1 1,0 1,0 1,1z"/>
   <path class="fil1" d="M131 61c-1,0 -2,0 -2,-1 0,-1 0,-1 1,-1 0,-1 1,0 1,0 0,1 0,1 0,2z"/>
   <path class="fil1" d="M131 72c-1,0 -1,-1 -1,-1 0,-1 1,-1 1,-1 1,0 1,0 1,1 0,1 0,1 -1,1z"/>
   <path class="fil1" d="M116 88c0,-1 1,-1 1,-1 1,-1 1,0 2,0 0,1 -1,1 -1,2 -1,0 -1,0 -2,-1z"/>
   <path class="fil1" d="M105 89c0,-1 1,-1 1,-1 1,0 1,0 1,1 0,1 0,1 -1,1 0,0 -1,-1 -1,-1z"/>
   <path class="fil1" d="M89 74c1,0 1,0 1,1 1,0 0,1 0,1 -1,0 -1,0 -2,-1 0,0 0,-1 1,-1z"/>
   <path class="fil1" d="M88 63c1,0 2,0 1,1 0,1 0,1 -1,1 0,0 -1,-1 -1,-1 0,-1 1,-1 1,-1z"/>
   <path class="fil1" d="M65 98l23 19c1,0 1,2 0,3l-2 2c-1,1 -2,2 -3,1l-23 -19c-1,-1 -2,-3 -1,-4l2 -2c1,-1 3,-1 4,0z"/>
   <path class="fil8" d="M64 98l23 19c1,1 1,2 1,2l-2 3c-1,0 -2,1 -3,0l-23 -19c0,-1 -1,-2 0,-2l2 -3c0,0 1,0 2,0z"/>
   <path class="fil2" d="M120 17c0,0 5,-2 6,-2l2 3c-2,1 -4,3 -6,4l-2 -5zm8 -3c11,-4 22,-5 28,-4 -10,0 -19,5 -26,7l-2 -3z"/>
   <path class="fil9" d="M66 121c-5,-4 -21,-6 -26,7 -1,2 -5,15 -5,15 5,-7 16,-19 5,3 -6,13 -8,4 -15,32 1,0 27,-30 16,-10 9,-6 14,-12 18,-21 1,-3 6,-4 3,4 15,-18 5,-30 4,-30z"/>
   <path class="fil2" d="M67 119c-2,-2 -10,-3 -13,4 0,1 -3,7 -2,7 2,-3 8,-9 2,2 -3,6 -4,2 -7,16 0,0 13,-15 8,-5 4,-3 7,-6 9,-11 0,-1 3,-2 1,2 8,-9 2,-15 2,-15z"/>
   <path class="fil1" d="M67 107l11 9c2,2 2,5 1,6l-2 3c-2,2 -4,2 -6,0l-12 -9c-1,-1 -2,-4 0,-6l2 -2c1,-2 4,-2 6,-1z"/>
   <path class="fil10" d="M66 108l12 9c1,1 1,3 0,5l-2 2c-1,2 -3,2 -5,1l-11 -10c-1,-1 -2,-3 0,-4l1 -3c2,-1 4,-1 5,0z"/>
   <path class="fil1" d="M61 115l11 9c1,1 1,2 0,3 0,1 -2,1 -3,0l-11 -9c-1,-1 -1,-2 0,-3 0,-1 2,-1 3,0z"/>
   <path class="fil11" d="M60 115l11 10c1,0 1,1 1,1l0 0c-1,1 -2,1 -2,0l-11 -9c-1,0 -1,-1 -1,-1l0 0c1,-1 2,-1 2,-1z"/>
   <path class="fil12" style="mask:url(#id6)" d="M74 106c28,4 60,-15 75,-48 7,-13 9,-27 9,-41 2,16 0,34 -8,50 -14,29 -40,47 -65,49l-11 -10z"/>
   <path class="fil13" d="M153 48c4,-10 5,-21 5,-31 1,11 1,21 -2,32 -1,0 -2,0 -3,-1z"/>
   <path class="fil2" style="mask:url(#id8)" d="M67 100c-3,-25 11,-54 37,-73 5,-4 9,-6 14,-9 1,1 1,3 2,4 -3,2 -7,4 -10,6 -28,20 -42,52 -37,78l-6 -6z"/>
   <path class="fil14" d="M121 54c7,6 8,17 2,24 -6,8 -17,9 -24,3 -8,-6 -9,-17 -3,-25 6,-7 17,-8 25,-2z"/>
  </g>
 </g>
</svg>
