<?xml version="1.0" encoding="UTF-8"?>
<!DOCTYPE svg PUBLIC "-//W3C//DTD SVG 1.1//EN" "http://www.w3.org/Graphics/SVG/1.1/DTD/svg11.dtd">
<!-- Creator: CorelDRAW X7 -->
<svg xmlns="http://www.w3.org/2000/svg" xml:space="preserve" width="140px" height="200px" version="1.1" style="shape-rendering:geometricPrecision; text-rendering:geometricPrecision; image-rendering:optimizeQuality; fill-rule:evenodd; clip-rule:evenodd"
viewBox="0 0 140 200"
 xmlns:xlink="http://www.w3.org/1999/xlink">
 <defs>
  <style type="text/css">
   <![CDATA[
    .fil3 {fill:#FEFEFE}
    .fil0 {fill:#2B2A29}
    .fil1 {fill:#E8C37E}
    .fil2 {fill:#A3561B}
   ]]>
  </style>
 </defs>
 <g id="Layer_x0020_1">
  <metadata id="CorelCorpID_0Corel-Layer"/>
  <g id="_396341200">
   <path class="fil0" d="M123 154c-1,0 -1,0 0,1 -7,3 -18,11 -27,15 -3,1 -4,3 -6,4 -3,2 -7,4 -10,3 -1,0 -1,0 -2,0 -2,0 -11,-5 -13,-7 -2,0 -3,0 -4,0 -6,-2 -15,-4 -20,-6 -4,-2 -6,-1 -9,-5 -1,0 -1,-2 -2,-2 0,-1 0,-3 -1,-4 1,0 0,0 1,0 -1,-2 -1,-5 -1,-8 1,-4 1,-7 1,-11 1,-1 1,-2 1,-4 0,0 0,-1 0,-1 0,-1 1,-2 1,-3 0,-1 0,-1 0,-1 0,-1 0,-7 0,-10 0,-1 -1,-2 -1,-3 -1,-6 -1,-3 -1,-10 0,-2 0,-2 0,-3l1 -5c0,-1 0,-1 1,-2l0 -2c0,-1 0,-1 0,-2 0,-5 -2,-12 -1,-16 0,-1 -1,-2 0,-3l0 -2c1,-2 0,-2 2,-5 0,-1 0,-1 0,-2 0,-1 1,-1 1,-1 0,0 1,0 1,0 1,-1 2,1 3,2 0,0 0,0 0,0 1,1 2,1 2,1 1,1 1,1 1,1 2,2 6,4 6,4 0,0 0,0 0,1 1,0 1,0 1,0 1,1 1,0 1,1 0,0 0,0 0,0 1,0 0,0 1,0 5,2 12,4 17,3 1,0 6,0 8,0l5 -2c0,0 1,0 1,0 1,-1 2,-1 3,-1l15 -6c0,0 1,0 1,0l5 -1c1,0 2,0 3,0 0,1 0,1 0,2 1,7 5,17 7,23 1,6 1,12 1,12 0,1 0,0 1,1 0,1 -1,1 -1,2 0,5 2,16 3,21 0,1 0,1 0,2 1,1 0,2 1,3 0,1 0,3 0,4 1,1 0,1 1,2l0 0c2,8 4,12 2,20zm-10 -16c0,-1 -1,-2 -2,-2 0,0 -12,11 -22,11 -2,0 -5,0 -7,1 -7,2 -28,6 -34,0 0,-1 0,-1 -1,-1 -2,0 -1,0 -2,1 -1,1 -1,1 -1,2 7,6 36,1 43,-1l3 -1c12,0 14,-7 21,-9 1,1 0,1 2,1 0,0 0,0 0,-1 0,0 0,-1 0,-1 0,-1 0,0 0,0zm-35 24c-1,0 -1,0 -1,1 0,0 0,0 0,0 0,0 -1,0 -1,0 0,1 0,1 0,2l2 0c1,-1 2,-1 4,-2 1,0 0,1 0,0 1,-1 1,0 2,-1 -1,-1 0,0 -1,0 -2,-2 -4,-1 -5,0zm-11 -43c0,1 0,1 0,1 0,2 -1,2 0,3 2,0 1,-1 2,-2 1,-1 2,-2 2,-5 0,-1 -1,-1 -2,-2 0,1 0,1 0,1 -1,1 0,1 0,1l-1 1c-1,2 -1,1 -1,2zm3 22c0,-1 1,-2 1,-2l0 0c-1,-1 0,0 -2,-1 -2,-1 -5,-1 -6,-1l0 2 2 1c2,1 1,1 3,1l0 0c0,0 1,0 2,0zm11 0c1,0 -1,-1 2,0 0,-1 -1,0 1,-1 1,0 1,0 2,0l1 0c0,-1 0,-1 1,-1 0,0 2,-2 2,-3 -1,-1 -2,-1 -3,-1l-2 1c-1,1 -3,2 -4,2 0,3 -1,1 0,3zm-11 -40c0,-2 0,-4 0,-5 0,-1 0,-3 -2,-3 -2,1 -1,2 -1,4 1,1 1,2 1,3 1,3 0,6 2,8 1,0 -1,-1 0,-3 1,-1 0,-1 0,-2 0,-2 0,0 0,-1 0,0 1,-1 1,-1l-1 0zm1 55c-1,0 -1,0 -1,0 0,1 0,1 0,2 1,0 4,0 5,0 1,-1 1,-1 2,-1 1,0 1,-1 2,-1 2,-1 6,-1 7,-3 -2,-1 -3,0 -4,0 -1,0 -3,1 -5,1 -2,1 -2,1 -3,1 -1,0 -1,0 -3,1 0,0 0,0 0,0zm25 -106l0 -1c0,-2 -3,-6 -4,-3 -1,2 -1,0 -2,3 -1,3 0,1 -2,4 -8,5 -8,9 -20,10 -1,0 0,0 -1,0 0,0 0,0 0,0 -4,-1 -10,-1 -15,-3 0,0 0,0 0,0 -1,0 -1,0 -2,0 -3,-1 -4,-1 -7,-3 -2,-2 -4,-2 -7,-2 -3,0 -4,1 -5,3 0,0 0,0 -1,1 0,0 0,1 0,1 0,0 0,0 -1,1 -1,2 -1,5 -1,8 -1,8 3,11 0,22 0,1 0,3 0,5 0,0 0,0 -1,0l-1 -1 0 -1c0,-2 1,-2 0,-1 0,-2 0,-4 1,-5 0,-8 -1,-9 -2,-15l-2 -3c-1,-2 -3,-15 -3,-16 -1,-1 0,-1 0,-2 0,-1 -1,-1 -1,-2 1,0 1,-1 2,-1 1,1 2,0 3,0 1,-1 2,-2 3,-2 0,0 9,-9 10,-10 1,-1 1,0 2,-1 1,-1 0,0 2,-2 1,1 0,1 1,1 0,-1 0,-1 1,-2 1,0 0,0 2,-1 0,-1 1,-1 2,-1 1,-1 1,-1 2,-2 1,0 1,0 2,-1l6 -2 5 -1c3,0 2,0 5,0 4,-1 3,0 5,0 1,0 2,0 3,0 2,0 7,-1 8,0 2,0 4,0 6,0 1,0 2,1 3,1 0,0 0,0 0,0 4,2 5,0 12,5 1,1 2,1 3,2 0,0 0,0 0,0 3,2 3,2 5,5 1,1 1,2 2,2 0,2 1,3 2,4 0,1 0,0 0,1 0,2 1,1 1,2 0,1 -1,1 0,1 0,0 0,0 0,0 1,0 0,0 1,1 1,-1 0,0 1,-1l1 0 0 -1c1,0 1,0 1,0 0,-1 0,-1 0,-1 1,0 1,-1 1,0 1,3 1,7 1,9 0,9 -2,18 -3,27 0,1 0,3 1,5 -1,1 0,1 0,3 0,0 0,2 1,2l-3 2c-1,-1 0,-1 -1,-2 0,-1 0,0 0,-1 0,0 0,0 0,0 0,-1 0,-2 -1,-3 0,0 0,-1 0,-1 -1,-3 -8,-24 -8,-26 1,-1 3,-6 3,-7l0 0c1,-1 0,1 1,-3 1,-1 1,-2 0,-3 0,-1 0,-1 -1,0 0,0 0,0 0,0 -1,1 -1,-1 -3,1 0,0 0,0 -1,1 -1,1 0,1 -1,1l0 -4c-1,-2 0,-2 -1,-3 -1,0 -1,0 -1,0l-1 0c-2,2 -2,5 -4,7 -1,1 -1,0 -2,1 -1,0 1,0 -1,0 0,0 0,-1 0,-1l-1 -1zm-3 -1c0,0 0,-1 0,-1 1,0 1,-1 1,1l1 3c0,2 -1,2 1,2 0,1 0,1 1,1 1,0 1,0 2,-1l2 -2c1,-1 0,-1 1,-1 0,0 1,-1 1,-2 1,-1 0,-1 1,-1 1,3 -2,8 0,8l2 -2c1,0 0,0 1,-1 1,0 3,-2 3,-2 0,2 0,2 0,3 -1,2 0,2 -1,3 0,0 -1,1 -1,1 0,1 0,1 0,1 -1,1 -2,1 -3,1 -1,1 -4,1 -5,1 -4,1 -1,1 -4,1 -1,1 -1,1 -2,1l-6 2c0,0 -1,0 -1,0 -1,1 -2,1 -2,1 -1,1 -2,1 -3,1 -3,1 -2,1 -4,2 0,0 0,0 -1,0l-8 2c-4,1 -18,-2 -19,-4 -1,0 -1,-1 -2,-1 -3,-1 -1,-1 -2,-2 -5,-2 -7,-6 -9,-7 0,-1 0,0 2,1 1,0 1,0 1,0 4,2 3,1 5,2 2,1 0,1 2,1 1,1 -1,0 3,1 2,1 2,1 4,2 7,1 8,2 16,1 8,-2 9,-3 15,-7l3 -1c0,-1 0,-1 1,-1 0,-1 1,-1 1,-2 1,-1 1,-1 1,-1 0,-1 0,-1 1,-1 1,-2 0,-1 1,-3zm-73 51c1,-3 5,-2 7,-1 0,0 0,0 1,0 0,1 0,3 0,4 -1,0 -2,0 -2,0l-2 1c-1,0 0,1 -1,1 -1,1 3,19 4,21 0,1 0,0 1,1 1,0 0,0 1,0 0,2 0,7 -1,7 -1,1 -2,0 -2,-1 -1,-1 -1,-5 -2,-6 -1,-7 -8,-22 -4,-27zm28 9c-1,0 0,0 -1,0 0,0 -2,-2 -2,-2 0,-1 0,-3 0,-3 1,0 1,0 2,0 1,0 1,0 2,1 1,1 0,1 0,2 -1,1 -1,1 -1,2zm-4 -6c-1,1 -1,4 -1,5 0,0 0,0 0,1 1,3 2,4 4,5 0,0 0,0 1,1l4 0c4,-1 6,-5 5,-8 -1,-6 -9,-7 -13,-4zm6 13c-1,0 -1,0 -2,-1l0 0 0 0c-1,0 -2,0 -3,-1 -1,0 -5,-1 -8,-5 1,-1 4,-5 6,-6l3 -1c0,-1 0,-1 1,-1 2,-1 2,-1 3,-1l1 1c1,0 1,-1 2,0 2,0 4,0 7,2 1,1 2,2 3,3 1,1 2,3 3,4 0,0 -1,1 -2,1 -1,1 0,1 -2,2 0,1 -1,1 -1,1 -2,1 -1,1 -4,2 -1,0 -4,0 -5,0l-2 0zm0 -5c0,1 0,1 0,1 0,0 0,0 0,0 1,1 1,2 -1,2 -1,0 0,0 -1,-1 0,0 0,0 0,0l-1 -1c0,0 0,0 1,0 1,0 0,-1 2,-1zm12 -21c1,1 1,-1 0,-3 0,0 -2,-1 -3,-1 -1,-1 -2,-2 -3,-2 -3,1 -2,0 -5,1 0,1 0,1 -1,1 -1,0 0,0 0,0 -1,0 -2,0 -4,1 0,0 0,0 0,0 -2,1 -1,1 -2,1l-1 1c-1,0 0,0 -1,0 0,0 0,0 -1,0l-3 2c-1,0 -1,1 -1,2 1,0 2,-1 3,-1 1,0 0,0 1,0 0,-1 -1,0 1,-1l2 -1c1,0 0,1 2,0 0,0 1,0 1,-1 1,0 1,0 1,0 1,0 0,0 1,0 0,-1 1,-1 2,-1 7,-1 7,2 9,1 2,0 1,0 2,1zm46 1c0,-1 0,-1 -1,-2 -1,0 -1,0 -2,0 -5,-3 -3,-3 -7,-4 -1,0 -4,-1 -6,-1l-5 2c-2,0 -1,0 -3,1 -1,0 -1,0 -1,1 -1,3 0,3 3,2 2,0 1,0 2,0l1 -1c1,0 0,0 1,0 2,-1 1,-1 2,-1 4,-1 7,1 9,1 0,0 1,0 2,0 1,1 -1,1 3,1 1,1 1,1 2,1zm-74 17c1,1 1,0 1,2 0,1 2,2 3,3 1,1 3,3 4,3 1,0 1,0 2,0l3 1c1,1 2,1 3,2 3,0 5,0 7,-1l2 -1c3,-2 2,-1 5,-3l2 -1c0,0 0,0 0,0 2,-2 0,-5 0,-6 -1,-2 -2,-3 -4,-4 -2,-1 -5,-3 -6,-3 -2,-1 -5,-1 -6,-1 -3,0 -3,-1 -5,0 0,0 -1,1 -2,1l-3 3c0,0 0,0 0,0 -1,0 0,-1 -1,0 0,0 0,0 0,0l-1 2c0,0 0,0 -1,0 -2,4 -3,2 -3,3zm7 -78c-1,0 -3,2 -4,3l-2 1c-4,3 -8,6 -11,10 -2,1 -2,1 -2,2 -2,0 -3,-1 -4,-1 -1,0 -1,0 -1,0l0 1 -2 0c0,0 0,1 2,1l-1 1c0,0 0,0 0,0 0,1 1,2 1,2 0,1 0,2 0,3 1,6 2,12 3,18 2,7 4,6 4,17 0,2 0,3 0,5 0,0 0,0 -1,0 0,0 0,0 0,0 1,0 1,0 1,1 0,2 0,0 0,2 -1,0 -3,-1 -4,0 -1,1 -1,1 -2,2 -1,0 -1,1 -1,2 -1,2 -1,0 -1,3 0,3 5,19 6,24 0,2 0,1 1,5 0,1 0,2 2,3 5,5 3,1 2,12 0,1 0,5 0,6l2 4c1,2 0,1 0,2 2,3 1,1 3,3 1,1 4,2 6,3 6,3 12,5 19,5 2,1 5,2 6,3 7,2 9,5 17,6 3,1 7,0 10,-2 2,-2 4,-2 6,-4l1 -1c8,-7 16,-8 26,-15 2,-1 1,0 2,-3 2,-5 -1,-16 -2,-21 0,-1 0,0 0,-1 0,-1 0,-1 0,-1 0,-1 0,0 -1,-1 0,0 0,0 0,0 0,0 0,0 0,0 4,0 2,-1 5,-1l0 -1c1,-1 0,-1 1,-2 2,-1 2,-2 1,-3 0,-17 -1,-5 2,-19 0,0 0,0 0,-1 1,-2 1,-5 0,-8 -1,-1 0,-1 -2,-2 0,-1 -1,-2 -2,-2 -1,0 -3,1 -4,0 0,0 1,-1 0,-1 0,-2 0,-2 0,-5 0,-1 0,-2 0,-4 -2,-5 2,-14 2,-19 1,-3 0,-1 1,-2l0 -1c0,-2 0,-2 0,-4 0,-1 0,-5 0,-7l-3 -4c-1,-1 -1,-2 -2,-2 -1,1 -1,1 -2,2 -1,0 -1,-2 -3,-5 -1,-1 -2,-1 -2,-2 -2,-2 -2,-2 -3,-2l-5 -4c-2,-2 -5,-4 -7,-6 -4,-3 -3,-1 -6,-3 -1,0 -2,0 -4,-1 -2,0 -2,0 -4,1 -1,0 -1,0 -2,0 -1,0 -1,0 -2,0 0,0 -2,0 -2,0 -2,0 0,0 -4,-1 0,0 0,0 -1,0 -2,0 -2,0 -5,0 -1,0 -4,0 -5,0 0,0 0,0 0,0l-4 2c-2,0 -2,1 -4,1 -2,0 -7,2 -8,3 -1,0 -2,1 -4,1 -1,1 -2,1 -3,2zm57 71c0,1 0,1 1,1 0,1 0,0 0,1 0,1 0,0 0,2 0,1 0,1 -1,1 -1,1 -2,0 -3,-1 0,0 -1,-1 -1,-1 0,-1 0,-1 0,-2 1,0 0,0 1,0l1 0c0,-1 1,-1 2,-1zm1 10c-1,0 -3,0 -3,0 0,-1 0,-1 0,-2 1,0 1,0 2,0 0,1 2,0 1,2zm6 -4c1,-3 1,-3 0,-5l0 -1c0,0 0,0 0,0 0,0 -1,-1 -2,-1l0 0c-1,-1 0,0 -1,-1 1,0 6,2 6,2 1,1 1,1 1,1 1,1 0,1 2,1 1,1 1,2 2,3 -3,3 -4,5 -9,7l-4 1c-1,0 -4,0 -5,-1 -1,0 -1,0 -2,0l-4 -2c0,0 -1,-2 -5,-2 0,0 0,0 0,0l1 -1c0,-1 1,-1 1,-2 1,0 2,-2 3,-3 1,-1 0,-1 2,-2 1,-1 3,-2 5,-2 0,0 0,0 -1,1 -1,0 -2,2 -2,2 -2,3 -2,4 -1,6 0,1 0,0 0,1 1,1 1,1 2,1 1,2 -1,1 2,2 1,1 5,1 6,0l2 -2c1,-1 0,0 1,-1l0 0c1,-1 0,-1 1,-1l0 -1c0,0 0,0 0,0 0,0 0,0 -1,0zm9 -1c-2,-5 -1,-2 -3,-4 -1,-2 -1,-3 -3,-4 -2,-1 -3,-1 -5,-1 -2,-1 -2,0 -3,0 -2,0 -3,-1 -4,-1 -2,0 -3,1 -5,2 -1,1 -3,3 -4,5l-1 0c-2,2 -2,2 -2,3 0,0 0,0 0,0 -1,0 0,0 -1,0l0 2c0,0 -1,0 -1,0l0 0c0,1 0,1 0,1l-1 0c0,2 2,2 4,3 1,0 1,0 2,1l3 0c1,1 2,1 2,1 2,1 6,2 8,2 1,-1 2,-1 3,-1 1,0 1,0 2,0l6 -4c3,-2 3,-3 4,-5 0,0 0,1 0,0 0,0 0,0 -1,0zm9 14l0 -1 0 0c1,0 0,0 1,0 0,-2 0,-8 0,-10 1,-3 1,-3 1,-6 0,-3 -3,-4 -4,-3 -1,0 -1,1 -2,2 0,-3 0,-4 2,-6 0,-1 1,-2 2,-2 1,0 4,-2 5,0 1,0 2,2 2,3 0,0 -1,5 -1,5 -1,1 -1,1 -1,2 -2,5 0,22 -4,23 0,0 -3,0 -3,0 0,-1 0,-3 0,-4 0,0 1,0 1,-1 1,-1 1,-1 1,-2z"/>
   <path class="fil1" d="M69 116c0,0 -1,0 0,-1 0,0 0,0 0,-1 1,1 2,1 2,2 0,3 -1,4 -2,5 -1,1 0,2 -2,2 -1,-1 0,-1 0,-3 0,0 0,0 0,-1 0,-1 0,0 1,-2l1 -1zm18 -13c1,-2 3,-4 4,-5 2,-1 3,-2 5,-2 1,0 2,1 4,1 1,0 1,-1 3,0 2,0 3,0 5,1 2,1 2,2 3,4 2,2 1,-1 3,4 1,0 1,0 1,0 0,1 0,0 0,0 -1,2 -1,3 -4,5l-6 4c-1,0 -1,0 -2,0 -1,0 -2,0 -3,1 -2,0 -6,-1 -8,-2 0,0 -1,0 -2,-1l-3 0c-1,-1 -1,-1 -2,-1 -2,-1 -4,-1 -4,-3l1 0c0,0 0,0 0,-1l0 0c0,0 1,0 1,0l0 -2c1,0 0,0 1,0 0,0 0,0 0,0 0,-1 0,-1 2,-3l1 0zm19 -13c-4,0 -2,0 -3,-1 -1,0 -2,0 -2,0 -2,0 -5,-2 -9,-1 -1,0 0,0 -2,1 -1,0 0,0 -1,0l-1 1c-1,0 0,0 -2,0 -3,1 -4,1 -3,-2 0,-1 0,-1 1,-1 2,-1 1,-1 3,-1l5 -2c2,0 5,1 6,1 4,1 2,1 7,4 1,0 1,0 2,0 1,1 1,1 1,2 -1,0 -1,0 -2,-1zm9 -3c-2,-6 -6,-16 -7,-23 0,-1 0,-1 0,-2 -1,0 -2,0 -3,0l-5 1c0,0 -1,0 -1,0l-15 6c-1,0 -2,0 -3,1 0,0 -1,0 -1,0l-5 2c-2,0 -7,0 -8,0 -5,1 -12,-1 -17,-3 -1,0 0,0 -1,0 0,0 0,0 0,0 0,-1 0,0 -1,-1 0,0 0,0 -1,0 0,-1 0,-1 0,-1 0,0 -4,-2 -6,-4 0,0 0,0 -1,-1 0,0 -1,0 -2,-1 0,0 0,0 0,0 -1,-1 -2,-3 -3,-2 0,0 -1,0 -1,0 0,0 -1,0 -1,1 0,1 0,1 0,2 -2,3 -1,3 -2,5l0 2c-1,1 0,2 0,3 -1,4 1,11 1,16 0,1 0,1 0,2l0 2c-1,1 -1,1 -1,2l-1 5c0,1 0,1 0,3 0,7 0,4 1,10 0,1 1,2 1,3 0,3 0,9 0,10 0,0 0,0 0,1 0,1 -1,2 -1,3 0,0 0,1 0,1 0,2 0,3 -1,4 0,4 0,7 -1,11 0,3 0,6 1,8 -1,0 0,0 -1,0 1,1 1,3 1,4 1,0 1,2 2,2 3,4 5,3 9,5 5,2 14,4 20,6 1,0 2,0 4,0 2,2 11,7 13,7 1,0 1,0 2,0 3,1 7,-1 10,-3 2,-1 3,-3 6,-4 9,-4 20,-12 27,-15 -1,-1 -1,-1 0,-1 2,-8 0,-12 -2,-20l0 0c-1,-1 0,-1 -1,-2 0,-1 0,-3 0,-4 -1,-1 0,-2 -1,-3 0,-1 0,-1 0,-2 -1,-5 -3,-16 -3,-21 0,-1 1,-1 1,-2 -1,-1 -1,0 -1,-1 0,0 0,-6 -1,-12zm-26 60c10,0 22,-11 22,-11 1,0 2,1 2,2 0,0 0,-1 0,0 0,0 0,1 0,1 0,1 0,1 0,1 -2,0 -1,0 -2,-1 -7,2 -9,9 -21,9l-3 1c-7,2 -36,7 -43,1 0,-1 0,-1 1,-2 1,-1 0,-1 2,-1 1,0 1,0 1,1 6,6 27,2 34,0 2,-1 5,-1 7,-1zm-18 9c2,-1 2,-1 3,-1 1,0 1,0 3,-1 2,0 4,-1 5,-1 1,0 2,-1 4,0 -1,2 -5,2 -7,3 -1,0 -1,1 -2,1 -1,0 -1,0 -2,1 -1,0 -4,0 -5,0 0,-1 0,-1 0,-2 0,0 0,0 1,0 0,0 0,0 0,0zm12 6c0,0 0,0 0,0zm-6 1c0,0 0,0 0,0 0,-1 0,-1 1,-1 1,-1 3,-2 5,0 0,0 0,0 0,0 0,0 0,0 1,0 -1,1 -1,0 -2,1 0,1 1,0 0,0 -2,1 -3,1 -4,2l-2 0c0,-1 0,-1 0,-2 0,0 1,0 1,0zm-14 -26c1,0 4,0 6,1 2,1 1,0 2,1l0 0c0,0 -1,1 -1,2 -1,0 -2,0 -2,0l0 0c-2,0 -1,0 -3,-1l-2 -1 0 -2zm18 4c-1,-2 0,0 0,-3 1,0 3,-1 4,-2l2 -1c1,0 2,0 3,1 0,1 -2,3 -2,3 -1,0 -1,0 -1,1l-1 0c-1,0 -1,0 -2,0 -2,1 -1,0 -1,1 -3,-1 -1,0 -2,0zm-41 -38c-1,0 0,-1 0,0zm19 14l-2 1c-2,1 -4,1 -7,1 -1,-1 -2,-1 -3,-2l-3 -1c-1,0 -1,0 -2,0 -1,0 -3,-2 -4,-3 -1,-1 -3,-2 -3,-3 0,-2 0,-1 -1,-2 0,-1 1,1 3,-3 1,0 1,0 1,0l1 -2c0,0 0,0 0,0 1,0 1,0 1,0 0,0 0,0 0,0 0,0 0,0 0,0l3 -3c1,0 2,-1 2,-1 2,-1 2,0 5,0 1,0 4,0 6,1 1,0 4,2 6,3 2,1 3,2 4,4 0,1 2,4 0,6 0,0 0,0 0,0l-2 1c-3,2 -2,1 -5,3zm11 -9c-2,-2 -1,-5 -2,-8 0,-1 0,-2 -1,-3 0,-2 -1,-3 1,-4 2,0 2,2 2,3 0,1 0,3 0,5l1 0c0,0 -1,1 -1,1 0,1 0,-1 0,1 0,1 1,1 0,2 -1,2 1,3 0,3zm-8 -21c1,2 1,4 0,3 -1,-1 0,-1 -2,-1 -2,1 -2,-2 -9,-1 -1,0 -2,0 -2,1 -1,0 0,0 -1,0 0,0 0,0 -1,0 0,1 -1,1 -1,1 -2,1 -1,0 -2,0l-2 1c-2,1 -1,0 -1,1 -1,0 0,0 -1,0 -1,0 -2,1 -3,1 0,-1 0,-2 1,-2l3 -2c1,0 1,0 1,0 1,0 0,0 1,0l1 -1c1,0 0,0 2,-1 0,0 0,0 0,0 2,-1 3,-1 4,-1 0,0 -1,0 0,0 1,0 1,0 1,-1 3,-1 2,0 5,-1 1,0 2,1 3,2 1,0 3,1 3,1z"/>
   <path class="fil2" d="M26 92c0,0 1,0 0,1 0,-1 0,-1 0,-1zm4 -32c0,0 0,-1 0,-1 1,-1 1,-1 1,-1 1,-2 2,-3 5,-3 3,0 5,0 7,2 3,2 4,2 7,3 1,0 1,0 2,0 0,0 0,0 0,0 5,2 11,2 15,3 0,0 0,0 0,0 1,0 0,0 1,0 12,-1 12,-5 20,-10 2,-3 1,-1 2,-4 1,-3 1,-1 2,-3 1,-3 4,1 4,3l0 1 1 1c0,0 0,1 0,1 2,0 0,0 1,0 1,-1 1,0 2,-1 2,-2 2,-5 4,-7l1 0c0,0 0,0 1,0 1,1 0,1 1,3l0 4c1,0 0,0 1,-1 1,-1 1,-1 1,-1 2,-2 2,0 3,-1 0,0 0,0 0,0 1,-1 1,-1 1,0 1,1 1,2 0,3 -1,4 0,2 -1,3l0 0c0,1 -2,6 -3,7 0,2 7,23 8,26 0,0 0,1 0,1 1,1 1,2 1,3 0,0 0,0 0,0 0,1 0,0 0,1 1,1 0,1 1,2l3 -2c-1,0 -1,-2 -1,-2 0,-2 -1,-2 0,-3 -1,-2 -1,-4 -1,-5 1,-9 3,-18 3,-27 0,-2 0,-6 -1,-9 0,-1 0,0 -1,0 0,0 0,0 0,1 0,0 0,0 -1,0l0 1 -1 0c-1,1 0,0 -1,1 -1,-1 0,-1 -1,-1 0,0 0,0 0,0 -1,0 0,0 0,-1 0,-1 -1,0 -1,-2 0,-1 0,0 0,-1 -1,-1 -2,-2 -2,-4 -1,0 -1,-1 -2,-2 -2,-3 -2,-3 -5,-5 0,0 0,0 0,0 -1,-1 -2,-1 -3,-2 -7,-5 -8,-3 -12,-5 0,0 0,0 0,0 -1,0 -2,-1 -3,-1 -2,0 -4,0 -6,0 -1,-1 -6,0 -8,0 -1,0 -2,0 -3,0 -2,0 -1,-1 -5,0 -3,0 -2,0 -5,0l-5 1 -6 2c-1,1 -1,1 -2,1 -1,1 -1,1 -2,2 -1,0 -2,0 -2,1 -2,1 -1,1 -2,1 -1,1 -1,1 -1,2 -1,0 0,0 -1,-1 -2,2 -1,1 -2,2 -1,1 -1,0 -2,1 -1,1 -10,10 -10,10 -1,0 -2,1 -3,2 -1,0 -2,1 -3,0 -1,0 -1,1 -2,1 0,1 1,1 1,2 0,1 -1,1 0,2 0,1 2,14 3,16l2 3c1,6 2,7 2,15 -1,1 -1,3 -1,4 0,1 0,1 0,2l0 1 1 1c1,0 1,0 1,0 0,-2 0,-4 0,-5 3,-11 -1,-14 0,-22 0,-3 0,-6 1,-8 1,-1 1,-1 1,-1z"/>
   <path class="fil2" d="M50 67c1,2 15,5 19,4l8 -2c1,0 1,0 1,0 2,-1 1,-1 4,-2 1,0 2,0 3,-1 0,0 1,0 2,-1 0,0 1,0 1,0l6 -2c1,0 1,0 2,-1 3,0 0,0 4,-1 1,0 4,0 5,-1 1,0 2,0 3,-1 0,0 0,0 0,-1 0,0 1,-1 1,-1 1,-1 0,-1 1,-3 0,-1 0,-1 0,-3 0,0 -2,2 -3,2 -1,1 0,1 -1,1l-2 2c-2,0 1,-5 0,-8 -1,0 0,0 -1,1 0,1 -1,2 -1,2 -1,0 0,0 -1,1l-2 2c-1,1 -1,1 -2,1 -1,0 -1,0 -1,-1 -2,0 -1,0 -1,-2l-1 -3c0,-2 0,-1 -1,-1 0,0 0,1 0,1 -1,2 0,1 -1,3 -1,0 -1,0 -1,1 0,0 0,0 -1,1 0,1 -1,1 -1,2 -1,0 -1,0 -1,1l-3 1c-6,4 -7,5 -15,7 -8,1 -9,0 -16,-1 -2,-1 -2,-1 -4,-2 -4,-1 -2,0 -3,-1 -2,0 0,0 -2,-1 -2,-1 -1,0 -5,-2 0,0 0,0 -1,0 -2,-1 -2,-2 -2,-1 2,1 4,5 9,7 1,1 -1,1 2,2 1,0 1,1 2,1z"/>
   <path class="fil1" d="M28 103c0,-1 0,-3 0,-4 -1,0 -1,0 -1,0 -2,-1 -6,-2 -7,1 -4,5 3,20 4,27 1,1 1,5 2,6 0,1 1,2 2,1 1,0 1,-5 1,-7 -1,0 0,0 -1,0 -1,-1 -1,0 -1,-1 -1,-2 -5,-20 -4,-21 1,0 0,-1 1,-1l2 -1c0,0 1,0 2,0z"/>
   <path class="fil1" d="M121 96c-2,2 -2,3 -2,6 1,-1 1,-2 2,-2 1,-1 4,0 4,3 0,3 0,3 -1,6 0,2 0,8 0,10l-1 0c0,1 0,2 -1,3 0,1 -1,1 -1,1 0,1 0,3 0,4 0,0 3,0 3,0 4,-1 2,-18 4,-23 0,-1 0,-1 1,-2 0,0 1,-5 1,-5 0,-1 -1,-3 -2,-3 -1,-2 -4,0 -5,0 -1,0 -2,1 -2,2z"/>
   <path class="fil0" d="M44 103c-1,1 -1,4 -1,5 0,0 0,0 0,1 1,3 2,4 4,5 0,0 0,0 1,1l4 0c4,-1 6,-5 5,-8 -1,-6 -9,-7 -13,-4z"/>
   <path class="fil0" d="M105 109c0,0 0,0 0,0l0 0c1,-1 0,-1 1,-1l0 -1c0,0 0,0 0,0 0,0 0,0 -1,0 1,-3 1,-3 0,-5l0 -1c0,0 0,0 0,0 0,0 -1,-1 -2,-1l0 0c-1,-1 -6,-1 -7,-1 0,0 0,0 -1,1 -1,0 -2,2 -2,2 -2,3 -2,4 -1,6 0,1 0,0 0,1 1,1 1,1 2,1 1,2 -1,1 2,2 1,1 5,1 6,0l2 -2c1,-1 1,-1 1,-1z"/>
   <path class="fil0" d="M46 105c-1,1 -1,2 -1,3 0,0 0,0 0,1 1,2 1,2 3,3 0,0 0,1 0,1l4 0c2,-1 4,-3 3,-5 -1,-5 -6,-6 -9,-3z"/>
   <path class="fil0" d="M103 108c0,0 0,0 0,0l0 0c0,-1 0,-1 1,-1l-1 0c0,0 0,0 0,0 0,0 0,0 0,0 0,-3 1,-2 0,-4l0 0c0,0 0,0 0,0 0,0 -1,-1 -1,-1l0 0c-1,0 -4,-1 -5,-1 0,1 0,1 -1,1 0,0 -1,1 -1,2 -1,1 -1,2 -1,3 0,1 0,1 1,1 0,1 0,0 0,1 1,1 0,0 2,1 1,1 3,0 4,0l1 -2c1,0 1,0 1,0z"/>
   <path class="fil3" d="M105 109c0,0 0,0 0,0zm-57 6c-1,-1 -1,-1 -1,-1 -2,-1 -3,-2 -4,-5 0,-1 0,-1 0,-1 0,-1 0,-4 1,-5 4,-3 12,-2 13,4 1,3 -1,7 -5,8l-4 0zm51 -12c0,-1 0,0 0,-1 -1,0 -1,0 -1,-1 -1,0 -2,0 -2,1l-1 0c-1,0 0,0 -1,0 0,1 0,1 0,2 0,0 1,1 1,1 1,1 2,2 3,1 1,0 1,0 1,-1 0,-2 0,-1 0,-2zm0 8c1,-2 -1,-1 -1,-2 -1,0 -1,0 -2,0 0,1 0,1 0,2 0,0 2,0 3,0zm-50 3c2,0 2,-1 1,-2 0,0 0,0 0,0 0,0 0,0 0,-1 -2,0 -1,1 -2,1 -1,0 -1,0 -1,0l1 1c0,0 0,0 0,0 1,1 0,1 1,1zm-2 -5c1,0 0,0 1,0 0,-1 0,-1 1,-2 0,-1 1,-1 0,-2 -1,-1 -1,-1 -2,-1 -1,0 -1,0 -2,0 0,0 0,2 0,3 0,0 2,2 2,2zm1 6l0 0 0 0c1,1 1,1 2,1l2 0c1,0 4,0 5,0 3,-1 2,-1 4,-2 0,0 1,0 1,-1 2,-1 1,-1 2,-2 1,0 2,-1 2,-1 -1,-1 -2,-3 -3,-4 -1,-1 -2,-2 -3,-3 -3,-2 -5,-2 -7,-2 -1,-1 -1,0 -2,0l-1 -1c-1,0 -1,0 -3,1 -1,0 -1,0 -1,1l-3 1c-2,1 -5,5 -6,6 3,4 7,5 8,5 1,1 2,1 3,1zm36 -6c0,0 0,0 0,0 4,0 5,2 5,2l4 2c1,0 1,0 2,0 1,1 4,1 5,1l4 -1c5,-2 6,-4 9,-7 -1,-1 -1,-2 -2,-3 -2,0 -1,0 -2,-1 0,0 0,0 -1,-1 0,0 -5,-2 -6,-2 1,1 0,0 1,1l0 0c1,0 2,1 2,1 0,0 0,0 0,0l0 1c1,2 1,2 0,5 1,0 1,0 1,0 0,0 0,0 0,0l0 1c-1,0 0,0 -1,1l0 0c0,0 0,0 0,0 0,0 0,0 -1,1l-2 2c-1,1 -5,1 -6,0 -3,-1 -1,0 -2,-2 -1,0 -1,0 -2,-1 0,-1 0,0 0,-1 -1,-2 -1,-3 1,-6 0,0 1,-2 2,-2 1,-1 1,-1 1,-1 -2,0 -4,1 -5,2 -2,1 -1,1 -2,2 -1,1 -2,3 -3,3 0,1 -1,1 -1,2l-1 1z"/>
  </g>
 </g>
</svg>
