<?xml version="1.0" encoding="UTF-8"?>
<!DOCTYPE svg PUBLIC "-//W3C//DTD SVG 1.1//EN" "http://www.w3.org/Graphics/SVG/1.1/DTD/svg11.dtd">
<!-- Creator: CorelDRAW X7 -->
<svg xmlns="http://www.w3.org/2000/svg" xml:space="preserve" width="200px" height="200px" version="1.1" style="shape-rendering:geometricPrecision; text-rendering:geometricPrecision; image-rendering:optimizeQuality; fill-rule:evenodd; clip-rule:evenodd"
viewBox="0 0 200 200"
 xmlns:xlink="http://www.w3.org/1999/xlink">
 <defs>
  <style type="text/css">
   <![CDATA[
    .fil3 {fill:#FEFEFE}
    .fil0 {fill:#2B2A29}
    .fil1 {fill:#2B2A29}
    .fil4 {fill:#F3D5A0}
    .fil2 {fill:#8A4A1B}
   ]]>
  </style>
 </defs>
 <g id="Layer_x0020_1">
  <metadata id="CorelCorpID_0Corel-Layer"/>
  <g id="_397838456">
   <g>
    <path class="fil0" d="M157 175c1,0 1,0 2,-1 0,0 0,-1 0,-2 0,-1 0,0 -1,-1 0,-1 0,-1 -1,-2 -2,-2 -2,-9 -1,-13 0,-3 0,-3 1,-6 1,-5 2,-7 8,-13l0 -1c9,-9 21,-18 17,-32 0,-1 0,-1 -1,-2l0 -1c0,0 -1,0 -1,0 0,-1 0,0 0,-1 0,0 0,0 0,-1 -2,-2 -2,-2 -2,-3l-2 -4c-1,-1 -1,0 -1,-1l-1 -1c0,0 0,-1 0,-1l-7 -12c0,0 -1,-1 -2,-2 -2,-4 -11,-18 -11,-23 0,0 -1,-2 -1,-3 0,-1 -1,-7 -4,-12 -2,-3 -6,-6 -7,-7 0,0 2,1 4,8 2,2 3,6 4,10 0,1 0,0 1,1 0,1 0,1 0,2 0,1 1,1 1,2 1,9 4,11 8,21l1 1c1,1 1,3 2,4 1,0 3,5 4,6l4 5c0,0 0,0 0,1 0,0 1,0 1,0 0,1 0,1 0,2l4 5 2 4c6,17 -22,34 -25,52 -2,9 3,12 4,19 0,0 0,0 -1,0 0,0 -1,-1 -1,-1l2 3zm-15 -145c-2,-4 -11,-7 -13,-8 -4,-1 -8,1 -11,0l-14 2c-1,1 -1,0 -2,0 0,0 -1,1 -2,0 -1,0 -3,-1 -5,-2 0,0 -2,-1 -2,-2 -4,-2 -8,-4 -13,-3 -10,2 -19,5 -26,13 0,0 0,0 0,1l-7 7c-1,2 -1,2 -3,4 -3,6 -6,14 -8,20 0,0 -1,0 -1,1 0,1 -2,3 -2,4l-2 6c-1,1 -1,2 -1,3 -1,1 -1,2 -2,4 0,0 0,1 -1,2 -2,3 -7,9 -9,14 -7,11 -4,15 2,24l1 2c1,1 1,1 2,2 1,0 2,3 3,4 0,0 0,1 1,1 0,1 0,1 1,2 0,0 0,0 0,1 1,0 0,-1 1,0 1,1 2,3 2,4l2 2c0,0 0,0 0,0l0 1c2,2 2,0 5,5 0,0 0,0 0,0 0,0 0,0 0,0 1,1 1,1 1,1 0,1 0,1 1,1l1 3c2,2 2,1 3,5 1,1 2,2 2,3 0,1 1,1 1,2l0 1c0,0 0,0 1,1l3 10c0,1 1,2 2,2 1,0 2,-2 2,-3l1 -3c1,1 2,1 2,2 1,0 1,0 1,1l1 1c2,4 2,3 2,4l1 0c0,0 0,1 0,1 1,2 2,4 3,6 0,2 1,2 1,3 1,0 2,0 2,-1 1,-1 2,-1 2,-3 0,-1 1,-1 0,-2 1,0 1,0 1,0 0,-1 -1,0 0,-2 1,-1 0,-2 2,-2 0,1 0,1 1,1 0,0 0,1 0,1l1 0c0,1 1,1 1,1 1,0 1,0 1,0 0,0 0,0 1,-1 1,-2 1,-3 1,-5 1,-2 1,-8 1,-10l0 -2c0,-3 0,-7 -1,-9l0 -5c0,-1 -1,-3 -1,-4 0,-1 0,-1 -1,-2 1,0 2,1 2,1 0,0 0,0 0,0 1,1 2,2 3,2 1,1 1,1 1,1 5,5 13,7 18,5 1,0 1,0 2,0 0,0 0,-1 0,-1 0,0 0,0 0,0l1 0c2,-1 2,-1 3,-2l2 -2c0,0 0,0 0,0l2 -2c1,0 0,0 1,0 0,0 0,2 0,3 0,1 1,2 1,3 2,5 2,7 5,12 0,1 1,2 1,3 0,0 1,0 1,1 0,0 0,1 1,1l0 0c1,0 0,0 1,0 0,0 1,-1 1,-1 1,-1 0,0 1,-1 0,-1 0,0 0,-1l1 -2c0,0 0,-1 0,-1 1,-3 2,-6 5,-3 0,1 0,2 0,2 0,8 2,19 9,24 2,1 1,1 2,1 4,1 4,0 5,-4 0,-2 1,-9 2,-10 0,0 0,0 0,0 1,0 1,1 1,1 3,1 5,3 5,2 0,0 -2,-3 -6,-4 -1,-1 -2,-1 -3,1 -1,1 -1,2 -1,3 0,2 -1,3 -1,4l0 4c0,1 0,0 0,1 0,0 -4,-5 -4,-5 -5,-5 -7,-13 -7,-19 0,0 -1,-1 -1,-1 0,-1 0,-1 -1,-1 -2,-2 -4,-3 -5,0 0,1 0,1 -1,1 0,1 0,1 0,2 -1,1 -2,4 -3,4 0,0 0,0 0,0 -1,-1 -1,-1 -1,-2 -1,-4 -6,-14 -6,-20 0,-1 1,-2 2,-2l1 -1c0,0 0,0 1,0l0 -1c9,-6 21,-10 27,-18 0,0 0,0 0,-1 0,0 0,0 0,0l0 0c1,-1 1,-2 1,-2 0,-1 0,0 0,-1 2,-3 1,-8 -1,-12l-1 -1c0,-1 0,0 -1,-3 -1,-1 -1,-1 -2,-3 -1,-1 -4,-6 -4,-7 0,-1 0,-1 -1,-1 0,-2 0,-3 0,-3 -1,-1 -1,-3 -1,-3 -1,-5 -6,-19 -9,-23 0,-1 0,-1 -1,-3 -7,-8 -15,-10 -25,-11 -1,0 -2,0 -3,-1 -1,0 -2,-1 -4,-2 -4,-2 -2,-5 -3,-6 0,-1 1,-1 -2,0 0,0 0,0 0,0 0,0 0,0 -1,0l-4 1c-9,2 -27,2 -22,16l1 2c2,7 -5,11 -10,16l0 0c-1,1 -1,1 -1,1l-3 2c0,1 -1,1 -1,1 -1,1 -1,1 -2,1 -1,1 -2,3 -3,5 -1,1 -1,0 -1,2 0,1 -1,3 -1,4 0,1 2,7 3,8l1 3c1,2 0,5 0,6 -1,1 -1,1 -1,2 0,0 0,0 -1,1 0,1 0,1 0,2 0,0 -1,5 -1,5 -1,2 0,5 1,7 1,2 2,3 3,4 11,10 15,9 28,14 1,0 1,0 1,2 0,0 1,5 2,6 0,1 0,1 1,2 0,0 0,0 0,0 0,0 0,1 0,1l0 2c0,0 0,1 0,2 0,1 0,2 0,3 0,3 0,6 0,9 0,2 0,3 0,5 -1,1 -1,1 -1,2 0,1 0,1 0,1 0,1 0,0 0,1 -1,0 0,0 -1,0 0,0 0,-1 0,-1 -1,0 -1,0 -1,-1l0 0c0,0 0,0 0,0l-1 -2c-3,0 -4,3 -4,5l-1 5c0,0 0,0 0,0 0,1 0,1 0,1 0,0 0,1 -1,1l-2 -5c0,-1 0,-1 1,-1 -2,-1 -1,-1 -3,-3l-1 -3c-1,-1 -1,0 -1,-2l-1 -1c0,0 -1,0 -1,-1 0,0 0,0 -1,-1 -1,-1 -2,-1 -3,-1l-2 1c0,1 0,2 -1,2l0 0c0,0 0,1 0,1 -1,-1 0,-2 -1,-5 -1,-2 -1,-4 -2,-5 -1,-1 -1,-2 -2,-3l-2 -5c0,0 0,0 -1,-1l-8 -13c0,0 0,0 -1,-1 0,0 -1,-1 -1,-1 -1,-2 -2,-3 -2,-4 -1,0 -2,-2 -2,-2 -1,-1 -3,-5 -5,-7 -6,-6 -12,-12 -7,-21 1,-4 4,-6 7,-10l2 -3c0,-1 0,-1 1,-1 0,-1 1,-4 2,-5 1,-2 1,-3 2,-5l1 -2c1,-1 1,-1 1,-2l2 -3c0,-1 0,0 0,-1l2 -4c0,-1 0,0 0,-1 2,-7 6,-12 8,-19 1,-2 2,-2 2,-3 1,-1 2,-2 2,-4 1,-1 2,-1 2,-2 8,-7 12,-12 22,-13 0,-1 0,-1 0,-1 1,0 2,0 2,0 7,-1 9,-1 11,1 5,3 6,4 11,5 0,0 1,0 1,0 1,1 1,1 2,1 0,0 0,0 0,0 9,-3 5,-1 13,-4 3,0 7,0 10,0 1,0 1,0 2,1 1,0 9,2 15,5l0 0zm-26 106c-1,1 -2,1 -3,2l-2 1c-5,5 -11,8 -15,8 -4,0 -9,-3 -16,-9 -1,0 -1,0 -2,-1 -1,0 0,0 -1,0 -4,-2 -8,-4 -12,-6 -4,-2 -19,-7 -21,-15 0,-1 0,-2 0,-3 1,-3 3,-7 4,-9 0,-1 1,-2 1,-3 0,-1 0,-1 0,-2l1 -3c1,-1 0,-1 1,-1 0,-1 0,-2 1,-3l1 -5c1,-3 1,-8 1,-8 0,-1 0,-1 0,-2 0,0 0,-1 1,-2 0,0 0,-1 0,-2l1 -2c0,0 0,0 0,0 0,-1 0,0 1,-1 0,0 1,-1 1,-1 1,0 0,0 1,-1 4,-4 6,-5 7,-11l0 -2c0,-3 -1,-6 -1,-7 0,-3 2,-6 5,-7 4,-2 10,-1 15,-3 0,0 0,0 1,0 0,0 0,0 1,0l0 0c1,-1 1,0 2,-1 1,1 2,3 2,4 3,3 3,3 7,5 1,1 1,1 3,1 2,0 2,1 3,1 1,0 10,1 18,8 0,1 1,1 1,2 0,0 0,0 0,0 1,1 1,1 1,1 0,0 0,0 0,0 2,1 7,16 9,21 0,0 0,1 0,2 1,2 2,8 4,10l1 3c1,1 1,2 2,2 2,3 2,3 3,6 2,4 3,5 2,10 -2,9 -26,20 -29,23zm-65 -60c0,0 0,-1 0,-1 0,0 0,0 1,-1 0,1 0,1 0,1 0,1 0,1 0,2l-1 3c0,1 0,2 0,4l-1 6c-1,1 -1,2 -1,3 -1,1 -1,2 -1,3 0,0 0,1 -1,-2 0,-1 -1,-2 -1,-3 -1,-2 -2,-4 -2,-7 1,-3 2,-3 4,-6 1,-1 1,-1 2,-1 0,-1 0,-1 0,-1l1 0zm71 89c1,0 1,0 2,0 0,-1 0,-1 0,-1 0,0 0,0 0,0 0,0 0,0 0,0l-2 1z"/>
   </g>
   <g id="_397815008">
    <path class="fil1" d="M115 83c1,0 1,0 2,1 -1,0 -2,2 -3,1l0 -1 1 -1zm-58 7c0,-1 1,-2 2,-4 0,-1 3,-4 4,-5 0,0 0,0 0,0 2,-1 1,-1 2,-1l0 0c0,1 0,1 0,2 -1,0 0,0 0,1 -1,2 0,2 1,4 0,2 2,2 2,3 -2,0 -3,0 -5,0 -3,0 -4,1 -6,0zm22 -10c-1,-1 -1,-1 -1,-2 -1,0 -2,0 -4,-1 -1,0 -3,0 -4,0 -4,0 -5,0 -7,2 -2,2 -1,0 -3,3 0,0 0,0 -1,0 0,1 0,1 0,1 -2,2 -1,1 -2,4 -1,0 -2,2 -2,3 1,1 1,0 1,1 2,1 4,1 6,1 1,0 3,0 4,0 4,1 7,1 12,1l3 -1c4,0 2,0 4,-1 0,-2 0,-2 0,-3l-1 -2c-1,-3 -5,-6 -5,-6zm-2 6c0,-1 0,-3 0,-4 -1,-1 -3,-4 2,-1 1,2 1,2 2,3 0,1 0,1 1,1 0,2 1,4 1,6 -2,0 -4,0 -5,0 -2,0 -3,0 -4,0 1,-2 3,-2 3,-5zm-8 -3c0,0 -2,-1 -2,-1 -1,-1 1,-2 2,-2 1,0 0,0 0,1 0,1 1,1 0,2zm47 10c-1,0 -1,0 -2,0 0,0 1,0 0,-1 -5,0 -7,-2 -11,-2 2,-1 1,-1 2,-2 1,-1 1,-2 2,-2 0,-1 3,-3 4,-4 0,2 -1,2 0,4 0,1 1,2 1,3l2 2c1,1 2,1 2,1 3,0 0,1 4,0 1,0 0,0 1,0l0 0c1,-1 1,-1 1,-2 1,-1 2,-3 2,-5 -1,-1 -1,-1 0,-1 -2,-2 -1,-1 -2,-2 0,0 0,0 0,0l-1 -1c2,0 3,1 4,1 1,1 0,0 1,2l3 3c1,1 3,3 1,4 0,1 -2,1 -3,1 -1,0 -1,0 -2,0 -1,1 -2,0 -3,0l-6 1zm-1 -14c-2,0 -7,2 -8,3 -2,2 -6,7 -6,7 -1,3 0,2 0,2 1,0 1,1 2,1 6,2 7,3 15,3 2,0 6,0 8,-1 2,-1 7,-1 7,-2l-2 -4c0,-1 0,-1 -1,-1 -1,-3 -4,-5 -6,-6 -1,-1 -1,-1 -2,-1 -2,-1 -2,-1 -4,-1 -1,0 -2,0 -3,0z"/>
    <path class="fil1" d="M148 88c1,-1 2,-2 4,-2 3,0 4,4 4,6 1,2 0,5 -3,8 -1,0 -1,-1 -1,-3 0,0 0,-1 -1,-1 0,-2 -1,-2 -2,-5 0,-3 -1,-2 -1,-3zm-3 -1c0,1 0,1 0,2 0,1 1,1 1,2l2 1c1,2 1,3 1,4 1,2 1,3 2,4 0,1 1,3 2,3 1,0 1,-2 2,-3 4,-6 5,-15 -3,-16 -2,0 -4,1 -5,2 -1,0 0,0 -1,0l-1 1z"/>
    <path class="fil1" d="M39 103c-3,-2 -4,-6 -3,-9 0,-1 0,0 1,-1 2,-5 3,9 2,10zm1 3c1,0 0,0 1,-1 0,0 0,-1 0,-2 0,-1 1,-5 1,-6 0,0 0,0 0,-1 0,0 0,-1 0,-1l-1 -3c-1,-2 -1,-1 -1,-2 -5,-1 -3,1 -6,3 -1,4 4,15 6,13z"/>
    <g>
     <path class="fil1" d="M86 83c1,0 0,0 0,1 1,0 1,2 2,3 0,1 0,2 0,3 0,3 1,5 1,8 0,1 0,0 0,1 0,0 0,2 1,4 0,2 2,2 2,0 1,-5 0,-5 0,-9 0,-1 -1,-2 -1,-3 0,-1 0,-2 0,-2 -1,-2 -1,-2 -2,-5 0,-2 -1,-1 -3,-1z"/>
     <path class="fil1" d="M60 72c0,0 0,0 0,0 0,0 0,1 1,0 0,0 0,0 0,0 0,0 0,0 1,0 4,-1 6,-2 9,-1 1,0 1,0 1,0 1,0 0,0 1,0 1,1 2,1 3,2 1,0 1,1 2,1 1,0 2,0 3,1 1,-2 1,-3 -1,-4 -1,0 -2,0 -3,-1 -1,0 0,0 -2,-1 -3,0 -3,-1 -8,0 -2,0 -6,0 -7,3z"/>
     <path class="fil1" d="M107 127c0,-1 0,-1 -1,-1 -1,1 0,1 -2,1 -1,1 -5,1 -6,1 -3,-1 -2,0 -6,0 -1,0 -1,1 -2,1 -2,0 -1,-1 -2,-1 0,0 0,2 0,2 1,1 6,1 7,1 1,-1 2,-1 3,-1 0,0 1,0 2,0l5 -1c3,0 2,0 2,-2z"/>
     <path class="fil1" d="M117 71c7,0 5,0 7,1 0,1 0,1 0,1 1,-1 0,-1 1,-1 -1,0 -2,-2 -3,-2 -4,-1 -6,-1 -7,-1 -2,0 -7,2 -9,3 0,0 -2,1 -2,1 0,1 0,1 0,2l1 1c1,0 8,-4 12,-5z"/>
     <path class="fil1" d="M99 113c0,2 -1,1 0,3 1,0 1,-1 2,-1 1,1 3,1 4,0 0,-1 1,-4 -3,-3 -1,0 -1,1 -2,1 0,1 0,1 0,0l-1 0z"/>
     <path class="fil1" d="M91 115c0,-1 -1,-1 -1,-2 -1,0 -1,0 -2,-1 0,0 -3,-1 -4,0 0,0 1,1 1,2 1,0 1,0 2,1 1,0 3,0 4,0z"/>
     <path class="fil1" d="M127 112c-1,0 -1,0 -1,1 -1,0 -1,1 -2,1 -1,1 -6,3 -7,3l-7 3c-1,0 -1,0 -1,0 -2,1 -5,2 -7,2l-16 1c-2,-1 -15,-3 -16,-4 0,0 0,-1 0,-1 -2,0 -3,1 -4,2 1,1 1,1 1,1 1,1 1,1 3,1 1,0 17,2 17,3 1,0 1,0 2,0 2,0 2,0 4,0 7,-2 5,0 8,0 2,0 2,0 4,-1 1,0 2,-1 3,-1 1,0 2,-1 3,-1 2,-1 5,-2 7,-3 1,0 2,-1 3,-1 2,-1 2,-1 3,-2l0 0c2,0 2,-1 4,-1 1,1 1,1 2,0 2,-2 -2,-3 -3,-3z"/>
    </g>
   </g>
   <path class="fil2" d="M74 138c-13,-5 -17,-4 -28,-14 -1,-1 -2,-2 -3,-4 -1,-2 -2,-5 -1,-7 0,0 1,-5 1,-5 0,-1 0,-1 0,-2 1,-1 1,-1 1,-1 0,-1 0,-1 1,-2 0,-1 1,-4 0,-6l-1 -3c-1,-1 -3,-7 -3,-8 0,-1 1,-3 1,-4 0,-2 0,-1 1,-2 1,-2 2,-4 3,-5 1,0 1,0 2,-1 0,0 1,0 1,-1l3 -2c0,0 0,0 1,-1l0 0c5,-5 12,-9 10,-16l-1 -2c-5,-14 13,-14 22,-16l4 -1c1,0 1,0 1,0 0,0 0,0 0,0 3,-1 2,-1 2,0 1,1 -1,4 3,6 2,1 3,2 4,2 1,1 2,1 3,1 10,1 18,3 25,11 1,2 1,2 1,3 3,4 8,18 9,23 0,0 0,2 1,3 0,0 0,1 0,3 1,0 1,0 1,1 0,1 3,6 4,7 1,2 1,2 2,3 1,3 1,2 1,3l1 1c2,4 3,9 1,12 0,1 0,0 0,1 0,0 0,1 -1,2l0 0c0,0 0,0 0,0 0,1 0,1 0,1 -6,8 -18,12 -27,18l0 1c-1,0 -1,0 -1,0l-1 1c-1,0 -2,1 -2,2 0,6 5,16 6,20 0,1 0,1 1,2 0,0 0,0 0,0 1,0 2,-3 3,-4 0,-1 0,-1 0,-2 1,0 1,0 1,-1 1,-3 3,-2 5,0 1,0 1,0 1,1 0,0 1,1 1,1 0,6 2,14 7,19 0,0 4,5 4,5 0,-1 0,0 0,-1l0 -4c0,-1 1,-2 1,-4 0,-1 0,-2 1,-3 1,-2 2,-2 3,-1 4,1 6,4 6,4 0,0 1,1 1,1 1,0 1,0 1,0 -1,-7 -6,-10 -4,-19 3,-18 31,-35 25,-52l-2 -4 -4 -5c0,-1 0,-1 0,-2 0,0 -1,0 -1,0 0,-1 0,-1 0,-1l-4 -5c-1,-1 -3,-6 -4,-6 -1,-1 -1,-3 -2,-4l-1 -1c-4,-10 -7,-12 -8,-21 0,-1 -1,-1 -1,-2 0,-1 0,-1 0,-2 -1,-1 -1,0 -1,-1 -1,-4 -2,-8 -4,-10 -1,-5 -3,-7 -3,-7 0,0 -1,-1 -1,-1 -6,-3 -14,-5 -15,-5 -1,-1 -1,-1 -2,-1 -3,0 -7,0 -10,0 -8,3 -4,1 -13,4 0,0 0,0 0,0 -1,0 -1,0 -2,-1 0,0 -1,0 -1,0 -5,-1 -6,-2 -11,-5 -2,-2 -4,-2 -11,-1 0,0 -1,0 -2,0 0,0 0,0 0,1 -10,1 -14,6 -22,13 0,1 -1,1 -2,2 0,2 -1,3 -2,4 0,1 -1,1 -2,3 -2,7 -6,12 -8,19 0,1 0,0 0,1l-2 4c0,1 0,0 0,1l-2 3c0,1 0,1 -1,2l-1 2c-1,2 -1,3 -2,5 -1,1 -2,4 -2,5 -1,0 -1,0 -1,1l-2 3c-3,4 -6,6 -7,10 -5,9 1,15 7,21 2,2 4,6 5,7 0,0 1,2 2,2 0,1 1,2 2,4 0,0 1,1 1,1 1,1 1,1 1,1l8 13c1,1 1,1 1,1l2 5c1,1 1,2 2,3 1,1 1,3 2,5 1,3 0,4 1,5 0,0 0,-1 0,-1l0 0c1,0 1,-1 1,-2l2 -1c1,0 2,0 3,1 1,1 1,1 1,1 0,1 1,1 1,1l1 1c0,2 0,1 1,2l1 3c2,2 1,2 3,3 -1,0 -1,0 -1,1l2 5c1,0 1,-1 1,-1 0,0 0,0 0,-1l0 0 1 -5c0,-2 1,-5 4,-5l1 2c0,0 0,0 0,0l0 0c0,1 0,1 1,1 0,0 0,1 0,1 1,0 0,0 1,0 0,-1 0,0 0,-1 0,0 0,0 0,-1 0,-1 0,-1 1,-2 0,-2 0,-3 0,-5 0,-3 0,-6 0,-9 0,-1 0,-2 0,-3 0,-1 0,-2 0,-2l0 -2c0,0 0,-1 0,-1 0,0 0,0 0,0 -1,-1 -1,-1 -1,-2 -1,-1 -2,-6 -2,-6 0,-2 0,-2 -1,-2zm-34 -32c-2,2 -7,-9 -6,-13 3,-2 1,-4 6,-3 0,1 0,0 1,2l1 3c0,0 0,1 0,1 0,1 0,1 0,1 0,1 -1,5 -1,6 0,1 0,2 0,2 -1,1 0,1 -1,1zm106 -15c0,-1 -1,-1 -1,-2 0,-1 0,-1 0,-2l1 -1c1,0 0,0 1,0 1,-1 3,-2 5,-2 8,1 7,10 3,16 -1,1 -1,3 -2,3 -1,0 -2,-2 -2,-3 -1,-1 -1,-2 -2,-4 0,-1 0,-2 -1,-4l-2 -1z"/>
   <path class="fil3" d="M103 90c4,0 6,2 11,2 1,1 0,1 0,1 1,0 1,0 2,0l6 -1c1,0 2,1 3,0 1,0 1,0 2,0 1,0 3,0 3,-1 2,-1 0,-3 -1,-4l-3 -3c-1,-2 0,-1 -1,-2 -1,0 -2,-1 -4,-1l1 1c0,0 0,0 0,0 1,1 0,0 2,2 -1,0 -1,0 0,1 0,2 -1,4 -2,5 0,1 0,1 -1,2l0 0c-1,0 0,0 -1,0 -4,1 -1,0 -4,0 0,0 -1,0 -2,-1l-2 -2c0,-1 -1,-2 -1,-3 -1,-2 0,-2 0,-4 -1,1 -4,3 -4,4 -1,0 -1,1 -2,2 -1,1 0,1 -2,2z"/>
   <path class="fil3" d="M66 87c-1,-2 -2,-2 -1,-4 0,-1 -1,-1 0,-1 0,-1 0,-1 0,-2l0 0c-1,0 0,0 -2,1 0,0 0,0 0,0 -1,1 -4,4 -4,5 -1,2 -2,3 -2,4 2,1 3,0 6,0 2,0 3,0 5,0 0,-1 -2,-1 -2,-3z"/>
   <path class="fil2" d="M50 90l1 -6c0,-2 0,-3 0,-4l1 -3c0,-1 0,-1 0,-2 0,0 0,0 0,-1 -1,1 -1,1 -1,1l0 1 -1 0c0,0 0,0 0,1 -1,0 -1,0 -2,1 -2,3 -3,3 -4,6 0,3 1,5 2,7 0,1 1,2 1,3 1,3 1,2 1,2 0,-1 0,-2 1,-3 0,-1 0,-2 1,-3z"/>
   <g id="_397839224">
    <path class="fil4" d="M44 116c2,8 17,13 21,15 4,2 8,4 12,6 1,0 0,0 1,0 1,1 1,1 2,1 7,6 12,9 16,9 4,0 10,-3 15,-8l2 -1c1,-1 2,-1 3,-2 3,-3 27,-14 29,-23 1,-5 0,-6 -2,-10 -1,-3 -1,-3 -3,-6 -1,0 -1,-1 -2,-2l-1 -3c-2,-2 -3,-8 -4,-10 0,-1 0,-2 0,-2 -2,-5 -7,-20 -9,-21 0,0 0,0 0,0 0,0 0,0 -1,-1 0,0 0,0 0,0 0,-1 -1,-1 -1,-2 -8,-7 -17,-8 -18,-8 -1,0 -1,-1 -3,-1 -2,0 -2,0 -3,-1 -4,-2 -4,-2 -7,-5 0,-1 -1,-3 -2,-4 -1,1 -1,0 -2,1l0 0c-1,0 -1,0 -1,0 -1,0 -1,0 -1,0 -5,2 -11,1 -15,3 -3,1 -5,4 -5,7 0,1 1,4 1,7l0 2c-1,6 -3,7 -7,11 -1,1 0,1 -1,1 0,0 -1,1 -1,1 -1,1 -1,0 -1,1 0,0 0,0 0,0l-1 2c0,1 0,2 0,2 -1,1 -1,2 -1,2 0,1 0,1 0,2 0,0 0,5 -1,8l-1 5c-1,1 -1,2 -1,3 -1,0 0,0 -1,1l-1 3c0,1 0,1 0,2 0,1 -1,2 -1,3 -1,2 -3,6 -4,9 0,1 0,2 0,3zm82 -3c0,-1 0,-1 1,-1 1,0 5,1 3,3 -1,1 -1,1 -2,0 -2,0 -2,1 -4,1l0 0c-1,1 -1,1 -3,2 -1,0 -2,1 -3,1 -2,1 -5,2 -7,3 -1,0 -2,1 -3,1 -1,0 -2,1 -3,1 -2,1 -2,1 -4,1 -3,0 -1,-2 -8,0 -2,0 -2,0 -4,0 -1,0 -1,0 -2,0 0,-1 -16,-3 -17,-3 -2,0 -2,0 -3,-1 0,0 0,0 -1,-1 1,-1 2,-2 4,-2 0,0 0,1 0,1 1,1 14,3 16,4l16 -1c2,0 5,-1 7,-2 0,0 0,0 1,0l7 -3c1,0 6,-2 7,-3 1,0 1,-1 2,-1zm-37 -15c0,-3 -1,-5 -1,-8 0,-1 0,-2 0,-3 -1,-1 -1,-3 -2,-3 0,-1 1,-1 0,-1 2,0 3,-1 3,1 1,3 1,3 2,5 0,0 0,1 0,2 0,1 1,2 1,3 0,4 1,4 0,9 0,2 -2,2 -2,0 -1,-2 -1,-4 -1,-4 0,-1 0,0 0,-1zm35 -26c-2,-1 0,-1 -7,-1 -4,1 -11,5 -12,5l-1 -1c0,-1 0,-1 0,-2 0,0 2,-1 2,-1 2,-1 7,-3 9,-3 1,0 3,0 7,1 1,0 2,2 3,2 -1,0 0,0 -1,1 0,0 0,0 0,-1zm-23 19c0,0 -1,1 0,-2 0,0 4,-5 6,-7 1,-1 6,-3 8,-3 1,0 2,0 3,0 2,0 2,0 4,1 1,0 1,0 2,1 2,1 5,3 6,6 1,0 1,0 1,1l2 4c0,1 -5,1 -7,2 -2,1 -6,1 -8,1 -8,0 -9,-1 -15,-3 -1,0 -1,-1 -2,-1zm-39 1c-2,0 -4,0 -6,-1 0,-1 0,0 -1,-1 0,-1 1,-3 2,-3 1,-3 0,-2 2,-4 0,0 0,0 0,-1 1,0 1,0 1,0 2,-3 1,-1 3,-3 2,-2 3,-2 7,-2 1,0 3,0 4,0 2,1 3,1 4,1 0,1 0,1 1,2 0,0 4,3 5,6l1 2c0,1 0,1 0,3 -2,1 0,1 -4,1l-3 1c-5,0 -8,0 -12,-1 -1,0 -3,0 -4,0zm-1 -20c-1,1 -1,0 -1,0 0,0 0,0 0,0 1,-3 5,-3 7,-3 5,-1 5,0 8,0 2,1 1,1 2,1 1,1 2,1 3,1 2,1 2,2 1,4 -1,-1 -2,-1 -3,-1 -1,0 -1,-1 -2,-1 -1,-1 -2,-1 -3,-2 -1,0 0,0 -1,0 0,0 0,0 -1,0 -3,-1 -5,0 -9,1 -1,0 -1,0 -1,0 0,0 0,0 0,0zm24 42c0,-1 -1,-2 -1,-2 1,-1 4,0 4,0 1,1 1,1 2,1 0,1 1,1 1,2 -1,0 -3,0 -4,0 -1,-1 -1,-1 -2,-1zm14 2c-1,-2 0,-1 0,-3l1 0c0,1 0,1 0,0 1,0 1,-1 2,-1 4,-1 3,2 3,3 -1,1 -3,1 -4,0 -1,0 -1,1 -2,1zm7 10c1,0 1,0 1,1 0,2 1,2 -2,2l-5 1c-1,0 -2,0 -2,0 -1,0 -2,0 -3,1 -1,0 -6,0 -7,-1 0,0 0,-2 0,-2 1,0 0,1 2,1 1,0 1,-1 2,-1 4,0 3,-1 6,0 1,0 5,0 6,-1 2,0 1,0 2,-1z"/>
    <path class="fil4" d="M39 103c1,-1 0,-15 -2,-10 -1,1 -1,0 -1,1 -1,3 0,7 3,9z"/>
    <path class="fil4" d="M149 91c1,3 2,3 2,5 1,0 1,1 1,1 0,2 0,3 1,3 3,-3 4,-6 3,-8 0,-2 -1,-6 -4,-6 -2,0 -3,1 -4,2 0,1 1,0 1,3z"/>
   </g>
   <path class="fil3" d="M83 91c0,-2 -1,-4 -1,-6 -1,0 -1,0 -1,-1 -1,-1 -1,-1 -2,-3 -5,-3 -3,0 -2,1 0,1 0,3 0,4 0,3 -2,3 -3,5 1,0 2,0 4,0 1,0 3,0 5,0z"/>
   <path class="fil3" d="M69 83c1,-1 0,-1 0,-2 0,-1 1,-1 0,-1 -1,0 -3,1 -2,2 0,0 2,1 2,1z"/>
   <path class="fil3" d="M115 83l-1 1 0 1c1,1 2,-1 3,-1 -1,-1 -1,-1 -2,-1z"/>
  </g>
 </g>
</svg>
