<?xml version="1.0" encoding="UTF-8"?>
<!DOCTYPE svg PUBLIC "-//W3C//DTD SVG 1.1//EN" "http://www.w3.org/Graphics/SVG/1.1/DTD/svg11.dtd">
<!-- Creator: CorelDRAW X7 -->
<svg xmlns="http://www.w3.org/2000/svg" xml:space="preserve" width="200px" height="200px" version="1.1" style="shape-rendering:geometricPrecision; text-rendering:geometricPrecision; image-rendering:optimizeQuality; fill-rule:evenodd; clip-rule:evenodd"
viewBox="0 0 200 200"
 xmlns:xlink="http://www.w3.org/1999/xlink">
 <defs>
  <style type="text/css">
   <![CDATA[
    .fil1 {fill:#FEFEFE}
    .fil0 {fill:#2B2A29}
    .fil3 {fill:#FFF386}
    .fil2 {fill:#E2C297}
   ]]>
  </style>
 </defs>
 <g id="Layer_x0020_1">
  <metadata id="CorelCorpID_0Corel-Layer"/>
  <g id="_390036696">
   <path class="fil0" d="M44 113c0,1 0,1 -1,2 -5,0 -2,-3 -6,0 -5,3 -6,10 -2,13 2,1 3,0 5,2l-2 0c0,1 0,3 -1,4 -2,0 1,1 -4,-3 -4,-2 -5,-8 -3,-13l4 -4c3,-3 0,-3 3,-5 0,0 4,-1 5,-1 3,2 5,-1 2,5zm17 -90l-1 1c-1,0 -2,1 -3,3 -5,10 -4,6 -7,16 -2,5 -2,14 -3,16l-2 -4c-1,1 -1,1 -2,3 -1,1 -1,0 -1,1 0,2 -1,12 -1,17 0,0 0,1 0,1 -1,1 -1,1 -1,1 0,1 -2,11 -1,15 0,1 0,1 1,2 0,5 0,5 1,10 -2,0 -2,-1 -4,0 -1,1 -3,1 -4,2 -4,2 -6,5 -6,9 -1,4 0,2 -1,5l0 1c0,0 0,0 0,0 0,3 1,7 2,10 2,3 4,2 10,6 0,3 -3,5 0,9 3,5 3,10 11,15 5,3 0,1 6,2 4,2 7,5 8,6 1,0 1,0 2,1 6,4 9,5 14,10 3,4 7,5 13,6 7,1 12,-2 18,-5 5,-3 5,-2 9,-4 3,-3 4,-2 6,-4 2,-1 6,-3 8,-4 3,-1 2,-1 4,-1 0,-1 0,-1 0,-1l2 -1c1,-1 0,0 1,-1 1,-2 1,-1 2,-2 3,-2 5,-5 7,-8 0,-1 0,-2 1,-3 2,1 0,-1 1,1 1,2 -1,1 4,1l3 1c-1,3 -1,7 0,9 2,2 5,2 6,0 2,0 1,-5 1,-9 4,-1 6,-2 5,-6l-1 -2 -5 0c0,-5 -1,-6 -2,-10l2 -3c0,-1 0,0 0,-1 3,-5 5,-11 3,-17 -2,-7 -6,-9 -15,-9 1,-3 0,-1 1,-2 0,-1 0,-2 1,-4 1,-3 0,-9 0,-12 0,-2 1,-13 -2,-15 -1,0 -2,-1 -3,-1 0,1 0,1 0,2 0,1 0,1 0,1 0,1 1,1 1,2 0,1 0,1 0,2 0,2 0,0 0,2 1,6 0,4 0,9 0,3 1,3 0,5 -1,3 0,3 -3,9 0,1 0,1 -1,2 0,2 1,1 0,2 -1,1 -1,0 -1,1 -2,3 0,2 -2,3 1,2 -1,3 -1,3 -1,2 -5,9 -5,9 -1,-1 -1,1 -1,-1l-1 -2c-2,-1 0,-2 -4,0 -1,2 -1,5 -2,8l-2 7c-2,-3 -2,-10 -3,-14 0,-2 -1,-3 -2,-5 -1,-1 -1,-1 -1,-3 -3,-8 -5,-7 -9,-11l-5 -6c-3,-5 -5,-5 -9,-11 -2,-3 -3,-7 -5,-10 -2,-3 -3,-7 -6,-10 -1,-3 -1,-3 -4,-4 -3,0 -4,0 -5,2 -1,-2 0,-4 -2,-5 -3,0 -1,0 -2,1l-3 2c0,0 1,-1 0,1l-1 0c-1,-2 0,-1 -1,-3 -1,-1 -1,-1 -2,-2 -1,1 0,0 -1,1l-2 4c0,0 0,1 0,1l-1 4c-1,3 -2,3 -2,7 -3,1 -1,-1 -2,2 0,0 -1,1 -1,2 -1,1 -1,0 -2,2 0,1 1,0 -1,1 -2,3 -2,7 -4,9 0,2 -1,2 -1,4 0,3 0,2 -1,4 0,0 0,0 0,0l-1 3c0,1 0,0 -1,1 0,1 0,0 -1,1 -2,-2 -1,-3 -2,-6 -1,-3 -2,-7 -1,-10 0,-2 0,-6 0,-9 0,-2 1,-2 1,-3 0,-2 0,0 0,-3 1,-1 0,-1 0,-3 1,-2 1,-3 1,-7 1,1 3,4 5,5 2,-1 3,-1 3,-4 -1,-9 -1,-9 0,-19 1,-2 1,-4 2,-5 0,-2 0,-1 1,-3l1 -2c1,-1 4,-8 5,-9 0,1 1,2 1,3 1,1 1,2 2,4l1 3c0,1 1,2 3,3 2,-1 2,-3 2,-3 0,0 0,0 0,0 1,-2 0,0 1,-1l1 -2c1,-1 1,-1 2,-2 1,0 1,-1 2,-3 0,0 0,0 0,0l4 -3c0,0 0,0 1,0 0,-1 1,-1 1,-2 5,-5 5,-3 8,-6 0,-1 1,-1 1,-1l4 -3c0,1 0,1 0,3 0,0 0,0 0,0l-2 1c1,0 0,0 0,0 0,0 0,0 0,0 1,0 1,0 1,0l1 1c0,0 0,1 0,1 0,1 0,3 0,4l2 0 1 1 -2 1c2,1 4,0 5,0 1,1 0,0 1,1 1,0 1,1 0,-1 0,-1 0,0 0,-1 3,0 4,0 5,-1 0,0 0,0 0,0l0 0c0,0 1,0 1,0 0,0 -1,0 0,0 0,0 0,0 0,0 0,0 1,0 1,0 3,-1 3,1 6,0 2,0 12,0 14,2 -1,0 -1,0 -1,0l-2 1c-1,0 0,0 -1,0l-1 1c1,2 1,1 1,3 -1,1 -1,1 -1,2 1,1 0,1 1,0l0 2c1,0 2,1 4,1l7 3c0,1 1,1 1,1 1,1 1,1 2,1l7 5c1,1 0,1 2,1 2,1 2,1 3,3 -2,0 -5,0 -6,1 -2,1 -1,0 -1,1 0,1 2,1 3,1l-1 2c2,1 2,1 3,3 1,1 2,2 3,4 1,0 1,1 1,1 2,2 3,4 4,6 -1,1 -1,1 -2,2 2,0 1,0 2,1l-5 -2c-3,-2 -4,-3 -6,-2 0,2 0,2 2,3 -1,0 -1,-1 -1,1 0,1 1,1 1,1 2,1 5,0 8,3l2 1c1,0 0,1 1,1l3 1c3,-9 -2,-12 -5,-17l-4 -6c-1,-1 -2,-1 -3,-2 4,0 0,0 2,1 1,-1 1,1 0,-2l4 0 0 -1c0,-4 -3,-4 -5,-6 -5,-4 -14,-12 -21,-13 1,-1 2,-3 3,-4 1,0 1,0 2,-1 1,-1 1,-2 1,-3 1,-2 2,0 2,-3 -1,0 -3,-1 -4,-2 0,-1 0,0 -1,-1 -1,-1 -4,-1 -6,-2l-15 0c0,1 -2,0 -2,0 -3,1 -1,1 -2,1 -2,0 -3,0 -4,0 -1,0 -2,1 -4,1 -1,-1 -1,1 -1,-2 -1,1 0,1 -1,2 -1,-1 -1,0 -2,-1 1,-1 1,-1 1,-1 1,-2 0,0 0,-2 1,-1 2,-1 1,-3 0,-2 -3,0 -5,-1 1,0 0,0 0,-1 -1,0 -4,3 -7,5l-10 7c-6,4 -6,8 -8,8 -1,-1 -2,-8 -3,-10 -2,0 -4,1 -5,2zm22 114c1,0 1,0 1,0 0,0 1,0 1,0 2,1 4,2 6,1 0,-3 -1,-3 -3,-3 -2,-1 -4,0 -5,1l0 1zm15 0c1,1 0,0 1,1 1,0 2,2 6,1l2 -1c-1,-2 0,-1 -2,-2 -2,-1 -6,-2 -7,1zm-31 -50c2,-1 0,0 3,-1 5,-2 4,0 10,0 0,-2 0,-2 -2,-3 -2,-1 -2,-2 -5,-2 -2,0 -5,2 -6,4 0,1 0,1 0,2zm95 68c-1,1 0,3 0,5 0,3 0,2 0,5 -4,0 -3,-2 -3,-6 0,-2 -1,-6 -1,-7 -1,1 -3,2 -5,1 0,-2 0,-1 3,-2 1,-1 1,0 2,0 0,-3 0,-6 1,-7 0,-1 0,-1 0,-1 0,0 1,0 1,0 0,0 0,-1 1,0l0 7c4,2 7,-2 8,2 -2,1 -5,2 -7,1l0 2zm-76 3c1,1 1,1 5,2 5,1 3,1 6,1 1,1 4,1 6,1 1,1 3,0 5,1 -1,-2 -3,-2 -6,-2 -3,-1 -4,-2 -6,-3 0,0 -9,-2 -11,-2 0,0 -2,1 -2,1 1,1 1,1 3,1l0 0zm4 -28c-1,-2 0,-2 2,-2 3,-2 5,-1 9,-1 2,1 1,1 2,1 0,-2 -1,-3 -3,-4 -2,-1 -4,-1 -6,-1 -3,1 -10,3 -8,5 1,2 2,0 4,2zm-21 -13c0,1 0,2 0,3 -2,0 -3,0 -5,-1l0 -2c1,-1 2,-2 4,-2l1 2zm-1 -12c0,0 0,0 0,1 2,1 2,2 2,3 -1,5 -8,3 -6,-1 1,-2 2,-2 4,-3zm8 -2c1,0 1,-1 2,0 2,2 -1,1 1,2 0,1 0,0 1,1 1,1 7,9 7,12 -5,4 -12,8 -18,6 -15,-4 -12,-6 -16,-8 1,-2 2,-5 3,-6 2,-2 1,-2 2,-3 0,-1 1,-2 2,-2 -1,3 -2,3 -2,7 1,1 2,5 3,6 3,4 7,4 13,4 0,-2 1,-2 2,-3 4,-4 4,-9 1,-14 -1,-1 -2,-1 -3,-2 -3,-1 -4,-1 -6,-1 -2,0 -2,0 -2,0 1,-1 4,-1 6,-1 3,-1 3,1 4,2zm13 14c1,3 2,3 3,3 -1,-2 -2,-3 -3,-4 -1,-3 -3,-9 -6,-13 -3,-4 -4,-4 -7,-4 -8,-2 -11,0 -16,2 -7,4 -10,10 -10,14 2,10 21,16 33,9 5,-3 5,-3 6,-6l0 -1c0,0 0,0 0,0zm25 -6c0,1 -1,6 2,8 2,2 3,-1 5,5 -2,0 -7,-3 -8,-4 -1,-1 -1,-2 -3,-3 -1,-1 -2,-1 -3,-2l3 -3c2,-2 2,-2 4,-1zm9 41c0,0 0,0 0,0l3 -1c1,-1 1,-1 2,-3 3,0 5,-2 7,-3 1,-1 2,-1 3,-2l2 -1c2,-1 1,-4 -2,-3l-7 4c-1,1 -3,3 -2,0 0,0 0,0 0,0 0,0 0,-1 0,-1 1,-2 1,-3 1,-4 3,-6 0,-3 2,-6 0,0 0,0 0,0 1,-1 1,-5 1,-6 1,1 0,1 1,2 0,1 1,1 1,2l0 2c2,4 4,0 5,-2 1,-1 1,-1 2,-2l2 -4c1,0 2,-4 3,-4 1,2 1,13 2,17 0,2 1,5 0,8 0,2 -1,5 -2,7 0,2 -2,5 -3,6 -3,5 -10,7 -14,10 -5,3 -11,5 -17,7 -4,2 -15,10 -19,9 -10,-2 -6,1 -11,-3 -3,-2 -4,-4 -5,-5 -7,-5 -11,-8 -20,-13 -2,-1 -2,-1 -3,-2 -2,-2 -6,-4 -8,-6 -2,-3 -2,-2 -4,-5 -1,-2 -4,-9 -3,-11 0,-4 1,-9 2,-12 2,-4 4,-9 6,-13 1,-2 0,-3 1,-4 2,-3 2,-2 3,-8l1 -4c1,-1 0,0 1,-2 0,-3 1,-4 3,-6 0,-1 0,-2 1,-3l1 -2c1,-1 2,-3 2,-4 2,-1 1,-1 2,-2 0,0 0,-1 1,-1l0 0c0,-1 0,-2 1,-3 1,-1 1,0 2,-1 -2,-1 0,-5 1,-7 3,1 -1,2 3,3 1,0 -1,1 0,0 0,0 0,-1 0,-1l1 -1c0,-1 0,0 2,0 0,0 -1,-1 -1,-1l0 -1c2,-1 0,-1 2,-1 1,2 1,4 3,5 2,0 0,1 1,0 2,-1 2,-2 4,-3 1,2 1,0 2,2 0,2 0,3 1,5 0,0 0,0 0,0l7 16c1,2 7,10 8,11 2,1 3,2 5,2 2,1 0,0 2,2 1,1 1,1 2,2 -2,2 -8,5 -6,9 1,0 2,1 3,2 2,2 6,5 8,6 2,0 -1,-1 1,-1 2,3 4,1 6,3 1,3 1,7 2,10 1,3 0,10 -1,11 -4,2 -14,3 -20,3 -4,0 -16,-2 -20,-2 -12,-3 -17,-8 -25,-10 -2,-1 -1,-2 -3,-2 -2,0 -3,1 -3,2 2,2 6,1 9,2l5 3c3,1 8,2 10,4 3,2 4,1 8,2l7 2c2,1 3,0 5,1 2,0 2,0 4,1 4,0 10,0 14,0 4,-1 3,0 4,0 -1,1 0,0 -1,-1 3,0 4,-2 6,-2l-1 3c0,-1 0,-1 1,-1zm34 -10c0,1 -1,2 -2,6 -1,1 -1,1 -3,2 0,-2 2,-5 2,-10l3 2zm-6 -29c1,-1 2,-2 3,-2 2,0 4,0 5,0 1,0 1,1 2,1l3 3c0,0 0,0 0,0 4,6 2,12 -2,18 0,1 0,-1 0,1 -1,-1 -1,-1 -1,-1 -2,-1 -2,-1 -3,0l0 5c-2,1 -2,0 -4,0 -1,-6 -2,-5 -3,-7 5,-1 1,1 5,1 1,-1 6,-5 6,-9 -1,-6 -6,-6 -8,-7 -3,-1 -1,0 -4,0 0,-2 0,-2 1,-3z"/>
   <g>
    <path class="fil1" d="M87 118c0,-3 -6,-11 -7,-12 -1,-1 -1,0 -1,-1 -2,-1 1,0 -1,-2 -1,-1 -1,0 -2,0 -1,-1 -1,-3 -4,-2 -2,0 -5,0 -6,1 0,0 0,0 2,0 2,0 3,0 6,1 1,1 2,1 3,2 3,5 3,10 -1,14 -1,1 -2,1 -2,3 -6,0 -10,0 -13,-4 -1,-1 -2,-5 -3,-6 0,-4 1,-4 2,-7 -1,0 -2,1 -2,2 -1,1 0,1 -2,3 -1,1 -2,4 -3,6 4,2 1,4 16,8 6,2 13,-2 18,-6z"/>
    <path class="fil1" d="M69 117l-1 -2c-2,0 -3,1 -4,2l0 2c2,1 3,1 5,1 0,-1 0,-2 0,-3z"/>
    <path class="fil1" d="M64 108c-2,4 5,6 6,1 0,-1 0,-2 -2,-3 0,-1 0,-1 0,-1 -2,1 -3,1 -4,3z"/>
    <path class="fil1" d="M110 112l-3 3c1,1 2,1 3,2 2,1 2,2 3,3 1,1 6,4 8,4 -2,-6 -3,-3 -5,-5 -3,-2 -2,-7 -2,-8 -2,-1 -2,-1 -4,1z"/>
   </g>
   <g>
    <path class="fil2" d="M79 70c0,0 0,0 0,0zm-8 0c0,0 -1,1 0,0zm47 83c0,0 0,0 0,0 0,0 0,0 0,0zm-17 -52c-1,-1 -7,-9 -8,-11l-7 -16 0 0c-1,-2 -1,-3 -1,-5 -1,-2 -1,0 -2,-2 -2,1 -2,2 -4,3 0,0 0,0 0,0 -1,0 -1,0 -1,0 -2,-1 -2,-3 -3,-5 -2,0 0,0 -2,1l0 1c0,0 1,1 1,1 -2,0 -2,-1 -2,0l-1 1c0,0 0,1 0,1 0,0 0,0 0,0 0,0 0,0 0,0 -4,-1 0,-2 -3,-3 -1,2 -3,6 -1,7 -1,1 -1,0 -2,1 -1,1 -1,2 -1,3l0 0c-1,0 -1,1 -1,1 -1,1 0,1 -2,2 0,1 -1,3 -2,4l-1 2c-1,1 -1,2 -1,3 -2,2 -3,3 -3,6 -1,2 0,1 -1,2l-1 4c-1,6 -1,5 -3,8 -1,1 0,2 -1,4 -2,4 -4,9 -6,13 -1,3 -2,8 -2,12 -1,2 2,9 3,11 2,3 2,2 4,5 2,2 6,4 8,6 1,1 1,1 3,2 9,5 13,8 20,13 1,1 2,3 5,5 5,4 1,1 11,3 4,1 15,-7 19,-9 6,-2 12,-4 17,-7 4,-3 11,-5 14,-10 1,-1 3,-4 3,-6 1,-2 2,-5 2,-7 1,-3 0,-6 0,-8 -1,-4 -1,-15 -2,-17 -1,0 -2,4 -3,4l-2 4c-1,1 -1,1 -2,2 -1,2 -3,6 -5,2l0 -2c0,-1 -1,-1 -1,-2 -1,-1 0,-1 -1,-2 0,1 0,5 -1,6 0,0 0,0 0,0 -2,3 1,0 -2,6 0,1 0,2 -1,4l0 1c0,0 0,0 0,0 -1,3 1,1 2,0l7 -4c3,-1 4,2 2,3l-2 1c-1,1 -2,1 -3,2 -2,1 -4,3 -7,3 -1,2 -1,2 -2,3l-3 1c0,0 0,0 0,0 -1,0 -1,0 -1,1l1 -3c-2,0 -3,2 -6,2 0,0 0,1 1,1 -1,0 -1,-1 -4,0 -4,0 -10,0 -14,0 -2,-1 -2,-1 -4,-1 -2,-1 -3,0 -5,-1l-7 -2c-4,-1 -5,0 -8,-2 -2,-2 -7,-3 -10,-4l-5 -3c-3,-1 -7,0 -9,-2 0,-1 1,-2 3,-2 2,0 1,1 3,2 8,2 13,7 25,10 4,0 16,2 20,2 6,0 16,-1 20,-3 1,-1 2,-8 1,-11 -1,-3 -1,-7 -2,-10 -2,-2 -4,0 -6,-3 -2,0 1,1 -1,1 -2,-1 -6,-4 -8,-6 -1,-1 -2,-2 -3,-2 -2,-4 4,-7 6,-9 -1,-1 -1,-1 -2,-2 -2,-2 0,-1 -2,-2 -2,0 -3,-1 -5,-2zm-18 2c3,4 5,10 6,13 1,1 2,2 3,4 -1,0 -2,0 -3,-3 0,0 0,0 0,0l0 1c-1,3 -1,3 -6,6 -12,7 -31,1 -33,-9 0,-4 3,-10 10,-14 5,-2 8,-4 16,-2 3,0 4,0 7,4zm0 33c1,-1 3,-2 5,-1 2,0 3,0 3,3 -2,1 -4,0 -6,-1l-1 0c0,0 0,0 -1,0l0 -1zm11 -13c2,0 4,0 6,1 2,1 3,2 3,4 -1,0 0,0 -2,-1 -4,0 -6,-1 -9,1 -2,0 -3,0 -2,2 -2,-2 -3,0 -4,-2 -2,-2 5,-4 8,-5zm4 14c1,-3 5,-2 7,-1 2,1 1,0 2,2l-2 1c-4,1 -5,-1 -6,-1 -1,-1 0,0 -1,-1zm-28 -51c-3,1 -1,0 -3,1 0,-1 0,-1 0,-2 1,-2 4,-4 6,-4 3,0 3,1 5,2 2,1 2,1 2,3 -6,0 -5,-2 -10,0zm15 70c2,0 11,2 11,2 2,1 3,2 6,3 3,0 5,0 6,2 -2,-1 -4,0 -5,-1 -2,0 -5,0 -6,-1 -3,0 -1,0 -6,-1 -4,-1 -4,-1 -5,-2l0 0c-2,0 -2,0 -3,-1 0,0 2,-1 2,-1z"/>
    <path class="fil2" d="M162 133c0,0 0,-1 0,0zm-11 -20c-1,1 -1,1 -1,3 3,0 1,-1 4,0 2,1 7,1 8,7 0,4 -5,8 -6,9 -4,0 0,-2 -5,-1 1,2 2,1 3,7 2,0 2,1 4,0l0 -5c1,-1 1,-1 3,0 0,0 0,0 1,1 0,-1 0,-1 0,-1 0,0 0,0 0,0 4,-6 6,-12 2,-18 0,0 0,0 0,0l-3 -3c-1,0 -1,-1 -2,-1 -1,0 -3,0 -5,0 -1,0 -2,1 -3,2z"/>
    <path class="fil2" d="M35 128c-4,-3 -3,-10 2,-13 4,-3 1,0 6,0 1,-1 1,-1 1,-2 3,-6 1,-3 -2,-5 -1,0 -5,1 -5,1 -3,2 0,2 -3,5l-4 4c-2,5 -1,11 3,13 5,4 2,3 4,3 1,-1 1,-3 1,-4l2 0c-2,-2 -3,-1 -5,-2z"/>
   </g>
   <g>
    <path class="fil3" d="M83 64c3,1 3,1 4,4 3,3 4,7 6,10 2,3 3,7 5,10 4,6 6,6 9,11l5 6c4,4 6,3 9,11 0,2 0,2 1,3 1,2 2,3 2,5 1,4 1,11 3,14l2 -7c1,-3 1,-6 2,-8 4,-2 2,-1 4,0l1 2c0,2 0,0 1,1 0,0 4,-7 5,-9 0,0 2,-1 1,-3 2,-1 0,0 2,-3 0,-1 0,0 1,-1 1,-1 0,0 0,-2 1,-1 1,-1 1,-2 3,-6 2,-6 3,-9 1,-2 0,-2 0,-5 0,-5 1,-3 0,-9 0,-2 0,0 0,-2 0,-1 0,-1 0,-2 0,-1 -1,-1 -1,-2 0,0 0,0 0,-1 0,-1 0,-1 0,-2 0,0 -1,0 -1,-1 0,-2 0,-1 1,-1 -2,-1 -2,-1 -2,-3 2,-1 3,0 6,2l5 2c-1,-1 0,-1 -2,-1 1,-1 1,-1 2,-2 -1,-2 -2,-4 -4,-6 0,0 0,-1 -1,-1 -1,-2 -2,-3 -3,-4 -1,-2 -1,-2 -3,-3l1 -2c-1,0 -3,0 -3,-1 0,-1 -1,0 1,-1 1,-1 4,-1 6,-1 -1,-2 -1,-2 -3,-3 -2,0 -1,0 -2,-1l-7 -5c-1,0 -1,0 -2,-1 0,0 -1,0 -1,-1l-7 -3c-2,0 -3,-1 -4,-1l0 -2c-1,1 0,1 -1,0 0,-1 0,-1 1,-2 0,-2 0,-1 -1,-3l1 -1c1,0 0,0 1,0l2 -1c0,0 0,0 1,0 -2,-2 -12,-2 -14,-2 -3,1 -3,-1 -6,0 0,0 -1,0 -1,0 0,0 0,0 0,0 -1,0 0,0 0,0 0,0 -1,0 -1,0l0 0c0,0 0,0 0,0 -1,1 -2,1 -5,1 0,1 0,0 0,1 1,2 1,1 0,1 -1,-1 0,0 -1,-1 -1,0 -3,1 -5,0l2 -1 -1 -1 -2 0c0,-1 0,-3 0,-4 0,0 0,-1 0,-1l-1 -1c0,0 0,0 -1,0 0,0 0,0 0,0 0,0 1,0 0,0l2 -1c0,0 0,0 0,0 0,-2 0,-2 0,-3l-4 3c0,0 -1,0 -1,1 -3,3 -3,1 -8,6 0,1 -1,1 -1,2 -1,0 -1,0 -1,0l-4 3c0,0 0,0 0,0 -1,2 -1,3 -2,3 -1,1 -1,1 -2,2l-1 2c0,0 -1,0 -1,0 0,0 0,0 0,1 0,0 0,0 0,0 0,0 0,2 -2,3 -2,-1 -3,-2 -3,-3l-1 -3c-1,-2 -1,-3 -2,-4 0,-1 -1,-2 -1,-3 -1,1 -4,8 -5,9l-1 2c-1,2 -1,1 -1,3 -1,1 -1,3 -2,5 -1,10 -1,10 0,19 0,3 -1,3 -3,4 -2,-1 -4,-4 -5,-5 0,4 0,5 -1,7 0,2 1,2 0,3 0,3 0,1 0,3 0,1 -1,1 -1,3 0,3 0,7 0,9 -1,3 0,7 1,10 1,3 0,4 2,6 1,-1 1,0 1,-1 1,-1 1,0 1,-1l1 -3c0,0 0,0 0,0 1,-2 1,-1 1,-4 0,-2 1,-2 1,-4 2,-2 2,-6 4,-9 2,-1 1,0 1,-1 1,-2 1,-1 2,-2 0,-1 1,-2 1,-2 1,-3 -1,-1 2,-2 0,-4 1,-4 2,-7l1 -4c0,0 0,-1 0,-1l2 -4c1,-1 0,0 1,-1 1,1 1,1 2,2 1,2 0,1 1,3l1 0c1,-2 0,-1 0,-1l3 -2c1,-1 -1,-1 2,-1 2,1 1,3 2,5 1,-2 2,-2 5,-2z"/>
    <path class="fil3" d="M159 144c-1,1 -1,4 -1,7 -1,0 -1,-1 -2,0 -3,1 -3,0 -3,2 2,1 4,0 5,-1 0,1 1,5 1,7 0,4 -1,6 3,6 0,-3 0,-2 0,-5 0,-2 -1,-4 0,-5l0 -2c2,1 5,0 7,-1 -1,-4 -4,0 -8,-2l0 -7c-1,-1 -1,0 -1,0 0,0 -1,0 -1,0 0,0 0,0 0,1z"/>
   </g>
  </g>
 </g>
</svg>
