<?xml version="1.0" encoding="UTF-8"?>
<!DOCTYPE svg PUBLIC "-//W3C//DTD SVG 1.1//EN" "http://www.w3.org/Graphics/SVG/1.1/DTD/svg11.dtd">
<!-- Creator: CorelDRAW X7 -->
<svg xmlns="http://www.w3.org/2000/svg" xml:space="preserve" width="150px" height="200px" version="1.1" style="shape-rendering:geometricPrecision; text-rendering:geometricPrecision; image-rendering:optimizeQuality; fill-rule:evenodd; clip-rule:evenodd"
viewBox="0 0 150 200"
 xmlns:xlink="http://www.w3.org/1999/xlink">
 <defs>
  <style type="text/css">
   <![CDATA[
    .fil2 {fill:#FEFEFE}
    .fil0 {fill:#2B2A29}
    .fil1 {fill:#F4E3BD}
    .fil3 {fill:#543218}
   ]]>
  </style>
 </defs>
 <g id="Layer_x0020_1">
  <metadata id="CorelCorpID_0Corel-Layer"/>
  <g id="_397835408">
   <path class="fil0" d="M30 140c0,2 0,7 1,9 0,2 0,1 0,3 1,3 2,6 4,9l15 12c6,4 4,4 10,7l-3 2c-3,2 -12,3 -16,0 -7,-3 -19,-2 -22,-4 -5,-4 -3,-13 -2,-20 1,-4 1,-8 2,-11 1,-2 1,-1 1,-3l1 -7c1,-1 0,0 1,-1 1,1 6,3 8,4zm40 4c1,-3 -1,-4 -4,-4 -2,0 -4,1 -4,3 2,2 5,1 8,1zm-2 22c1,1 11,2 14,2 -1,-2 -1,-2 -3,-3l-8 -1c-2,0 -2,1 -3,2zm20 -20c1,-5 -4,-5 -7,-2 -1,4 4,3 7,2zm12 -36c1,-1 0,-1 2,-1 3,0 5,3 7,6 1,2 1,1 2,4 2,6 1,1 3,4 -1,0 -1,0 -1,0 -3,2 -1,1 -3,2 -6,5 -19,3 -23,-2 -1,0 -1,0 -2,-1 -1,-1 0,0 -1,-1l1 -2c1,-1 0,-1 1,-2l3 -3c1,0 1,0 1,0 0,0 0,0 0,0l0 1c1,4 0,6 3,9 3,2 7,3 10,1l2 -2c0,0 0,0 0,0 2,-2 2,-4 1,-7 0,-1 -3,-5 -6,-6zm-49 2l1 0c0,1 1,2 1,3 -1,1 -1,1 -3,2l-1 -1 2 -4zm9 8c2,-2 0,-6 -1,-8 -1,-2 -2,-3 -6,-3l-4 0c2,-2 5,-3 8,-2 3,0 5,3 7,5 2,4 3,7 3,11 -1,1 -2,0 -3,1 0,0 0,0 0,1 -4,0 -11,2 -14,1 -6,-2 -6,-3 -10,-6 0,-2 2,-3 3,-6 1,0 0,0 1,-1 1,0 0,0 1,-1l2 8c0,3 2,3 3,4 3,1 3,1 6,0 2,-1 4,-2 4,-4zm-31 9l3 0 -1 6c0,2 -1,0 0,3l-2 0c0,0 -1,-1 -1,-1l0 0c0,-1 1,0 0,-1 -1,-1 -2,-1 -3,-1 -4,-3 -6,-4 -7,-8 -1,-3 0,-6 0,-8 0,-3 -1,-4 1,-6 2,-3 -1,-1 3,-5 2,-1 1,-1 2,-2 6,-3 10,-1 9,0 0,0 0,0 0,0 0,3 0,5 0,7 -1,0 -2,0 -3,0 -1,0 -1,1 -2,1 -4,2 -6,6 -3,11 1,2 1,4 4,4zm5 16c-1,-2 0,-6 0,-8 0,-3 1,-6 1,-8l2 -18c0,-3 -1,-8 1,-10 2,-1 -1,2 3,-2 0,0 0,0 0,0l1 -2c0,-1 0,-1 0,-1l2 -2c1,0 4,-1 6,-3 2,-3 3,-3 4,-5l4 -5c3,-3 0,-1 2,-4 3,-3 10,-15 11,-19 0,-2 0,-4 1,-5 1,1 3,5 3,6 1,4 6,14 8,17 2,2 3,4 4,6 1,1 2,1 3,2l7 7c1,1 0,0 1,1l2 1c5,2 1,0 6,3 6,5 8,4 10,10 2,4 2,2 1,7l1 14c0,5 0,7 0,12 -1,5 2,16 -2,21 0,2 0,2 -1,4 -5,6 -13,6 -18,10 -4,3 -8,7 -12,8 -2,2 -9,7 -14,1 0,-1 0,-1 -2,-2 0,0 -1,0 -2,0 0,0 0,0 -1,0l-3 -3c-5,-4 -7,-4 -9,-5l-8 -7c-1,-1 -4,-2 -7,-7 -3,-3 -7,-7 -5,-14zm63 -32c0,1 0,1 1,2 0,2 0,2 0,4 -8,1 -6,-5 -1,-6zm9 -97c-1,-2 -4,-5 -7,-6 -2,-2 -7,-4 -10,-4 -1,0 -4,1 -5,2 -6,3 -6,2 -10,7 -1,1 0,1 -1,2 -1,-1 -1,-1 -1,-3 0,0 -1,-1 -1,-1 -1,-2 -9,-4 -9,-4 -3,1 -3,1 -6,1 -1,0 -2,0 -3,0 -1,0 -1,1 -2,1 -1,1 -2,0 -4,2 -1,2 -3,7 -4,8 0,4 -2,5 -2,9 -1,2 -3,7 -4,8 -1,1 -1,2 -1,3 -1,1 -1,1 -2,2 -1,4 0,3 -2,7l-4 10c-1,1 -2,3 -3,5 -1,2 -3,8 -4,11 -1,6 -1,4 -2,5 1,0 0,-1 0,1 0,3 0,-1 0,2 0,2 0,6 0,9 0,9 2,10 0,14 -2,3 -2,3 -3,6 -1,3 -1,2 -1,6 0,14 4,12 3,16 -1,6 -2,12 -2,18 -1,5 -5,13 -3,20 1,5 1,4 2,6l3 5c2,0 6,-2 12,-1 3,0 8,2 11,3 3,0 4,0 6,1 4,1 3,1 7,0 2,-1 3,0 5,-1 3,-2 3,-2 5,-4 4,3 7,8 14,8 5,0 12,-4 14,-7 2,0 2,1 5,2 4,1 13,-1 18,-1 4,0 8,1 11,0 2,0 4,1 6,1 4,1 2,2 5,2 1,-3 -1,-2 1,-4 0,-1 0,-1 -1,-2 0,0 0,-2 0,-3 0,-6 -3,-14 -3,-21 0,-2 0,-4 0,-7 -1,-9 -2,-8 -2,-11 1,-1 1,0 2,-2 2,-5 3,-6 2,-13 -1,-8 -4,-5 -4,-14 0,-3 0,-5 1,-8l-2 -26 -2 -12c-1,-2 -1,-2 -1,-4 -3,-6 -1,-2 -3,-6 -1,-2 -2,-4 -3,-6 -1,-2 -2,-4 -3,-5l-2 -4c-3,-5 -6,-7 -8,-15l0 0c-1,-3 -2,-6 -3,-8zm-52 -2c1,-1 3,-2 4,-2 3,0 5,0 7,0 0,2 -1,1 1,1 2,1 2,1 2,3 1,2 2,6 2,8 0,3 0,3 -1,4 0,3 0,11 1,14 0,3 0,5 0,7 -1,7 -2,12 -5,18l-3 5c-2,2 -1,1 -3,3 -1,3 -2,2 -3,4 0,1 0,1 -1,2 0,1 -1,0 -1,2l-5 5c-3,3 -1,1 -3,2 -1,1 -2,1 -3,2 -3,2 -5,5 -8,7 -2,2 -2,2 -5,2 -3,0 -4,2 -6,2 0,-2 0,-5 0,-7 0,-2 -1,-4 -1,-6 0,-3 0,-4 1,-7 2,-5 -1,-6 5,-18 1,-1 2,-2 3,-4 4,-10 3,-6 6,-16 1,-2 1,-5 2,-6l4 -11c1,-4 3,-8 5,-11 3,-4 3,-2 5,-3zm20 6c1,-3 1,-1 2,-2 1,-2 1,-3 2,-4 0,0 2,-1 3,-2 2,-1 1,0 2,-2 1,-1 2,-1 4,-1 0,0 0,0 0,0l0 1c1,-1 1,-1 3,-1 3,1 3,1 3,2 2,-1 5,3 6,3 2,4 2,3 3,6 1,1 2,4 3,5 2,4 2,4 3,8l7 13c3,3 4,5 6,9 2,3 4,8 5,12 0,2 1,5 1,7 0,1 0,3 0,6 1,4 1,28 0,31 -1,0 -2,-2 -3,-3l-6 -6c0,0 0,0 0,0 0,0 0,0 0,0l-5 -3c0,-1 -1,-1 -2,-2 -1,-1 0,0 -2,-1 -1,-1 -2,-2 -3,-3l-5 -2c-2,-2 -5,-4 -6,-7 -2,-2 -8,-7 -10,-10 0,-2 -1,-4 -2,-5 0,-2 -1,-3 -2,-5 -1,-4 -1,-6 -3,-9 -1,-1 -1,0 -2,-4 -1,-1 0,-1 -1,-2 0,-1 0,0 -1,-1 -2,-4 0,-11 -1,-15 0,-3 0,-2 0,-4 0,-3 -1,-1 0,-3 1,-2 0,-2 1,-6zm-14 139c5,0 10,1 16,1 5,1 12,1 17,0 1,0 9,-4 13,-5l-1 -3c-2,0 -4,1 -6,2 -3,2 -1,0 -7,2 -1,0 -1,1 -1,1 0,0 1,0 0,0 -10,0 -24,1 -31,-1l-10 -3c-1,-1 -1,-1 -2,-2 -1,1 -3,2 -3,4l7 2c6,0 5,1 8,2zm-23 -40c3,3 1,2 3,4 1,1 2,2 3,2 6,4 15,6 22,2 2,-2 1,-2 3,-3l0 -1c0,0 -1,0 -1,0l2 -1c0,-4 0,-5 -2,-8 -1,-3 -4,-7 -7,-8 -5,-3 -7,-3 -12,-3 0,0 0,0 -1,1 -7,6 -4,2 -9,11 -1,3 0,1 -1,4zm59 11c5,3 13,-2 17,-4 1,-1 2,0 2,-5 0,-5 -1,-7 -3,-8 -3,-2 -2,-5 -6,-6 -2,-1 -4,-2 -5,-2 -5,-1 -5,0 -6,1 -2,1 -6,2 -8,4l0 1c-3,2 -6,9 -5,12 1,3 6,5 9,5 1,1 4,1 5,2zm26 -18c4,-1 6,2 8,5 2,3 4,6 4,11 1,8 -3,9 -4,10 -2,4 -4,4 -10,5 0,-2 0,-4 0,-6 1,-1 2,-1 3,-1 1,0 4,-3 5,-4 1,-2 1,-6 -2,-9 -2,-2 -1,-2 -5,-2l1 -9zm9 30c0,1 0,2 0,2l1 9c0,5 0,9 1,11 0,1 0,-2 0,1 -1,0 0,-1 -2,0 1,2 1,1 2,3l0 12c-1,1 -3,1 -4,1 -2,1 -3,0 -5,0 -3,0 -7,1 -10,1 -3,0 -7,0 -10,0 -1,0 -8,-2 -8,-2 1,-1 8,-5 9,-6l9 -6c5,-4 6,-10 7,-16 0,-5 0,-3 0,-6l0 -1c2,-1 3,0 6,-2 4,-2 3,-2 3,-2l1 1z"/>
   <g>
    <path class="fil1" d="M97 91c0,0 0,0 0,0zm-58 68c3,5 6,6 7,7l8 7c2,1 4,1 9,5l3 3c1,0 1,0 1,0 1,0 2,0 2,0 2,1 2,1 2,2 5,6 12,1 14,-1 4,-1 8,-5 12,-8 5,-4 13,-4 18,-10 1,-2 1,-2 1,-4 4,-5 1,-16 2,-21 0,-5 0,-7 0,-12l-1 -14c1,-5 1,-3 -1,-7 -2,-6 -4,-5 -10,-10 -5,-3 -1,-1 -6,-3l-2 -1c-1,-1 -1,-1 -1,-1 0,0 0,0 0,0l-7 -7c-1,-1 -2,-1 -3,-2 -1,-2 -2,-4 -4,-6 -2,-3 -7,-13 -8,-17 0,-1 -2,-5 -3,-6 -1,1 -1,3 -1,5 -1,4 -8,16 -11,19 -2,3 1,1 -2,4l-4 5c-1,2 -2,2 -4,5 -2,2 -5,3 -6,3l-2 2c0,0 0,0 0,1l-1 2c0,0 0,0 0,0 -4,4 -1,1 -3,2 -2,2 -1,7 -1,10l-2 18c0,2 -1,5 -1,8 0,2 -1,6 0,8 -2,7 2,11 5,14zm23 -16c0,-2 2,-3 4,-3 3,0 5,1 4,4 -3,0 -6,1 -8,-1zm-17 12c0,-2 2,-3 3,-4 1,1 1,1 2,2l10 3c7,2 21,1 31,1 1,0 0,0 0,0 0,0 0,-1 1,-1 6,-2 4,0 7,-2 2,-1 4,-2 6,-2l1 3c-4,1 -12,5 -13,5 -5,1 -12,1 -17,0 -6,0 -11,-1 -16,-1 -3,-1 -2,-2 -8,-2l-7 -2zm23 11c1,-1 1,-2 3,-2l8 1c2,1 2,1 3,3 -3,0 -13,-1 -14,-2zm13 -22c3,-3 8,-3 7,2 -3,1 -8,2 -7,-2zm1 -21c-1,-3 2,-10 5,-12l0 -1c2,-2 6,-3 8,-4 1,-1 1,-2 6,-1 1,0 3,1 5,2 4,1 3,4 6,6 2,1 3,3 3,8 0,5 -1,4 -2,5 -4,2 -12,7 -17,4 -1,-1 -4,-1 -5,-2 -3,0 -8,-2 -9,-5zm-17 4c-7,4 -16,2 -22,-2 -1,0 -2,-1 -3,-2 -2,-2 0,-1 -3,-4 1,-3 0,-1 1,-4 5,-9 2,-5 9,-11 1,-1 1,-1 1,-1 5,0 7,0 12,3 3,1 6,5 7,8 2,3 2,4 2,8l-2 1c0,0 1,0 1,0l0 1c-2,1 -1,1 -3,3z"/>
    <path class="fil1" d="M25 125c-3,-5 -1,-9 3,-11 1,0 1,-1 2,-1 1,0 2,0 3,0 0,-2 0,-4 0,-7 0,0 0,0 0,0 1,-1 -3,-3 -9,0 -1,1 0,1 -2,2 -4,4 -1,2 -3,5 -2,2 -1,3 -1,6 0,2 -1,5 0,8 1,4 3,5 7,8 1,0 2,0 3,1 1,1 0,0 0,1l0 0c0,0 1,1 1,1l2 0c-1,-3 0,-1 0,-3l1 -6 -3 0c-3,0 -3,-2 -4,-4z"/>
    <path class="fil1" d="M122 112l-1 9c4,0 3,0 5,2 3,3 3,7 2,9 -1,1 -4,4 -5,4 -1,0 -2,0 -3,1 0,2 0,4 0,6 6,-1 8,-1 10,-5 1,-1 5,-2 4,-10 0,-5 -2,-8 -4,-11 -2,-3 -4,-6 -8,-5z"/>
   </g>
   <g>
    <path class="fil2" d="M105 123l-2 2c-3,2 -7,1 -10,-1 -3,-3 -2,-5 -3,-9l0 -1c0,0 0,0 0,0 0,0 0,0 -1,0l-3 3c-1,1 0,1 -1,2l-1 2c1,1 0,0 1,1 1,1 1,1 2,1 4,5 17,7 23,2 2,-1 0,0 3,-2 0,0 0,0 1,0 -2,-3 -1,2 -3,-4 -1,-3 -1,-2 -2,-4 -2,-3 -4,-6 -7,-6 -2,0 -1,0 -2,1 3,1 6,5 6,6 1,3 1,5 -1,7l0 0z"/>
    <path class="fil2" d="M67 123c0,-4 -1,-7 -3,-11 -2,-2 -4,-5 -7,-5 -3,-1 -6,0 -8,2l4 0c4,0 5,1 6,3 1,2 3,6 1,8 0,2 -2,3 -4,4 -3,1 -3,1 -6,0 -1,-1 -3,-1 -3,-4l-2 -8c-1,1 0,1 -1,1 -1,1 0,1 -1,1 -1,3 -3,4 -3,6 4,3 4,4 10,6 3,1 10,-1 14,-1 0,-1 0,-1 0,-1 1,-1 2,0 3,-1z"/>
    <path class="fil2" d="M50 117c2,-1 2,-1 3,-2 0,-1 -1,-2 -1,-3l-1 0 -2 4 1 1z"/>
    <path class="fil2" d="M97 113c-5,1 -7,7 1,6 0,-2 0,-2 0,-4 -1,-1 -1,-1 -1,-2z"/>
   </g>
   <g>
    <path class="fil3" d="M129 181c1,0 3,0 4,-1l0 -12c-1,-2 -1,-1 -2,-3 2,-1 1,0 2,0 0,-3 0,0 0,-1 -1,-2 -1,-6 -1,-11l-1 -9c0,0 0,-1 0,-2l-1 -1c0,0 1,0 -3,2 -3,2 -4,1 -6,2l0 1c0,3 0,1 0,6 -1,6 -2,12 -7,16l-9 6c-1,1 -8,5 -9,6 0,0 7,2 8,2 3,0 7,0 10,0 3,0 7,-1 10,-1 2,0 3,1 5,0z"/>
    <path class="fil3" d="M50 173l-15 -12c-2,-3 -3,-6 -4,-9 0,-2 0,-1 0,-3 -1,-2 -1,-7 -1,-9 -2,-1 -7,-3 -8,-4 -1,1 0,0 -1,1l-1 7c0,2 0,1 -1,3 -1,3 -1,7 -2,11 -1,7 -3,16 2,20 3,2 15,1 22,4 4,3 13,2 16,0l3 -2c-6,-3 -4,-3 -10,-7z"/>
    <path class="fil3" d="M49 88l5 -5c0,-2 1,-1 1,-2 1,-1 1,-1 1,-2 1,-2 2,-1 3,-4 2,-2 1,-1 3,-3l3 -5c3,-6 4,-11 5,-18 0,-2 0,-4 0,-7 -1,-3 -1,-11 -1,-14 1,-1 1,-1 1,-4 0,-2 -1,-6 -2,-8 0,-2 0,-2 -2,-3 -2,0 -1,1 -1,-1 -2,0 -4,0 -7,0 -1,0 -3,1 -4,2 -2,1 -2,-1 -5,3 -2,3 -4,7 -5,11l-4 11c-1,1 -1,4 -2,6 -3,10 -2,6 -6,16 -1,2 -2,3 -3,4 -6,12 -3,13 -5,18 -1,3 -1,4 -1,7 0,2 1,4 1,6 0,2 0,5 0,7 2,0 3,-2 6,-2 3,0 3,0 5,-2 3,-2 5,-5 8,-7 1,-1 2,-1 3,-2 2,-1 0,1 3,-2z"/>
    <path class="fil3" d="M85 74c2,3 8,8 10,10 1,3 4,5 6,7l5 2c1,1 2,2 3,3 2,1 1,0 2,1 1,1 2,1 2,2l5 3 0 0 0 0 6 6c1,1 2,3 3,3 1,-3 1,-27 0,-31 0,-3 0,-5 0,-6 0,-2 -1,-5 -1,-7 -1,-4 -3,-9 -5,-12 -2,-4 -3,-6 -6,-9l-7 -13c-1,-4 -1,-4 -3,-8 -1,-1 -2,-4 -3,-5 -1,-3 -1,-2 -3,-6 -1,0 -4,-4 -6,-3 0,-1 0,-1 -3,-2 -2,0 -2,0 -3,1l0 -1c0,0 0,0 0,0 -2,0 -3,0 -4,1 -1,2 0,1 -2,2 -1,1 -3,2 -3,2 -1,1 -1,2 -2,4 -1,1 -1,-1 -2,2 -1,4 0,4 -1,6 -1,2 0,0 0,3 0,2 0,1 0,4 1,4 -1,11 1,15 1,1 1,0 1,1 1,1 0,1 1,2 1,4 1,3 2,4 2,3 2,5 3,9 1,2 2,3 2,5 1,1 2,3 2,5z"/>
   </g>
  </g>
 </g>
</svg>
