<?xml version="1.0" encoding="UTF-8"?>
<!DOCTYPE svg PUBLIC "-//W3C//DTD SVG 1.1//EN" "http://www.w3.org/Graphics/SVG/1.1/DTD/svg11.dtd">
<!-- Creator: CorelDRAW X7 -->
<svg xmlns="http://www.w3.org/2000/svg" xml:space="preserve" width="150px" height="200px" version="1.1" style="shape-rendering:geometricPrecision; text-rendering:geometricPrecision; image-rendering:optimizeQuality; fill-rule:evenodd; clip-rule:evenodd"
viewBox="0 0 150 200"
 xmlns:xlink="http://www.w3.org/1999/xlink">
 <defs>
  <style type="text/css">
   <![CDATA[
    .fil3 {fill:#FEFEFE}
    .fil0 {fill:#2B2A29}
    .fil1 {fill:#F4E3BD}
    .fil2 {fill:#F9B448}
    .fil4 {fill:#B2DFF9}
   ]]>
  </style>
 </defs>
 <g id="Layer_x0020_1">
  <metadata id="CorelCorpID_0Corel-Layer"/>
  <g id="_390039240">
   <path class="fil0" d="M134 121c-1,1 -1,1 -1,1l-1 2c-1,1 0,1 -2,2 0,0 -1,0 -1,0 -1,0 -5,1 -6,0 -2,-2 0,-4 2,-4 2,0 5,-2 6,-3 1,0 0,1 1,0 0,-1 0,-1 0,-2 1,-3 1,-7 -2,-9 0,-1 0,0 1,-2 0,-1 1,-3 2,-6 4,-1 4,4 4,6 0,6 0,9 -3,15zm-48 -53c0,1 0,2 1,2 2,0 0,-1 4,0 1,1 3,1 4,1 0,-1 0,-2 0,-3 0,0 -1,0 -1,0 -1,-1 0,0 -1,-1 -1,-1 -5,-1 -5,-1 -1,1 0,1 -1,2 0,0 -1,0 -1,0zm-10 79c-2,0 -2,0 -4,1 -7,2 1,4 5,4 1,0 1,0 1,-1l1 0c0,-2 -1,-4 -3,-4zm12 3c0,1 0,0 1,0 3,1 7,-1 9,-2 0,0 1,0 1,-2 -1,-1 0,-1 -2,-1 -2,0 -5,1 -7,1 -1,0 -1,0 -2,1l0 1c-1,1 -1,2 0,2zm-11 -39c1,7 0,10 -2,17 -1,3 0,5 2,4 1,0 0,0 1,-2 2,-4 5,-20 -1,-19zm41 40c-5,17 -42,10 -52,7l-6 -2c-2,0 -2,1 -3,0 -2,-2 -3,0 -3,0 0,2 0,1 0,2 0,1 -1,2 -1,3 1,0 2,0 4,-1 1,0 2,0 3,0 0,1 0,1 0,1 1,0 1,-1 3,0l5 1c3,1 17,5 17,5 1,0 2,0 3,0l2 -1c2,0 1,1 3,0 1,0 2,0 3,-1 0,0 13,-4 14,-5 0,0 0,0 0,0 2,-1 4,-2 6,-3l2 0c0,0 2,-1 3,-2 2,-3 -2,-5 -3,-4zm6 -49c0,0 0,0 -1,1 -4,7 -14,10 -21,6 -6,-4 -11,-13 -11,-27l5 -3c10,-4 20,-5 28,4 3,5 3,15 0,19zm-16 -28c-3,0 -11,2 -14,3 -2,1 -5,2 -6,5l0 0c-1,0 0,0 -1,0 0,0 1,11 4,17 2,3 3,6 4,7 6,6 9,8 14,7 4,0 14,-5 16,-9 5,-8 5,-12 2,-20 -4,-6 -12,-10 -19,-10zm-42 33c-3,3 -7,6 -10,6 -4,2 -9,2 -14,-1 -3,-1 -6,-5 -8,-8 -1,-3 -2,-7 -1,-13 1,-3 3,-7 8,-9 3,-2 5,-3 8,-3 12,0 12,3 21,7 0,6 2,6 0,13 -1,3 -2,7 -4,8zm6 -22c-2,-1 -6,-3 -10,-6 -7,-4 -21,-3 -25,3 -3,2 -4,6 -5,10 -2,6 -2,12 2,16 1,1 4,5 7,6 7,3 12,2 16,1 1,0 2,-1 3,-1l3 -2c3,-2 3,-2 5,-4 0,-1 1,-2 1,-3 2,-2 2,-4 3,-7 0,-3 1,-9 0,-12 0,-1 0,0 0,-1zm37 2c1,2 2,1 2,3 -2,1 -2,1 -3,1 -4,0 -3,-4 1,-4zm6 2c-1,-3 0,0 -2,-3 2,0 7,3 8,5 0,0 0,0 1,1 0,1 -1,2 -2,2l-2 4c-2,1 0,0 -2,2 -2,1 -4,2 -7,2 -2,-1 -2,-1 -3,-1 -3,-1 -2,-1 -5,-2 -1,-1 -2,-2 -3,-3 0,-2 -1,-2 -1,-4 2,-5 6,-6 11,-7 -4,3 -5,2 -6,7 -1,4 2,5 4,6 0,1 3,1 5,0 4,-1 7,-3 4,-9zm-20 4c1,2 4,6 7,7l0 1c1,0 1,0 1,0 1,0 1,0 1,0 0,0 0,0 0,0l1 1c2,1 8,1 9,1 2,-1 4,-2 5,-3 1,-1 2,-2 2,-3l1 0c0,-1 0,-2 1,-2 0,-1 0,-2 0,-2 4,-7 -10,-12 -16,-11 -3,1 -13,7 -12,10 0,1 -1,0 0,1l0 0c0,0 0,0 0,0zm-44 -1c1,0 1,1 1,1 0,2 0,2 -1,3 0,1 -3,2 -4,0l0 -2c1,-1 3,-2 4,-2zm14 3c0,0 0,0 -1,0 0,0 0,0 0,0 0,0 0,0 0,0 0,1 0,1 0,1 -2,2 -3,4 -4,6 -1,0 -1,0 -2,1 -4,2 -13,2 -17,-1 -2,-2 -1,-1 -2,-3 0,-1 0,-3 1,-4 2,-3 3,-4 5,-4 0,2 -1,2 -1,2 0,0 0,5 0,5 1,5 12,8 14,-1l1 -2c0,-1 0,-2 -1,-2 -2,-3 -5,-4 -8,-4 0,0 1,-1 2,-1 2,0 11,3 13,7zm-28 3c0,1 0,1 0,2 0,0 1,2 2,2 5,5 12,8 19,4l1 -1c4,-3 5,-3 7,-7 0,0 0,-1 0,-1 1,-1 1,-1 1,-2 0,0 0,0 0,-1 0,0 -1,-1 -1,-1 -6,-5 -8,-7 -16,-6 -2,0 -4,0 -5,0 -4,2 -9,7 -8,11zm5 30c0,2 0,1 -1,2 0,1 1,2 -2,3 -8,3 -15,-18 -15,-24 0,-2 2,-2 3,-3l1 1c0,0 2,5 3,5 0,1 0,0 1,0 0,1 0,1 0,1l-1 2c-1,5 5,12 8,14 2,0 1,0 3,-1zm-6 -82l0 2c-2,0 -2,-1 -4,1 -3,3 -8,9 -5,14l1 0c0,1 1,1 1,1 0,1 1,1 1,3l0 1c1,1 1,1 2,2 1,2 1,4 2,5l1 1c-1,0 -1,0 -2,1 -7,7 -11,15 -7,25 -1,1 -2,1 -3,2 -1,1 -2,3 -3,4 -1,4 13,29 16,29 3,1 3,-1 5,-1 0,2 -1,2 0,3 -1,1 -2,1 -2,3 0,1 0,1 0,2 -2,5 -4,17 1,21 0,0 0,0 0,0l1 1c0,0 0,1 1,1 0,1 0,1 2,2 3,1 8,3 12,5 1,0 0,0 1,1l1 1c1,0 1,0 1,0 1,0 4,3 5,4 1,0 1,0 1,0 1,1 1,1 2,2 6,3 10,6 17,9 2,0 2,0 4,-1 2,0 5,-1 10,-4 4,-3 9,-8 14,-11 5,-3 9,-4 9,-4 1,-1 1,-1 1,-1 1,-1 2,-1 3,-2 1,0 1,0 1,-1 1,0 1,0 1,-1 7,-6 8,-7 7,-12 0,0 0,0 0,-1 0,0 0,0 -1,0 0,-1 0,-3 -1,-5 0,0 0,0 0,-1l-2 -4c-3,-3 -3,-9 -4,-10 0,-1 0,-1 0,-2 -1,0 -1,0 -1,-1 1,-1 3,0 4,0 1,-1 1,-1 1,-1 1,0 2,0 3,-1 0,0 0,0 0,0 1,0 0,0 1,-1 3,-6 6,-17 6,-24 0,-2 -1,-3 -2,-5 -1,-2 -2,-1 -4,-2 0,-1 -1,-1 -1,-2 2,-11 -5,-17 -11,-23 0,-1 0,-2 1,-3 1,-1 2,-3 3,-4 1,-2 3,-4 3,-6 0,-3 0,-6 -2,-7l-3 -1c0,0 0,0 0,0l2 -3c1,-1 1,-3 1,-4 1,-4 1,-2 0,-4 0,-1 0,-3 -1,-4 0,-1 -1,-3 -2,-3 0,0 0,0 0,-1 -2,-1 -3,-2 -6,-3 -1,-1 -3,0 -4,0 -3,-4 -1,-2 -2,-5 -1,-3 -3,-4 -5,-5 -3,-3 -8,0 -11,1 0,-1 -1,-2 -1,-3 -4,-12 -17,-11 -26,-6 -2,1 -4,3 -5,5 -1,1 -3,3 -3,4 0,0 0,0 0,0l-1 4c-1,-1 -1,0 -1,-1 -1,-1 -5,-2 -7,-2 -1,0 -2,-1 -3,0 0,0 1,-1 0,0l-1 1c0,0 0,0 0,0l-5 3c-1,0 -3,3 -4,3 0,1 -1,2 -1,2 -1,3 -2,5 -3,8 0,1 1,1 0,2 0,0 0,1 0,1 0,2 0,5 1,6zm58 68c1,1 3,1 4,2l1 1c1,1 7,2 9,3 3,0 5,-1 8,-1 1,-1 1,-1 2,-1l2 8c0,0 0,1 0,1l0 1c0,0 0,0 0,0 0,0 0,0 0,0 0,0 0,1 1,1 0,0 0,1 0,1 0,1 1,3 1,3 0,0 0,0 0,1 1,0 1,2 1,3 1,0 1,0 1,1 0,1 1,3 1,4l3 5c0,1 0,0 0,1l2 5c0,1 0,1 0,1l0 2 -1 1c0,0 0,0 0,0 0,1 1,1 1,1 0,1 0,1 0,1 -1,2 -1,1 -2,2 -2,2 0,1 -4,4l-4 2c-4,1 -7,3 -10,5 -2,2 -9,8 -14,12 -4,2 -6,3 -8,4 -2,0 -3,0 -5,0 -3,-1 -19,-13 -21,-14 -1,-1 -1,-1 -2,-1 -1,-1 -3,-2 -3,-2 -4,-3 -10,-3 -13,-5l-2 -2c0,-1 0,-3 -1,-5 0,0 1,-12 1,-12 0,-1 0,-1 1,-2 0,0 0,0 0,0 0,-4 -1,-1 0,-3 2,-7 1,-11 1,-19 4,-3 15,0 24,-6 13,-9 7,-18 10,-26 0,0 4,-2 5,1 1,2 2,6 3,9 1,4 5,10 8,13zm-14 -28c-2,0 -4,1 -4,4 -1,1 0,6 -1,10 -1,5 -4,11 -9,14 -6,4 -14,6 -20,4 -1,0 -1,-1 -2,-1 -2,0 -10,-3 -11,-6 -2,-5 -4,-9 -4,-14 -1,-6 1,-11 6,-17 1,0 0,0 1,-1 0,0 0,0 1,0l3 -3c2,0 9,-2 11,-2 5,0 9,0 13,2 4,3 6,7 8,7 2,0 1,0 1,-1 0,0 0,0 0,0 1,0 7,0 9,0 5,-1 3,-2 5,-3 7,-5 13,-8 22,-7 0,0 1,0 2,1 0,0 2,-1 4,0l1 0c2,1 2,0 4,2 0,0 0,0 0,0l0 0c0,0 0,0 0,0 7,5 11,9 12,17 0,1 0,1 0,2 0,4 0,3 -1,6 0,0 0,0 0,0l-2 5c0,0 0,0 -1,1 -1,1 1,0 -2,3 -1,0 -1,0 -1,1l-5 3c-2,1 -5,2 -8,3 -5,0 -2,0 -4,0 -1,-1 0,0 -2,-1l-4 -1c-4,0 -9,-7 -11,-9 -1,-2 -1,-3 -2,-5 -2,-5 -3,-13 -9,-14zm-7 -6l-1 -1c-2,-1 -2,-2 -4,-3 -2,-2 -4,-2 -5,-3 -1,-1 -2,-1 -2,-1 1,-1 1,0 2,-1 0,0 0,0 0,0 1,-1 1,0 2,-1 0,0 -1,-1 -1,-2 0,0 -6,0 -6,2 1,1 1,1 2,1 -2,0 -2,0 -3,0 -1,-1 0,0 -1,-1 -2,0 -3,0 -5,0 -1,0 -1,0 -3,-1 1,-1 0,0 1,-1 0,-3 1,-6 1,-9 2,0 2,-1 3,-1 0,-1 0,0 1,-1 1,-1 2,-2 2,-3 1,1 1,1 1,1 1,1 2,1 2,1 9,6 12,3 20,-2 2,-1 1,-1 2,-1 2,0 3,1 3,1 0,1 0,0 0,1 1,0 2,2 3,2 1,0 4,-2 4,-2 1,-1 1,0 2,-1 2,-1 2,-1 3,-1 0,1 0,1 1,2 2,2 3,2 6,2 0,0 0,0 0,0 0,0 0,0 0,0 0,0 0,0 0,0l1 0c1,0 1,0 1,1 0,1 1,3 1,4 0,0 0,0 0,0 0,1 0,1 1,1 0,0 -1,0 0,0 1,2 0,0 1,2 0,1 0,1 0,3l0 1c-13,2 -11,0 -23,8 -2,1 1,1 -4,1 -4,1 -7,3 -8,2zm34 -24c0,-1 0,0 1,-1l1 -1c1,0 1,0 1,-1 2,0 2,-1 2,-2 0,0 1,-1 0,-1 0,0 0,0 0,0 -2,0 -2,1 -4,2 -3,1 -8,2 -10,0 0,-1 -1,-1 -1,-1 -2,-2 -2,-2 -3,-2 0,1 1,0 -1,2 -4,3 -4,3 -7,1 -1,0 -2,-2 -2,-4 0,-2 -1,-4 -3,-4 -1,2 -1,1 -1,2 0,0 0,1 -1,1 -4,10 -9,11 -18,7 -3,-2 -1,0 -4,-2 -2,-1 1,-3 -3,-3 0,1 1,0 1,1 -1,1 0,0 -1,0l-1 2c-4,6 -4,4 -10,5 1,1 3,2 3,2 0,2 -3,8 -2,9 0,0 0,0 0,0l-1 1c1,2 1,1 2,1l-1 1c-1,0 0,0 -1,0 -1,0 -2,1 -3,1l-2 1c-5,-11 -13,-10 -6,-19 1,-2 1,-2 3,-3 2,-2 2,-1 3,-1 1,-1 0,0 1,-1l1 -2c0,-1 -1,-2 -1,-3 0,-2 0,-4 0,-6l1 -1c0,-1 -1,0 0,-2 0,0 0,0 0,0 0,0 1,-1 1,-1 0,0 0,0 0,-1 1,-1 0,-2 1,-3 1,-2 2,-2 3,-3 0,-1 1,-3 4,-3 0,0 0,0 1,0 1,-1 1,-2 4,-1 1,1 1,2 2,2 2,0 -1,-1 1,0 1,0 0,2 2,1 0,1 1,1 2,2 0,-1 1,-1 2,-1 0,-2 0,-2 0,-3 1,-2 1,-2 1,-3 0,0 0,0 0,0 1,-1 1,-1 1,-1 0,0 0,0 0,0l0 -1c0,0 0,-1 1,-1l2 -4 2 -1c1,-1 1,-1 2,-1 9,-8 21,-1 20,9 0,1 0,1 0,1 0,1 0,0 0,1 0,1 0,1 0,3 3,0 2,-1 4,-2 0,0 0,0 0,0 4,-3 3,-2 7,-2l0 1c3,0 2,1 4,2 1,1 1,3 1,4 0,2 0,1 1,2 0,1 0,0 0,1 -1,1 0,-1 0,0 0,1 0,0 1,1 0,1 0,0 0,1 1,0 1,-1 2,-1l4 -1c0,0 1,0 2,0 1,0 1,0 1,1 3,1 4,5 5,7 0,1 0,2 0,2l0 2c0,0 0,0 0,0 -1,1 -1,1 -2,2 0,2 -1,2 -1,3l-1 0c0,1 1,1 -1,1l1 0 -1 0c-1,2 -2,2 -1,3 1,0 1,0 2,0 1,0 1,0 2,0 0,0 0,0 0,0l1 1c1,0 1,0 2,0 0,2 0,3 0,4 0,2 -1,2 -1,3l-1 1c0,0 0,0 0,0l-2 3c0,1 0,1 -1,1 1,1 0,0 1,1l-2 2c0,1 -1,1 -2,1 -3,0 -3,0 -4,-3 -1,-1 -1,-1 -1,-2 -1,-1 -2,-3 -2,-5 -1,-1 -1,-3 -3,-4z"/>
   <path class="fil1" d="M78 91c-3,8 3,17 -10,26 -9,6 -20,3 -24,6 0,8 1,12 -1,19 -1,2 0,-1 0,3 0,0 0,0 0,0 -1,1 -1,1 -1,2 0,0 -1,12 -1,12 1,2 1,4 1,5l2 2c3,2 9,2 13,5 0,0 2,1 3,2 1,0 1,0 2,1 2,1 18,13 21,14 2,0 3,0 5,0 2,-1 4,-2 8,-4 5,-4 12,-10 14,-12 3,-2 6,-4 10,-5l4 -2c4,-3 2,-2 4,-4 1,-1 1,0 2,-2 0,0 0,0 0,-1 0,0 -1,0 -1,-1 0,0 0,0 0,0l1 -1 0 -2c0,0 0,0 0,-1l-2 -5c0,-1 0,0 0,-1l-3 -5c0,-1 -1,-3 -1,-4 0,-1 0,-1 -1,-1 0,-1 0,-3 -1,-3 0,-1 0,-1 0,-1 0,0 -1,-2 -1,-3 0,0 0,-1 0,-1 -1,0 -1,-1 -1,-1 0,0 0,0 0,0 0,0 0,0 0,0l0 -1c0,0 0,-1 0,-1l-2 -8c-1,0 -1,0 -2,1 -3,0 -5,1 -8,1 -2,-1 -8,-2 -9,-3l-1 -1c-1,-1 -3,-1 -4,-2 -3,-3 -7,-9 -8,-13 -1,-3 -2,-7 -3,-9 -1,-3 -5,-1 -5,-1zm-6 57c2,-1 2,-1 4,-1 2,0 3,2 3,4l-1 0c0,1 0,1 -1,1 -4,0 -12,-2 -5,-4zm18 -2c2,0 5,-1 7,-1 2,0 1,0 2,1 0,2 -1,2 -1,2 -2,1 -6,3 -9,2 -1,0 -1,1 -1,0 -1,0 -1,-1 0,-2l0 -1c1,-1 1,-1 2,-1zm-12 -16c-1,2 0,2 -1,2 -2,1 -3,-1 -2,-4 2,-7 3,-10 2,-17 6,-1 3,15 1,19zm-18 26l6 2c10,3 47,10 52,-7 1,-1 5,1 3,4 -1,1 -3,2 -3,2l-2 0c-2,1 -4,2 -6,3 0,0 0,0 0,0 -1,1 -14,5 -14,5 -1,1 -2,1 -3,1 -2,1 -1,0 -3,0l-2 1c-1,0 -2,0 -3,0 0,0 -14,-4 -17,-5l-5 -1c-2,-1 -2,0 -3,0 0,0 0,0 0,-1 -1,0 -2,0 -3,0 -2,1 -3,1 -4,1 0,-1 1,-2 1,-3 0,-1 0,0 0,-2 0,0 1,-2 3,0 1,1 1,0 3,0z"/>
   <path class="fil1" d="M131 119c-1,1 -4,3 -6,3 -2,0 -4,2 -2,4 1,1 5,0 6,0 0,0 1,0 1,0 2,-1 1,-1 2,-2l1 -2c0,0 0,0 1,-1 3,-6 3,-9 3,-15 0,-2 0,-7 -4,-6 -1,3 -2,5 -2,6 -1,2 -1,1 -1,2 3,2 3,6 2,9 0,1 0,1 0,2 -1,1 0,0 -1,0z"/>
   <path class="fil1" d="M39 129c-3,-2 -9,-9 -8,-14l1 -2c0,0 0,0 0,-1 -1,0 -1,1 -1,0 -1,0 -3,-5 -3,-5l-1 -1c-1,1 -3,1 -3,3 0,6 7,27 15,24 3,-1 2,-2 2,-3 1,-1 1,0 1,-2 -2,1 -1,1 -3,1z"/>
   <path class="fil2" d="M29 97c0,5 2,9 4,14 1,3 9,6 11,6 1,0 1,1 2,1 6,2 14,0 20,-4 5,-3 8,-9 9,-14 1,-4 0,-9 1,-10 0,-3 2,-4 4,-4 6,1 7,9 9,14 1,2 1,3 2,5 2,2 7,9 11,9l4 1c2,1 1,0 2,1 2,0 -1,0 4,0 3,-1 6,-2 8,-3l5 -3c0,-1 0,-1 1,-1 3,-3 1,-2 2,-3 1,-1 1,-1 1,-1l2 -5c0,0 0,0 0,0 1,-3 1,-2 1,-6 0,-1 0,-1 0,-2 -1,-8 -5,-12 -12,-17l0 0 0 0c0,0 0,0 0,0 -2,-2 -2,-1 -4,-2l-1 0c-2,-1 -4,0 -4,0 -1,-1 -2,-1 -2,-1 -9,-1 -15,2 -22,7 -2,1 0,2 -5,3 -2,0 -8,0 -9,0 0,0 0,0 0,0 0,1 1,1 -1,1 -2,0 -4,-4 -8,-7 -4,-2 -8,-2 -13,-2 -2,0 -9,2 -11,2l-3 3c-1,0 -1,0 -1,0 -1,1 0,1 -1,1 -5,6 -7,11 -6,17zm5 11c-4,-4 -4,-10 -2,-16 1,-4 2,-8 5,-10 4,-6 18,-7 25,-3 4,3 8,5 10,6 0,1 0,0 0,1 1,3 0,9 0,12 -1,3 -1,5 -3,7 0,1 -1,2 -1,3 -2,2 -2,2 -5,4l-3 2c-1,0 -2,1 -3,1 -4,1 -9,2 -16,-1 -3,-1 -6,-5 -7,-6zm61 -2c-1,-1 -2,-4 -4,-7 -3,-6 -4,-17 -4,-17 1,0 0,0 1,0l0 0c1,-3 4,-4 6,-5 3,-1 11,-3 14,-3 7,0 15,4 19,10 3,8 3,12 -2,20 -2,4 -12,9 -16,9 -5,1 -8,-1 -14,-7z"/>
   <g>
    <path class="fil3" d="M40 95c-1,1 -1,3 -1,4 1,2 0,1 2,3 4,3 13,3 17,1 1,-1 1,-1 2,-1 1,-2 2,-4 4,-6 0,0 0,0 0,-1 0,0 0,0 0,0 0,0 0,0 0,0 1,0 1,0 1,0 -2,-4 -11,-7 -13,-7 -1,0 -2,1 -2,1 3,0 6,1 8,4 1,0 1,1 1,2l-1 2c-2,9 -13,6 -14,1 0,0 0,-5 0,-5 0,0 1,0 1,-2 -2,0 -3,1 -5,4z"/>
    <path class="fil3" d="M47 94l0 2c1,2 4,1 4,0 1,-1 1,-1 1,-3 0,0 0,-1 -1,-1 -1,0 -3,1 -4,2z"/>
    <path class="fil3" d="M109 87c-4,0 -5,4 -1,4 1,0 1,0 3,-1 0,-2 -1,-1 -2,-3z"/>
    <path class="fil3" d="M102 92c1,-5 2,-4 6,-7 -5,1 -9,2 -11,7 0,2 1,2 1,4 1,1 2,2 3,3 3,1 2,1 5,2 1,0 1,0 3,1 3,0 5,-1 7,-2 2,-2 0,-1 2,-2l2 -4c1,0 2,-1 2,-2 -1,-1 -1,-1 -1,-1 -1,-2 -6,-5 -8,-5 2,3 1,0 2,3 3,6 0,8 -4,9 -2,1 -5,1 -5,0 -2,-1 -5,-2 -4,-6z"/>
   </g>
   <g>
    <path class="fil4" d="M33 91c-1,6 0,10 1,13 2,3 5,7 8,8 5,3 10,3 14,1 3,0 7,-3 10,-6 2,-1 3,-5 4,-8 2,-7 0,-7 0,-13 -9,-4 -9,-7 -21,-7 -3,0 -5,1 -8,3 -5,2 -7,6 -8,9zm4 7c-1,-4 4,-9 8,-11 1,0 3,0 5,0 8,-1 10,1 16,6 0,0 1,1 1,1 0,1 0,1 0,1 0,1 0,1 -1,2 0,0 0,1 0,1 -2,4 -3,4 -7,7l-1 1c-7,4 -14,1 -19,-4 -1,0 -2,-2 -2,-2 0,-1 0,-1 0,-2z"/>
    <path class="fil4" d="M95 92c-1,-3 9,-9 12,-10 6,-1 20,4 16,11 0,0 0,1 0,2 -1,0 -1,1 -1,2l-1 0c0,1 -1,2 -2,3 -1,1 -3,2 -5,3 -1,0 -7,0 -9,-1l-1 -1c0,0 0,0 0,0 0,0 0,0 -1,0 0,0 0,0 -1,0l0 -1c-3,-1 -6,-5 -7,-7 0,0 0,0 0,0l0 0c-1,-1 0,0 0,-1zm-4 -10c0,14 5,23 11,27 7,4 17,1 21,-6 1,-1 1,-1 1,-1 3,-4 3,-14 0,-19 -8,-9 -18,-8 -28,-4l-5 3z"/>
   </g>
   <path class="fil1" d="M85 77c12,-8 10,-6 23,-8l0 -1c0,-2 0,-2 0,-3 -1,-1 -1,-1 -1,-1 0,0 0,0 0,-1 -1,0 0,0 0,0 -1,0 -1,0 -1,-1 0,0 0,0 0,0 0,-1 -1,-3 -1,-4 0,-1 0,-1 -1,-1l-1 0c0,0 0,0 0,0 0,0 0,0 0,0 0,0 0,0 0,0 -3,0 -4,0 -6,-2 -1,-1 -1,-1 -1,-2 -1,0 -1,0 -3,1 -1,1 -1,0 -2,1 0,0 -3,2 -4,2 -1,0 -2,-2 -3,-2 0,-1 0,0 0,-1 0,0 -1,-1 -3,-1 -1,0 0,0 -2,1 -8,5 -11,8 -20,2 0,0 -1,0 -2,-1 0,0 0,0 -1,-1 0,1 -1,2 -2,3 -1,1 -1,0 -1,1 -1,0 -1,1 -3,1 0,3 -1,6 -1,9 -1,1 0,0 -1,1 2,1 2,1 3,1 2,0 3,0 5,0 1,1 0,0 1,1 1,0 1,0 3,0 -1,0 -1,0 -2,-1 0,-2 6,-2 6,-2 0,1 1,2 1,2 -1,1 -1,0 -2,1 0,0 0,0 0,0 -1,1 -1,0 -2,1 0,0 1,0 2,1 1,1 3,1 5,3 2,1 2,2 4,3l1 1c1,1 4,-1 8,-2 5,0 2,0 4,-1zm9 -9c0,0 1,0 1,0 0,1 0,2 0,3 -1,0 -3,0 -4,-1 -4,-1 -2,0 -4,0 -1,0 -1,-1 -1,-2 0,0 1,0 1,0 1,-1 0,-1 1,-2 0,0 4,0 5,1 1,1 0,0 1,1z"/>
   <path class="fil2" d="M109 32c-1,0 0,-1 0,0 0,0 0,0 0,0zm-15 17c1,0 1,0 3,2 0,0 1,0 1,1 2,2 7,1 10,0 2,-1 2,-2 4,-2 0,0 0,0 0,0 1,0 0,1 0,1 0,1 0,2 -2,2 0,1 0,1 -1,1l-1 1c-1,1 -1,0 -1,1 2,1 2,3 3,4 0,2 1,4 2,5 0,1 0,1 1,2 1,3 1,3 4,3 1,0 2,0 2,-1l2 -2c-1,-1 0,0 -1,-1 1,0 1,0 1,-1l2 -3 0 0 1 -1c0,-1 1,-1 1,-3 0,-1 0,-2 0,-4 -1,0 -1,0 -2,0l-1 -1c0,0 0,0 0,0 -1,0 -1,0 -2,0 -1,0 -1,0 -2,0 -1,-1 0,-1 1,-3l1 0 -1 0c2,0 1,0 1,-1l1 0c0,-1 1,-1 1,-3 1,-1 1,-1 2,-2 0,0 0,0 0,0l0 -2c0,0 0,-1 0,-2 -1,-2 -2,-6 -5,-7 0,-1 0,-1 -1,-1 -1,0 -2,0 -2,0l-4 1c-1,0 -1,1 -2,1 0,-1 0,0 0,-1 -1,-1 -1,0 -1,-1 0,0 0,0 0,0 0,-1 0,0 0,-1 -1,-1 -1,0 -1,-2 0,-1 0,-3 -1,-4 -2,-1 -1,-2 -4,-2l0 -1c-4,0 -3,-1 -7,2 0,0 0,0 0,0 -2,1 -1,2 -4,2 0,-2 0,-2 0,-3 0,-1 0,0 0,-1 0,0 0,0 0,-1 1,-10 -11,-17 -20,-9 -1,0 -1,0 -2,1l-2 1 -2 4c-1,0 -1,1 -1,1l0 1c0,0 0,0 0,0 0,0 0,0 -1,1 0,0 0,0 0,0 0,1 0,1 -1,3 0,1 0,1 0,3 -1,0 -2,0 -2,1 -1,-1 -2,-1 -2,-2 -2,1 -1,0 -2,-1 -1,0 -1,0 -1,0 -1,0 -1,-1 -2,-2 -3,-1 -3,0 -4,1 -1,0 -1,0 -1,0 -3,0 -4,2 -4,3 -1,1 -2,1 -3,3 -1,1 0,2 -1,3 0,1 0,1 0,1 0,0 -1,1 -1,1 0,0 0,0 0,0 -1,2 0,1 0,2l-1 1c0,2 0,4 0,6 0,1 1,2 1,3l-1 2c-1,1 0,0 -1,1 -1,0 -1,-1 -3,1 -2,1 -2,1 -3,3 -7,9 1,8 6,19l2 -1c1,0 2,-1 3,-1 1,0 0,0 1,0l1 -1c-1,0 -1,1 -2,-1l1 -1c0,0 0,0 0,0 0,0 0,0 0,0 -1,-1 2,-7 2,-9 0,0 -2,-1 -3,-2 6,-1 6,1 10,-5l1 -2c0,0 0,0 1,0 0,0 0,0 0,0 0,-1 -1,0 -1,-1 4,0 1,2 3,3 3,2 1,0 4,2 9,4 14,3 18,-7 1,0 1,-1 1,-1 0,-1 0,0 1,-2 2,0 3,2 3,4 0,2 1,4 2,4 3,2 3,2 7,-1 2,-2 1,-1 1,-2z"/>
  </g>
 </g>
</svg>
