<?xml version="1.0" encoding="UTF-8"?>
<!DOCTYPE svg PUBLIC "-//W3C//DTD SVG 1.1//EN" "http://www.w3.org/Graphics/SVG/1.1/DTD/svg11.dtd">
<!-- Creator: CorelDRAW X7 -->
<svg xmlns="http://www.w3.org/2000/svg" xml:space="preserve" width="150px" height="200px" version="1.1" style="shape-rendering:geometricPrecision; text-rendering:geometricPrecision; image-rendering:optimizeQuality; fill-rule:evenodd; clip-rule:evenodd"
viewBox="0 0 150 200"
 xmlns:xlink="http://www.w3.org/1999/xlink">
 <defs>
  <style type="text/css">
   <![CDATA[
    .fil4 {fill:#FEFEFE}
    .fil0 {fill:#2B2A29}
    .fil1 {fill:#FFF386}
    .fil3 {fill:#E8C37E}
    .fil2 {fill:#B2DFF9}
   ]]>
  </style>
 </defs>
 <g id="Layer_x0020_1">
  <metadata id="CorelCorpID_0Corel-Layer"/>
  <g id="_410915040">
   <path class="fil0" d="M77 86l14 0c3,0 12,1 12,1 3,0 11,1 12,2 1,1 1,5 1,6 -1,8 -7,7 -15,7 -4,-1 -22,-2 -24,-5 -1,-1 -1,-4 -1,-6 -1,-4 1,-4 1,-5zm-15 71c-1,1 -2,2 -3,3 1,0 0,0 1,1 2,0 6,-2 7,-3 0,-2 0,-1 -1,-2 -3,0 -2,0 -4,1zm11 -25c1,0 4,1 5,0 2,0 1,-2 0,-2 -2,-2 -5,-1 -7,0 0,1 1,3 2,3 0,0 0,0 0,-1 0,0 -1,0 0,0 0,0 0,0 0,0zm-17 -4c0,1 0,2 1,2 2,1 6,1 7,0 0,0 1,0 0,-1 0,-1 0,-1 0,-1 -1,-1 -5,-1 -6,-1l-2 1zm3 19c3,-2 3,-1 6,0 2,0 5,0 7,-1 0,-2 0,-1 -1,-2 -2,-2 -11,-1 -13,0 0,1 0,1 1,3 0,0 0,0 0,0zm4 -29c0,0 0,0 1,0l1 -3c0,-2 1,-7 1,-9 1,0 1,0 1,-1 -1,0 -1,-1 -3,-1 -1,9 -5,8 -4,14l3 0zm32 -29c-1,2 -1,2 -3,3 -2,1 -3,0 -3,-3 2,0 3,0 6,0zm0 8c-1,-1 -3,-1 -4,-1l-5 -1c-1,-1 -2,-1 -2,-2 0,-1 1,-2 2,-2 3,0 2,6 10,3 1,0 2,0 3,0 2,-1 3,-4 3,-4 1,0 2,1 3,2 -2,4 -8,3 -10,5 2,0 11,-2 12,-4 -1,-3 -6,-4 -8,-5 -5,-1 -6,-1 -11,0 -3,1 -8,4 -5,6 1,1 1,0 2,1 3,1 7,2 10,2zm-61 -5c1,-1 2,-1 3,-2 1,3 1,3 2,4 -1,0 -4,-1 -5,-2zm16 -2c2,-1 3,0 4,1 0,0 0,0 0,0 0,0 0,0 0,0l0 1c-2,2 -3,3 -8,3 4,-2 2,-1 4,-5zm-19 0c0,1 0,1 2,3 4,4 16,5 22,1l2 -2c0,0 -1,-1 -1,-1 -1,-1 1,2 0,0 0,-1 0,-1 0,-1 -2,-2 -8,-5 -10,-5 -3,0 -6,1 -9,2 -2,1 -4,1 -6,3zm-2 40c3,2 2,1 5,2 3,1 1,0 3,2 6,4 9,2 14,4l8 1c5,1 8,0 9,2 0,0 -1,0 2,1 8,1 18,0 25,-4 2,-1 3,-1 5,-1 6,-1 4,0 5,0 2,-1 3,-2 0,-4 -3,-1 -7,0 -9,2 -9,6 -20,3 -28,3 -3,0 -21,-3 -23,-4l-4 -2c-3,-1 -3,-1 -4,-3 -3,-3 -8,-4 -8,1zm79 -46c-1,-1 -24,-3 -26,-4 -4,0 -8,-2 -13,-1 -1,0 -12,0 -13,0l-24 0c-1,-3 2,-12 3,-15 1,-2 1,-1 1,-3 0,-2 3,-7 5,-9 1,-2 1,-2 4,-3 1,-1 3,-3 5,-2 1,0 2,1 3,1 1,1 1,1 1,2 1,2 6,6 7,7 4,4 4,5 9,6 2,1 3,2 5,2 2,1 4,1 6,2l11 3 1 0c2,0 4,1 6,2l6 2 4 3c2,1 4,2 4,3 -1,1 -2,-1 -1,1 0,2 2,2 1,4 -1,0 -3,-1 -5,-1zm-11 -14l-2 -1 -9 -3c-4,-2 -2,-1 -5,-2 -1,-1 -2,-1 -3,-2l-6 -2c-2,-1 -2,0 -5,-3 -2,-1 -3,-2 -4,-4 -1,-1 -3,-3 -4,-4l-7 -4c-8,-3 -9,1 -13,5 -4,5 -3,6 -5,8l-1 2c-1,3 -1,1 -1,3l0 1c-1,2 -2,6 -2,7 -1,2 -1,6 -1,8l-3 0c-1,0 -2,0 -3,0 -2,1 -1,0 -3,0 0,-3 1,-7 1,-9 0,-8 3,-19 5,-26 9,-27 15,-17 22,-17 1,-2 2,-2 4,-3 1,-1 2,-2 4,-2 2,-2 9,-4 10,-4 4,-2 10,-3 14,-2l5 2c0,1 -1,0 -1,1 2,0 3,1 5,1 2,2 0,1 4,4 5,4 12,11 17,16 1,1 2,1 4,2l6 5c2,1 2,2 4,3l1 1c0,0 0,0 0,0l1 1c2,3 3,7 3,9 0,2 0,4 0,6 1,3 -2,13 -3,17 0,1 0,1 -1,1 -2,-2 -2,0 -6,0l-2 -1c-1,0 0,-1 -2,-3 -1,-1 0,0 -1,-1 0,-1 0,-1 0,-2 -2,-1 -3,-2 -5,-3l-6 -3 -6 -2zm-68 13l0 1c0,1 -3,11 -2,12 0,0 0,0 0,0 5,1 -1,-1 2,0 4,2 10,2 14,2 7,0 12,2 18,0l0 -13c-4,0 -7,0 -10,0 -3,-1 -8,-2 -10,-1 -2,0 -4,-1 -6,-1 -2,0 -4,0 -6,0 0,0 0,0 0,0l0 0zm-11 -10l-1 5c-1,2 -5,1 -7,4 -1,1 -1,4 -1,6 0,2 1,3 2,4 4,12 2,7 1,15 0,6 -1,3 0,7 1,2 1,2 2,3 0,0 0,0 1,0 1,0 1,0 4,0 -2,5 1,21 0,30 0,2 -1,3 0,5 0,0 0,0 0,0l12 10c1,1 2,2 6,4 5,2 13,8 19,10 2,1 5,3 7,3 13,-1 8,-2 16,-3 6,-2 4,-2 7,-3 1,0 2,-1 3,-1 4,-1 19,-4 21,-5 0,0 1,-1 2,-1 8,-6 5,-8 6,-17 0,-2 0,-3 1,-5 0,-1 0,-2 0,-3l1 -3c0,0 0,0 0,0 1,-6 2,-8 3,-10 0,-2 0,-2 -1,-4 2,0 3,1 5,0 2,-1 3,-2 3,-4 0,-2 0,-4 0,-5 -1,-2 -1,-4 0,-6 0,-1 1,-3 2,-4 2,-4 3,-7 3,-12 0,-1 0,-2 -1,-2 0,-2 -1,-2 -2,-3 0,0 0,0 0,-1 0,0 -1,0 -1,0 0,0 -1,0 -1,-1 0,-1 0,-1 0,-1 1,-2 1,-1 1,-1 2,0 0,-1 1,0 -2,-6 6,-14 0,-27l-2 -3c-5,-7 -5,-8 -12,-12 -3,-2 -1,-1 -3,-3 -1,-2 -3,-2 -5,-4 -11,-9 -2,-5 -23,-18 -9,-3 -17,-4 -26,-1 -3,1 -5,1 -7,3 -2,0 -2,1 -4,2 -10,7 -12,-1 -19,5 -3,2 -6,9 -7,14 -1,6 -3,11 -4,17l-2 16zm109 12c1,-1 1,-2 2,-3l-2 3zm2 -2c-1,1 -1,2 -1,2 0,-1 0,-1 1,-2zm1 7c0,2 0,1 0,4 0,12 -1,9 -4,17 -1,4 1,5 0,8 -1,1 -3,1 -4,1 0,-1 -1,-1 -1,-3 3,-1 3,-1 3,-5 0,-2 0,-4 0,-6 1,-2 1,-6 2,-8 0,-3 -1,-5 -3,-5 -1,0 -2,1 -2,1 -2,0 -1,1 -3,2l-1 -6c3,-1 5,-1 8,-2l1 2c1,-2 -1,-1 1,-1 0,1 0,1 1,2 1,-1 0,0 0,-1l0 -1c0,0 0,0 0,0 2,0 1,0 2,1zm-39 12c1,1 10,1 11,1 2,0 4,0 6,0 6,0 3,0 6,0 0,1 0,1 0,3l0 1c0,0 0,0 0,0l0 1c0,0 0,0 1,2 1,4 1,5 2,8 1,4 1,0 1,4 0,1 0,1 0,2l0 0c1,1 1,0 1,4 0,2 -1,2 -1,3 -1,1 -3,12 -3,14 0,2 0,4 -1,6 -1,11 1,6 -5,12 -2,2 -6,3 -10,3 -3,1 -7,1 -10,2 -8,3 -8,3 -13,6 -5,2 -4,2 -10,3 -4,0 -5,-1 -7,-3 -5,-5 -15,-8 -22,-12 -8,-4 -8,-5 -13,-11 -2,-2 -3,-5 -2,-8 2,-1 1,-2 1,-5 0,-3 0,-1 1,-2 0,-2 -1,-4 -1,-5 -1,-1 -1,0 -1,-1l0 -10c0,-4 2,-7 4,-10l2 -4c1,-1 1,-4 1,-6 2,0 7,1 8,1l18 0c3,0 5,-1 8,-1 1,-3 0,-8 2,-12 1,-1 2,-2 4,-3 2,-2 3,-1 5,0 0,3 -1,4 -1,8 1,4 1,4 2,7 1,0 2,0 4,1 1,0 2,0 4,0 2,0 6,1 8,1zm-77 -7l0 -6 -1 -4c4,-2 6,-2 10,-1 1,1 1,0 2,-1l0 4c-4,0 -5,-1 -7,2 0,2 0,3 1,5 3,7 -4,8 0,13 1,2 1,1 1,3 1,0 1,0 2,0 0,1 -1,3 -2,4 -1,1 0,0 -1,0 -2,0 -4,-1 -4,-3 0,0 1,-2 1,-3 0,-1 1,0 0,-2 0,-2 0,-2 0,-3l-2 -8z"/>
   <path class="fil1" d="M80 16c-4,-1 -10,0 -14,2 -1,0 -8,2 -10,4 -2,0 -3,1 -4,2 -2,1 -3,1 -4,3 -7,0 -13,-10 -22,17 -2,7 -5,18 -5,26 0,2 -1,6 -1,9 2,0 1,1 3,0 1,0 2,0 3,0l3 0c0,-2 0,-6 1,-8 0,-1 1,-5 2,-7l0 -1c0,-2 0,0 1,-3l1 -2c2,-2 1,-3 5,-8 4,-4 5,-8 13,-5l7 4c1,1 3,3 4,4 1,2 2,3 4,4 3,3 3,2 5,3l6 2c1,1 2,1 3,2 3,1 1,0 5,2l9 3 2 1 6 2 6 3c2,1 3,2 5,3 0,1 0,1 0,2 1,1 0,0 1,1 2,2 1,3 2,3l2 1c4,0 4,-2 6,0 1,0 1,0 1,-1 1,-4 4,-14 3,-17 0,-2 0,-4 0,-6 0,-2 -1,-6 -3,-9l-1 -1c0,0 0,0 0,0l-1 -1c-2,-1 -2,-2 -4,-3l-6 -5c-2,-1 -3,-1 -4,-2 -5,-5 -12,-12 -17,-16 -4,-3 -2,-2 -4,-4 -2,0 -3,-1 -5,-1 0,-1 1,0 1,-1l-5 -2z"/>
   <g>
    <path class="fil2" d="M29 96c0,0 0,0 0,0 -2,0 0,0 0,0zm32 -11c-4,0 -7,0 -10,0 -3,-1 -8,-2 -10,-1 -2,0 -4,-1 -6,-1 -2,0 -4,0 -6,0 0,0 0,0 0,0l0 1c0,1 -3,11 -2,12 0,0 0,0 0,0 2,0 2,1 2,0 4,2 10,2 14,2 7,0 12,2 18,0l0 -13zm-15 0c2,0 8,3 10,5 0,0 0,0 0,1 0,0 0,0 0,0 0,0 1,1 1,1l-2 2c-6,4 -18,3 -22,-1 -2,-2 -2,-2 -2,-3 2,-2 4,-2 6,-3 3,-1 6,-2 9,-2z"/>
    <path class="fil2" d="M83 94c-3,-2 2,-5 5,-6 5,-1 6,-1 11,0 2,1 7,2 8,5 -1,2 -10,4 -12,4 -3,0 -7,-1 -10,-2 -1,-1 -1,0 -2,-1zm-6 -8c0,1 -2,1 -1,5 0,2 0,5 1,6 2,3 20,4 24,5 8,0 14,1 15,-7 0,-1 0,-5 -1,-6 -1,-1 -9,-2 -12,-2 0,0 -9,-1 -12,-1l-14 0z"/>
   </g>
   <g>
    <path class="fil3" d="M61 57c-1,-1 -6,-5 -7,-7 0,-1 0,-1 -1,-2 -1,0 -2,-1 -3,-1 -2,-1 -4,1 -5,2 -3,1 -3,1 -4,3 -2,2 -5,7 -5,9 0,2 0,1 -1,3 -1,3 -4,12 -3,15l24 0c1,0 12,0 13,0 5,-1 9,1 13,1 2,1 25,3 26,4 2,0 4,1 5,1 1,-2 -1,-2 -1,-4 -1,-2 0,0 1,-1 0,-1 -2,-2 -4,-3l-4 -3 -6 -2c-2,-1 -4,-2 -6,-2l-1 0 -11 -3c-2,-1 -4,-1 -6,-2 -2,0 -3,-1 -5,-2 -5,-1 -5,-2 -9,-6z"/>
    <path class="fil3" d="M18 89c2,-3 3,-2 7,-2l0 -4c-1,1 -1,2 -2,1 -4,-1 -6,-1 -10,1l1 4 0 6 2 8c0,1 0,1 0,3 1,2 0,1 0,2 0,1 -1,3 -1,3 0,2 2,3 4,3 1,0 0,1 1,0 1,-1 2,-3 2,-4 -1,0 -1,0 -2,0 0,-2 0,-1 -1,-3 -4,-5 3,-6 0,-13 -1,-2 -1,-3 -1,-5z"/>
    <path class="fil3" d="M37 101c-1,0 -6,-1 -8,-1 0,2 0,5 -1,6l-2 4c-2,3 -4,6 -4,10l0 10c0,1 0,0 1,1 0,1 1,3 1,5 -1,1 -1,-1 -1,2 0,3 1,4 -1,5 -1,3 0,6 2,8 5,6 5,7 13,11 7,4 17,7 22,12 2,2 3,3 7,3 6,-1 5,-1 10,-3 5,-3 5,-3 13,-6 3,-1 7,-1 10,-2 4,0 8,-1 10,-3 6,-6 4,-1 5,-12 1,-2 1,-4 1,-6 0,-2 2,-13 3,-14 0,-1 1,-1 1,-3 0,-4 0,-3 -1,-4l0 0c0,-1 0,-1 0,-2 0,-1 0,-2 0,-2 0,0 0,0 -1,-2 -1,-3 -1,-4 -2,-8 -1,-2 -1,-2 -1,-2l0 -1c0,0 0,0 0,0l0 -1c0,-2 0,-2 0,-3 -3,0 0,0 -6,0 -2,0 -4,0 -6,0 -1,0 -10,0 -11,-1 -2,0 -6,-1 -8,-1 -2,0 -3,0 -4,0 -2,-1 -3,-1 -4,-1 -1,-3 -1,-3 -2,-7 0,-4 1,-5 1,-8 -2,-1 -3,-2 -5,0 -2,1 -3,2 -4,3 -2,4 -1,9 -2,12 -3,0 -5,1 -8,1l-18 0zm8 33c2,1 20,4 23,4 8,0 19,3 28,-3 2,-2 6,-3 9,-2 3,2 2,3 0,4 -1,0 1,-1 -5,0 -2,0 -3,0 -5,1 -7,4 -17,5 -25,4 -3,-1 -2,-1 -2,-1 -1,-2 -4,-1 -9,-2l-8 -1c-5,-2 -8,0 -14,-4 -2,-2 0,-1 -3,-2 -3,-1 -2,0 -5,-2 0,-5 5,-4 8,-1 1,2 1,2 4,3l4 2zm14 26c1,-1 2,-2 3,-3 2,-1 1,-1 4,-1 1,1 1,0 1,2 -1,1 -5,3 -7,3 -1,-1 0,-1 -1,-1zm12 -30c2,-1 5,-2 7,0 1,0 2,2 0,2 -1,1 -4,0 -5,0 0,0 0,0 0,0 -1,0 0,0 0,0 0,1 0,1 0,1 -1,0 -2,-2 -2,-3zm-14 0c-1,0 -1,-1 -1,-2l2 -1c1,0 5,0 6,1 0,0 0,0 0,1 1,1 0,1 0,1 -1,1 -5,1 -7,0zm1 14c2,-1 11,-2 13,0 1,1 1,0 1,2 -2,1 -5,1 -7,1 -3,-1 -3,-2 -6,0 0,0 0,0 0,0 -1,-2 -1,-2 -1,-3zm2 -26c-1,-6 3,-5 4,-14 2,0 2,1 3,1 0,1 0,1 -1,1 0,2 -1,7 -1,9l-1 3c-1,0 -1,0 -1,0l-3 0z"/>
    <path class="fil3" d="M123 93c2,0 3,2 3,5 -1,2 -1,6 -2,8 0,2 0,4 0,6 0,4 0,4 -3,5 0,2 1,2 1,3 1,0 3,0 4,-1 1,-3 -1,-4 0,-8 3,-8 4,-5 4,-17 0,-3 0,-2 0,-4 -1,-1 0,-1 -2,-1 0,0 0,0 0,0l0 1c0,1 1,0 0,1 -1,-1 -1,-1 -1,-2 -2,0 0,-1 -1,1l-1 -2c-3,1 -5,1 -8,2l1 6c2,-1 1,-2 3,-2 0,0 1,-1 2,-1z"/>
   </g>
   <g>
    <path class="fil4" d="M50 90c-2,4 0,3 -4,5 5,0 6,-1 8,-3l0 -1c0,0 0,0 0,0 0,0 0,0 0,0 -1,-1 -2,-2 -4,-1z"/>
    <path class="fil4" d="M39 94c-1,-1 -1,-1 -2,-4 -1,1 -2,1 -3,2 1,1 4,2 5,2z"/>
    <path class="fil4" d="M84 93c0,1 1,1 2,2l5 1c1,0 3,0 4,1 2,-2 8,-1 10,-5 -1,-1 -2,-2 -3,-2 0,0 -1,3 -3,4 -1,0 -2,0 -3,0 -8,3 -7,-3 -10,-3 -1,0 -2,1 -2,2z"/>
    <path class="fil4" d="M89 89c0,3 1,4 3,3 2,-1 2,-1 3,-3 -3,0 -4,0 -6,0z"/>
    <path class="fil4" d="M39 89c0,2 1,4 3,3 1,-1 2,-1 2,-3 -2,-1 -3,0 -5,0z"/>
   </g>
  </g>
 </g>
</svg>
