<?xml version="1.0" encoding="UTF-8"?>
<!DOCTYPE svg PUBLIC "-//W3C//DTD SVG 1.1//EN" "http://www.w3.org/Graphics/SVG/1.1/DTD/svg11.dtd">
<!-- Creator: CorelDRAW X7 -->
<svg xmlns="http://www.w3.org/2000/svg" xml:space="preserve" width="460px" height="500px" version="1.1" style="shape-rendering:geometricPrecision; text-rendering:geometricPrecision; image-rendering:optimizeQuality; fill-rule:evenodd; clip-rule:evenodd"
viewBox="0 0 460 500"
 xmlns:xlink="http://www.w3.org/1999/xlink">
 <defs>
  <style type="text/css">
   <![CDATA[
    .fil0 {fill:#FEFEFE}
    .fil10 {fill:#B2B3B3}
    .fil7 {fill:#898989}
    .fil12 {fill:#727271}
    .fil1 {fill:#2B2A29}
    .fil13 {fill:#EF7F1A}
    .fil9 {fill:#E31E24}
    .fil16 {fill:#D2CDE7}
    .fil5 {fill:#D2CDE7}
    .fil11 {fill:#B0CB1F}
    .fil6 {fill:#A79ECD}
    .fil2 {fill:#7690C9}
    .fil4 {fill:#7E71B1}
    .fil8 {fill:#D9D9E1}
    .fil15 {fill:url(#id0)}
    .fil14 {fill:url(#id1)}
    .fil3 {fill:url(#id2)}
   ]]>
  </style>
  <radialGradient id="id0" gradientUnits="userSpaceOnUse" gradientTransform="matrix(1.73811 -0.095728 0.0957269 1.73809 -158 7)" cx="212.131" cy="18.3496" r="13.1292" fx="212.131" fy="18.3496">
   <stop offset="0" style="stop-opacity:1; stop-color:#FEFEFE"/>
   <stop offset="1" style="stop-opacity:1; stop-color:#A2D9F7"/>
  </radialGradient>
  <radialGradient id="id1" gradientUnits="userSpaceOnUse" gradientTransform="matrix(1.61322 -0.0887851 0.0887851 1.61322 -121 6)" xlink:href="#id0" cx="195.353" cy="17.713" r="13.7421" fx="195.353" fy="17.713">
  </radialGradient>
  <radialGradient id="id2" gradientUnits="userSpaceOnUse" gradientTransform="matrix(1.69167 -0 -0 1.69167 -114 -175)" cx="165.064" cy="253.186" r="487.474" fx="165.064" fy="253.186">
   <stop offset="0" style="stop-opacity:1; stop-color:#FEFEFE"/>
   <stop offset="1" style="stop-opacity:1; stop-color:#A79ECD"/>
  </radialGradient>
 </defs>
 <g id="Layer_x0020_1">
  <metadata id="CorelCorpID_0Corel-Layer"/>
  <path class="fil0" d="M215 229l-34 -7c-1,7 17,32 11,34 -4,5 -15,20 -16,24 10,-2 24,-9 37,-13 7,10 14,23 25,33 2,-14 -1,-28 -1,-42 13,-2 19,-3 37,-10l-37 -13 0 -40c-11,14 -18,28 -22,34z"/>
  <g id="_410907888">
   <g>
    <path class="fil1" d="M92 116c8,-3 15,-7 22,-11 11,-5 21,-12 31,-19 3,-1 7,-4 11,-4 1,0 1,1 2,1 2,1 3,1 4,1 6,0 12,-1 17,-3 5,-1 10,-2 16,-3 6,-1 13,-1 19,-4l0 0 41 0 0 0c6,3 13,4 19,5 10,2 20,4 30,7 31,10 57,28 80,51 2,2 4,4 7,4 1,1 2,1 4,0 2,0 3,1 5,2 4,3 9,9 12,14 6,9 15,23 18,34 1,3 1,5 0,8 0,2 0,4 0,6 -1,1 -1,2 0,3 0,3 1,6 2,9 1,2 2,5 3,8 2,6 3,12 4,18 1,4 1,8 2,12 1,3 1,6 2,9l1 0 0 39 -1 1c-1,4 -2,8 -3,12 -1,5 -2,11 -3,17 -2,7 -3,15 -6,22 -12,36 -37,69 -66,92 -3,3 -6,5 -9,7 0,0 -2,1 -2,2 0,0 0,1 0,2 -1,2 -1,4 -2,6l0 1 -1 1c-12,5 -23,9 -34,15 -2,1 -4,2 -6,3 -1,0 -1,1 -2,1l-1 1 -1 -1c-1,0 -1,0 -2,0 -2,0 -4,-1 -6,-1 -1,0 -4,1 -6,1 -4,1 -8,2 -13,3 -14,3 -28,5 -42,5 -22,1 -44,-2 -65,-8 -20,-6 -39,-15 -56,-27 -16,-11 -29,-21 -41,-36 -2,-2 -4,-5 -7,-7 -1,0 -2,-1 -4,0 -2,0 -3,-1 -5,-2 -2,-2 -3,-3 -5,-5 -2,-3 -4,-6 -6,-9 -6,-8 -7,-7 -4,-17 0,-4 -2,-11 -4,-15 -3,-8 -6,-16 -9,-25 -9,-29 -11,-58 -6,-88 3,-27 13,-52 26,-76 3,-6 7,-12 11,-17 3,-4 6,-8 9,-11 5,-5 9,-9 13,-14 4,-5 4,-11 5,-17l0 -2 2 -1z"/>
    <path class="fil2" d="M349 463c1,-2 1,-4 1,-6 0,-1 0,-2 1,-3 0,-1 2,-2 3,-3 3,-2 6,-4 9,-6 29,-24 53,-56 65,-91 3,-7 4,-15 6,-22 1,-6 2,-11 3,-17 1,-4 2,-8 3,-12l0 -38c-1,-3 -1,-6 -2,-9 -1,-4 -2,-8 -2,-13 -1,-5 -2,-12 -4,-17 -1,-3 -2,-6 -3,-8 -1,-3 -2,-7 -3,-10 0,-1 0,-2 0,-4 0,-2 1,-3 1,-5 0,-3 0,-5 0,-7 -3,-11 -12,-25 -18,-33 -3,-4 -7,-11 -11,-13 -1,-1 -2,-2 -3,-1 -2,0 -3,0 -5,0 -3,-1 -6,-4 -8,-6 -23,-22 -49,-40 -79,-49 -10,-4 -19,-6 -29,-8 -6,-1 -14,-2 -20,-5l-39 0c-6,3 -14,4 -20,5 -5,0 -10,1 -15,2 -6,2 -12,4 -18,3 -2,0 -3,0 -5,-1 0,0 -1,0 -2,0 -2,-1 -7,2 -8,3 -10,7 -21,13 -31,19 -7,4 -15,8 -23,11 -1,7 -1,13 -6,19 -4,5 -8,9 -12,14 -3,3 -6,7 -9,11 -4,5 -8,11 -11,17 -13,23 -22,48 -26,74 -4,30 -3,58 6,87 3,9 6,17 9,25 2,5 5,12 4,17 -2,8 -2,7 3,14 2,3 5,6 7,9 1,1 3,3 4,4 1,1 2,1 3,1 2,0 4,0 6,1 3,2 6,5 8,8 12,14 24,25 40,35 35,25 76,36 119,35 14,-1 28,-2 42,-5 4,-1 8,-2 13,-3 1,0 5,-1 6,-1 3,0 5,0 7,1 0,0 1,0 1,0 1,0 2,0 2,-1 2,-1 4,-2 6,-3 11,-6 23,-10 34,-15z"/>
    <path class="fil3" d="M98 129c9,-3 7,-2 9,0 -15,8 -33,33 -45,51 -13,19 -22,47 -27,72 -5,29 -2,60 6,88 4,13 10,23 14,35 4,12 -5,7 1,19 10,17 9,1 21,15l17 19c28,26 58,46 101,47 11,1 35,-1 45,-4 7,-3 5,-7 15,-9 19,-6 15,8 67,-31 16,-13 6,-5 15,-10 -5,-2 -8,-4 -9,-12 -3,-18 15,-33 34,-24 12,-19 23,-48 26,-74 2,-14 -1,-39 6,-46 3,-3 8,-3 6,-19 -1,-8 -5,-15 -7,-20 -27,-6 -4,-1 -30,-40 6,88 -91,64 -94,9 7,13 9,25 30,37 8,4 18,6 28,5 13,-1 17,-8 22,-10 -26,25 -90,-14 -67,-73l-18 -19c13,6 21,15 28,10 0,-1 -35,-18 -41,-36l-2 -9c-40,-10 -52,-4 -79,-4 -15,0 -8,-10 -27,3l-31 18c-8,4 -12,3 -14,12z"/>
    <path class="fil4" d="M219 386c-56,12 -35,84 23,72 59,-13 37,-85 -23,-72z"/>
    <path class="fil2" d="M88 174c-52,14 -45,102 3,88 17,-5 32,-25 34,-47 2,-24 -13,-48 -37,-41z"/>
    <path class="fil5" d="M219 391c-16,4 -34,19 -27,39 13,39 87,22 76,-20 -4,-16 -28,-24 -49,-19z"/>
    <path class="fil5" d="M92 183c-31,8 -41,49 -30,64 6,8 14,13 26,11 37,-9 47,-86 4,-75z"/>
    <path class="fil4" d="M190 256c17,-7 28,-16 52,-8 58,20 42,104 -20,99 8,-3 15,-4 17,-15 1,-9 -6,-15 -13,-18 -19,-8 -37,12 -24,26 -15,-8 -28,-30 -19,-55 11,-27 33,-27 48,-30l2 0c1,0 1,0 2,-1 -21,-1 -36,3 -47,15 -40,39 8,104 67,76 47,-23 39,-95 -18,-103 -10,-1 -19,-1 -28,2 -6,2 -12,5 -17,9 -2,2 -1,1 -2,3z"/>
    <path class="fil2" d="M144 353c-31,6 -12,54 20,48 31,-7 11,-55 -20,-48z"/>
    <path class="fil4" d="M282 186c5,-7 7,-12 17,-16 22,-8 46,9 52,38l3 8c3,-13 8,-24 0,-38 -11,-21 -38,-36 -58,-24 -10,6 -16,16 -14,32z"/>
    <path class="fil4" d="M352 293c-28,9 -18,54 8,47 26,-8 18,-55 -8,-47z"/>
    <path class="fil4" d="M182 193c-23,10 -13,42 10,34 21,-8 12,-43 -10,-34z"/>
    <path class="fil4" d="M179 128c-26,6 -26,36 -1,31 22,-5 27,-37 1,-31z"/>
    <path class="fil2" d="M90 333c-17,8 -3,41 15,33 17,-7 1,-40 -15,-33z"/>
    <path class="fil4" d="M255 104c13,-8 28,-4 41,5 11,7 19,12 23,24l2 7c2,-9 -2,-18 -8,-24l-6 -5c-1,-1 -1,-1 -1,-1 23,11 19,26 21,32 17,-10 -24,-55 -63,-48 -8,2 -8,3 -9,10z"/>
    <path class="fil4" d="M186 197c-20,5 -14,31 3,26 16,-4 13,-31 -3,-26z"/>
    <path class="fil2" d="M90 339c-9,8 5,29 15,22 8,-7 -4,-30 -15,-22z"/>
    <path class="fil2" d="M140 445c0,-6 1,-5 -2,-9 -3,-4 -15,-11 -19,-6 -5,8 10,16 21,15z"/>
   </g>
   <g>
    <path class="fil1" d="M283 33c1,0 0,0 0,1 0,2 -1,3 -2,4 -1,1 -4,2 -4,1 0,0 0,-1 0,-1 0,0 0,0 0,0l1 -1c0,-1 1,-2 1,-3 1,-2 1,-1 1,-2 1,0 0,0 1,-1l0 0c1,1 0,2 -1,4l0 1c-1,0 -1,0 -1,1 0,0 0,0 0,1l0 0c1,0 1,0 1,0 1,-1 1,-1 2,-2 0,-1 0,-1 0,-1 0,0 0,-1 0,-1 0,0 0,-1 1,-1 0,0 0,0 0,0zm1 -3c0,0 1,0 1,0 1,-1 2,-1 2,-1l1 1c1,0 1,0 1,1 0,0 0,0 0,0 1,1 1,2 0,3l-1 5c-1,2 -1,0 -2,1 0,1 0,1 0,1 -1,1 -4,2 -3,-1l1 -2c1,-2 0,0 2,-3 1,0 0,0 1,-1 0,0 0,0 1,0 0,1 -2,3 -2,4 -1,1 -1,0 -1,1l0 0c0,0 0,0 0,0 1,0 1,0 1,0 1,0 1,-1 2,-2l0 -1c0,0 0,-1 0,-1 1,-2 0,-3 1,-4 -1,0 -1,0 -1,1l0 -1c-1,0 0,0 -2,-1 -1,0 -1,1 -2,1l0 -1zm11 10c0,1 -1,3 -2,4 -1,1 0,0 -1,1 0,0 0,0 0,0 -1,0 0,0 -2,1 -1,1 0,0 -1,0 -1,1 -2,0 -2,0 0,-1 1,-2 1,-3 0,0 0,0 1,0l0 -1c0,0 1,-1 2,-1 0,-1 0,0 0,0l1 -1c1,1 0,1 -1,2 -1,1 -1,1 -2,1 0,0 0,1 0,1 0,0 0,0 0,0 0,0 0,1 0,1l1 0c1,0 0,0 1,-1 0,0 0,0 1,0l1 -2c1,-1 0,-1 0,-1 0,-1 1,-1 1,-2 -2,-2 -1,-2 -3,-4l0 0c0,0 0,0 0,0 0,0 0,0 0,0 0,-1 0,-1 -1,-1 0,0 0,0 0,-1l2 2c1,0 2,1 2,2 0,0 0,0 0,0 1,1 1,2 1,3zm-126 25c-1,1 -1,0 -2,0 -1,0 -1,0 -2,1 -2,0 -3,0 -4,0 0,-1 1,-1 1,-1 1,-1 3,-1 5,-1 1,0 1,0 2,0l0 1zm117 -6c-1,1 -1,0 -1,1 0,1 0,0 0,2 0,0 0,0 -1,-1 0,0 0,0 0,0 -1,-1 0,-3 2,-2zm-117 9c-2,0 -6,1 -10,0 0,-1 0,-1 1,-1 2,-1 8,-1 9,-1 0,1 -1,1 0,2zm122 -8c0,0 -1,0 -1,0 -1,1 -2,1 -2,1 0,0 0,0 0,0l1 -1c-1,0 -1,1 -1,0 0,0 0,0 0,0l2 -1c0,0 0,0 1,-1 0,0 0,0 0,1 0,-1 1,-1 1,-2 2,0 3,-1 4,-2l1 -1c0,0 0,-1 1,-1 0,0 0,0 0,0 0,-1 0,0 0,-1 0,0 0,1 0,1l0 -1 1 -2c0,-1 0,-1 0,-1 0,-1 0,-1 0,-2 1,0 1,-3 1,-3 0,0 0,-1 0,-1 -1,0 -1,0 -1,0 0,-1 0,-1 0,-1l-1 0c0,0 0,0 0,0 -1,-1 -2,-1 -3,-1l0 -1c1,-1 1,0 2,0 0,0 0,0 1,0 0,0 0,0 0,0 1,1 1,1 2,2l0 0c0,1 1,0 1,3 0,0 -1,0 -1,1 0,2 -1,3 -1,3 1,1 1,1 1,1l0 -2c1,-1 1,-2 1,-3 0,0 0,0 0,2l0 1c0,1 0,1 -1,1 0,1 0,1 -1,3 0,0 0,1 -1,1 0,1 -1,2 -2,3 0,0 -1,0 -1,1 0,0 0,0 0,0l-3 2c0,0 0,0 0,1 -1,-1 -1,-1 -1,-1l-1 1c1,0 0,-1 1,0zm-5 2c0,1 1,1 -1,1 0,0 0,0 -1,0 -1,1 -1,1 -2,1 -1,-1 0,-1 -1,-2 -1,-2 0,-2 0,-2 0,-1 0,0 0,-1l0 -1c1,-1 1,-1 1,-2 0,0 0,0 -1,1 0,-1 1,-1 1,-2 1,1 0,1 1,1 0,0 0,-1 0,-1 2,0 2,1 2,2 0,1 0,0 1,1 -1,0 -1,0 -1,0l-2 1c0,1 0,2 1,3 2,1 1,0 2,0 0,0 1,0 1,0 0,0 0,0 0,1 -1,0 -1,-1 -1,-1zm-5 2l0 0 -2 0c-1,0 -2,-1 -2,-1 0,-1 0,-3 0,-4 0,0 0,0 0,0l0 0c0,0 0,0 0,0 0,-1 0,-1 0,-2 1,-1 1,-1 1,-2 1,0 0,0 1,0l0 0c1,0 0,0 1,0 0,0 0,0 0,0 0,0 0,0 0,0l0 0c1,0 1,0 1,0 0,-1 0,0 0,-1l2 0c-1,2 -2,0 -2,3 -1,0 -1,0 -1,0 0,1 0,1 0,2l0 0c0,0 0,0 0,0 0,0 0,0 0,0l0 0c0,1 0,1 0,2 0,1 1,2 1,2 0,0 0,0 0,0 -1,0 0,0 -1,0 0,1 0,0 1,1zm-111 5c0,0 0,0 -1,0l0 -1c0,0 0,0 0,0 0,0 0,0 0,-1 2,0 1,1 1,1 0,0 1,0 1,0l0 0c0,0 0,0 0,0 0,0 0,0 0,0 0,0 0,1 0,1 0,1 0,1 -1,1l0 -1 -1 1c0,0 0,1 0,1 -1,0 -1,0 -2,0l-8 0c-1,0 -1,0 -2,0 0,0 0,-1 1,-1 0,0 0,0 0,0l1 -3c0,1 -1,1 0,2 0,0 0,0 1,0l10 0zm51 -3c-1,1 -1,1 -2,2 0,1 0,1 -1,1 -2,0 -5,0 -6,0 -3,0 -1,0 -2,0 1,-1 -1,0 1,-1 0,-1 0,-1 1,-1 1,0 0,0 1,-1l6 0c0,0 1,0 1,1 0,0 0,0 0,0 0,-1 0,-1 1,-1zm26 -1c-1,1 -2,2 -3,2 0,0 0,0 0,0 0,0 0,0 -1,0l-3 0c-1,1 -4,1 -4,1l-1 0c0,-1 1,-1 1,-1 -1,0 0,0 -1,1 0,-1 0,-1 1,-1 1,0 0,0 1,-1 2,0 2,0 2,0 1,0 -1,0 1,0 0,0 0,-1 0,-1 1,0 2,0 2,0 2,0 2,0 2,0 1,0 2,0 3,0zm-4 3c0,1 -1,1 -2,2 -1,1 0,1 -2,0 0,0 0,1 -1,1 -1,0 0,-1 -1,0 -1,-1 0,-1 -1,-1 0,-1 0,-1 0,-1 0,0 0,-1 1,-1 1,0 5,0 6,0zm24 -2c0,0 0,0 0,0 0,0 0,0 0,0 -1,1 0,1 -1,1 0,0 0,0 0,0 0,0 0,1 0,1 -1,0 -1,-1 -1,-1 0,0 0,0 -1,0 0,1 -2,1 -2,1l-4 0c1,-1 1,0 2,-1 0,0 0,0 0,0 0,0 0,0 0,0 1,0 1,0 1,0 1,-1 1,0 1,-1 3,-1 3,0 4,0 0,0 1,0 1,0zm-108 9c0,0 0,0 -1,0 0,0 -1,0 -1,0 -1,-2 0,-1 0,-3 1,0 0,0 1,0l3 0c2,0 4,0 6,0 1,0 2,-1 1,2l-9 1zm59 -5c0,1 0,1 -1,1l0 1c-1,0 -3,0 -5,0 0,0 -1,0 -2,0 0,0 0,0 -1,0 -1,0 0,0 -1,0 0,-1 1,-1 1,-2 0,0 0,0 0,0l1 -1 0 1c1,0 2,0 3,0 0,0 0,0 0,0 2,-1 1,0 2,0 0,0 0,0 1,0 0,0 0,0 0,0 1,0 2,0 2,0 0,0 0,0 0,0zm22 1c0,1 0,0 0,1 0,0 0,0 0,0 0,1 0,0 -1,1 0,0 0,0 0,0 0,1 0,1 -1,1 0,0 0,0 0,0 0,0 0,0 0,0 0,0 -1,0 -1,0 0,0 0,-1 0,-1 0,-2 -1,-2 1,-2 0,0 0,0 1,0 1,0 0,0 1,0zm-72 5c0,0 -1,0 -1,1 0,0 0,0 0,1 0,0 -1,0 -2,0 -1,0 -2,0 -3,0 -1,0 -4,0 -5,0 0,0 0,-2 0,-2 2,-1 3,0 5,0 0,0 1,0 1,0 1,0 1,0 1,0l3 0c0,-1 0,-1 0,-1 0,0 0,0 0,0l0 0c1,0 1,1 1,1zm115 -6c0,2 -2,1 -2,1l-1 0c0,0 -1,0 -1,0l-1 0c0,0 0,0 0,0 0,-1 0,-1 0,-1 0,0 0,0 0,0 0,-1 0,-1 0,-1 1,0 0,0 1,0 0,0 0,0 1,0 1,0 5,0 5,0 1,0 1,0 1,0 0,-1 -1,-1 -3,-1 0,0 -1,0 -1,0 -1,0 0,0 -1,0 0,0 -1,0 -1,0 -1,0 -1,0 -1,1l0 0c-1,0 -1,0 -1,0l0 0c0,-1 0,-1 0,-1l2 -1c2,0 0,1 3,0l1 0c1,0 2,-1 3,-1 1,0 3,1 3,1l-1 1c0,0 0,0 0,0 0,0 0,0 0,0l-2 1c0,0 -1,0 -1,0 -2,0 0,0 -2,1 0,0 0,0 0,1 0,0 0,0 0,0l-1 -1c0,0 1,0 0,0zm-69 5c-1,0 -1,1 -2,1 -2,0 -1,0 -2,0l-2 0c0,0 0,-1 0,-1 1,0 0,0 1,0 -1,-1 -1,0 -1,0 0,0 0,0 0,0 0,0 0,-1 0,-1l-1 -1c2,0 3,0 5,0l5 0c0,1 0,0 -1,1 0,1 0,1 0,1l-2 0zm-48 4c0,0 0,0 1,0 1,1 1,1 1,2 -1,0 -2,0 -3,0 0,0 -1,0 -1,0 -1,0 -1,0 -1,0 -2,0 -4,0 -5,0l-1 -1c0,0 0,0 0,-1 1,0 0,0 1,0 0,0 0,0 0,0 1,0 4,0 5,0 1,0 3,0 3,0zm10 -3c0,0 0,-1 0,-1 1,0 2,0 2,0 1,0 1,0 1,-1l1 0c0,1 0,2 0,2 1,2 1,3 1,6 -4,0 -3,-1 -4,-4l-1 -2c0,0 1,1 0,0 0,0 0,0 0,0 0,0 0,0 0,0zm107 -4c0,1 -1,1 -1,2 0,0 0,0 0,0 0,0 0,0 0,0 0,0 0,0 0,0l-1 1c0,0 0,0 0,0 0,0 0,0 0,0l0 0c0,0 0,0 0,0 0,0 0,0 0,-1 -1,0 0,0 -1,1 0,0 0,0 0,0l0 0c0,0 -1,0 -1,0 0,-1 0,-2 0,-3 0,1 0,1 0,0l0 0c1,0 2,0 3,0 0,0 0,0 0,0 1,0 0,0 1,0zm-67 6c0,0 0,1 0,1 0,0 -6,1 -7,1 0,0 -1,0 -1,-1 0,0 0,-1 0,-1 0,0 0,-1 0,-1l6 0c2,0 1,0 2,-1 0,1 0,1 0,2zm-29 -3c0,-1 0,0 -1,-1 2,0 2,0 3,0 0,0 1,0 2,0 0,1 0,0 0,1 -1,0 0,0 0,1 0,0 0,0 0,1 0,1 1,4 1,5l-3 0c0,0 -1,0 -1,0 0,0 0,-1 0,-1 0,0 0,0 0,0 -1,0 -1,-1 -1,-1 0,-1 0,-1 0,-2 0,-1 0,-1 0,-2 -1,-1 -1,-1 0,-1zm-2 0c0,0 0,0 0,1l1 0c-1,1 0,2 0,3 0,1 0,0 0,1 0,1 0,1 0,2 0,0 0,0 0,0 -1,0 -1,0 -2,0 0,0 0,0 -1,0 -1,-1 -1,-2 -1,-2l0 -2c-1,-1 -1,-2 -1,-3 0,-1 0,0 0,-1 0,0 0,0 1,0 2,1 3,0 3,0 0,1 0,1 0,1zm8 -1c0,0 0,0 0,0l3 0c1,1 0,1 1,1 0,2 0,5 1,7 -1,0 -2,0 -3,0 -2,0 -1,0 -2,0 0,-1 -1,-3 -1,-4 0,-2 0,-2 0,-2l0 -1c0,-1 0,-1 1,-1zm7 0c1,0 1,1 3,0 0,1 -1,1 -1,1 0,1 1,1 0,1 0,1 0,1 0,2 0,1 1,3 1,4 -1,0 -4,0 -5,0 0,0 -1,-6 -1,-8 1,0 0,1 1,0 1,0 0,1 1,0 0,0 0,0 0,0l1 0zm38 5c0,0 0,0 0,0l-2 1c0,-1 0,0 0,-1 1,-1 0,-1 1,-1 0,0 0,0 0,1 0,-1 0,0 0,-1 0,0 0,0 0,-1 0,-2 0,-2 1,-2 0,0 0,0 0,0 0,0 0,0 0,0 0,0 0,0 0,0 0,0 0,0 1,0 0,0 -1,1 -1,1 0,1 0,2 0,3zm-32 -5c0,0 0,0 0,0 0,1 0,1 0,2 0,1 0,3 0,4l0 3c0,0 0,0 0,-1 -1,0 -1,0 -1,0 -1,-1 -1,-2 -1,-4 0,0 0,0 0,-1 0,0 -1,-3 0,-3l0 0c0,0 0,0 1,0 0,0 0,1 0,1 0,0 0,0 0,0l1 -1zm-23 11c0,1 -2,2 -2,2 -2,1 -2,2 -4,2l0 -1c0,0 0,0 0,0 -1,0 0,0 -1,1 0,0 -2,-1 -2,-1l-1 -1c0,0 0,0 0,0 0,0 0,0 0,0 0,0 0,0 -1,-1l-1 -2c0,0 -1,-1 -1,-1 -1,-3 -1,-2 -1,-5 0,-1 0,-2 0,-3 0,-1 0,-1 0,-1l0 -1c1,0 0,1 0,0l1 -1c-1,-1 0,-2 1,-2 0,0 1,1 1,1 0,1 0,1 1,1 1,1 1,1 1,2 0,0 0,0 1,1 0,1 0,1 0,2 0,1 0,1 0,1 1,1 0,0 1,2 0,0 0,1 0,1 0,0 1,0 0,1 1,0 1,0 1,1 0,0 1,0 1,0 1,0 1,1 2,0 0,0 0,0 0,0l1 0c0,0 3,1 3,0 -1,-1 0,0 0,0l-1 0c0,0 3,-1 4,0 -3,0 -1,0 -2,0l-2 2zm33 -5c0,1 0,2 1,3 -2,-1 -4,0 -5,0 -1,-1 -1,0 -4,0 0,-1 0,-2 -1,-2 2,0 2,0 2,-1 1,0 0,1 2,0 1,0 4,0 4,0l0 1c1,-1 0,-1 1,-1zm21 0c0,0 1,0 1,0 0,2 2,3 0,3 0,0 0,-1 0,-1 0,0 0,0 0,0l0 -1c0,0 -1,0 0,0l0 1c-1,0 -1,1 -2,1 0,-1 0,0 0,-1 0,0 0,0 0,0 0,-1 0,0 0,-1 0,0 1,-1 1,-1zm-66 7c0,0 0,0 1,1 0,0 0,0 0,0 0,0 0,1 0,1 0,0 0,0 0,0 0,0 0,0 0,0 -1,0 0,0 -1,0 0,0 0,0 -1,0l-1 0c-1,0 -1,0 -1,0 0,-1 0,-1 -1,-1 0,0 0,0 0,0 -1,0 -1,0 -1,0 -1,0 0,0 -1,0l4 -1c0,0 0,0 -1,0 -1,0 -1,0 -2,0 -1,0 -3,0 -4,-1 -2,0 -1,0 -2,-1 0,0 0,1 0,0 -1,0 0,-1 -1,-1 0,-1 -1,0 -1,-2 1,0 2,0 3,0 1,0 4,0 5,0 0,0 1,0 2,0l0 0c0,1 0,0 1,2 -2,0 -3,0 -4,0 -2,1 -3,1 -4,1 0,0 -1,0 0,0 1,0 1,0 1,0l2 0c1,0 2,0 4,0 0,0 0,0 0,0 2,0 1,0 2,1 0,0 1,0 1,1 0,0 -1,0 -1,0 -1,0 0,0 -1,0 1,1 0,0 1,0l1 0zm63 -1c0,-1 0,-1 1,-1 0,-2 1,-2 3,-2 1,0 0,0 1,0l0 1c0,0 0,0 0,0 1,0 0,-1 1,0 1,2 0,1 0,2 0,0 -1,0 -1,0l-1 0c-1,0 -3,0 -4,0zm26 -4c0,0 0,0 0,1 0,0 1,1 1,1 -1,1 -1,1 -1,1 0,0 -1,0 -3,0 0,0 0,0 0,0 0,0 0,0 0,-1 0,-1 0,-1 0,-1 1,-1 1,-1 1,0l1 0c0,0 0,0 1,0 0,-1 0,-1 -1,-1l0 0c0,0 0,0 0,0l0 0c0,0 0,0 0,0 -2,0 -1,0 -1,0l0 -3c0,0 0,0 0,0 0,-1 0,-1 0,-2 1,0 1,0 1,-1 0,-1 0,-2 0,-2 0,1 0,1 0,2 1,-1 1,0 1,-1 -1,-1 -1,-1 -1,-2 0,0 0,0 0,0 0,-2 0,-1 -1,-2l4 0c0,1 0,1 -1,2 0,0 0,0 0,0 0,1 0,0 0,1 0,0 -1,2 -1,3 0,0 0,0 0,-1 0,1 0,1 0,1 1,0 0,1 0,2 0,1 0,1 0,2 0,1 0,1 0,1zm-42 5c0,1 1,2 -3,2 0,-1 0,-1 0,-1 0,0 -1,0 -2,0 -1,0 -1,1 -1,0 -1,0 -2,0 -3,-1 0,-1 0,-1 0,-2 0,-1 -1,0 -1,-1 0,0 0,0 0,0 1,-1 1,-1 2,-1 1,0 6,0 7,0 0,1 0,2 0,2 0,0 0,0 -2,0 -1,0 -4,1 -5,0 0,1 0,1 0,2 0,0 1,0 1,0 0,0 0,0 0,-1l6 0c0,1 0,1 0,1 1,0 1,0 1,0zm24 1c-1,0 -1,0 -1,0 -2,0 -1,0 -2,0 0,0 -1,0 -1,0 -1,0 -1,0 -1,0 -2,0 -2,0 -3,0 0,0 0,0 -1,0 1,-1 1,1 1,0 0,-1 0,0 0,-1 0,1 0,1 -1,1 0,-1 1,-2 1,-2 0,0 1,0 1,0 1,0 1,0 1,0 1,0 2,0 3,0l2 0c0,1 1,1 1,2zm-14 2c-2,0 -2,1 -4,1 0,0 -1,0 -1,0 -1,0 0,0 -1,0 0,0 0,0 0,-1l-1 0c0,-1 0,0 0,-1 0,0 0,0 0,0l-3 -6c0,0 0,-3 0,-4 0,0 0,0 0,0l-1 -1c1,0 1,0 1,-1 0,-1 0,0 0,-1l0 1c0,-1 0,-2 0,-4 1,-3 1,-2 1,-3l1 0c0,-1 0,-1 1,-1 0,-1 0,-1 1,-1 0,-1 0,-1 0,-1 1,0 0,0 1,-1 0,0 1,0 1,0 0,0 1,0 1,0 4,-2 4,0 6,0 1,0 2,1 3,1 0,0 0,1 0,1l1 2c1,1 1,1 1,2 1,2 0,2 0,4l0 0c0,1 0,1 0,1 0,0 0,1 0,1 0,1 0,1 0,2l-1 2c-1,1 -1,2 -1,3 -1,0 -1,0 -1,1l-2 2c0,0 -1,0 -1,1 0,0 0,0 0,0 -1,0 -1,0 -2,0 0,0 0,0 0,1zm30 -2c0,0 -1,0 -2,0 0,0 0,0 -1,0 0,0 0,0 0,0 0,0 -1,0 0,0 1,-2 1,-2 2,-2l4 0c0,0 0,0 0,1 0,0 0,0 0,0 1,0 1,0 1,0 0,0 0,0 0,0 0,0 0,0 0,-1 0,1 0,1 0,1 -1,0 -1,1 -1,1 0,0 0,0 0,0l-1 0c-1,0 -1,0 -1,0l0 0c0,0 0,0 0,0 -1,0 -1,0 -1,0l0 0zm-39 1c0,1 0,1 0,1 1,0 0,0 1,0 -2,1 -2,0 -4,0 -3,1 -2,0 -3,0 0,0 0,0 0,-1 0,0 0,0 1,0 1,0 4,0 5,0zm62 -2c0,0 0,0 0,0 0,0 0,0 0,0 -1,0 0,0 0,0 -1,0 -1,0 -1,0 0,0 0,0 0,0 0,0 0,0 -1,0 0,0 0,0 -1,0 0,0 0,0 -1,0 0,0 0,0 0,0 0,-1 1,-2 1,-2 0,-1 1,-1 2,-1 0,1 1,1 1,3zm13 -19c0,0 0,0 1,1 0,0 1,1 1,1 1,1 1,1 1,1l1 1c0,1 0,1 1,3 0,1 0,2 0,3 0,0 0,0 0,0 0,0 0,0 0,0 0,0 0,0 0,0 0,0 0,0 0,1 0,0 0,1 0,1l-1 3c0,0 -1,3 -1,3l-1 2c-2,1 -1,0 -3,1 -1,1 -6,2 -8,2 0,0 0,-1 -1,-1 -1,-1 0,-1 -1,-2 0,0 0,0 0,0 0,0 0,0 0,0 0,-1 0,0 -1,-1 0,0 0,1 0,0 0,-1 0,0 -1,-1 0,-2 -1,-2 0,-5 0,-2 -1,-1 -1,-2 1,-1 1,-2 1,-3 0,0 0,0 0,0l1 0c0,0 0,0 0,0 0,1 0,2 -1,3 0,0 0,0 0,1 0,0 0,0 0,-1l1 0c0,-1 0,-3 0,-3l0 0c0,0 0,-1 0,-1 0,0 0,0 1,-1l1 -2c2,-2 1,-1 2,-2 2,-1 1,-1 3,-2 1,0 1,0 2,0 1,-1 1,0 2,0 0,0 0,0 0,1 1,0 1,0 1,0 0,0 0,-1 0,-1zm-38 16c0,0 0,1 -1,2l0 1c-1,0 -1,0 -1,0l-1 1c0,0 0,0 0,0 0,1 0,1 0,1 -1,0 0,0 -1,0 0,0 0,0 0,0 0,0 0,0 0,0l-1 1c0,0 0,0 0,0 -1,1 0,0 -1,1 -1,0 -1,0 -2,-1 0,0 0,0 0,0 0,0 -2,-1 -2,-1 -1,0 0,0 -1,0 0,-1 0,-1 0,-1l-2 -1c0,0 0,0 0,0l0 0c-1,-1 -1,-2 -1,-3 -1,0 0,0 -1,0 0,0 0,0 0,-1 -1,-1 -2,-2 -2,-3 0,-1 0,-3 1,-3 0,-1 0,-3 1,-4 1,-1 1,-2 2,-3 0,-1 1,-1 1,-2 1,0 2,-1 2,-1l1 -1c0,0 0,0 0,0 1,0 3,0 4,0l0 1c1,0 2,-1 2,0 0,0 0,0 0,0 1,0 1,0 1,0l1 1c0,1 0,1 1,1l0 1c0,0 0,0 0,0 0,0 0,0 1,1 0,0 0,1 0,1 0,1 0,1 0,2 0,0 0,0 0,1 1,2 0,6 0,7 0,1 0,1 -1,2zm-13 5c0,0 1,1 1,1 0,0 -1,1 -1,1 0,0 0,0 -1,-1 0,0 0,0 0,1 0,0 0,0 0,0 -1,0 -1,0 -2,0 -3,0 -6,-1 -8,-2l7 0c1,0 0,0 2,0l2 0zm33 -1c2,-1 4,0 5,0 1,0 1,1 1,2 0,0 0,-1 -1,-1 0,0 0,0 -1,0l0 0c-1,0 -1,0 -1,0 -1,0 -2,1 -2,0l-2 1c0,-1 0,0 0,-1 1,-1 0,0 1,-1 0,0 0,0 0,0zm-10 2c0,1 -1,0 1,1 -1,0 -2,0 -2,0 -1,0 0,0 -1,0 0,0 0,0 0,0 0,0 0,0 0,0l-1 0 0 0c-1,0 -1,0 -1,0 0,0 0,0 -1,0 0,0 -2,-1 -2,-1l-4 -1c0,0 0,0 0,0l2 0c1,0 2,0 3,-1 0,1 0,0 0,1 0,0 0,0 0,0 0,0 0,0 1,0 0,0 0,0 0,0l0 0c2,0 1,0 2,0 0,0 0,0 0,-1 0,1 0,1 0,1 1,0 1,0 1,1 1,0 1,0 2,0zm7 -1c0,0 0,1 -1,1 0,1 -1,1 -1,1l0 0c-1,0 -1,0 -2,0 -1,0 -1,0 -1,0l0 -1c-1,-1 0,1 -2,0 -1,-1 0,-1 -1,-1 0,-1 0,0 -1,-1l0 0c0,0 0,0 0,0l-1 -1c0,-1 -1,-1 -1,-2 0,0 0,0 0,0l0 -1c1,0 0,0 1,1 0,0 1,0 1,1 0,0 0,0 0,0 0,-1 0,-1 -1,-1l0 -1c0,0 0,0 0,0 0,0 0,0 0,0 -1,0 0,0 -1,-1 0,0 -1,0 -1,-1 0,-1 0,-3 0,-4l0 -1c1,0 0,0 0,0 0,-1 1,-2 1,-2 0,-1 1,-1 1,-2 -1,1 0,0 -1,1 0,-1 1,-2 1,-2 0,0 0,0 0,0l1 -1c0,0 0,0 0,0l0 0c0,0 0,0 0,0 1,-1 1,-1 1,-1 0,0 0,0 1,0l0 0 1 -1c0,0 0,0 1,-1l1 -1c1,0 1,0 1,0 0,0 0,0 0,0 0,0 0,0 1,0 0,0 0,0 0,0 0,0 -1,0 -1,0 1,0 1,0 1,0l0 -1c0,1 0,1 1,0 0,1 0,1 1,1 0,0 0,0 0,0l1 0c0,1 0,0 0,1 1,0 1,0 1,1 1,0 1,0 1,0 0,1 0,0 0,1 0,0 0,-1 1,-1 0,1 0,1 0,1 0,0 0,0 0,0l1 1c0,1 0,1 0,1 0,0 0,0 0,0l0 0c0,1 0,3 0,4 0,1 0,3 0,4 0,0 0,1 0,1 -1,1 0,0 0,1 0,0 -1,2 -1,2 0,0 0,1 0,1l-1 1c0,0 0,0 0,0 0,0 0,1 0,1 -1,0 -1,0 -1,0 0,0 0,0 0,0l1 1c-1,0 -1,1 -2,1 0,0 0,0 0,0 -1,0 -1,0 -1,0 -1,0 0,0 0,0zm4 2c2,1 1,0 2,1 -1,0 -3,0 -3,0 -1,-1 -1,-1 -1,-1 0,-1 0,0 -1,-1l2 0c2,0 2,0 5,0 3,0 2,0 3,1l-1 1c0,0 0,0 0,0 0,0 0,0 0,0 0,0 0,-1 0,-1 -1,0 0,1 0,0 0,0 0,0 0,0l0 1 -1 0c-1,-1 -1,0 -2,-1l0 0c0,0 0,0 0,0 0,0 0,0 0,0 0,0 -1,0 -1,0 0,0 0,0 -1,0l-1 0c0,0 0,0 0,0l0 0zm0 -63c1,0 0,-1 0,0 1,-1 2,-1 3,-1 0,0 0,0 1,1l1 0c0,0 0,1 0,1 1,1 0,-1 1,0 0,1 1,3 1,4 -1,0 -1,0 -1,-1 -1,0 0,0 0,0 0,0 0,0 0,0 0,0 0,-1 -1,-1 0,-1 0,-1 -1,-2l0 0c0,0 -1,0 -1,0 0,0 0,0 -1,0 0,0 -2,0 -2,0 1,0 0,0 1,0 0,0 0,0 0,0 0,0 0,0 0,0 1,0 2,1 3,1 0,1 0,1 0,1 -1,0 0,0 -1,0l0 0c0,0 0,1 0,1 0,0 -1,0 -1,1 0,1 -1,2 -1,2l-1 2c0,0 -1,1 -1,1l1 2c0,0 1,1 2,1l1 0c0,-1 0,-1 0,-1 1,0 1,-1 2,-1 0,-1 0,-1 0,-1 1,-1 1,-1 2,-3 0,-1 0,-2 0,-3 0,-1 0,0 1,0 0,-1 0,-1 1,-1 1,0 2,1 2,2 0,0 0,0 0,0 0,0 0,0 0,0 0,0 0,0 0,0 -1,0 -1,0 -1,0 0,0 0,0 0,1 -1,0 -1,1 -2,2l-1 2c-1,1 -1,2 -1,2 0,1 -1,1 -1,2 1,1 3,0 4,0 0,0 1,-1 1,-1 0,0 0,0 0,0l0 -1c1,0 2,-1 2,-2 0,0 0,1 -1,1 0,1 0,1 0,1 0,-1 0,0 0,-1l1 -3c1,0 1,1 1,0 0,0 0,0 0,0 0,0 0,0 0,0l0 -1c0,0 1,0 1,1l0 1c1,0 0,0 1,0l1 2c-1,0 -1,0 -2,1l-2 1c0,0 0,0 0,1l-2 2c-1,0 -1,1 -1,1 0,1 -1,1 0,2 0,0 0,0 0,0 1,0 1,0 1,0 1,0 2,0 3,0 1,-1 2,-1 3,-2 1,-1 1,-2 2,-3 0,0 0,0 0,0 0,0 0,0 0,-1 1,0 1,0 2,1 1,0 1,0 1,0 2,2 1,3 1,5 0,1 -1,3 -1,4 -1,1 -1,2 -2,2 0,1 0,1 -1,2 0,0 0,0 0,0l-1 0c0,1 -1,1 -1,2 -1,0 -1,0 -1,0 -2,2 -1,1 -3,1 0,1 0,1 -1,1 0,0 0,0 -1,0 0,0 0,0 0,0 0,0 1,0 1,-1 0,0 -1,0 -1,0 0,-1 0,-1 0,-1 0,-1 -1,-1 -1,-1 0,0 0,0 0,-1 0,0 0,0 -1,0 1,0 1,0 1,0l-1 0c0,-1 0,0 0,-1 0,-1 0,-1 0,-1 -1,0 -1,1 -2,0 0,0 1,0 0,0 -1,0 -2,0 -2,0 -1,0 -1,1 -2,1 -1,0 0,0 -1,0 0,1 -1,1 -2,3 0,1 -1,5 0,6 1,1 1,1 2,2 1,0 1,-1 1,0 1,0 2,0 3,0 1,0 1,1 2,0 1,0 1,0 1,0 1,-1 1,-1 2,-2 1,-1 0,-1 1,-2l1 0c0,0 0,0 0,0l2 0c0,1 0,2 1,3 0,1 0,1 1,1 0,1 -1,1 0,2 -1,0 -2,0 -2,-1 0,0 0,0 0,0 0,0 0,0 0,0l0 0c-1,0 -1,0 -2,0l-2 0c-2,0 -3,0 -5,0l-2 1c-1,0 -1,0 -1,0 0,0 0,0 -1,0l-2 1 -1 -1c-1,0 -2,-1 -3,-1 0,-1 0,-1 -1,-1 -1,0 -2,0 -3,0 0,0 0,0 -1,0 -1,0 -1,0 -3,0l0 0c0,0 -1,0 -1,0l-1 1c0,0 0,0 0,0 0,0 0,0 0,0 0,0 0,0 0,0l-1 0c0,0 0,0 0,0l0 0c-1,0 -1,0 -1,0 0,0 0,0 0,0 -2,1 -2,1 -3,1 -1,1 -1,1 -1,2 2,-1 0,-1 1,-1l0 1c1,0 1,0 1,-1 0,0 1,0 1,0 1,0 2,0 3,0l3 0c0,0 0,0 0,0l-1 1c0,0 0,0 0,0l0 1c-1,0 0,0 -1,0l0 1c-1,0 -1,0 -1,0 -1,0 -3,-1 -4,0 0,-1 0,-2 -1,-2 0,0 0,0 0,1 0,0 0,0 1,0 0,0 0,0 0,0 0,1 0,0 0,1 0,1 0,2 0,2 0,1 0,0 0,1 0,0 0,0 0,1 0,-1 0,0 0,-1 0,-1 0,-1 -1,-3 0,-1 0,-2 -1,-2 0,0 0,0 0,0 0,-1 -1,-1 -1,-1l-1 -2c0,0 0,0 0,0l-1 0c1,0 1,0 1,0l-1 -1c-1,0 -1,0 -1,0 -1,-1 -2,0 -3,-1l-1 0c-2,0 -3,0 -5,-1 -1,0 -2,1 -3,1 -2,0 -3,1 -4,1 -1,1 -1,1 -1,1 0,0 0,0 0,0 -1,0 -1,0 -1,0 0,0 -1,-2 -2,-2l0 0 -1 0c1,0 1,0 1,1 1,0 1,-1 1,0 0,0 0,0 0,0 1,1 1,1 1,2 0,0 0,0 0,0 0,0 -1,-1 -1,-1 0,0 1,0 -1,0 0,-1 -1,-1 -2,-1 1,0 1,0 2,0 0,-1 0,0 0,0l-1 -1c0,0 0,0 1,0 0,0 0,0 0,0 -1,-1 -1,-1 -1,0 -1,0 0,0 0,0 -1,0 -2,1 -2,0 -1,0 -1,1 -1,0 0,0 1,0 1,0l0 0c0,0 1,0 0,0 -1,-1 0,-1 -2,-1 0,0 0,0 0,0 0,0 0,1 0,1 -1,0 0,-1 -2,-1l-1 0c0,0 0,0 0,0 -1,-1 -5,0 -6,0l-4 0c-1,0 -2,1 -2,1 -1,1 -2,1 -2,2 -1,1 0,1 -1,2 0,0 0,0 0,0 0,1 -1,1 -1,1 0,0 0,0 0,0l0 1 -1 0c0,0 0,0 0,0 0,1 0,0 0,1 0,1 0,0 -1,1 1,0 0,0 1,0 0,1 -1,0 -1,0 0,2 -1,1 -2,2 -1,0 -2,0 -3,-1l-13 0c-1,0 -2,0 -2,-1 0,1 0,1 -1,1l-3 0c-1,0 -1,0 -1,0 0,0 0,0 0,0 -2,-1 0,0 -2,0l-2 0c0,-1 0,0 1,-1 0,0 0,0 0,-1 0,0 0,0 0,0 0,-1 -1,-1 -1,-1l0 1c-1,0 -1,-1 -1,0l0 0c0,0 0,0 0,0 0,0 0,0 0,0 0,0 0,0 0,0 0,0 0,1 0,1 -1,0 -1,-1 -1,-1 0,0 0,1 0,0 -1,0 0,0 -1,-1 0,0 0,0 -1,0l0 0c0,-1 0,0 0,-1 -1,0 -1,0 -1,-1 1,0 6,0 6,0 1,1 1,0 3,1 0,0 1,0 1,0 1,0 2,0 2,0 1,0 1,0 3,0 0,0 0,0 1,0 1,0 4,0 5,0 1,0 5,-1 6,0 1,0 0,-1 0,-1 1,1 2,1 3,1 0,0 0,0 0,0 1,0 2,-1 3,-1 0,0 -1,0 0,0 0,-1 0,0 0,-1 0,0 0,0 0,0l0 0c-1,-1 -1,-1 -1,-1 0,0 0,1 0,1 0,0 -1,0 -1,0l-3 0c-1,0 -1,0 -1,0 -1,0 -1,0 -2,0 0,0 -2,0 -3,0 0,0 0,0 -1,0 -1,0 -1,0 -1,-1l0 1c-1,0 -1,0 -1,0 -1,0 -2,0 -2,0 0,-1 0,-1 0,-1 0,0 0,0 0,0l-1 1c0,0 0,0 0,0l0 0c0,-1 0,0 0,-1 0,1 0,1 -1,1 -1,0 -3,-1 -4,0 0,-1 0,-1 -1,-1 0,0 -1,0 -1,0 0,0 0,0 0,0l-1 0c0,0 -1,0 -1,0 -1,0 0,1 -1,0 -1,0 0,0 -1,0 0,0 0,0 0,0 0,0 0,0 0,0 0,0 0,0 0,0 -1,0 0,0 -1,0 0,0 0,0 -1,0 0,0 0,1 -1,0 0,0 0,0 1,0 0,-1 0,0 0,-1 0,0 0,0 0,0 -1,0 -1,0 -1,0 0,0 0,0 0,1 0,0 0,0 0,0l0 0c0,0 0,0 -1,0 0,1 0,1 0,1 0,0 0,0 0,0 0,0 0,0 0,-1 0,0 0,1 0,0 -1,0 0,0 -1,0 -1,0 -1,0 -1,0l0 1c0,0 0,-1 0,-1 0,0 0,-1 0,-1l0 -1c0,0 0,0 0,-1 0,0 0,0 0,0l0 0c0,0 0,0 0,-1 0,0 0,0 0,0 1,0 0,0 0,0 0,-1 0,0 0,0l1 -1c0,1 0,1 0,1 1,0 1,0 1,0 0,-1 0,0 0,-1 0,0 0,1 0,0l0 0c0,0 0,0 0,0l0 0c-1,0 0,0 -1,0 -1,0 -1,0 -1,0 0,-1 0,0 0,-1 0,-1 0,0 0,-1 0,-1 0,-1 0,-2l0 0c0,0 0,0 0,0 0,0 0,0 0,0l0 -2c0,0 0,0 0,-1l1 -7c0,0 0,0 0,0l0 0c0,-1 0,-1 0,-2l1 0c0,0 0,0 -1,0 0,0 0,0 -1,0 0,-1 1,-1 1,-1 2,-1 3,-1 5,-2l0 -1c1,0 2,-1 3,-2 0,0 0,0 0,0 1,-1 1,-1 1,-2l0 1c0,0 -1,0 -1,0l-5 3c0,0 -1,1 -2,1 0,0 0,0 0,0 -1,0 0,1 -1,1l-2 0c0,1 0,1 0,1 1,0 0,0 0,0 0,0 0,0 0,0 0,0 0,0 1,0 0,0 -1,0 0,0 0,1 -1,1 -1,2 0,0 0,0 0,0l1 -1c0,0 0,0 0,0l0 0c0,1 0,3 -1,4 0,1 0,0 0,1 0,0 0,0 0,0 0,0 0,0 0,0l0 0c0,0 0,0 0,1 0,0 0,1 0,2l-1 7c0,0 0,1 0,1l-1 0c-1,0 -1,0 -1,0 -1,0 -1,0 -1,0 -1,0 -1,0 -1,0l-1 1c-1,0 -2,1 -3,1 0,0 0,0 0,0l-1 2c-1,0 -1,0 -1,0 -1,0 -1,1 -1,1 -1,1 -1,1 -1,2 0,1 0,1 0,2 -1,0 -1,0 -1,1 0,0 0,0 0,1 0,2 -1,4 0,6l1 4c0,1 0,1 1,2 -1,0 1,2 2,2 3,2 3,1 9,4 0,0 1,0 1,0l0 0c0,0 0,0 1,0 0,0 0,0 0,0 2,0 2,0 3,0 1,0 3,0 4,0 1,-1 2,-1 3,-1l1 -1c0,0 0,-1 1,-1 0,-1 0,-1 1,-1 0,0 0,0 0,0 0,-1 0,-1 0,-1 1,-1 0,0 1,-1 0,0 0,0 0,-1 1,0 1,0 1,0l0 1c0,0 0,0 1,-1l0 0c0,1 0,0 1,1l0 -1c0,0 0,0 1,0l1 0c0,0 1,0 1,0 1,0 3,0 4,0l2 0c1,0 1,0 2,0 1,0 2,0 3,0 1,0 2,0 2,0 1,0 1,0 1,0 1,1 1,0 2,1l0 1c1,2 1,3 2,3 0,0 0,1 0,1l3 1c0,0 0,0 0,0 0,1 0,1 0,1l1 0c1,0 1,0 1,0 2,0 3,1 5,1 0,0 0,0 0,0 0,0 0,0 0,0 1,1 2,1 2,0 0,0 -1,0 -1,0 -1,0 -1,0 -1,0 1,0 1,0 2,0 1,0 1,0 2,0l2 0c0,0 0,0 1,0 0,0 0,0 0,0 0,0 0,0 0,0l0 0c0,0 0,-1 0,-1 2,0 3,0 4,0 1,0 1,-1 1,-1 0,0 0,0 0,0 0,1 1,1 2,1 0,1 1,1 2,1 1,0 1,0 2,1 2,0 6,0 8,-1l3 0c1,0 4,-1 4,-1 0,0 1,-1 1,0 0,-1 0,-1 0,-1 1,0 2,0 3,0l0 0c0,1 0,1 0,1 -1,1 0,0 -1,0 1,1 1,0 1,0 1,1 0,1 1,1 1,0 1,0 2,0 0,0 0,0 0,0 1,0 1,0 1,0 0,0 0,0 0,0 0,0 1,0 1,0l2 0c0,0 0,0 0,0l0 0c1,0 3,0 5,0 0,0 0,0 0,0 0,0 -1,0 0,0l2 0c1,0 0,0 1,0l0 0c0,0 1,0 1,0 0,0 0,-1 0,-1 0,0 0,0 0,0 1,0 1,0 2,0 0,0 1,1 1,1 1,1 3,1 4,1 1,0 2,0 3,0 0,0 0,0 0,0 0,0 0,0 0,0 0,0 1,0 2,0 2,0 1,0 2,0 0,0 1,0 1,0 0,0 1,0 1,0 0,0 0,0 1,0l0 0 0 0c0,0 0,0 0,0l2 0c0,0 1,0 1,-1 0,0 0,0 0,-1l1 0c0,0 1,-1 2,-1l1 0c0,-1 0,-1 0,-1l2 -1c0,0 0,-1 1,-1 0,-1 0,-1 0,-2 1,-1 1,-2 2,-3 -1,0 0,0 -1,1l-1 1c0,0 0,0 0,0 1,-2 1,-5 1,-7 0,0 0,1 0,1l0 -3c0,0 0,0 -1,0l0 0c0,0 0,0 0,0 0,0 0,-1 0,-1l0 -1c-1,-1 -1,-1 -1,-3l-1 0c0,0 0,0 0,0l-2 -2c-1,-1 -1,0 -1,-1 0,0 0,0 0,-1l0 0c0,0 0,0 0,0 0,0 0,0 0,0 0,-1 0,-1 -1,-1 0,-1 1,-1 0,-1l0 -1c-1,0 -1,-1 -1,-2 1,0 1,0 1,0 0,0 -1,0 -1,0 0,-1 0,-1 0,-1 0,0 0,0 0,0 1,-1 1,-1 1,-1 1,-1 2,-1 2,-2 1,-1 1,-1 2,-1 0,0 0,-1 1,-1 0,0 0,0 0,0 0,-1 0,-1 0,-1 1,0 1,-1 1,-1l1 -1c0,0 0,0 0,0 0,-1 1,-2 1,-3l1 -3c0,-1 -1,-3 -1,-4l0 0c-1,-1 0,-1 -2,-2 -1,0 -1,-1 -2,-1 0,0 -1,0 -2,0l0 0c1,-1 -1,-3 -1,-3 0,-1 0,0 -1,-1 0,0 0,0 0,0 0,0 0,0 0,0 -1,-1 -2,-2 -3,-2 0,-1 0,-1 0,-2l-1 -1c-1,-1 0,-1 -2,-1 -1,0 -2,0 -3,0 0,0 -1,0 -1,-1l0 0c-1,-1 -1,-1 -2,-2 -1,0 -2,0 -3,1 0,0 0,0 0,0l0 0c0,0 0,0 0,0 -1,0 -1,0 -1,1z"/>
    <path class="fil1" d="M181 7l1 0c0,1 0,2 0,2 -1,0 -1,0 -2,-1 0,0 0,0 1,-1zm30 4c-1,-1 -1,-2 -4,-3 0,0 0,0 -1,-1l-1 0c-1,0 -1,0 -1,0 -1,0 -1,0 -1,-1 0,0 0,0 0,0 1,-1 3,-2 4,-2 1,0 1,-1 5,1 1,1 1,1 1,2 1,0 0,0 1,1 0,0 -1,0 0,0 0,0 0,0 0,0 1,1 0,1 -1,2l-1 1c-1,0 -1,0 -1,0l0 0zm24 13c0,0 0,0 0,0 0,-1 0,-1 0,-3 0,0 0,0 0,-1l0 -3c0,0 0,-1 1,0 1,0 0,0 1,1 0,1 0,1 -1,2 0,2 0,1 0,2 -1,2 0,2 -1,2zm3 -7c0,0 0,1 0,1l0 0c0,0 1,0 1,0 -1,-1 -1,-1 -1,-1 0,0 0,1 0,0 1,-1 0,0 1,0 0,0 1,0 1,0l0 1c0,0 0,0 0,0 0,0 0,0 0,0 0,1 0,2 0,3 0,0 -1,3 -1,4 -1,0 -2,1 -2,1 0,0 0,0 0,0l0 0c-1,0 -1,0 -1,0 0,0 -1,0 -1,0 1,-1 3,-8 3,-9zm3 2c2,0 1,0 2,0 2,1 1,2 1,3 -1,2 -2,3 -3,4 -1,0 -1,0 -2,1 0,-1 0,-1 0,-1l1 -1c0,0 1,-1 1,-2 0,0 0,0 0,0 0,0 0,0 0,0 0,-1 0,0 0,-1 0,-1 0,-2 0,-3zm-14 8c0,0 -1,2 -2,3 0,0 0,0 0,1 -1,0 -2,1 -2,1 -1,1 -1,1 -2,1l0 1c-3,0 -1,1 -3,1 -1,-1 -2,0 -3,-1 -1,0 -1,0 -1,0l-3 -2c-1,0 -1,-1 -2,-2 0,-1 0,1 0,0 0,0 0,0 0,0 0,-1 0,0 0,-1 -1,-1 -1,0 -1,-1 0,0 0,0 0,0 0,0 0,0 0,0l0 -1c-1,0 0,0 0,0 -1,0 0,1 -1,0 -1,-2 0,-6 1,-8 0,-2 0,-2 1,-4 1,-1 2,-1 2,-2 1,-1 0,-1 1,-1 0,1 0,0 0,0 0,0 0,0 0,0 0,0 0,0 0,0l1 0c0,0 0,-1 0,-1 1,0 1,0 1,-1l1 0c0,0 0,0 0,0 0,0 0,0 1,-1 0,0 1,0 2,0 0,0 1,0 1,0 1,-1 1,-1 2,-1 0,1 0,0 0,1l0 0c0,0 0,0 0,0 0,0 1,0 1,0 0,0 0,0 0,0 0,0 0,0 0,0l3 1c1,1 1,3 2,4 1,0 0,0 0,1 1,1 0,1 1,1 0,1 0,7 -1,8l-1 3c0,1 0,0 0,1 0,-1 1,-1 1,-1zm18 -5c1,0 1,0 1,0l2 1c0,0 0,1 -1,1 1,0 1,0 1,1 -1,2 -7,4 -8,2 0,0 0,0 0,0l1 0c1,-1 3,-3 3,-4 1,0 1,-1 1,-1zm-7 8c1,1 1,0 1,1 0,0 0,0 0,0 -1,0 -2,-1 -3,0 0,0 0,0 -1,0 -1,0 -2,0 -2,0 0,0 0,-1 1,-2l1 -2 0 0c2,1 2,1 2,0 1,2 1,3 1,3zm-40 3c-1,0 -1,1 -2,0 0,0 0,0 -1,-1 -1,0 -2,-2 -3,-4 0,0 0,0 0,0l0 -1c-1,0 -1,-1 -1,-1 0,-1 0,-3 0,-4 0,-1 0,-1 0,-1 0,0 0,-1 0,-2 0,-1 0,-1 0,-1 1,-1 0,-2 1,-3 1,-1 1,-1 2,-2 0,0 1,-2 2,-2l0 -1c0,0 0,0 0,0 1,0 1,0 1,0 0,0 2,-1 2,-2l1 0c0,0 0,0 0,0 0,0 0,0 0,0 2,-1 3,-1 5,0 1,0 1,0 2,1l0 1c0,0 0,0 0,0l0 0c0,0 0,0 0,0l2 2 0 0c0,0 0,0 0,0 0,0 1,0 1,0 -1,1 -1,0 -2,2 0,0 0,0 0,0 0,1 0,1 -1,1 -1,3 -1,3 -1,3 0,1 0,0 0,1 0,1 0,2 -1,3 0,1 1,6 2,7 1,1 1,1 1,1 0,1 -1,1 -1,2l-1 1c0,0 0,0 0,0 -1,0 -1,0 -1,1 -1,0 -1,0 -1,0 -1,1 -4,1 -5,1 -2,-1 -1,-1 -2,-1 0,0 0,0 0,0l1 -1zm68 -5c1,0 1,0 1,0 0,1 1,1 1,2 -1,0 -1,0 -1,-1 -1,0 0,0 -1,-1 0,0 0,0 0,0zm-83 7c1,-1 1,1 1,2 0,0 -1,0 -1,0 -1,-1 -1,-2 0,-2zm29 -1c-1,0 -1,0 -1,1 -1,0 0,0 -1,0 -1,1 -1,1 -2,1 -1,0 0,1 -1,1 -1,0 0,0 -1,0 0,0 -3,0 -3,0 -1,0 -2,0 -2,0 0,-1 -1,-1 -1,-1 1,-1 2,-1 3,-1 1,0 0,0 1,0 0,0 -1,0 0,0 0,0 0,0 0,0 1,-1 1,0 1,-1 2,-1 2,-2 4,-3 0,0 1,1 1,1 1,1 1,1 2,2zm18 -12c0,-1 -1,-4 -1,-5 0,0 0,-1 0,-1 -1,-1 -1,-2 -1,-3 -1,-1 -1,-1 -1,-2 -1,0 -1,0 -1,0l0 -1c-1,0 -3,-1 -3,-2 -1,0 -3,0 -4,-1 -1,0 -1,1 -1,1 0,-1 1,-2 2,-3l0 0c2,-1 5,-1 7,0 0,0 0,0 1,1l0 -1c0,1 1,1 1,1l1 1c0,0 0,0 0,0 1,0 1,1 2,2 0,1 0,0 0,1 0,0 0,0 0,1 1,1 1,1 1,2 0,3 0,4 0,7 0,1 0,5 -1,6 -1,2 -1,3 -2,5 0,1 -1,2 -1,2 -1,0 0,0 -1,1 -1,0 0,0 -1,1 0,0 0,0 0,0 -1,1 -1,1 -1,1l-3 2c0,0 0,0 0,0 0,0 -1,-1 0,0 -1,0 -1,0 -1,0l-1 0c0,0 0,0 0,0 0,0 -1,0 -1,0 -1,0 -2,0 -3,0l0 -1c-1,0 -1,0 -1,-1 0,0 0,0 0,0 0,0 0,0 0,0 2,-1 1,0 2,-1l0 1c1,0 1,0 1,0 0,-1 0,-1 0,-1 1,0 1,0 1,0l0 0c0,0 0,0 0,0 1,0 2,0 3,0 0,-1 0,-1 1,-2l1 -1c1,-1 1,-1 1,-1 0,0 1,-1 1,-1 0,0 0,-1 0,-1l2 -4c0,-1 1,-1 1,-3zm-16 14c0,1 1,0 1,1l-3 0c-1,0 -1,0 -2,0 0,0 1,0 2,-1 0,0 0,-1 1,-1 0,-1 0,0 1,0l1 0c0,1 0,0 0,0 0,1 0,1 -1,1zm61 -5c0,0 0,2 0,3 0,0 -1,1 -1,1 0,0 0,0 0,0 -1,0 -1,0 -1,1 0,-2 0,-2 1,-3 0,0 0,-1 0,-1 0,-1 0,-1 1,-1zm-43 7l-2 0c0,0 0,0 0,0 0,0 -3,0 -4,0 1,0 0,0 1,0 0,0 0,0 0,0 1,-1 0,0 1,0l1 -2c0,0 0,0 0,0 1,0 0,0 0,0 1,-1 1,-1 1,-1 1,0 1,-1 1,-2 1,1 -1,0 0,1 0,0 0,0 0,0 0,0 0,-1 1,-1l0 5zm36 -3c0,1 0,2 -1,2 -1,0 -2,-1 -2,-1 0,0 0,-1 0,-2l0 -2 1 -1c0,0 0,0 0,0 0,0 0,0 0,0 0,0 0,0 0,0 0,1 0,1 0,1 -1,1 0,4 0,4 1,-1 1,-1 1,-2 1,-3 -1,-4 -1,-4 0,0 0,0 -1,0 0,0 0,0 -1,0 -1,3 -1,4 -3,5 0,1 0,0 -1,0 -1,0 -1,0 -1,0 0,-1 0,0 1,-1 0,0 1,-1 2,-1 0,-1 0,-1 0,-2 1,1 0,0 1,1l0 0c0,-1 -1,-1 0,-3 1,-1 2,-2 3,-1 1,1 1,3 2,4 0,0 0,0 0,0 0,1 0,2 0,3zm0 -7c2,-1 4,-2 6,-1l1 0 1 2c1,1 1,0 1,2l0 0c0,0 0,2 0,2 0,2 0,3 -1,4 -2,2 -4,2 -5,0 0,-1 0,-4 1,-4 0,-1 0,-2 1,-2 0,-1 0,-1 1,-2 0,1 0,1 0,1 1,0 0,1 0,1 0,0 0,1 -1,1l0 1c-1,2 -2,3 1,3 0,0 0,0 0,0l1 -2c1,-1 1,-1 1,-2 0,-1 0,-2 0,-2 -1,0 -1,0 -1,0 0,0 0,-1 -2,-2 0,0 -2,0 -3,0l-1 1c0,0 0,0 0,0l-1 -1zm-57 13c0,1 0,0 0,1 0,0 0,0 0,0 0,0 -1,0 -1,0l-2 2c-1,0 -1,0 -2,0 -1,0 -1,0 -2,0 -3,1 -4,0 -6,0 0,0 -1,0 -1,0 -1,0 0,0 -1,0l-4 0c0,0 0,0 0,0 -1,0 0,0 -1,1 -1,0 -1,-1 -2,0 0,-1 0,-1 -1,-1 0,0 -4,0 -5,0 0,0 -1,0 -2,0 -1,0 0,0 -1,0 0,0 0,0 0,0 -2,0 -6,1 -7,0 0,0 2,-1 3,-1 1,-1 3,-2 4,-3 0,-1 0,-1 1,-1l1 -1c0,0 0,0 0,0 5,0 6,0 11,0 1,0 2,0 3,0l8 0c1,0 2,0 4,0 2,0 5,0 7,0l-4 3zm-3 28c-1,0 -1,-1 -2,-2l0 -1c0,0 0,0 0,0l0 -2c1,0 1,0 1,0l0 0c0,0 0,0 0,0 0,0 0,-1 0,-1 0,-1 0,-3 0,-4 0,-2 0,-3 0,-5 -1,-1 0,-3 0,-5 0,0 0,-1 0,-2 0,0 0,0 0,-1l1 -1c0,0 1,0 1,1l0 -1c0,0 0,0 -1,0 0,0 0,0 0,0l2 -2c1,0 3,-2 4,-2l1 -1c0,0 1,0 1,-1 0,0 0,0 0,0 1,1 0,0 1,0 1,1 5,1 6,0l0 0c1,0 1,0 2,0 0,0 3,0 3,0 1,0 1,0 2,0 0,0 0,0 1,0 1,0 1,0 2,0 1,0 2,0 3,0 0,0 1,0 1,0 1,0 2,1 2,1 1,0 2,0 3,0l3 0c2,1 4,0 6,1 1,0 1,0 2,0 1,0 1,0 1,0 1,0 1,0 1,0 2,0 5,1 7,1 1,0 3,0 4,0 1,0 1,0 2,0l0 0 0 0c1,0 1,1 2,2 -1,0 0,0 -1,0 1,0 1,1 2,1 0,1 1,1 1,2 1,1 1,2 2,2l1 1c0,0 0,0 0,0 0,0 0,0 0,0l0 0c1,0 1,0 2,0 0,1 1,1 1,1l-1 0c0,0 0,0 0,0 0,0 -1,0 -1,0 -1,0 -1,0 -2,0 0,0 0,0 0,0 1,0 2,0 3,0 1,0 1,0 1,0 0,0 0,0 1,1 1,0 0,0 1,0 0,0 1,0 0,0 1,0 1,0 1,0l0 0c1,0 1,0 1,0 1,0 2,0 3,0l3 1c1,0 1,1 1,1 0,0 1,1 1,1 0,1 0,1 0,1 0,1 0,1 1,2 -1,0 -1,-1 -1,-1l1 0c0,-1 0,-1 0,-1 -1,-1 -1,-2 -1,-2 0,-1 0,-1 0,-1 0,-1 -3,-1 -4,-1 0,0 0,0 0,0 -2,-1 -5,-2 -7,-2 0,0 -1,-1 -1,-1 -1,0 -1,1 -1,0 -1,0 -1,0 -2,-1 -1,0 -1,-1 -1,-1 -1,-2 -3,-3 -4,-4 -1,-1 -1,-1 -1,-1 -1,-1 -1,-2 -2,-2 -2,0 -6,0 -7,0 0,0 -1,0 -1,0 -1,0 -2,0 -3,0 -1,0 -2,0 -2,0 -2,0 -3,-1 -4,-1 -1,0 -2,0 -2,0l-7 0c0,0 -1,0 -2,0 0,0 0,0 -1,0 0,0 0,0 -1,0 -1,0 -2,0 -3,-1l0 -4c0,0 0,0 0,0 0,0 0,0 -1,-1 1,0 2,1 3,0l0 0 4 0c2,0 3,0 5,0 2,0 3,0 5,0 1,0 1,0 1,0 1,0 1,0 1,0 0,0 1,-1 1,0 1,0 1,0 1,0 0,0 0,0 0,-1l1 0c0,1 0,3 0,4 0,1 0,0 0,1 0,0 1,2 1,3 0,0 0,-1 0,-1l0 -1c1,-1 1,0 2,0 0,-1 0,-1 0,-1 0,0 0,0 0,0l0 -1c2,0 1,0 3,0 0,0 1,-1 2,-1l1 -3c0,-1 1,-2 1,-2 0,1 0,1 0,1l-1 2c0,1 0,1 0,1 0,0 0,-1 0,-1 1,0 1,0 1,0 0,0 -1,1 -1,1 0,0 0,2 1,2 0,1 2,2 2,2 1,0 2,-3 2,-3 1,-2 0,-4 0,-5l1 -1c1,-1 3,0 3,0 0,0 0,0 0,0 0,1 0,0 0,1 -1,1 -2,2 -2,4 0,0 0,1 0,1 0,1 0,2 0,3 1,0 0,1 3,1 1,0 1,-1 1,-1 1,-1 2,-2 2,-3 1,-5 0,-4 0,-5 0,0 1,0 1,-1 0,0 0,0 0,0 0,0 0,0 0,0 -1,0 0,0 -1,0 0,0 0,0 0,0 0,0 0,0 0,-1 0,0 0,0 0,0 0,-1 1,0 0,0 -1,0 -1,0 -1,0 0,-1 -1,-1 -1,-2 -2,0 -1,0 -3,0 -2,0 -4,2 -4,2 -1,0 -2,-1 -3,-1 -1,0 -2,0 -2,1 -1,1 -1,2 -1,2 0,1 0,1 0,1l-1 2c0,0 -1,0 -1,0 0,0 -1,1 -1,1 0,-1 0,-1 0,-1 -1,0 -3,0 -3,0 0,-2 -1,-1 -2,-1 -1,0 -3,-1 -4,-1 -1,1 -3,1 -5,0 -1,0 -3,0 -4,0 0,0 0,0 0,0 0,0 -1,0 -1,0 0,0 0,0 -1,0l0 -2c1,0 2,1 2,1 1,0 3,-1 3,-1l1 0c0,0 0,0 0,0l1 0c0,0 0,0 0,-1 0,0 1,0 1,1 0,0 0,-1 0,-1 1,0 1,0 1,-1 1,1 1,1 1,1 0,1 0,1 0,1 0,1 1,2 1,2 1,0 0,-1 0,-2 0,0 0,-1 0,-1 0,-1 0,-1 -1,-2 -1,-1 -1,0 0,-2 0,0 0,0 0,-1l-1 0c0,-1 1,-1 -1,-2 0,0 -1,0 -1,-1 0,0 -1,0 -1,-1 0,0 0,0 -1,-1 -1,0 -2,0 -3,0l0 -1c-1,-1 -3,-1 -4,-1 0,-1 0,-1 -1,-1 -1,-1 0,0 -1,0 0,-1 -1,-1 -1,-2l0 -1c0,-1 -1,-3 -2,-4 -1,-1 -2,-2 -2,-3 -2,-1 -5,-2 -7,-1 -1,0 -2,0 -3,1 -1,0 -1,0 -2,0 0,1 0,1 0,1 0,0 -1,1 -1,1 -2,3 -2,1 -3,0 0,-1 -1,-2 -1,-2 -1,-1 -3,-2 -4,-2 -2,0 -4,0 -5,1 -1,0 -2,1 -3,3 -1,0 -2,0 -2,1 0,0 0,0 0,0 0,0 0,0 0,0 -1,0 0,0 -1,0 0,1 -1,1 -2,2l0 0c-1,0 -1,0 -1,0 0,1 -1,1 -1,2 0,0 -1,0 -1,0 -1,2 -2,3 -3,5 0,3 0,7 0,10 1,0 2,3 2,3 1,1 2,2 2,2 1,1 1,1 1,1 0,0 0,0 0,0 0,0 0,1 0,1 1,1 2,1 2,1 1,0 1,1 2,0 0,1 0,1 0,2 0,0 0,-1 1,0l-1 0c0,0 1,0 0,0 -1,0 -4,0 -5,0 -1,0 -1,0 -2,0 -2,0 -5,0 -7,0 0,-1 0,-1 0,-2 0,-2 0,-1 -1,-1 -1,-1 -1,-3 -1,-3l-1 -3c0,-1 0,-4 0,-5 0,0 0,-1 0,-2 1,-1 0,-4 0,-6 0,0 0,-1 0,-2 0,-2 0,-2 0,-4 0,0 1,-1 1,-1 0,-2 -1,-2 -2,-2 -1,0 -1,0 -1,1 -1,0 -1,1 0,1 0,1 0,1 0,1 0,0 0,0 0,0 0,0 0,0 0,0l0 0c1,1 0,4 1,5l0 5c0,2 0,3 0,4 0,1 0,2 0,3 0,1 0,1 1,5 0,1 0,1 0,2 1,1 0,1 -1,1l-1 0c0,1 1,2 1,3 0,1 0,1 -1,2 0,0 0,0 0,0 -1,1 -2,2 -3,2l0 1c-2,1 -3,1 -5,2 0,0 -1,0 -1,1 1,0 1,0 1,0 1,0 1,0 1,0 0,0 1,0 2,1 -1,0 -2,0 -2,0 0,0 0,0 0,0l5 0c2,0 4,0 6,0 1,0 1,0 2,0 3,0 7,0 9,-1 0,1 0,1 1,1 0,0 0,0 1,0l7 -1c1,0 0,0 1,0 0,0 0,1 0,1 1,0 0,0 1,0 0,3 -1,2 -1,2 0,1 1,1 1,2l0 1c-1,2 0,8 -1,10 0,2 1,1 0,4l0 2c0,0 0,0 0,0 0,1 0,0 0,1 -1,0 0,0 0,0 0,1 0,0 0,1 0,0 0,0 0,0 1,0 1,0 1,0l0 1c1,-1 0,0 1,-1l0 1 1 0 0 -1z"/>
    <path class="fil6" d="M183 64c-1,1 -2,1 -3,1l0 -1c0,-1 0,-1 0,-2 0,-1 0,-2 1,-4 0,-1 0,-3 0,-4 0,-1 0,-3 0,-4 -1,-1 0,0 0,-1 0,-1 0,-1 0,-1 1,0 0,0 1,0 0,0 1,0 1,0 1,2 1,2 1,3 1,1 1,1 1,2l-1 4c0,1 -1,1 -1,1 0,0 0,0 0,1 0,1 0,1 0,3 0,1 0,2 0,2zm18 -14c1,1 0,4 0,5l0 1c0,0 0,0 0,0 0,1 0,2 0,2 0,0 0,0 0,1 0,0 0,2 0,3 0,1 0,2 0,2 -1,1 -1,0 -1,0 -1,2 -1,0 -1,1 -2,0 -2,0 -3,-1 0,-2 1,-6 1,-7 0,-1 0,-1 0,-1 1,-2 1,-2 1,-3 0,-1 0,-2 -1,-3 0,0 0,-1 0,-2 0,0 0,0 1,0 1,1 0,0 1,0 1,0 1,0 1,1 1,0 1,0 1,0 0,1 0,1 0,1zm-13 14c-2,1 0,1 -1,1 -1,0 0,0 -1,0 0,0 0,0 0,0 1,0 0,0 1,0 0,-1 0,-1 -1,-1 0,0 0,0 -1,0 0,-1 0,-3 0,-4 1,-1 1,-8 1,-9 0,-1 0,-1 0,-2 0,0 0,0 1,1 0,0 0,0 0,0l0 0c0,0 0,0 0,0 -1,0 0,0 0,2l-1 4c0,0 1,1 0,1 0,1 0,0 0,1 0,1 0,2 0,4 0,1 0,2 1,2 1,0 0,-2 1,-4 0,-5 0,-4 0,-8 0,-3 0,-2 -1,-3 -1,0 0,0 0,0 -1,0 0,0 -1,0 0,0 0,0 0,-1 3,0 3,3 3,4 0,0 0,0 0,0 -1,1 0,2 0,3 0,1 0,1 0,2l0 1c-1,0 0,0 0,1 0,0 0,0 -1,1 0,0 0,4 0,4zm7 -4c0,0 0,0 -1,1 0,0 1,0 1,1 -1,0 -1,-1 -1,1 0,1 0,1 0,2 0,0 -1,0 -1,0l0 0c-1,0 -1,0 -2,-1 0,0 -1,0 -1,-1 0,-1 1,-1 1,-2 0,-1 0,-2 0,-3l0 -5c0,-1 0,-3 0,-5 1,0 2,0 2,1l1 0c0,0 0,0 0,0 0,1 0,1 0,2 1,1 1,3 1,5 0,1 0,2 0,4zm10 7l0 -2c1,-3 0,-2 0,-4 1,-2 0,-8 1,-10l0 -1c0,-1 -1,-1 -1,-2 0,0 1,1 1,-2 -1,0 0,0 -1,0 0,0 0,-1 0,-1 -1,0 0,0 -1,0l-7 1c-1,0 -1,0 -1,0 -1,0 -1,0 -1,-1 -2,1 -6,1 -9,1 -1,0 -1,0 -2,0 -2,0 -4,0 -6,0l-5 0c0,0 0,0 0,0 0,0 1,0 2,0 -1,-1 -2,-1 -2,-1l-1 0c0,1 0,1 0,2l0 0c0,0 0,0 0,0l-1 7c0,1 0,1 0,1l0 2c0,0 0,0 0,0 0,0 0,0 0,0l0 0c0,1 0,1 0,2 0,1 0,0 0,1 0,1 0,0 0,1 0,0 0,0 1,0 1,0 0,0 1,0l0 0c0,0 0,0 0,0l0 0c0,1 0,0 0,0 0,1 0,0 0,1 0,0 0,0 -1,0 0,0 0,0 0,-1l-1 1c0,0 0,-1 0,0 0,0 1,0 0,0 0,0 0,0 0,0 0,1 0,1 0,1l0 0c0,0 0,0 0,0 0,1 0,1 0,1l0 1c0,0 0,1 0,1 0,0 0,1 0,1l0 -1c0,0 0,0 1,0 1,0 0,0 1,0 0,1 0,0 0,0 0,1 0,1 0,1 0,0 0,0 0,0 0,0 0,0 0,-1 1,0 1,0 1,0l0 0c0,0 0,0 0,0 0,-1 0,-1 0,-1 0,-2 0,-4 0,-5 0,-3 0,-4 1,-6 0,-1 0,-2 0,-2 0,-2 1,-2 1,-3 1,0 1,0 1,0 1,0 1,-1 2,0 -1,0 0,0 -1,0l0 0c0,3 0,5 0,7 0,1 0,0 0,2 0,1 0,0 -1,1 0,0 0,0 0,0 0,1 1,-1 0,0 0,0 0,0 0,0 0,1 0,2 0,2 0,1 0,0 0,1 0,1 0,1 0,1 0,1 0,1 0,2 -1,0 -1,0 -2,0 0,1 0,0 0,1 -1,0 -1,0 -1,0 1,1 1,0 1,0 1,0 1,0 1,0 1,0 0,0 1,0 0,0 0,0 0,0 0,0 0,0 0,0 0,0 0,0 0,0 1,0 0,0 1,0 1,1 0,0 1,0 0,0 1,0 1,0l1 0c0,0 0,0 0,0 0,0 1,0 1,0 1,0 1,0 1,1 1,-1 3,0 4,0 1,0 1,0 1,-1 0,1 0,0 0,1l0 0c0,0 0,0 0,0l1 -1c0,0 0,0 0,0 0,0 0,0 0,1 0,0 1,0 2,0 0,0 0,0 1,0l0 -1c0,1 0,1 1,1 1,0 1,0 1,0 1,0 3,0 3,0 1,0 1,0 2,0 0,0 0,0 1,0l3 0c0,0 1,0 1,0 0,0 0,-1 0,-1 0,0 0,0 1,1l0 0z"/>
    <path class="fil7" d="M222 78c0,-1 0,-1 1,-2 0,0 0,-1 1,-2 0,0 -1,0 0,-1 0,0 0,0 0,0 0,0 0,0 1,0 0,0 0,0 0,0 1,0 1,0 2,0 0,0 -1,0 0,0 0,0 1,0 1,0 1,1 0,1 1,2 0,1 0,0 0,2 0,1 0,1 0,2 0,1 0,1 -2,3 -1,0 -2,1 -3,1 -1,-1 0,-1 -1,-1l0 0c0,-1 0,-3 0,-4 0,0 0,0 -1,0zm6 12c0,-1 0,-1 0,-1 1,0 1,0 2,0 0,0 0,0 0,0 0,-1 1,-1 1,-1l2 -2c0,-1 0,-1 1,-1 0,-1 0,-2 1,-3l1 -2c0,-1 0,-1 0,-2 0,0 0,-1 0,-1 0,0 0,0 0,-1l0 0c0,-2 1,-2 0,-4 0,-1 0,-1 -1,-2l-1 -2c0,0 0,-1 0,-1 -1,0 -2,-1 -3,-1 -2,0 -2,-2 -6,0 0,0 -1,0 -1,0 0,0 -1,0 -1,0 -1,1 0,1 -1,1 0,0 0,0 0,1 -1,0 -1,0 -1,1 -1,0 -1,0 -1,1l-1 0c0,1 0,0 -1,3 0,2 0,3 0,4l0 -1c0,1 0,0 0,1 0,1 0,1 -1,1l1 1c0,0 0,0 0,0 0,1 0,4 0,4l3 6c0,0 0,0 0,0 0,1 0,0 0,1l1 0c0,1 0,1 0,1 1,0 0,0 1,0 0,0 1,0 1,0 2,0 2,-1 4,-1z"/>
    <path class="fil7" d="M247 73c0,1 1,0 2,0 1,0 1,0 2,1 1,1 1,2 1,3 0,0 0,1 0,2 0,1 -1,3 -2,4 0,0 -1,0 -2,1 -1,0 -3,-2 -3,-3 0,-1 0,-2 0,-2 0,-1 0,-1 1,-2 0,0 0,-1 0,-2 0,0 1,0 1,-1l0 0c0,-1 0,0 0,-1 0,0 0,0 0,0zm5 16c0,0 0,0 0,0 1,0 0,0 1,0 0,0 0,0 0,-1 0,0 0,0 0,0l1 -1c0,0 0,0 1,0l0 -1c1,-1 1,-2 1,-2 1,-1 1,-1 1,-2 0,-1 1,-5 0,-7 0,-1 0,-1 0,-1 0,-1 0,-1 0,-2 0,0 0,-1 0,-1 -1,-1 -1,-1 -1,-1 0,0 0,0 0,0l0 -1c-1,0 -1,0 -1,-1l-1 -1c0,0 0,0 -1,0 0,0 0,0 0,0 0,-1 -1,0 -2,0l0 -1c-1,0 -3,0 -4,0 0,0 0,0 0,0l-1 1c0,0 -1,1 -2,1 0,1 -1,1 -1,2 -1,1 -1,2 -2,3 -1,1 -1,3 -1,4 -1,0 -1,2 -1,3 0,1 1,2 2,3 0,1 0,1 0,1 1,0 0,0 1,0 0,1 0,2 1,3l0 0c0,0 0,0 0,0l2 1c0,0 0,0 0,1 1,0 0,0 1,0 0,0 2,1 2,1 0,0 0,0 0,0 1,1 1,1 2,1 1,-1 0,0 1,-1 0,0 0,0 0,0l1 -1c0,0 0,0 0,0z"/>
    <path class="fil7" d="M293 81c0,1 0,2 -2,3 0,0 0,0 -1,0 0,1 0,1 0,1l-1 0c-1,-1 0,-1 -1,-1 0,0 0,0 0,0 0,0 0,0 0,0 -1,-1 0,0 -1,-1 0,0 0,0 0,0l0 -2c-1,-2 -1,-2 0,-4l0 0c1,-2 0,-1 1,-1l0 -1 0 0c0,-1 0,-1 1,-1 0,0 1,0 1,0 1,1 1,1 2,1l0 0c0,0 0,0 0,0l0 0c0,0 0,1 0,1l1 2c1,0 1,0 1,1 0,0 0,1 -1,2zm1 -13c0,0 0,1 0,1 0,0 0,0 -1,0 0,-1 0,-1 0,-1 -1,0 -1,-1 -2,0 -1,0 -1,0 -2,0 -2,1 -1,1 -3,2 -1,1 0,0 -2,2l-1 2c-1,1 -1,1 -1,1 0,0 0,1 0,1l0 0c0,0 0,2 0,3l-1 0c0,1 0,1 0,1 0,-1 0,-1 0,-1 1,-1 1,-2 1,-3 0,0 0,0 0,0l-1 0c0,0 0,0 0,0 0,1 0,2 -1,3 0,1 1,0 1,2 -1,3 0,3 0,5 1,1 1,0 1,1 0,1 0,0 0,0 1,1 1,0 1,1 0,0 0,0 0,0 0,0 0,0 0,0 1,1 0,1 1,2 1,0 1,1 1,1 2,0 7,-1 8,-2 2,-1 1,0 3,-1l1 -2c0,0 1,-3 1,-3l1 -3c0,0 0,-1 0,-1 0,-1 0,-1 0,-1 0,0 0,0 0,0 0,0 0,0 0,0 0,0 0,0 0,0 0,-1 0,-2 0,-3 -1,-2 -1,-2 -1,-3l-1 -1c0,0 0,0 -1,-1 0,0 -1,-1 -1,-1 -1,-1 -1,-1 -1,-1z"/>
    <path class="fil7" d="M272 75c1,1 1,1 1,1 0,1 0,2 0,3l-1 3c0,1 0,1 -1,1 0,1 -2,1 -3,1l0 0c-1,0 0,0 -1,-1 0,0 0,0 0,-1 -1,-1 -1,-2 -1,-3 0,-1 0,-1 0,-1 0,0 0,-1 0,-1l0 0c1,-1 0,0 0,-1 2,-3 2,-2 4,-2 0,0 2,1 2,1 0,1 0,1 0,1 0,0 0,1 1,1 0,0 0,-1 0,-1 -1,-1 0,0 -1,-1zm1 14c0,0 -1,0 0,0 0,0 0,0 1,0 0,0 0,0 0,0 1,0 1,-1 2,-1l-1 -1c0,0 0,0 0,0 0,0 0,0 1,0 0,0 0,-1 0,-1 0,0 0,0 0,0l1 -1c0,0 0,-1 0,-1 0,0 1,-2 1,-2 0,-1 -1,0 0,-1 0,0 0,-1 0,-1 0,-1 0,-3 0,-4 0,-1 0,-3 0,-4l0 0c0,0 0,0 0,0 0,0 0,0 0,-1l-1 -1c0,0 0,0 0,0 0,0 0,0 0,-1 -1,0 -1,1 -1,1 0,-1 0,0 0,-1 0,0 0,0 -1,0 0,-1 0,-1 -1,-1 0,-1 0,0 0,-1l-1 0c0,0 0,0 0,0 -1,0 -1,0 -1,-1 -1,1 -1,1 -1,0l0 1c0,0 0,0 -1,0 0,0 1,0 1,0 0,0 0,0 0,0 -1,0 -1,0 -1,0 0,0 0,0 0,0 0,0 0,0 -1,0l-1 1c-1,1 -1,1 -1,1l-1 1 0 0c-1,0 -1,0 -1,0 0,0 0,0 -1,1 0,0 0,0 0,0l0 0c0,0 0,0 0,0l-1 1c0,0 0,0 0,0 0,0 -1,1 -1,2 1,-1 0,0 1,-1 0,1 -1,1 -1,2 0,0 -1,1 -1,2 0,0 1,0 0,0l0 1c0,1 0,3 0,4 0,1 1,1 1,1 1,1 0,1 1,1 0,0 0,0 0,0 0,0 0,0 0,0l0 1c1,0 1,0 1,1 0,0 0,0 0,0 0,-1 -1,-1 -1,-1 -1,-1 0,-1 -1,-1l0 1c0,0 0,0 0,0 0,1 1,1 1,2l1 1c0,0 0,0 0,0l0 0c1,1 1,0 1,1 1,0 0,0 1,1 2,1 1,-1 2,0l0 1c0,0 0,0 1,0 1,0 1,0 2,0l0 0c0,0 1,0 1,-1 1,0 1,-1 1,-1z"/>
    <path class="fil5" d="M215 38c-2,0 -5,0 -7,0 -2,0 -3,0 -4,0l-8 0c-1,0 -2,0 -3,0 -5,0 -6,0 -11,0 0,0 0,0 0,0l-1 1c-1,0 -1,0 -1,1 -1,1 -3,2 -4,3 -1,0 -3,1 -3,1 1,1 5,0 7,0 0,0 0,0 0,0 1,0 0,0 1,0 1,0 2,0 2,0 1,0 5,0 5,0 1,0 1,0 1,1 1,-1 1,0 2,0 1,-1 0,-1 1,-1 0,0 0,0 0,0l4 0c1,0 0,0 1,0 0,0 1,0 1,0 2,0 3,1 6,0 1,0 1,0 2,0 1,0 1,0 2,0l2 -2c0,0 1,0 1,0 0,0 0,0 0,0 0,-1 0,0 0,-1l4 -3z"/>
    <path class="fil4" d="M207 70l0 -1c-1,1 0,0 -1,1l0 -1c0,0 0,0 -1,0 0,0 0,0 0,0 0,-1 0,0 0,-1 -1,0 -2,1 -3,1 0,0 0,0 0,0 -1,0 -2,0 -3,-1 0,0 1,1 0,1 -1,-1 -5,0 -6,0 -1,0 -4,0 -5,0 -1,0 -1,0 -1,0 -2,0 -2,0 -3,0 0,0 -1,0 -2,0 0,0 -1,0 -1,0 -2,-1 -2,0 -3,-1 0,0 -5,0 -6,0 0,1 0,1 1,1 0,1 0,0 0,1l0 0c1,0 1,0 1,0 1,1 0,1 1,1 0,1 0,0 0,0 0,0 0,1 1,1 0,0 0,-1 0,-1 0,0 0,0 0,0 0,0 0,0 0,0 0,0 0,0 0,0l0 0c0,-1 0,0 1,0l0 -1c0,0 1,0 1,1 0,0 0,0 0,0 0,1 0,1 0,1 -1,1 -1,0 -1,1l2 0c2,0 0,-1 2,0 0,0 0,0 0,0 0,0 0,0 1,0l3 0c1,0 1,0 1,-1 0,1 1,1 2,1l13 0c1,1 2,1 3,1 1,-1 2,0 2,-2 0,0 1,1 1,0 -1,0 0,0 -1,0 1,-1 1,0 1,-1 0,-1 0,0 0,-1 0,0 0,0 0,0z"/>
    <path class="fil8" d="M185 83c1,0 -1,0 2,0 -1,-1 -4,0 -4,0l1 0c0,0 -1,-1 0,0 0,1 -3,0 -3,0l-1 0c0,0 0,0 0,0 -1,1 -1,0 -2,0 0,0 -1,0 -1,0 0,-1 0,-1 -1,-1 1,-1 0,-1 0,-1 0,0 0,-1 0,-1 -1,-2 0,-1 -1,-2 0,0 0,0 0,-1 0,-1 0,-1 0,-2 -1,-1 -1,-1 -1,-1 0,-1 0,-1 -1,-2 -1,0 -1,0 -1,-1 0,0 -1,-1 -1,-1 -1,0 -2,1 -1,2l-1 1c0,1 1,0 0,0l0 1c0,0 0,0 0,1 0,1 0,2 0,3 0,3 0,2 1,5 0,0 1,1 1,1l1 2c1,1 1,1 1,1 0,0 0,0 0,0 0,0 0,0 0,0l1 1c0,0 2,1 2,1 1,-1 0,-1 1,-1 0,0 0,0 0,0l0 1c2,0 2,-1 4,-2 0,0 2,-1 2,-2l2 -2z"/>
    <path class="fil1" d="M213 19c-2,0 -1,0 -2,-1l0 -1c0,0 0,0 0,0 0,-1 1,-1 2,-1 0,0 1,0 1,1 0,1 -1,1 -1,2zm1 2c0,0 0,0 0,0l0 0c1,1 0,0 0,1l0 0c-1,0 0,0 -1,0 0,0 -1,0 -1,0 0,-1 1,-1 2,-1zm4 -5c0,0 0,0 -1,-1 -1,-2 -4,-1 -5,0 -1,0 -1,0 -1,0 -1,1 -1,1 -2,2 0,2 -1,2 0,5 1,4 5,3 7,2 0,0 0,0 1,0 0,-1 0,0 1,-1 1,-1 1,-2 1,-3 0,-1 0,0 0,-1 0,0 0,0 0,0 0,0 0,0 0,-1l-1 0c1,0 1,1 1,0 0,-1 0,0 0,-1l-1 0c0,0 0,0 0,-1 0,0 0,0 0,0z"/>
    <g>
     <path class="fil1" d="M251 47c-1,1 0,1 -1,1 -1,0 -1,0 -2,0l-1 0c-1,0 -1,0 -1,0l-6 -1c-1,0 -2,0 -2,0 -2,0 -2,0 -3,0 -1,0 -1,0 -2,0l-4 0c-2,-1 -3,-1 -5,-1 -2,0 -1,0 -3,0l-3 -1c-1,0 -1,0 -1,0 -1,0 0,0 -1,0 0,0 0,0 0,0 0,-1 0,-1 1,-1 1,0 1,0 2,0 1,0 0,0 1,0l0 0c1,0 2,0 3,0 1,0 1,0 2,0 0,0 0,0 0,0 0,0 1,0 1,0l1 0c0,0 0,0 0,0 0,1 0,1 1,0 0,1 0,1 -1,1 0,0 1,0 1,0 0,0 0,-1 0,-1l4 1c1,0 1,0 2,0l3 0c1,0 1,0 1,0 0,0 0,0 0,0 1,0 1,0 1,0 0,0 0,0 0,0 1,0 2,0 2,0l7 0c2,0 1,0 2,1 0,0 0,0 0,0 0,0 0,0 0,0 0,0 0,0 0,0 0,0 0,0 0,0 1,0 0,0 1,0 0,1 0,1 -1,1 0,0 0,0 0,0 -1,0 0,0 -1,0 0,0 0,0 0,0 0,0 0,0 1,0 0,0 0,0 0,0 0,0 0,0 1,0zm-36 -5c0,1 0,1 -1,1 0,0 0,2 0,3 0,0 1,0 1,1 0,0 1,0 1,0l0 -1c0,0 0,1 0,0 0,0 0,1 0,1l0 0c0,0 0,0 0,0 1,0 1,0 2,0 0,0 0,1 0,0 0,0 0,0 0,0 0,0 0,0 0,0 2,0 1,0 2,0l0 0c0,0 0,0 0,0 0,0 0,0 0,0 1,0 0,0 1,0 0,0 2,0 2,0l6 0c0,1 2,1 3,1 0,0 0,0 0,0 0,0 1,0 2,0 0,0 0,0 1,0 1,0 0,0 1,0l6 1c2,0 2,0 3,0 1,0 1,0 1,0 0,0 2,0 3,0 1,0 1,0 2,0 2,0 1,0 2,-1 1,0 1,0 1,-1 -1,-1 -1,-1 -1,-2 -1,0 -1,0 -2,0l-4 0c-1,-1 -4,0 -5,-1 -2,0 -5,0 -7,0 -1,-1 -4,0 -6,-1l-4 0c-1,0 -3,0 -4,0 -1,0 -1,-1 -2,-1 -1,0 -1,0 -2,0 -1,0 -1,0 -1,0 -1,0 -1,0 -1,0z"/>
     <path class="fil1" d="M249 58c1,0 1,0 3,0 0,0 -1,0 0,0 0,0 0,0 0,1l0 0c0,1 0,1 -1,1l1 1c0,0 0,-1 0,0 -1,0 -1,0 -1,0 -1,0 -2,0 -3,0 -1,0 -1,0 -1,0 -1,0 -1,0 -1,0 -1,0 -1,0 -1,0 -1,0 -1,0 -1,0 -1,0 -1,0 -2,0 0,0 0,0 0,-1l0 0c-1,0 0,0 -1,0 0,0 0,0 -1,0 -1,0 -1,0 -1,0 0,0 -1,0 -1,0 -1,0 -1,0 -2,0l0 0c0,0 0,0 -1,0l0 0c0,-1 4,-1 5,-1l2 1c1,0 1,0 1,0 1,0 1,0 1,0 0,-1 1,0 0,-1 -1,0 -1,0 -2,0l-7 0c-1,0 -2,0 -3,0 -1,0 0,0 -1,0l0 0c0,0 -1,0 -2,0l-2 0c0,-1 0,0 0,0 0,-1 0,0 0,-1 -1,0 -1,0 -2,0l0 0c0,0 0,0 1,0 -1,0 -1,0 -1,0l-4 0c-2,0 -5,0 -5,-1 1,-1 1,0 2,0 0,0 0,0 1,0l0 0c0,0 0,0 0,0 1,0 2,0 3,0 0,0 0,0 0,0 0,0 0,0 0,0 0,0 0,0 0,0 0,-1 4,0 4,0 1,1 1,0 1,1 1,-1 0,0 1,0 0,-1 1,0 1,0 1,0 2,0 2,0 1,0 1,0 2,0 2,0 4,0 6,0 0,0 1,0 2,0 1,1 2,0 4,0 1,1 3,0 4,0zm-7 -1c1,0 1,0 2,1 0,0 -2,0 -2,0 -2,0 -1,0 -3,0 -1,0 -3,-1 -5,-1 -1,0 -3,0 -5,0 -1,0 -1,0 -2,0l-2 -1c0,0 0,0 0,0 0,0 0,0 0,0 0,0 3,0 3,0l5 1c-1,-1 -3,-1 -5,-1l-9 -1 0 0c-1,1 -3,0 -4,1 0,0 0,0 -1,0 0,1 0,1 0,1 0,0 0,1 1,2 0,0 0,0 0,0l0 0c0,0 0,-1 0,-1l0 0c1,0 1,1 2,1 0,0 0,0 0,0 -1,1 2,1 3,1 1,0 2,0 3,0 0,0 1,0 1,0l7 0c1,0 2,0 3,0 1,1 1,1 2,1 2,0 5,0 7,0 1,1 5,1 6,1 5,0 4,-1 4,-1 1,-1 1,-2 1,-3 -1,0 0,0 -1,0 0,-1 0,-1 -1,-1l-7 0c-1,0 0,0 0,0l-3 0z"/>
     <path class="fil1" d="M234 51c1,0 1,0 1,0l4 0c1,1 1,1 2,1l3 0c0,0 0,0 0,0 1,0 1,0 1,0 0,0 1,0 1,0l4 0c2,1 1,1 1,1 0,0 0,-1 1,0 0,0 0,0 0,0 1,0 0,1 0,0 0,0 0,-1 1,-1 0,1 0,2 -1,2 0,0 -2,0 -3,0 0,0 -1,0 -2,0 -2,0 -5,0 -8,-1 0,0 0,0 0,0 -2,0 -3,0 -5,0l0 0c0,0 0,0 -1,0l-4 -1c0,0 0,1 0,0 -1,0 -2,0 -3,0 -1,0 -1,0 -2,0l-4 0c-1,0 -2,0 -3,0 -1,0 -1,0 -1,-1l0 0c0,0 0,0 0,0 0,-1 0,0 0,-1l5 0c1,0 4,0 5,0l6 1c0,0 0,0 0,0 1,0 1,0 2,0zm19 4c0,-4 1,-3 -1,-3 0,-1 0,0 -1,-1 -1,0 -2,1 -3,1l-8 -1c-1,0 -1,0 -1,0l0 0c-1,-1 -1,0 -1,-1l-2 0c-1,0 0,0 -1,0 0,0 0,0 0,0 -1,0 -3,0 -4,0 -1,0 -1,0 -1,0 -1,0 -2,0 -3,0 -1,0 -1,0 -2,0 -2,0 -3,-1 -5,-1 -1,0 -4,0 -5,1 0,0 0,0 0,0 -1,1 -1,1 -1,2 0,0 0,0 0,0 1,1 1,0 1,0 0,0 0,0 0,0 0,0 0,0 0,0 0,0 0,0 0,0 0,0 0,-1 0,-1 0,0 0,1 0,1 0,0 0,0 0,0l5 1c1,0 1,1 2,1 1,0 2,0 3,0 2,0 7,0 10,0 3,0 5,1 7,1 3,0 3,0 5,0 1,0 2,0 2,0 1,0 2,1 3,1 0,0 0,0 0,-1l1 0z"/>
    </g>
    <path class="fil1" d="M197 16c0,1 0,1 0,2 0,0 0,0 -1,1 0,0 0,0 0,0 0,0 -1,0 -1,0 0,-1 0,-1 0,-1 -1,0 -1,0 -1,-1 1,-1 1,0 1,-1 0,0 0,0 1,0l0 0c1,1 1,0 1,1 0,0 0,0 0,-1zm0 4c0,1 -2,2 -2,0 0,0 0,0 0,0l2 0zm1 -7l0 0c0,0 0,0 0,0 -1,0 -2,0 -3,1 -1,1 0,0 -1,2 -2,2 -2,4 -1,6 0,1 1,1 1,2 1,0 1,0 2,0 1,0 2,0 2,0 1,0 1,0 1,-1 0,0 1,0 1,0 1,-1 2,-1 2,-3 0,-5 -1,-4 -2,-5 0,-1 0,-1 0,-1 -1,0 -1,0 -1,0 0,-1 0,-1 -1,-1z"/>
    <path class="fil8" d="M253 52c-1,0 -1,1 -1,1 0,1 1,0 0,0 0,0 0,0 0,0 -1,-1 -1,0 -1,0 0,0 1,0 -1,-1l-4 0c0,0 -1,0 -1,0 0,0 0,0 -1,0 0,0 0,0 0,0l-3 0c-1,0 -1,0 -2,-1l-4 0c0,0 0,0 -1,0 -1,0 -1,0 -2,0 0,0 0,0 0,0l-6 -1c-1,0 -4,0 -5,0l-5 0c0,1 0,0 0,1 0,0 0,0 0,0l0 0c0,1 0,1 1,1 1,0 2,0 3,0l4 0c1,0 1,0 2,0 1,0 2,0 3,0 0,1 0,0 0,0l4 1c1,0 1,0 1,0l0 0c2,0 3,0 5,0 0,0 0,0 0,0 3,1 6,1 8,1 1,0 2,0 2,0 1,0 3,0 3,0 1,0 1,-1 1,-2z"/>
    <path class="fil8" d="M238 47c0,0 1,0 2,0l6 1c0,0 0,0 1,0l1 0c1,0 1,0 2,0 1,0 0,0 1,-1 -1,0 -1,0 -1,0 0,0 0,0 0,0 -1,0 -1,0 -1,0 0,0 0,0 0,0 1,0 0,0 1,0 0,0 0,0 0,0 1,0 1,0 1,-1 -1,0 0,0 -1,0 0,0 0,0 0,0 0,0 0,0 0,0 0,0 0,0 0,0 0,0 0,0 0,0 -1,-1 0,-1 -2,-1l-7 0c0,0 -1,0 -2,0 0,0 0,0 0,0 0,0 0,0 -1,0 0,0 0,0 0,0 0,0 0,0 -1,0l-3 0c-1,0 -1,0 -2,0l-4 -1c0,0 0,1 0,1 0,0 -1,0 -1,0 1,0 1,0 1,-1 -1,1 -1,1 -1,0 0,0 0,0 0,0l-1 0c0,0 -1,0 -1,0 0,0 0,0 0,0 -1,0 -1,0 -2,0 -1,0 -2,0 -3,0l0 0c-1,0 0,0 -1,0 -1,0 -1,0 -2,0 -1,0 -1,0 -1,1 0,0 0,0 0,0 1,0 0,0 1,0 0,0 0,0 1,0l3 1c2,0 1,0 3,0 2,0 3,0 5,1l4 0c1,0 1,0 2,0 1,0 1,0 3,0z"/>
    <path class="fil8" d="M252 61c0,-1 0,0 0,0l-1 -1c1,0 1,0 1,-1l0 0c0,-1 0,-1 0,-1 -1,0 0,0 0,0 -2,0 -2,0 -3,0 -1,0 -3,1 -4,0 -2,0 -3,1 -4,0 -1,0 -2,0 -2,0 -2,0 -4,0 -6,0 -1,0 -1,0 -2,0 0,0 -1,0 -2,0 0,0 -1,-1 -1,0 -1,0 0,-1 -1,0 0,-1 0,0 -1,-1 0,0 -4,-1 -4,0 0,0 0,0 0,0 0,0 0,0 0,0 0,0 0,0 0,0 -1,0 -2,0 -3,0 0,0 0,0 0,0l0 0c-1,0 -1,0 -1,0 -1,0 -1,-1 -2,0 0,1 3,1 5,1l4 0c0,0 0,0 1,0 -1,0 -1,0 -1,0l0 0c1,0 1,0 2,0 0,1 0,0 0,1 0,0 0,-1 0,0l2 0c1,0 2,0 2,0l0 0c1,0 0,0 1,0 1,0 2,0 3,0l7 0c1,0 1,0 2,0 1,1 0,0 0,1 0,0 0,0 -1,0 0,0 0,0 -1,0l-2 -1c-1,0 -5,0 -5,1l0 0c1,0 1,0 1,0l0 0c1,0 1,0 2,0 0,0 1,0 1,0 0,0 0,0 1,0 1,0 1,0 1,0 1,0 0,0 1,0l0 0c0,1 0,1 0,1 1,0 1,0 2,0 0,0 0,0 1,0 0,0 0,0 1,0 0,0 0,0 1,0 0,0 0,0 1,0 1,0 2,0 3,0 0,0 0,0 1,0z"/>
    <path class="fil8" d="M172 88c0,0 0,0 0,0 -1,-1 -1,-1 -1,-1l-1 0c-1,0 0,1 -1,0 1,0 0,0 1,0 0,0 1,0 1,0 0,-1 -1,-1 -1,-1 -1,-1 0,-1 -2,-1 0,0 0,0 0,0 -2,0 -3,0 -4,0l-2 0c0,0 0,0 -1,0 -1,0 0,0 0,0 1,0 2,0 4,-1 1,0 2,0 4,0 -1,-2 -1,-1 -1,-2l0 0c-1,0 -2,0 -2,0 -1,0 -4,0 -5,0 -1,0 -2,0 -3,0 0,2 1,1 1,2 1,0 0,1 1,1 0,1 0,0 0,0 1,1 0,1 2,1 1,1 3,1 4,1 1,0 1,0 2,0 1,0 1,0 1,0l-4 1c1,0 0,0 1,0 0,0 0,0 1,0 0,0 0,0 0,0 1,0 1,0 1,1 0,0 0,0 1,0l1 0c1,0 1,0 1,0 1,0 0,0 1,0 0,0 0,0 0,0 0,0 0,0 0,0 0,0 0,-1 0,-1z"/>
    <path class="fil2" d="M221 29c-1,0 -1,0 -1,1l-1 0c0,0 0,0 0,0 0,0 1,0 0,0 0,0 0,0 -1,0 -1,1 -1,1 -1,1 0,1 0,1 0,1 0,1 0,0 1,0 0,1 1,1 1,1 1,0 3,-1 3,-2l2 -1 1 -3 0 0c0,-1 1,-4 1,-5 1,-2 1,-2 0,-3 0,0 0,-1 -1,-1 0,0 0,0 0,1 0,0 0,1 0,2 0,0 0,0 -1,1 0,-1 0,-1 1,-2 0,0 0,1 -1,0l0 2c-1,0 0,0 0,1 -1,-1 -1,-1 -1,-1 0,0 0,1 0,0 0,1 0,1 0,1 -1,2 0,1 -1,1l0 0c0,0 0,0 0,1 1,-1 0,-1 1,-1l0 1c0,0 0,1 0,1l-1 0c1,0 0,0 1,0l-1 0c0,1 1,0 0,1 0,0 -1,2 -1,1 0,0 0,0 -1,0 0,1 0,1 0,1 0,0 0,0 0,0l1 0z"/>
    <path class="fil9" d="M268 28l1 1c0,0 0,0 0,0l1 -1c1,0 3,0 3,0 2,1 2,2 2,2 0,0 0,0 1,0 0,0 0,1 0,2 0,1 0,1 -1,2l-1 2c0,0 0,0 0,0 -3,0 -2,-1 -1,-3l0 -1c1,0 1,-1 1,-1 0,0 1,-1 0,-1 0,0 0,0 0,-1 -1,1 -1,1 -1,2 -1,0 -1,1 -1,2 -1,0 -1,3 -1,4 1,2 3,2 5,0 1,-1 1,-2 1,-4 0,0 0,-2 0,-2l0 0c0,-2 0,-1 -1,-2l-1 -2 -1 0c-2,-1 -4,0 -6,1z"/>
    <path class="fil1" d="M271 81c-1,0 1,0 -2,1 0,0 0,0 0,0l-1 -1c-1,-1 0,-3 0,-4 0,0 0,0 1,0l0 -1c0,-1 1,0 2,0l0 0c1,3 0,2 0,5zm1 -6c1,1 0,0 1,1 0,0 0,1 0,1 -1,0 -1,-1 -1,-1 0,0 0,0 0,-1 0,0 -2,-1 -2,-1 -2,0 -2,-1 -4,2 0,1 1,0 0,1l0 0c0,0 0,1 0,1 0,0 0,0 0,1 0,1 0,2 1,3 0,1 0,1 0,1 1,1 0,1 1,1l0 0c1,0 3,0 3,-1 1,0 1,0 1,-1l1 -3c0,-1 0,-2 0,-3 0,0 0,0 -1,-1z"/>
    <path class="fil10" d="M202 76c1,0 0,0 0,-1 0,0 1,0 1,-1 -2,1 -2,0 -3,0l-1 0c0,0 0,0 0,0 -1,1 0,0 -1,0 -1,1 0,0 -1,0 0,2 1,8 1,8 1,0 4,0 5,0 0,-1 -1,-3 -1,-4 0,-1 0,-1 0,-2z"/>
    <path class="fil10" d="M196 74l-3 0c0,0 0,0 0,0 -1,0 -1,0 -1,1l0 1c0,0 0,0 0,2 0,1 1,3 1,4 1,0 0,0 2,0 1,0 2,0 3,0 -1,-2 -1,-5 -1,-7 -1,0 0,0 -1,-1z"/>
    <path class="fil8" d="M218 87c0,0 0,0 -1,0 0,0 0,0 0,-1l-6 0c0,1 0,1 0,1 0,0 -1,0 -1,0 0,-1 0,-1 0,-2 1,1 4,0 5,0 2,0 2,0 2,0 0,0 0,-1 0,-2 -1,0 -6,0 -7,0 -1,0 -1,0 -2,1 0,0 0,0 0,0 0,1 1,0 1,1 0,1 0,1 0,2 1,1 2,1 3,1 0,1 0,0 1,0 1,0 2,0 2,0 0,0 0,0 0,1 4,0 3,-1 3,-2z"/>
    <path class="fil10" d="M191 74c-1,0 -2,0 -2,0 -1,0 -1,0 -3,0 1,1 1,0 1,1 -1,0 -1,0 0,1 0,1 0,1 0,2 0,1 0,1 0,2 0,0 0,1 1,1 0,0 0,0 0,0 0,0 0,1 0,1 0,0 1,0 1,0l3 0c0,-1 -1,-4 -1,-5 0,-1 0,-1 0,-1 0,-1 -1,-1 0,-1 0,-1 0,0 0,-1z"/>
    <path class="fil8" d="M193 50c0,0 0,0 0,0 -1,0 -1,-1 -1,0l0 5c0,0 -1,1 -1,2 0,0 0,0 0,0 0,3 0,2 0,3 1,1 0,2 0,2 0,1 0,1 0,1 1,1 0,0 1,1 0,0 0,0 1,0 0,0 0,-1 0,-2 1,-1 1,-2 1,-4 0,-1 0,-3 0,-4 0,-2 0,-3 -1,-4z"/>
    <path class="fil8" d="M288 78c0,1 0,3 0,3 0,1 1,2 1,2 1,0 1,0 1,0 0,0 -1,0 0,0 0,0 0,0 0,0l1 -1c0,0 0,0 0,0 0,0 0,0 0,0 0,0 0,0 0,0l1 -1c0,0 0,0 0,0 1,-1 1,0 1,-1l0 0c0,0 0,-1 0,-1l0 0c0,0 0,0 0,0 0,-1 0,-1 0,-1 -1,-1 -1,-2 -1,-2 -1,0 -1,0 -1,0 0,-1 0,-1 -1,-1 0,0 -1,0 0,1 -1,0 -1,0 -2,0l1 0c0,0 0,0 0,0 0,0 0,0 0,0 0,1 0,0 -1,1 0,0 0,0 0,0l0 0c0,1 0,1 0,1 0,0 0,0 0,0z"/>
    <path class="fil11" d="M212 34c-1,-1 -1,-1 -2,-2 0,0 -1,-1 -1,-1 -2,1 -2,2 -4,3 0,1 0,0 -1,1 0,0 0,0 0,0 -1,0 0,0 0,0 -1,0 0,0 -1,0 -1,0 -2,0 -3,1 0,0 1,0 1,1 0,0 1,0 2,0 0,0 3,0 3,0 1,0 0,0 1,0 1,0 0,-1 1,-1 1,0 1,0 2,-1 1,0 0,0 1,0 0,-1 0,-1 1,-1z"/>
    <path class="fil8" d="M223 79c1,1 0,1 1,2 1,1 1,1 2,0l1 0c0,-1 0,-1 0,-1l2 -3c0,0 0,-1 -1,-2 0,0 0,0 0,-1 -1,0 -4,-1 -4,1 0,0 0,0 0,1 0,0 0,0 -1,0 0,1 0,1 0,1 0,1 0,1 0,2 1,0 0,0 0,0 1,0 0,-1 0,0z"/>
    <path class="fil10" d="M186 76l-1 0c0,-1 0,-1 0,-1 0,0 0,0 0,-1 0,0 -1,1 -3,0 -1,0 -1,0 -1,0 0,1 0,0 0,1 0,1 0,2 1,3l0 2c0,0 0,1 1,2 1,0 1,0 1,0 1,0 1,0 2,0 0,0 0,0 0,0 0,-1 0,-1 0,-2 0,-1 0,0 0,-1 0,-1 -1,-2 0,-3z"/>
    <path class="fil8" d="M283 70c1,0 0,0 0,0l1 1c0,0 0,0 0,0 0,-1 0,-1 0,-1 2,-1 0,-1 2,-1 0,0 1,0 1,0l2 -1c0,0 0,0 0,0 0,0 0,0 0,0l1 -1c0,0 -2,-1 -3,-1 -1,0 -2,1 -3,1l-1 0c-3,1 -1,0 -3,0l-2 1c0,0 0,0 0,1l0 0c0,0 0,0 1,0l0 0c0,-1 0,-1 1,-1 0,0 1,0 1,0 1,0 0,0 1,0 0,0 1,0 1,0 2,0 3,0 3,1 0,0 0,0 -1,0 0,0 -4,0 -5,0 -1,0 -1,0 -1,0 -1,0 0,0 -1,0 0,0 0,0 0,1 0,0 0,0 0,0 0,0 0,0 0,1 0,0 0,0 0,0l1 0c0,0 1,0 1,0l1 0c0,0 2,1 2,-1z"/>
    <path class="fil9" d="M291 60c-1,-1 0,0 -1,0l1 -1c0,0 0,0 1,1 0,-1 0,-1 0,-1l3 -2c0,0 0,0 0,0 0,-1 1,-1 1,-1 1,-1 2,-2 2,-3 1,0 1,-1 1,-1 1,-2 1,-2 1,-3 1,0 1,0 1,-1l0 -1c0,-2 0,-2 0,-2 0,1 0,2 -1,3l0 2c0,0 0,0 -1,-1 0,0 1,-1 1,-3 0,-1 1,-1 1,-1 0,-3 -1,-2 -1,-3l0 0c-1,-1 -1,-1 -2,-2 0,0 0,0 0,0 -1,0 -1,0 -1,0 -1,0 -1,-1 -2,0l0 1c1,0 2,0 3,1 0,0 0,0 0,0l1 0c0,0 0,0 0,1 0,0 0,0 1,0 0,0 0,1 0,1 0,0 0,3 -1,3 0,1 0,1 0,2 0,0 0,0 0,1l-1 2 0 1c0,0 0,-1 0,-1 0,1 0,0 0,1 0,0 0,0 0,0 -1,0 -1,1 -1,1l-1 1c-1,1 -2,2 -4,2 0,1 -1,1 -1,2 0,-1 0,-1 0,-1 -1,1 -1,1 -1,1l-2 1c0,0 0,0 0,0 0,1 0,0 1,0l-1 1c0,0 0,0 0,0 0,0 1,0 2,-1 0,0 1,0 1,0z"/>
    <path class="fil8" d="M260 82c0,0 0,0 0,-1 0,-1 0,-1 0,-2 0,-1 1,-2 0,-2 0,0 0,0 0,-1 0,1 0,1 0,1 0,-1 1,-3 1,-3 0,-1 0,0 0,-1 0,0 0,0 0,0 1,-1 1,-1 1,-2l-4 0c1,1 1,0 1,2 0,0 0,0 0,0 0,1 0,1 1,2 0,1 0,0 -1,1 0,-1 0,-1 0,-2 0,0 0,1 0,2 0,1 0,1 -1,1 0,1 0,1 0,2 0,0 0,0 0,0l0 3c0,0 -1,0 1,0 0,0 0,0 0,0l0 0c0,0 0,0 0,0l0 0c1,0 1,0 1,1 -1,0 -1,0 -1,0l-1 0c0,-1 0,-1 -1,0 0,0 0,0 0,1 0,1 0,1 0,1 0,0 0,0 0,0 2,0 3,0 3,0 0,0 0,0 1,-1 0,0 -1,-1 -1,-1 0,-1 0,-1 0,-1z"/>
    <path class="fil8" d="M281 64l0 0c-1,-1 -1,0 -1,-1 1,0 0,0 1,0 0,0 0,0 0,0 0,0 -1,-1 -1,-2 0,-1 0,-1 0,-2l0 0c0,0 0,0 0,0 0,0 0,0 0,0l0 0c0,-1 0,-1 0,-2 0,0 0,0 1,0 0,-3 1,-1 2,-3l-2 0c0,1 0,0 0,1 0,0 0,0 -1,0l0 0c0,0 0,0 0,0 0,0 0,0 0,0 -1,0 0,0 -1,0l0 0c-1,0 0,0 -1,0 0,1 0,1 -1,2 0,1 0,1 0,2 0,0 0,0 0,0l0 0c0,0 0,0 0,0 0,1 0,3 0,4 0,0 1,1 2,1l2 0z"/>
    <path class="fil8" d="M168 74c1,-3 0,-2 -1,-2 -2,0 -4,0 -6,0l-3 0c-1,0 0,0 -1,0 0,2 -1,1 0,3 0,0 1,0 1,0 1,0 1,0 1,0l9 -1z"/>
    <path class="fil8" d="M170 69c0,0 1,0 0,0l-10 0c-1,0 -1,0 -1,0 -1,-1 0,-1 0,-2l-1 3c0,0 0,0 0,0 -1,0 -1,1 -1,1 1,0 1,0 2,0l8 0c1,0 1,0 2,0 0,0 0,-1 0,-1l1 -1z"/>
    <path class="fil8" d="M198 50c0,1 0,2 0,4l0 3c0,2 -1,5 -1,7 2,0 1,-1 2,0 0,-2 1,-5 1,-8 0,-1 0,-2 0,-3 1,-3 1,-2 0,-4 -1,1 0,0 -1,1 0,-1 0,-1 0,-1 -1,0 0,0 0,1 0,0 0,0 0,0 -1,0 0,0 -1,0z"/>
    <path class="fil9" d="M295 40c0,-1 0,-2 -1,-3 0,0 0,0 0,0 0,-1 -1,-2 -2,-2l-2 -2c0,1 0,1 0,1 1,0 1,0 1,1 0,0 0,0 0,0 0,0 0,0 0,0l0 0c2,2 1,2 3,4 0,1 -1,1 -1,2 0,0 1,0 0,1l-1 2c-1,0 -1,0 -1,0 -1,1 0,1 -1,1l-1 0c0,0 0,-1 0,-1 0,0 0,0 0,0 0,0 0,-1 0,-1 1,0 1,0 2,-1 1,-1 2,-1 1,-2l-1 1c0,0 0,-1 0,0 -1,0 -2,1 -2,1l0 1c-1,0 -1,0 -1,0 0,1 -1,2 -1,3 0,0 1,1 2,0 1,0 0,1 1,0 2,-1 1,-1 2,-1 0,0 0,0 0,0 1,-1 0,0 1,-1 1,-1 2,-3 2,-4z"/>
    <path class="fil9" d="M284 30l0 1c1,0 1,-1 2,-1 2,1 1,1 2,1l0 1c0,-1 0,-1 1,-1 -1,1 0,2 -1,4 0,0 0,1 0,1l0 1c-1,1 -1,2 -2,2 0,0 0,0 -1,0 0,0 0,0 0,0l0 0c0,-1 0,0 1,-1 0,-1 2,-3 2,-4 -1,0 -1,0 -1,0 -1,1 0,1 -1,1 -2,3 -1,1 -2,3l-1 2c-1,3 2,2 3,1 0,0 0,0 0,-1 1,-1 1,1 2,-1l1 -5c1,-1 1,-2 0,-3 0,0 0,0 0,0 0,-1 0,-1 -1,-1l-1 -1c0,0 -1,0 -2,1 0,0 -1,0 -1,0z"/>
    <path class="fil9" d="M268 35c0,-1 0,-2 0,-3 0,0 0,0 0,0 -1,-1 -1,-3 -2,-4 -1,-1 -2,0 -3,1 -1,2 0,2 0,3l0 0c-1,-1 0,0 -1,-1 0,1 0,1 0,2 -1,0 -2,1 -2,1 -1,1 -1,0 -1,1 0,0 0,0 1,0 1,0 1,1 1,0 2,-1 2,-2 3,-5 1,0 1,0 1,0 1,0 1,0 1,0 0,0 2,1 1,4 0,1 0,1 -1,2 0,0 -1,-3 0,-4 0,0 0,0 0,-1 0,0 0,0 0,0 0,0 0,0 0,0 0,0 0,0 0,0l-1 1 0 2c0,1 0,2 0,2 0,0 1,1 2,1 1,0 1,-1 1,-2z"/>
    <path class="fil1" d="M288 78c0,0 0,0 0,0 0,0 0,0 0,-1l0 0c0,0 0,0 0,0 1,-1 1,0 1,-1 0,0 0,0 0,0 0,0 0,0 0,0l-1 0c1,0 1,0 2,0 -1,-1 0,-1 0,-1 1,0 1,0 1,1 0,0 0,0 1,0 0,0 0,1 1,2 0,0 0,0 0,1 0,0 0,0 0,0l0 0c0,0 0,1 0,1l0 0c0,1 0,0 -1,1 0,0 0,0 0,0l-1 1c0,0 0,0 0,0 0,0 0,0 0,0 0,0 0,0 0,0l-1 1c0,0 0,0 0,0 -1,0 0,0 0,0 0,0 0,0 -1,0 0,0 -1,-1 -1,-2 0,0 0,-2 0,-3zm0 -3l0 0 0 1c-1,0 0,-1 -1,1l0 0c-1,2 -1,2 0,4l0 2c0,0 0,0 0,0 1,1 0,0 1,1 0,0 0,0 0,0 0,0 0,0 0,0 1,0 0,0 1,1l1 0c0,0 0,0 0,-1 1,0 1,0 1,0 2,-1 2,-2 2,-3 1,-1 1,-2 1,-2 0,-1 0,-1 -1,-1l-1 -2c0,0 0,-1 0,-1l0 0c0,0 0,0 0,0l0 0c-1,0 -1,0 -2,-1 0,0 -1,0 -1,0 -1,0 -1,0 -1,1z"/>
    <path class="fil12" d="M286 62c0,0 0,1 1,1 0,-1 0,-1 0,-1 0,0 -1,0 -1,0 -1,0 0,1 -2,0 -1,-1 -1,-2 -1,-3l2 -1c0,0 0,0 1,0 -1,-1 -1,0 -1,-1 0,-1 0,-2 -2,-2 0,0 0,1 0,1 -1,0 0,0 -1,-1 0,1 -1,1 -1,2 1,-1 1,-1 1,-1 0,1 0,1 -1,2l0 1c0,1 0,0 0,1 0,0 -1,0 0,2 1,1 0,1 1,2 1,0 1,0 2,-1 1,0 1,0 1,0 2,0 1,0 1,-1z"/>
    <path class="fil8" d="M175 62c0,1 0,0 0,2 1,0 0,0 1,0 0,0 -1,0 0,0 0,0 0,-2 0,-3 1,0 0,-1 1,-2l0 0c0,0 0,0 0,0 0,-1 0,-1 0,-2 0,-1 0,-1 0,-2 0,-1 0,-5 0,-6 -1,0 -1,0 -1,1 0,1 0,1 -1,3 0,1 0,0 0,2 0,0 0,2 0,2l0 0c0,0 0,0 0,0 -1,0 0,0 0,0 0,1 0,1 0,1 0,0 0,0 0,1l0 1c0,1 0,2 0,2 0,1 0,0 0,0z"/>
    <path class="fil8" d="M167 75c0,0 0,0 0,1l-3 0c0,0 0,0 -1,0 0,0 -1,0 -1,0 -2,0 -3,-1 -5,0 0,0 0,2 0,2 1,0 4,0 5,0 1,0 2,0 3,0 1,0 2,0 2,0 0,-1 0,-1 0,-1 0,-1 1,-1 1,-1 0,0 0,-1 -1,-1l0 0c0,0 0,0 0,0z"/>
    <g>
     <path class="fil1" d="M198 50c1,0 0,0 1,0 0,0 0,0 0,0 0,-1 -1,-1 0,-1 0,0 0,0 0,1 1,-1 0,0 1,-1 1,2 1,1 0,4 0,1 0,2 0,3 0,3 -1,6 -1,8 -1,-1 0,0 -2,0 0,-2 1,-5 1,-7l0 -3c0,-2 0,-3 0,-4zm2 14c0,0 0,1 1,0 0,0 0,-1 0,-2 0,-1 0,-3 0,-3 0,-1 0,-1 0,-1 0,0 0,-1 0,-2 0,0 0,0 0,0l0 -1c0,-1 1,-4 0,-5 0,0 0,0 0,-1 0,0 0,0 -1,0 0,-1 0,-1 -1,-1 -1,0 0,1 -1,0 -1,0 -1,0 -1,0 0,1 0,2 0,2 1,1 1,2 1,3 0,1 0,1 -1,3 0,0 0,0 0,1 0,1 -1,5 -1,7 1,1 1,1 3,1 0,-1 0,1 1,-1z"/>
     <path class="fil1" d="M182 49c1,0 0,1 0,2l1 1c0,0 0,0 0,0 0,1 -1,0 -1,1 0,-1 0,0 1,-1l0 2c0,-1 0,0 0,-1 0,-1 0,0 0,-1 0,-2 -1,-2 0,-3 0,1 0,1 0,1 0,0 0,1 0,1 1,1 1,1 1,2 0,0 0,1 0,2l-1 2c0,1 0,0 0,1 -1,1 -1,4 -1,6l-1 0c0,-1 0,0 0,-1 0,-1 0,0 0,0 0,-1 0,-1 0,-2 0,-2 0,-3 1,-4l0 -4c0,-1 0,-1 0,-2 0,0 0,-1 0,-2zm1 15c0,0 0,-1 0,-2 0,-2 0,-2 0,-3 0,-1 0,-1 0,-1 0,0 1,0 1,-1l1 -4c0,-1 0,-1 -1,-2 0,-1 0,-1 -1,-3 0,0 -1,0 -1,0 -1,0 0,0 -1,0 0,0 0,0 0,1 0,1 -1,0 0,1 0,1 0,3 0,4 0,1 0,3 0,4 -1,2 -1,3 -1,4 0,1 0,1 0,2l0 1c1,0 2,0 3,-1z"/>
     <path class="fil1" d="M175 62c0,0 0,1 0,0 0,0 0,-1 0,-2l0 -1c0,-1 0,-1 0,-1 0,0 0,0 0,-1 0,0 -1,0 0,0 0,0 0,0 0,0l0 0c0,0 0,-2 0,-2 0,-2 0,-1 0,-2 1,-2 1,-2 1,-3 0,-1 0,-1 1,-1 0,1 0,5 0,6 0,1 0,1 0,2 0,1 0,1 0,2 0,0 0,0 0,0l0 0c-1,1 0,2 -1,2 0,1 0,3 0,3 -1,0 0,0 0,0 -1,0 0,0 -1,0 0,-2 0,-1 0,-2zm0 3c1,0 1,0 2,0 0,-1 0,-1 0,-2 0,0 0,0 0,-1 0,-1 0,0 0,-1 0,0 0,-1 0,-2 0,0 0,0 0,0 1,-1 0,1 0,0 0,0 0,0 0,0 1,-1 1,0 1,-1 0,-2 0,-1 0,-2 0,-2 0,-4 0,-7l0 0c1,0 0,0 1,0 -1,-1 -1,0 -2,0 0,0 0,0 -1,0 0,1 -1,1 -1,3 0,0 0,1 0,2 -1,2 -1,3 -1,6 0,1 0,3 0,5 0,0 0,0 1,0 0,0 0,0 0,0z"/>
     <path class="fil1" d="M193 50c1,1 1,2 1,4 0,1 0,3 0,4 0,2 0,3 -1,4 0,1 0,2 0,2 -1,0 -1,0 -1,0 -1,-1 0,0 -1,-1 0,0 0,0 0,-1 0,0 1,-1 0,-2 0,-1 0,0 0,-3 0,0 0,0 0,0 0,-1 1,-2 1,-2l0 -5c0,-1 0,0 1,0 0,0 0,0 0,0zm1 15c0,-1 0,-1 0,-2 0,-2 0,-1 1,-1 0,-1 -1,-1 -1,-1 1,-1 1,-1 1,-1 0,-2 0,-3 0,-4 0,-2 0,-4 -1,-5 0,-1 0,-1 0,-2 0,0 0,0 0,0l-1 0c0,-1 -1,-1 -2,-1 0,2 0,4 0,5l0 5c0,1 0,2 0,3 0,1 -1,1 -1,2 0,1 1,1 1,1 1,1 1,1 2,1l0 0c0,0 1,0 1,0z"/>
     <path class="fil1" d="M188 64c0,0 0,-4 0,-4 1,-1 1,-1 1,-1 0,-1 -1,-1 0,-1l0 -1c0,-1 0,-1 0,-2 0,-1 -1,-2 0,-3 0,0 0,0 0,0 0,-1 0,-4 -3,-4 0,1 0,1 0,1 1,0 0,0 1,0 0,0 -1,0 0,0 1,1 1,0 1,3 0,4 0,3 0,8 -1,2 0,4 -1,4 -1,0 -1,-1 -1,-2 0,-2 0,-3 0,-4 0,-1 0,0 0,-1 1,0 0,-1 0,-1l1 -4c0,-2 -1,-2 0,-2 0,0 0,0 0,0l0 0c0,0 0,0 0,0 -1,-1 -1,-1 -1,-1 0,1 0,1 0,2 0,1 0,8 -1,9 0,1 0,3 0,4 1,0 1,0 1,0 1,0 1,0 1,1 -1,0 0,0 -1,0 0,0 0,0 0,0 1,0 0,0 1,0 1,0 -1,0 1,-1z"/>
    </g>
    <path class="fil13" d="M238 17c0,1 -2,8 -3,9 0,0 1,0 1,0 0,0 0,0 1,0l0 0c0,0 0,0 0,0 0,0 1,-1 2,-1 0,-1 1,-4 1,-4 0,-1 0,-2 0,-3 0,0 0,0 0,0 0,0 0,0 0,0l0 -1c0,0 -1,0 -1,0 -1,0 0,-1 -1,0 0,1 0,0 0,0 0,0 0,0 1,1 0,0 -1,0 -1,0l0 0c0,0 0,-1 0,-1z"/>
    <path class="fil8" d="M216 75c0,0 0,0 0,-1 1,-1 1,0 1,-1l-5 0c-2,0 -3,0 -5,0l1 1c0,0 0,1 0,1 0,0 0,0 0,0 0,0 0,-1 1,0 -1,0 0,0 -1,0 0,0 0,1 0,1l2 0c1,0 0,0 2,0 1,0 1,-1 2,-1l2 0z"/>
    <path class="fil8" d="M248 75c-1,0 -1,0 -1,1 0,1 0,1 0,2 -1,2 0,2 0,3 -1,0 -1,-2 -1,-3 0,1 0,1 0,1 0,1 0,1 0,1 0,2 0,1 1,2 0,0 1,0 2,-1 0,0 0,0 0,0 0,-1 1,-1 1,-2 0,-1 0,-1 0,-2 0,0 0,0 0,0l-1 -2c0,0 0,0 0,0 -1,-1 0,0 -1,-1l0 1z"/>
    <path class="fil13" d="M245 22c0,0 0,1 -1,1 0,1 -2,3 -3,4l-1 0c0,0 0,0 0,0 1,2 7,0 8,-2 0,-1 0,-1 -1,-1 1,0 1,-1 1,-1l-2 -1c0,0 0,0 -1,0z"/>
    <path class="fil8" d="M167 79c-1,0 -1,0 -1,0 0,0 -2,0 -3,0 -1,0 -4,0 -5,0 0,0 0,0 0,0 -1,0 0,0 -1,0 0,1 0,1 0,1l1 1c1,0 3,0 5,0 0,0 0,0 1,0 0,0 1,0 1,0 1,0 2,0 3,0 0,-1 0,-1 -1,-2z"/>
    <path class="fil8" d="M216 78c0,-1 0,-1 0,-2 -1,1 0,1 -2,1l-6 0c0,0 0,1 0,1 0,0 0,1 0,1 0,1 1,1 1,1 1,0 7,-1 7,-1 0,0 0,-1 0,-1z"/>
    <path class="fil10" d="M180 74l-1 0c0,1 0,1 -1,1 0,0 -1,0 -2,0 0,0 0,1 0,1 0,0 0,0 0,0 0,0 0,0 0,0 1,1 0,0 0,0l1 2c1,3 0,4 4,4 0,-3 0,-4 -1,-6 0,0 0,-1 0,-2z"/>
    <path class="fil1" d="M223 79c0,-1 1,0 0,0 0,0 1,0 0,0 0,-1 0,-1 0,-2 0,0 0,0 0,-1 1,0 1,0 1,0 0,-1 0,-1 0,-1 0,-2 3,-1 4,-1 0,1 0,1 0,1 1,1 1,2 1,2l-2 3c0,0 0,0 0,1l-1 0c-1,1 -1,1 -2,0 -1,-1 0,-1 -1,-2zm-1 -1c1,0 1,0 1,0 0,1 0,3 0,4l0 0c1,0 0,0 1,1 1,0 2,-1 3,-1 2,-2 2,-2 2,-3 0,-1 0,-1 0,-2 0,-2 0,-1 0,-2 -1,-1 0,-1 -1,-2 0,0 -1,0 -1,0 -1,0 0,0 0,0 -1,0 -1,0 -2,0 0,0 0,0 0,0 -1,0 -1,0 -1,0 0,0 0,0 0,0 -1,1 0,1 0,1 -1,1 -1,2 -1,2 -1,1 -1,1 -1,2z"/>
    <path class="fil8" d="M221 66c-1,0 -1,0 -1,1 0,0 0,0 0,0 0,-1 -1,-1 -1,-1l-6 0c-1,1 0,1 -1,1 -1,0 -1,0 -1,1 -2,1 0,0 -1,1 1,0 -1,0 2,0 1,0 4,0 6,0 1,0 1,0 1,-1 1,-1 1,-1 2,-2z"/>
    <path class="fil8" d="M218 70c0,0 0,0 0,0 0,0 -1,0 -2,0 0,0 0,0 0,0 -1,0 -1,0 -1,0 -1,0 0,-1 -2,0 0,0 0,0 0,0 -1,0 -2,0 -3,0l0 -1 -1 1c0,0 0,0 0,0 0,1 -1,1 -1,2 1,0 0,0 1,0 1,0 1,0 1,0 1,0 2,0 2,0 2,0 4,0 5,0l0 -1c1,0 1,0 1,-1z"/>
    <path class="fil8" d="M216 80c-1,0 0,0 -1,1l0 -1c0,0 -3,0 -4,0 -2,1 -1,0 -2,0 0,1 0,1 -2,1 1,0 1,1 1,2 3,0 3,-1 4,0 1,0 3,-1 5,0 -1,-1 -1,-2 -1,-3z"/>
    <path class="fil9" d="M283 33c0,0 0,0 0,0 -1,0 -1,1 -1,1 0,0 0,1 0,1 0,0 0,0 0,1 -1,1 -1,1 -2,2 0,0 0,0 -1,0l0 0c0,-1 0,-1 0,-1 0,-1 0,-1 1,-1l0 -1c1,-2 2,-3 1,-4l0 0c-1,1 0,1 -1,1 0,1 0,0 -1,2 0,1 -1,2 -1,3l-1 1c0,0 0,0 0,0 0,0 0,1 0,1 0,1 3,0 4,-1 1,-1 2,-2 2,-4 0,-1 1,-1 0,-1z"/>
    <path class="fil8" d="M182 49c0,1 0,2 0,2 0,1 0,1 0,2l0 4c-1,1 -1,2 -1,4 0,1 0,1 0,2 0,0 0,-1 0,0 0,1 0,0 0,1l1 0c0,-2 0,-5 1,-6 0,-1 0,0 0,-1l1 -2c0,-1 0,-2 0,-2 0,-1 0,-1 -1,-2 0,0 0,-1 0,-1 0,0 0,0 0,-1 -1,1 0,1 0,3 0,1 0,0 0,1 0,1 0,0 0,1l0 -2c-1,1 -1,0 -1,1 0,-1 1,0 1,-1 0,0 0,0 0,0l-1 -1c0,-1 1,-2 0,-2z"/>
    <path class="fil1" d="M247 82c-1,-1 -1,0 -1,-2 0,0 0,0 0,-1 0,0 0,0 0,-1 0,1 0,3 1,3 0,-1 -1,-1 0,-3 0,-1 0,-1 0,-2 0,-1 0,-1 1,-1 0,-1 0,0 0,-1l0 0c1,0 1,0 1,0 0,0 0,0 0,0l0 0c0,0 0,0 0,0 1,0 1,0 1,0 1,0 0,0 1,0 0,1 1,2 0,3l1 0c0,2 0,2 -2,4 0,1 0,0 0,1 -1,0 0,-1 0,0 0,0 0,0 0,0 -1,0 -1,1 -2,1 -1,0 0,0 -1,0 0,-1 0,0 0,-1l0 0c1,0 1,0 1,0 -1,0 -1,0 -1,0 0,0 0,1 0,0zm0 -9c0,0 0,0 0,0 0,1 0,0 0,1l0 0c0,1 -1,1 -1,1 0,1 0,2 0,2 -1,1 -1,1 -1,2 0,0 0,1 0,2 0,1 2,3 3,3 1,-1 2,-1 2,-1 1,-1 2,-3 2,-4 0,-1 0,-2 0,-2 0,-1 0,-2 -1,-3 -1,-1 -1,-1 -2,-1 -1,0 -2,1 -2,0z"/>
    <path class="fil8" d="M247 65c-1,0 -2,0 -3,0 0,0 0,0 -2,0 0,0 -1,0 -2,0 0,0 0,1 0,1 -2,0 0,0 -1,0 0,0 0,0 -2,0 -1,1 0,1 -1,1 -1,0 -1,0 -1,1 1,-1 0,-1 1,-1 0,0 -1,0 -1,1l1 0c0,0 3,0 4,-1l3 0c1,0 1,0 1,0 0,0 0,0 0,0 1,0 2,-1 3,-2z"/>
    <path class="fil8" d="M271 81c0,-3 1,-2 0,-5l0 0c-1,0 -2,-1 -2,0l0 1c-1,0 -1,0 -1,0 0,1 -1,3 0,4l1 1c0,0 0,0 0,0 3,-1 1,-1 2,-1z"/>
    <path class="fil13" d="M241 19c0,1 0,2 0,3 0,1 0,0 0,1 0,0 0,0 0,0 0,0 0,0 0,0 0,1 -1,2 -1,2l-1 1c0,0 0,0 0,1 1,-1 1,-1 2,-1 1,-1 2,-2 3,-4 0,-1 1,-2 -1,-3 -1,0 0,0 -2,0z"/>
    <path class="fil8" d="M169 68c-1,-1 0,-1 0,-2 -1,0 -7,0 -9,1 -1,0 -1,0 -1,1 4,1 8,0 10,0z"/>
    <path class="fil2" d="M205 26c-1,-1 -1,1 -3,2 1,-1 1,-1 1,-2 -1,1 0,0 -2,3 -1,1 -1,1 -2,2 0,0 0,0 0,0 0,0 1,0 1,0 0,1 0,1 1,1 1,0 0,0 1,-1 1,0 1,0 1,-1 0,0 0,0 1,0 0,-1 1,-2 1,-3 0,-1 0,0 0,-1 0,0 0,0 0,0z"/>
    <path class="fil8" d="M242 91c0,0 0,0 0,0 0,-1 0,-1 0,-1 1,1 1,1 1,1 0,0 1,-1 1,-1 0,0 -1,-1 -1,-1l-2 0c-2,0 -1,0 -2,0l-7 0c2,1 5,2 8,2 1,0 1,0 2,0z"/>
    <path class="fil10" d="M206 74c0,0 0,0 0,0l-1 1c0,0 0,0 0,0 0,0 0,-1 0,-1 -1,0 -1,0 -1,0l0 0c-1,0 0,3 0,3 0,1 0,1 0,1 0,2 0,3 1,4 0,0 0,0 1,0 0,1 0,1 0,1l0 -3c0,-1 0,-3 0,-4 0,-1 0,-1 0,-2z"/>
    <path class="fil1" d="M248 75l0 -1c1,1 0,0 1,1 0,0 0,0 0,0l1 2c0,0 0,0 0,0 0,1 0,1 0,2 0,1 -1,1 -1,2 0,0 0,0 0,0 -1,1 -2,1 -2,1 0,1 0,0 0,0 0,0 0,0 1,0 0,0 0,0 -1,0l0 0c0,1 0,0 0,1 1,0 0,0 1,0 1,0 1,-1 2,-1 0,0 0,0 0,0 0,-1 -1,0 0,0 0,-1 0,0 0,-1 2,-2 2,-2 2,-4l-1 0c1,-1 0,-2 0,-3 -1,0 0,0 -1,0 0,0 0,0 -1,0 0,0 0,0 0,0l0 0c0,0 0,0 0,0 0,0 0,0 -1,0l0 0c0,1 0,0 0,1z"/>
    <path class="fil8" d="M267 91c-2,-1 -1,0 -1,-1 -1,0 -1,0 -2,0 0,-1 0,-1 -1,-1 0,0 0,0 0,-1 0,1 0,1 0,1 -1,0 0,0 -2,0l0 0c0,0 0,0 0,0 -1,0 -1,0 -1,0 0,0 0,0 0,0 0,-1 0,0 0,-1 -1,1 -2,1 -3,1l-2 0c0,0 0,0 0,0l4 1c0,0 2,1 2,1 1,0 1,0 1,0 0,0 0,0 1,0l0 0 1 0c0,0 0,0 0,0 0,0 0,0 0,0 1,0 0,0 1,0 0,0 1,0 2,0z"/>
    <path class="fil8" d="M243 68c-1,0 -5,0 -6,0 -1,0 -1,1 -1,1 0,0 0,0 0,1 1,0 0,0 1,1 1,-1 0,0 1,0 1,0 1,-1 1,-1 2,1 1,1 2,0 1,-1 2,-1 2,-2z"/>
    <path class="fil8" d="M258 88c0,0 0,0 1,0 0,0 0,0 0,0l0 0c0,0 0,0 1,0l1 0c0,0 0,0 0,0 0,0 0,-1 1,-1 0,0 0,0 0,-1 0,1 0,1 0,1 0,0 0,0 0,0 0,0 0,0 -1,0 0,0 0,0 0,0 0,-1 0,-1 0,-1l-4 0c-1,0 -1,0 -2,2 -1,0 0,0 0,0 0,0 0,0 0,0 1,0 1,0 1,0 1,0 2,0 2,0l0 0z"/>
    <path class="fil8" d="M242 88c0,-1 -1,-1 -1,-2l-2 0c-1,0 -2,0 -3,0 0,0 0,0 -1,0 0,0 -1,0 -1,0 0,0 -1,1 -1,2 1,0 1,0 1,-1 0,1 0,0 0,1 0,1 0,-1 -1,0 1,0 1,0 1,0 1,0 1,0 3,0 0,0 0,0 1,0 0,0 1,0 1,0 1,0 0,0 2,0 0,0 0,0 1,0z"/>
    <path class="fil8" d="M234 86c1,0 3,0 4,0l1 0c0,0 1,0 1,0 0,-1 1,0 0,-2 -1,-1 0,0 -1,0 0,0 0,0 0,0l0 -1c-1,0 0,0 -1,0 -2,0 -3,0 -3,2 -1,0 -1,0 -1,1z"/>
    <path class="fil8" d="M281 88c-1,0 -3,-1 -5,0 0,0 0,0 0,0 -1,1 0,0 -1,1 0,1 0,0 0,1l2 -1c0,1 1,0 2,0 0,0 0,0 1,0l0 0c1,0 1,0 1,0 1,0 1,1 1,1 0,-1 0,-2 -1,-2z"/>
    <path class="fil9" d="M277 28c0,0 0,0 0,0 0,1 0,1 0,1 0,0 0,0 0,0 0,0 2,0 2,0 1,0 1,0 1,0 0,0 1,0 1,0l0 0c1,1 1,1 1,2 1,0 1,1 1,1 0,0 0,0 0,0 0,0 -1,0 0,0 0,1 0,1 1,1 0,-1 -1,-3 -1,-4 -1,-1 0,1 -1,0 0,0 0,-1 0,-1l-1 0c-1,-1 -1,-1 -1,-1 -1,0 -2,0 -3,1z"/>
    <path class="fil8" d="M277 91c0,0 0,0 0,0l1 0c1,0 1,0 1,0 0,0 1,0 1,0 0,0 0,0 0,0 0,0 0,0 0,0l0 0c1,1 1,0 2,1l1 0 0 -1c0,0 0,0 0,0 0,1 -1,0 0,0 0,0 0,1 0,1 0,0 0,0 0,0 0,0 0,0 0,0l1 -1c-1,-1 0,-1 -3,-1 -3,0 -3,0 -5,0l-2 0c1,1 1,0 1,1 0,0 0,0 1,1 0,0 2,0 3,0 -1,-1 0,0 -2,-1l0 0z"/>
    <path class="fil8" d="M267 66c0,0 -1,0 -1,0 -1,0 -1,-1 -4,0 0,1 0,0 -1,1 0,0 0,0 -1,0 0,0 0,0 0,0 0,0 0,0 0,0 -1,1 -1,0 -2,1l4 0c0,0 2,0 2,-1 1,0 1,0 1,0 0,0 0,1 1,1 0,0 0,-1 0,-1 0,0 0,0 0,0 1,0 0,0 1,-1 0,0 0,0 0,0 0,0 0,0 0,0z"/>
    <path class="fil8" d="M283 72c-1,0 0,0 -1,0 0,0 0,0 0,0 -1,0 -2,0 -3,0l0 0c0,1 0,1 0,0 0,1 0,2 0,3 0,0 1,0 1,0l0 0c0,0 0,0 0,0 1,-1 0,-1 1,-1 0,1 0,1 0,1 0,0 0,0 0,0l0 0c0,0 0,0 0,0 0,0 0,0 0,0l1 -1c0,0 0,0 0,0 0,0 0,0 0,0 0,0 0,0 0,0 0,-1 1,-1 1,-2z"/>
    <path class="fil8" d="M169 64c-1,0 -1,0 -2,0 -2,0 -4,0 -5,1 0,0 -1,0 -1,1 1,0 2,0 4,0 1,-1 1,-1 2,-1 1,0 1,1 2,0l0 -1z"/>
    <path class="fil8" d="M280 87c0,0 0,0 0,0 0,0 0,0 1,0 0,0 -1,0 0,0 0,0 0,0 0,0 0,0 0,0 0,0 0,-2 -1,-2 -1,-3 -1,0 -2,0 -2,1 0,0 -1,1 -1,2 0,0 0,0 0,0 1,0 1,0 1,0 1,0 1,0 1,0 1,0 1,0 1,0z"/>
    <path class="fil13" d="M235 24c1,0 0,0 1,-2 0,-1 0,0 0,-2 1,-1 1,-1 1,-2 -1,-1 0,-1 -1,-1 -1,-1 -1,0 -1,0l0 3c0,1 0,1 0,1 0,2 0,2 0,3 0,0 0,0 0,0z"/>
    <path class="fil8" d="M219 89c-1,0 -4,0 -5,0 -1,0 -1,0 -1,0 0,1 0,1 0,1 1,0 0,1 3,0 2,0 2,1 4,0 -1,0 0,0 -1,0 0,0 0,0 0,-1z"/>
    <path class="fil8" d="M240 71c-1,0 0,0 -1,0 -1,0 -1,0 -1,0 -2,0 -1,0 -1,2 0,0 0,1 0,1 0,0 1,0 1,0 0,0 0,0 0,0 0,0 0,0 0,0 1,0 1,0 1,-1 0,0 0,0 0,0 1,-1 1,0 1,-1 0,0 0,0 0,0 0,-1 0,0 0,-1z"/>
    <path class="fil8" d="M238 80c0,0 -1,0 -1,0 0,0 -1,1 -1,1 0,1 0,0 0,1 0,0 0,0 0,0 0,1 0,0 0,1 1,0 1,-1 2,-1l0 -1c-1,0 0,0 0,0l0 1c0,0 0,0 0,0 0,0 0,1 0,1 2,0 0,-1 0,-3z"/>
    <path class="fil8" d="M238 79c0,-1 0,-2 0,-3 0,0 1,-1 1,-1 -1,0 -1,0 -1,0 0,0 0,0 0,0 0,0 0,0 0,0 0,0 0,0 0,0 -1,0 -1,0 -1,2 0,1 0,1 0,1 0,1 0,0 0,1 0,-1 0,-1 0,-1 -1,0 0,0 -1,1 0,1 0,0 0,1l2 -1c0,0 0,0 0,0z"/>
    <path class="fil1" d="M170 69c1,0 0,0 0,0l0 1c1,0 1,0 1,-1 0,0 0,-1 0,-1 0,0 0,0 0,0 0,0 0,0 0,0l0 0c0,0 -1,0 -1,0 0,0 1,-1 -1,-1 0,1 0,1 0,1 0,0 0,0 0,0l0 1c1,0 1,0 1,0z"/>
    <path class="fil9" d="M286 59c-2,-1 -3,1 -2,2 0,0 0,0 0,0 1,1 1,1 1,1 0,-2 0,-1 0,-2 0,-1 0,0 1,-1z"/>
    <path class="fil9" d="M267 28c0,0 0,0 -1,0 0,0 0,0 0,0 1,1 0,1 1,1 0,1 0,1 1,1 0,-1 -1,-1 -1,-2z"/>
    <g>
     <path class="fil0" d="M213 19c0,-1 1,-1 1,-2 0,-1 -1,-1 -1,-1 -1,0 -2,0 -2,1 0,0 0,0 0,0l0 1c1,1 0,1 2,1z"/>
     <path class="fil0" d="M197 16c0,1 0,1 0,1 0,-1 0,0 -1,-1l0 0c-1,0 -1,0 -1,0 0,1 0,0 -1,1 0,1 0,1 1,1 0,0 0,0 0,1 0,0 1,0 1,0 0,0 0,0 0,0 1,-1 1,-1 1,-1 0,-1 0,-1 0,-2z"/>
     <path class="fil0" d="M183 35c-1,0 -1,1 0,2 0,0 1,0 1,0 0,-1 0,-3 -1,-2z"/>
     <path class="fil0" d="M181 7c-1,1 -1,1 -1,1 1,1 1,1 2,1 0,0 0,-1 0,-2l-1 0z"/>
     <path class="fil0" d="M214 22l0 0c0,-1 1,0 0,-1l0 0c0,0 0,0 0,0 -1,0 -2,0 -2,1 0,0 1,0 1,0 1,0 0,0 1,0z"/>
     <path class="fil0" d="M197 20l-2 0c0,0 0,0 0,0 0,2 2,1 2,0z"/>
    </g>
    <path class="fil13" d="M247 28c0,0 0,1 0,1 0,0 0,0 0,-1zm-6 3c1,0 3,0 4,0 2,1 4,1 5,0 0,0 -1,-1 -1,-2 0,0 0,0 0,-1 0,0 0,0 -1,-1 0,1 0,1 -1,1 0,0 0,0 0,0 0,0 -1,0 -1,0 0,1 0,1 0,1l-1 0 0 0 -1 0c0,0 -2,1 -3,1 0,0 -1,-1 -2,-1l0 2c1,0 1,0 1,0 0,0 1,0 1,0 0,0 0,0 0,0z"/>
    <path class="fil14" d="M207 15c1,0 1,0 1,-1 0,0 0,0 0,0 1,-2 1,-1 2,-2 0,0 -1,0 -1,0 0,0 0,0 0,0l0 0 -2 -2c0,0 0,0 0,0l0 0c0,0 0,0 0,0l0 -1c-1,-1 -1,-1 -2,-1 -2,-1 -3,-1 -5,0 0,0 0,0 0,0 0,0 0,0 0,0l-1 0c0,1 -2,2 -2,2l-1 0c0,0 0,0 0,0l0 1c-1,0 -2,2 -2,2 -1,1 -1,1 -2,2 -1,1 0,2 -1,3 0,0 0,0 0,1 0,1 0,2 0,2 0,0 0,0 0,1 0,1 0,3 0,4 0,0 0,1 1,1l0 1c0,0 0,0 0,0 1,2 2,4 3,4 1,1 1,1 1,1 1,1 1,0 2,0l-1 1c0,0 0,0 0,0 1,0 0,0 2,1 1,0 4,0 5,-1 0,0 0,0 1,0 0,-1 0,-1 1,-1 0,0 0,0 0,0l1 -1c0,-1 1,-1 1,-2 0,0 0,0 -1,-1 -1,-1 -2,-6 -2,-7 1,-1 1,-2 1,-3 0,-1 0,0 0,-1 0,0 0,0 1,-3zm-5 13c2,-1 2,-3 3,-2 0,0 0,0 0,0 0,1 0,0 0,1 0,1 -1,2 -1,3 -1,0 -1,0 -1,0 0,1 0,1 -1,1 -1,1 0,1 -1,1 -1,0 -1,0 -1,-1 0,0 -1,0 -1,0 0,0 0,0 0,0 1,-1 1,-1 2,-2 2,-3 1,-2 2,-3 0,1 0,1 -1,2zm-2 -13c1,1 2,0 2,5 0,2 -1,2 -2,3 0,0 -1,0 -1,0 0,1 0,1 -1,1 0,0 -1,0 -2,0 -1,0 -1,0 -2,0 0,-1 -1,-1 -1,-2 -1,-2 -1,-4 1,-6 1,-2 0,-1 1,-2 1,-1 2,-1 3,-1 0,0 0,0 0,0l0 0c1,0 1,0 1,1 0,0 0,0 1,0 0,0 0,0 0,1z"/>
    <path class="fil15" d="M212 15c1,-1 4,-2 5,0 1,1 1,1 1,1 0,0 0,0 0,0 0,1 0,1 0,1l1 0c0,1 0,0 0,1 0,1 0,0 -1,0l1 0c0,1 0,1 0,1 0,0 0,0 0,0 0,1 0,0 0,1 0,1 0,2 -1,3 -1,1 -1,0 -1,1 -1,0 -1,0 -1,0 -2,1 -6,2 -7,-2 -1,-3 0,-3 0,-5 1,-1 1,-1 2,-2 0,0 0,0 1,0zm-3 15c0,0 0,0 0,0zm2 -17c0,1 -1,1 -2,2 -1,2 -1,2 -1,4 -1,2 -2,6 -1,8 1,1 0,0 1,0 0,0 -1,0 0,0l0 1c0,0 0,0 0,0 0,0 0,0 0,0 0,1 0,0 1,1 0,1 0,0 0,1 0,0 0,0 0,0 0,0 0,0 0,0 0,0 0,0 0,0 1,1 1,2 2,2l3 2c0,0 0,0 1,0 1,1 2,0 3,1 2,0 0,-1 3,-1l0 -1c1,0 1,0 2,-1 0,0 1,-1 2,-1 0,-1 0,-1 0,-1 1,-1 2,-3 2,-3 0,0 -1,0 -1,1 0,-1 0,0 0,-1l1 -3c1,-1 1,-7 1,-8 -1,0 0,0 -1,-1 0,-1 1,-1 0,-1 -1,-1 -1,-3 -2,-4l-3 -1c0,0 0,0 0,0 0,0 0,0 0,0 0,0 -1,0 -1,0 0,0 0,0 0,0l0 0c0,-1 0,0 0,-1 -1,0 -1,0 -2,1 0,0 -1,0 -1,0 -1,0 -2,0 -2,0 -1,1 -1,1 -1,1 0,0 0,0 0,0l-1 0c0,1 0,1 -1,1 0,0 0,1 0,1l-1 0 0 0c0,0 0,0 0,0 0,0 0,1 0,0 -1,0 0,0 -1,1zm8 17c0,0 0,0 0,0zm1 -2c1,0 1,0 1,0 0,1 1,-1 1,-1 1,-1 0,0 0,-1l1 0c-1,0 0,0 -1,0l1 0c0,0 0,-1 0,-1l0 -1c-1,0 0,0 -1,1 0,-1 0,-1 0,-1l0 0c1,0 0,1 1,-1 0,0 0,0 0,-1 0,1 0,0 0,0 0,0 0,0 1,1 0,-1 -1,-1 0,-1l0 -2c1,1 1,0 1,0 -1,1 -1,1 -1,2 1,-1 1,-1 1,-1 0,-1 0,-2 0,-2 0,-1 0,-1 0,-1 1,0 1,1 1,1 1,1 1,1 0,3 0,1 -1,4 -1,5l0 0 -1 3 -2 1c0,1 -2,2 -3,2 0,0 -1,0 -1,-1 -1,0 -1,1 -1,0 0,0 0,0 0,-1 0,0 0,0 1,-1 1,0 1,0 1,0 0,0 0,0 0,0 0,0 0,0 0,0 0,0 0,0 0,0l1 0c0,-1 0,-1 1,-1l-1 0c0,0 0,0 0,0 0,0 0,0 0,-1z"/>
    <path class="fil11" d="M223 38c0,0 0,0 0,0 0,0 0,0 0,0zm0 -30c0,1 2,2 3,2l0 1c0,0 0,0 1,0 0,1 0,1 1,2 0,1 0,2 1,3 0,0 0,1 0,1 0,1 1,4 1,5 0,2 -1,2 -1,3l-2 4c0,0 0,1 0,1 0,0 -1,1 -1,1 0,0 0,0 -1,1l-1 1c-1,1 -1,1 -1,2 -1,0 -2,0 -3,0 0,0 0,0 0,0l0 0c0,0 0,0 -1,0 0,0 0,0 0,1 0,0 0,0 -1,0l0 -1c-1,1 0,0 -2,1 0,0 0,0 0,0 0,0 0,0 0,0 0,1 0,1 1,1l0 1c1,0 2,0 3,0 0,0 1,0 1,0 0,0 0,0 0,0l1 0c0,0 0,0 1,0 0,0 0,0 0,0 0,0 0,0 0,0l3 -2c0,0 0,0 1,-1 0,0 0,0 0,0 1,-1 0,-1 1,-1 1,-1 0,-1 1,-1 0,0 1,-1 1,-2 1,-2 1,-3 2,-5 1,-1 1,-5 1,-6 0,-3 0,-4 0,-7 0,-1 0,-1 -1,-2 0,-1 0,-1 0,-1 0,-1 0,0 0,-1 -1,-1 -1,-2 -2,-2 0,0 0,0 0,0l-1 -1c0,0 -1,0 -1,-1l0 1c-1,-1 -1,-1 -1,-1 -2,-1 -5,-1 -7,0l0 0c-1,1 -2,2 -2,3 0,0 0,-1 1,-1 1,1 3,1 4,1z"/>
    <path class="fil11" d="M214 8c0,0 0,0 0,0zm-2 3l1 -1c1,-1 2,-1 1,-2 0,0 0,0 0,0 0,0 0,0 0,0 0,0 0,0 0,0 -1,-1 0,-1 -1,-1 0,-1 0,-1 -1,-2 -4,-2 -4,-1 -5,-1 -1,0 -3,1 -4,2 0,0 0,0 0,0 0,1 0,1 1,1 0,0 0,0 1,0l1 0c1,1 1,1 1,1 3,1 3,2 4,3l0 0c0,0 0,0 1,0z"/>
    <path class="fil4" d="M227 63c0,0 0,0 0,0 0,0 0,0 0,0zm5 1c0,0 0,0 0,0zm0 1c0,0 0,0 0,0zm25 4c0,0 0,0 0,0zm28 -16c0,0 0,0 0,0 0,0 0,0 0,0zm1 2c0,0 0,0 0,0l0 0zm-6 -3c0,0 0,0 0,0 0,0 0,0 0,0zm-5 -2c0,0 0,0 0,0 0,0 0,0 0,0zm0 0c0,0 0,0 0,0zm-20 -9c0,0 0,0 0,0zm-2 0c-1,0 -1,0 -2,0 -2,-1 -4,0 -6,-1l-3 0c-1,0 -2,0 -3,0 0,0 -1,-1 -2,-1 0,0 -1,0 -1,0 -1,0 -2,0 -3,0 -1,0 -1,0 -2,0 -1,0 -1,0 -1,0 -1,0 -1,0 -2,0 0,0 -3,0 -3,0 -1,0 -1,0 -2,0l0 0c-1,1 -5,1 -6,0 -1,0 0,1 -1,0 0,0 0,0 0,0 0,1 -1,1 -1,1l-1 1c-1,0 -3,2 -4,2l-2 2c0,0 0,0 0,0 1,0 1,0 1,0l0 1c0,-1 -1,-1 -1,-1l-1 1c0,1 0,1 0,1 0,1 0,2 0,2 0,2 -1,4 0,5 0,2 0,3 0,5 0,1 0,3 0,4 0,0 0,1 0,1 0,0 0,0 0,0l0 0c0,0 0,0 -1,0l0 2c0,0 0,0 0,0l0 1c1,1 1,2 2,2 0,0 0,0 0,0 0,0 1,0 1,-1 0,0 0,0 0,0 1,-1 0,-1 1,-2 0,-1 1,-1 2,-2 0,0 1,-1 2,-1l4 0c1,0 5,-1 6,0 0,0 0,0 0,0l1 0c2,0 1,1 2,1 0,0 0,-1 0,-1 0,0 0,0 0,0 0,0 0,0 0,0 0,0 0,0 0,0 0,0 0,0 0,0 2,0 1,0 2,1 1,0 0,0 0,0l0 0c0,0 -1,0 -1,0 0,1 0,0 1,0 0,1 1,0 2,0 0,0 -1,0 0,0 0,-1 0,-1 1,0 0,0 0,0 0,0 0,0 0,0 0,0 -1,0 -1,0 -1,0l1 1c0,0 0,0 0,0 0,0 0,0 0,0 -1,0 -1,0 -2,0 1,0 2,0 2,1 2,0 1,0 1,0 0,0 1,1 1,1 0,0 0,0 0,0 0,-1 0,-1 -1,-2 0,0 0,0 0,0 0,-1 0,0 -1,0 0,-1 0,-1 -1,-1l1 0 0 0c1,0 2,2 2,2 0,0 0,0 1,0 0,0 0,0 0,0 0,0 0,0 1,-1 1,0 2,-1 4,-1 1,0 2,-1 3,-1 2,1 3,1 5,1l1 0c1,1 2,0 3,1 0,0 0,0 1,0l1 1c0,0 0,0 -1,0l1 0c0,0 0,0 0,0l1 2c0,0 1,0 1,1 0,0 0,0 0,0 1,0 1,1 1,2 1,2 1,2 1,3 0,1 0,0 0,1 0,-1 0,-1 0,-1 0,-1 0,0 0,-1 0,0 0,-1 0,-2 0,-1 0,0 0,-1 0,0 0,0 0,0 -1,0 -1,0 -1,0 0,0 0,0 0,-1 0,0 0,0 0,0 1,0 1,1 1,2 1,-1 3,0 4,0 0,0 0,0 1,0l0 -1c1,0 0,0 1,0l0 -1c0,0 0,0 0,0l1 -1c0,0 0,0 0,0l-3 0c-1,0 -2,0 -3,0 0,0 -1,0 -1,0 0,1 0,1 -1,1l0 -1c-1,0 1,0 -1,1 0,-1 0,-1 1,-2 1,0 1,0 3,-1 0,0 0,0 0,0 0,0 0,0 1,0l0 0c0,0 0,0 0,0l1 0c0,0 0,0 0,0 0,0 0,0 0,0 0,0 0,0 0,0l1 -1c0,0 1,0 1,0l0 0c2,0 2,0 3,0 1,0 1,0 1,0 1,0 2,0 3,0 1,0 1,0 1,1 1,0 2,1 3,1l1 1 2 -1c1,0 1,0 1,0 0,0 0,0 1,0l2 -1c2,0 3,0 5,0l2 0c1,0 1,0 2,0l0 0c0,0 0,0 0,0 0,0 0,0 0,0 0,1 1,1 2,1 -1,-1 0,-1 0,-2 -1,0 -1,0 -1,-1 -1,-1 -1,-2 -1,-3l-2 0 0 0 -1 0c-1,1 0,1 -1,2 -1,1 -1,1 -2,2 0,0 0,0 -1,0 -1,1 -1,0 -2,0 -1,0 -2,0 -3,0 0,-1 0,0 -1,0 -1,-1 -1,-1 -2,-2 -1,-1 0,-5 0,-6 1,-2 2,-2 2,-3 1,0 0,0 1,0 1,0 1,-1 2,-1 0,0 1,0 2,0 1,0 0,0 0,0 1,1 1,0 2,0 0,0 0,1 0,1 0,1 0,0 0,1l1 0c0,0 0,0 -1,0 1,0 1,0 1,0 0,1 0,1 0,1 0,0 1,0 1,1 0,0 0,0 0,1 0,0 1,0 1,0 0,1 -1,1 -1,1 0,0 0,0 0,0 1,0 1,0 1,0 1,0 1,0 1,-1 1,0 1,0 2,0 -1,-1 -1,-1 -1,-2 0,0 0,0 0,-1 0,0 -1,-1 -1,-1 0,0 0,-1 -1,-1l-3 -1c-1,0 -2,0 -3,0 0,0 0,0 -1,0l0 0c0,0 0,0 -1,0 0,0 0,0 0,0 -1,0 0,0 -1,0 -1,-1 -1,-1 -1,-1 0,0 0,0 -1,0 -1,0 -2,0 -3,0 0,0 0,0 0,0 1,0 1,0 2,0 0,0 1,0 1,0 0,0 0,0 0,0l1 0c0,0 -1,0 -1,-1 -1,0 -1,0 -2,0l0 0c0,0 0,0 0,0l-1 -1c-1,0 -1,-1 -2,-2 0,-1 -1,-1 -1,-2 -1,0 -1,-1 -2,-1 1,0 0,0 1,0 -1,-1 -1,-2 -2,-2l0 0 0 0c-1,0 -1,0 -2,0 -1,0 -3,0 -4,0 -2,0 -5,-1 -7,-1 0,0 0,0 0,0 0,0 0,0 -1,0 0,0 0,0 -1,0zm-21 7c0,0 0,0 0,0zm-14 -1c0,0 0,1 0,0 0,0 0,0 0,0zm35 1c-1,1 0,1 -2,1 -1,0 -1,0 -2,0 -1,0 -3,0 -3,0 0,0 0,0 -1,0 -1,0 -1,0 -3,0l-6 -1c-1,0 0,0 -1,0 -1,0 -1,0 -1,0 -1,0 -2,0 -2,0 0,0 0,0 0,0 0,0 0,0 0,0 -1,0 -3,0 -3,-1l-6 0c0,0 -2,0 -2,0 -1,0 0,0 -1,0 0,0 0,0 0,0 0,0 0,0 0,0l0 0c-1,0 0,0 -2,0 0,0 0,0 0,0 0,0 0,0 0,0 0,0 0,0 0,0 -1,0 -1,0 -2,0 0,0 0,0 0,0l0 0c0,0 0,-1 0,-1 0,1 0,0 0,0l0 1c0,0 -1,0 -1,0 0,-1 -1,-1 -1,-1 0,-1 0,-3 0,-3 1,0 1,0 1,-1 0,0 0,0 1,0 0,0 0,0 1,0 1,0 1,0 2,0 1,0 1,1 2,1 1,0 3,0 4,0l4 0c2,1 5,0 6,1 2,0 5,0 7,0 1,1 4,0 5,1l4 0c1,0 1,0 2,0 0,1 0,1 1,2 0,1 0,1 -1,1zm-17 2c0,0 0,0 0,0zm16 2c2,0 1,-1 1,3l-1 0c0,1 0,1 0,1 -1,0 -2,-1 -3,-1 0,0 -1,0 -2,0 -2,0 -2,0 -5,0 -2,0 -4,-1 -7,-1 -3,0 -8,0 -10,0 -1,0 -2,0 -3,0 -1,0 -1,-1 -2,-1l-5 -1c0,0 0,0 0,0 0,0 0,-1 0,-1 0,0 0,1 0,1 0,0 0,0 0,0 0,0 0,0 0,0 0,0 0,0 0,0 0,0 0,1 -1,0 0,0 0,0 0,0 0,-1 0,-1 1,-2 0,0 0,0 0,0 1,-1 4,-1 5,-1 2,0 3,1 5,1 1,0 1,0 2,0 1,0 2,0 3,0 0,0 0,0 1,0 1,0 3,0 4,0 0,0 0,0 0,0 1,0 1,0 1,0 0,0 0,0 0,0l2 0c0,1 0,0 1,1l0 0c0,0 0,0 1,0l8 1c1,0 2,-1 3,-1 1,1 1,0 1,1zm2 6c0,1 0,2 -1,3 0,0 1,1 -4,1 -1,0 -5,0 -6,-1 -2,0 -5,0 -7,0 -1,0 -1,0 -2,-1 -1,0 -2,0 -3,0l-7 0c0,0 -1,0 -1,0 -1,0 -2,0 -3,0 -1,0 -4,0 -3,-1 0,0 0,0 0,0 -1,0 -1,-1 -2,-1l0 0c0,0 0,1 0,1l0 0c0,0 0,0 0,0 -1,-1 -1,-2 -1,-2 0,0 0,0 0,-1 1,0 1,0 1,0 1,-1 3,0 4,-1l0 0 9 1c2,0 4,0 5,1l-5 -1c0,0 -3,0 -3,0 0,0 0,0 0,0 0,0 0,0 0,0l2 1c1,0 1,0 2,0 2,0 4,0 5,0 2,0 4,1 5,1 2,0 1,0 3,0 0,0 2,0 2,0 -1,-1 -1,-1 -2,-1l3 0c0,0 -1,0 0,0l7 0c1,0 1,0 1,1 1,0 0,0 1,0z"/>
    <path class="fil4" d="M234 34c0,0 0,0 0,0 0,0 0,0 0,0zm7 5l7 0c0,0 1,0 2,0 1,0 2,1 4,1 0,0 1,0 2,0 0,0 0,-1 0,-1 0,0 0,0 0,0 0,-1 -1,-2 -1,-2 0,-1 0,0 0,-1 0,-1 0,-3 0,-4l-1 0c0,1 0,1 0,1 0,0 0,0 -1,0 0,-1 -1,0 -1,0 0,0 0,0 -1,0 0,0 0,0 -1,0 -2,0 -3,0 -5,0 -2,0 -3,0 -5,0l-4 0 0 0c-1,1 -2,0 -3,0 0,1 1,1 1,1 0,0 0,0 0,0l0 4c1,1 2,1 3,1 1,0 1,0 1,0 1,0 1,0 1,0 1,0 2,0 2,0z"/>
    <path class="fil16" d="M262 68c-1,0 -2,0 -3,0 0,0 -1,0 -1,0 0,1 0,1 -1,1 1,0 1,1 1,2 1,-1 3,0 4,0 0,0 0,0 1,0l0 -1c1,0 0,0 1,0l0 -1c0,0 0,0 0,0l1 -1c0,0 0,0 0,0l-3 0z"/>
    <path class="fil8" d="M188 60c0,-5 0,-4 0,-8 0,-3 0,-2 -1,-3 -1,0 0,0 0,0 0,0 -1,0 -1,0 1,0 1,0 0,0 0,0 1,0 0,0 0,1 0,1 1,1 0,0 0,0 0,0l0 0c0,0 0,0 0,0 -1,0 0,0 0,2l-1 4c0,0 1,1 0,1 0,1 0,0 0,1 0,1 0,2 0,4 0,1 0,2 1,2 1,0 0,-2 1,-4z"/>
   </g>
  </g>
 </g>
</svg>
