<?xml version="1.0" encoding="UTF-8"?>
<!DOCTYPE svg PUBLIC "-//W3C//DTD SVG 1.1//EN" "http://www.w3.org/Graphics/SVG/1.1/DTD/svg11.dtd">
<!-- Creator: CorelDRAW X7 -->
<svg xmlns="http://www.w3.org/2000/svg" xml:space="preserve" width="100px" height="100px" version="1.1" style="shape-rendering:geometricPrecision; text-rendering:geometricPrecision; image-rendering:optimizeQuality; fill-rule:evenodd; clip-rule:evenodd"
viewBox="0 0 100 100"
 xmlns:xlink="http://www.w3.org/1999/xlink">
 <defs>
  <style type="text/css">
   <![CDATA[
    .fil0 {fill:#A8B5D3}
   ]]>
  </style>
 </defs>
 <g id="Layer_x0020_1">
  <metadata id="CorelCorpID_0Corel-Layer"/>
  <path class="fil0" d="M27 70c10,0 31,-12 40,-19 3,-3 6,-5 9,-8 1,-2 0,-1 1,-2 -1,3 -11,11 -14,13 -2,2 -5,4 -8,5l-9 5c-4,2 -28,13 -30,4 0,-2 0,-3 1,-5 2,-2 3,-2 3,-5 -2,1 0,0 -2,1 0,0 -1,1 -1,1 -1,2 -5,9 -2,11 4,4 13,0 18,0 -3,2 -28,8 -19,-7 3,-6 4,-4 5,-7 -2,1 -7,7 -8,11 -2,8 8,6 13,6 -1,0 0,0 -1,1l-4 0c-16,1 -8,-11 -2,-17 2,-2 2,-2 2,-4 -2,0 -20,17 -13,23 6,5 26,-2 32,-5 11,-5 30,-15 38,-22l5 -5c4,-4 14,-13 11,-19 -2,-7 -21,-2 -23,0 0,0 0,1 -2,0 -6,-4 -13,-6 -21,-5 -6,1 -10,3 -14,6 -2,1 -8,8 -9,11 -5,12 -4,24 4,32zm8 7c9,9 34,5 42,-11 2,-4 5,-11 4,-17 -7,7 -24,17 -34,22 -4,2 -11,5 -12,6z"/>
 </g>
</svg>
