<?xml version="1.0" encoding="UTF-8"?>
<!DOCTYPE svg PUBLIC "-//W3C//DTD SVG 1.1//EN" "http://www.w3.org/Graphics/SVG/1.1/DTD/svg11.dtd">
<!-- Creator: CorelDRAW X7 -->
<svg xmlns="http://www.w3.org/2000/svg" xml:space="preserve" width="1000px" height="1000px" version="1.1" style="shape-rendering:geometricPrecision; text-rendering:geometricPrecision; image-rendering:optimizeQuality; fill-rule:evenodd; clip-rule:evenodd"
viewBox="0 0 1000 1000"
 xmlns:xlink="http://www.w3.org/1999/xlink">
 <defs>
  <style type="text/css">
   <![CDATA[
    .fil6 {fill:#FEFEFE}
    .fil4 {fill:#2B2A29}
    .fil28 {fill:#7688A1}
    .fil0 {fill:#1C1B17}
    .fil2 {fill:#0B0B0B}
    .fil5 {fill:#EDEDED}
    .fil1 {fill:white}
    .fil27 {fill:url(#id0)}
    .fil17 {fill:url(#id1)}
    .fil33 {fill:url(#id2)}
    .fil3 {fill:url(#id3)}
    .fil26 {fill:url(#id4)}
    .fil10 {fill:url(#id5)}
    .fil21 {fill:url(#id6)}
    .fil8 {fill:url(#id7)}
    .fil16 {fill:url(#id8)}
    .fil14 {fill:url(#id9)}
    .fil24 {fill:url(#id10)}
    .fil23 {fill:url(#id11)}
    .fil25 {fill:url(#id12)}
    .fil29 {fill:url(#id13)}
    .fil15 {fill:url(#id14)}
    .fil22 {fill:url(#id15)}
    .fil9 {fill:url(#id16)}
    .fil11 {fill:url(#id17)}
    .fil18 {fill:url(#id18)}
    .fil7 {fill:url(#id19)}
    .fil19 {fill:url(#id20)}
    .fil30 {fill:url(#id21)}
    .fil13 {fill:url(#id22)}
    .fil12 {fill:url(#id23)}
    .fil20 {fill:url(#id24)}
    .fil32 {fill:url(#id25)}
    .fil31 {fill:url(#id26)}
   ]]>
  </style>
  <linearGradient id="id0" gradientUnits="userSpaceOnUse" x1="200.486" y1="506.573" x2="797.161" y2="506.573">
   <stop offset="0" style="stop-opacity:1; stop-color:#7690C9"/>
   <stop offset="0.329412" style="stop-opacity:1; stop-color:#8FA2D3"/>
   <stop offset="0.470588" style="stop-opacity:1; stop-color:#FEFEFE"/>
   <stop offset="0.760784" style="stop-opacity:1; stop-color:#869BCF"/>
   <stop offset="1" style="stop-opacity:1; stop-color:#FEFEFE"/>
  </linearGradient>
  <linearGradient id="id1" gradientUnits="userSpaceOnUse" x1="337.173" y1="361.679" x2="687.807" y2="361.679">
   <stop offset="0" style="stop-opacity:1; stop-color:#D2CDE7"/>
   <stop offset="0.25098" style="stop-opacity:1; stop-color:#FEFEFE"/>
   <stop offset="0.760784" style="stop-opacity:1; stop-color:#869BCF"/>
   <stop offset="1" style="stop-opacity:1; stop-color:#7690C9"/>
  </linearGradient>
  <linearGradient id="id2" gradientUnits="userSpaceOnUse" x1="567.762" y1="240.904" x2="467.856" y2="-81.0272">
   <stop offset="0" style="stop-opacity:1; stop-color:#FFF383"/>
   <stop offset="0.490196" style="stop-opacity:1; stop-color:#FEFEFE"/>
   <stop offset="1" style="stop-opacity:1; stop-color:#FFF383"/>
  </linearGradient>
  <linearGradient id="id3" gradientUnits="userSpaceOnUse" xlink:href="#id0" x1="533.982" y1="929.982" x2="533.982" y2="839.871">
  </linearGradient>
  <radialGradient id="id4" gradientUnits="userSpaceOnUse" gradientTransform="matrix(1.73962 -0 -0 1.73951 -570 -378)" cx="770.853" cy="511.559" r="65.2465" fx="770.853" fy="511.559">
   <stop offset="0" style="stop-opacity:1; stop-color:#FEFEFE"/>
   <stop offset="0.670588" style="stop-opacity:1; stop-color:#8FA2D3"/>
   <stop offset="1" style="stop-opacity:1; stop-color:#7690C9"/>
  </radialGradient>
  <radialGradient id="id5" gradientUnits="userSpaceOnUse" gradientTransform="matrix(1.61114 -0 -0 1.61126 -115 -313)" xlink:href="#id4" cx="188.629" cy="512.184" r="89.2276" fx="188.629" fy="512.184">
  </radialGradient>
  <radialGradient id="id6" gradientUnits="userSpaceOnUse" gradientTransform="matrix(1.50007 -0 -0 1.50019 -388 -238)" xlink:href="#id4" cx="776.662" cy="476.585" r="131.705" fx="776.662" fy="476.585">
  </radialGradient>
  <radialGradient id="id7" gradientUnits="userSpaceOnUse" gradientTransform="matrix(1.59142 -0 -0 1.59151 -211 -308)" cx="357.43" cy="521.535" r="123.787" fx="357.43" fy="521.535">
   <stop offset="0" style="stop-opacity:1; stop-color:#FEFEFE"/>
   <stop offset="0.670588" style="stop-opacity:1; stop-color:#E31E24"/>
   <stop offset="1" style="stop-opacity:1; stop-color:#E31E24"/>
  </radialGradient>
  <radialGradient id="id8" gradientUnits="userSpaceOnUse" gradientTransform="matrix(1.63175 -0 -0 1.63175 -294 -209)" xlink:href="#id4" cx="465.943" cy="331.192" r="1762.27" fx="465.943" fy="331.192">
  </radialGradient>
  <radialGradient id="id9" gradientUnits="userSpaceOnUse" gradientTransform="matrix(1.57648 -0 -0 1.57635 -160 -321)" xlink:href="#id4" cx="277.17" cy="556.251" r="119.27" fx="277.17" fy="556.251">
  </radialGradient>
  <radialGradient id="id10" gradientUnits="userSpaceOnUse" gradientTransform="matrix(1.63768 -0 -0 1.63775 -449 -324)" xlink:href="#id4" cx="704.617" cy="507.632" r="93.9166" fx="704.617" fy="507.632">
  </radialGradient>
  <radialGradient id="id11" gradientUnits="userSpaceOnUse" gradientTransform="matrix(1.72591 -0 -0 1.72584 -504 -341)" xlink:href="#id4" cx="694.048" cy="470.372" r="97.9902" fx="694.048" fy="470.372">
  </radialGradient>
  <radialGradient id="id12" gradientUnits="userSpaceOnUse" gradientTransform="matrix(1.55777 -0 -0 1.55791 -417 -293)" xlink:href="#id4" cx="747.628" cy="525.813" r="98.3481" fx="747.628" fy="525.813">
  </radialGradient>
  <radialGradient id="id13" gradientUnits="userSpaceOnUse" gradientTransform="matrix(1.71446 -0 -0 1.71448 -394 -467)" xlink:href="#id4" cx="550.791" cy="653.693" r="152.642" fx="550.791" fy="653.693">
  </radialGradient>
  <radialGradient id="id14" gradientUnits="userSpaceOnUse" gradientTransform="matrix(1.67516 -0 -0 1.67509 -194 -346)" xlink:href="#id4" cx="286.976" cy="511.921" r="130.152" fx="286.976" fy="511.921">
  </radialGradient>
  <radialGradient id="id15" gradientUnits="userSpaceOnUse" gradientTransform="matrix(1.74317 -0 -0 1.74325 -586 -340)" xlink:href="#id4" cx="788.572" cy="457.183" r="119.097" fx="788.572" fy="457.183">
  </radialGradient>
  <radialGradient id="id16" gradientUnits="userSpaceOnUse" gradientTransform="matrix(1.73729 -0 -0 1.73721 -146 -422)" xlink:href="#id4" cx="198.098" cy="572.956" r="83.9245" fx="198.098" fy="572.956">
  </radialGradient>
  <radialGradient id="id17" gradientUnits="userSpaceOnUse" gradientTransform="matrix(1.53347 -0 -0 1.53359 -113 -284)" xlink:href="#id4" cx="211.168" cy="532.513" r="109.508" fx="211.168" fy="532.513">
  </radialGradient>
  <radialGradient id="id18" gradientUnits="userSpaceOnUse" gradientTransform="matrix(1.57717 -0 -0 1.57711 -377 -302)" xlink:href="#id7" cx="653.174" cy="524.113" r="81.5245" fx="653.174" fy="524.113">
  </radialGradient>
  <radialGradient id="id19" gradientUnits="userSpaceOnUse" gradientTransform="matrix(1.72959 -0 -0 1.72954 -200 -227)" xlink:href="#id4" cx="273.775" cy="310.605" r="119.46" fx="273.775" fy="310.605">
  </radialGradient>
  <radialGradient id="id20" gradientUnits="userSpaceOnUse" gradientTransform="matrix(1.73801 -0 -0 1.73792 -539 -210)" xlink:href="#id4" cx="729.941" cy="284.349" r="105.307" fx="729.941" fy="284.349">
  </radialGradient>
  <radialGradient id="id21" gradientUnits="userSpaceOnUse" gradientTransform="matrix(1.70169 -0 -0 1.728 -333 -482)" xlink:href="#id4" cx="475.056" cy="662.289" r="152.642" fx="475.056" fy="662.289">
  </radialGradient>
  <radialGradient id="id22" gradientUnits="userSpaceOnUse" gradientTransform="matrix(1.66316 -0 -0 1.66327 -158 -391)" xlink:href="#id4" cx="237.688" cy="589.587" r="91.7717" fx="237.688" fy="589.587">
  </radialGradient>
  <radialGradient id="id23" gradientUnits="userSpaceOnUse" gradientTransform="matrix(1.697 -0 -0 1.69705 -163 -377)" xlink:href="#id4" cx="233.78" cy="540.213" r="122.015" fx="233.78" fy="540.213">
  </radialGradient>
  <radialGradient id="id24" gradientUnits="userSpaceOnUse" gradientTransform="matrix(1.63639 -0 -0 1.63636 -481 -306)" xlink:href="#id4" cx="756.526" cy="480.131" r="109.719" fx="756.526" fy="480.131">
  </radialGradient>
  <radialGradient id="id25" gradientUnits="userSpaceOnUse" gradientTransform="matrix(1.72877 -0 -0 1.72873 -488 -95)" xlink:href="#id7" cx="670.151" cy="130.239" r="151.71" fx="670.151" fy="130.239">
  </radialGradient>
  <radialGradient id="id26" gradientUnits="userSpaceOnUse" gradientTransform="matrix(1.73689 -0 -0 1.73685 -262 -100)" xlink:href="#id7" cx="356.17" cy="135.324" r="148.286" fx="356.17" fy="135.324">
  </radialGradient>
 </defs>
 <g id="Layer_x0020_1">
  <metadata id="CorelCorpID_0Corel-Layer"/>
  <g id="_608382672">
   <path class="fil0" d="M372 151c-1,1 -3,1 -5,3 0,0 0,0 0,0 -1,0 -1,0 -1,0 -2,0 -3,0 -5,1 -1,-1 -3,-1 -5,-2 -4,0 -5,-2 -7,-4 -1,-1 -1,-3 -3,-5 0,-1 0,-2 -1,-3 0,-1 0,-2 0,-4 -1,-4 0,-3 0,-6 5,-9 20,-12 29,-2 1,2 1,2 1,4 2,6 1,5 -1,10 0,3 -1,6 -2,8zm-28 -21c-2,1 -1,3 -2,5 0,1 0,1 0,3 -1,1 -2,2 -3,3 1,1 1,1 1,2 -2,4 -2,7 -1,10 2,5 5,5 7,6 3,1 7,-2 8,-2 4,1 9,2 13,3 1,1 1,1 2,2 1,2 1,2 3,4 4,4 7,14 11,19 1,1 1,3 2,4 0,0 -10,7 -10,8 0,0 2,-1 3,-2 4,-1 8,-4 8,-4 1,0 2,0 3,-2l8 -4c2,-2 3,-1 5,-2 1,-1 8,-5 8,0 1,3 -5,4 -5,6 1,1 4,0 7,0 -1,3 -10,10 -13,12 -1,1 -2,2 -3,2 -1,1 0,1 -2,1 -4,2 -8,6 -10,4 -4,-3 4,-8 4,-8 1,-1 0,0 1,-1 0,-1 1,-2 -3,-1 -2,1 -4,3 -6,3 -1,-1 -1,-1 -2,-3 -1,-2 -1,-2 -3,-1 -2,4 4,11 6,15 1,2 2,5 3,7 1,3 3,4 3,8 -6,5 -13,9 -17,16 -3,4 -3,3 -5,8 -1,2 -2,3 -3,4 -1,4 -3,6 -4,9 -2,3 -3,6 -5,9 0,3 -6,19 -7,20 -4,1 -5,-1 -10,-1 -4,1 -5,4 -9,2 -3,-1 -6,-3 -9,-3 -5,1 -5,2 -7,6 -6,0 -14,-5 -17,4 -8,0 -8,-1 -14,-3 -4,-1 -15,2 -15,7 5,0 6,-6 11,-4 9,2 3,7 10,14 3,2 6,3 2,7 -4,5 -12,6 -18,1 -2,-2 -6,-9 -6,-13 1,-1 1,-2 1,-4 0,0 1,1 0,-1 -4,2 -1,12 -2,19 0,3 -2,6 -2,9 1,1 -11,55 -7,55 2,-1 9,-55 10,-58 0,-1 1,-5 1,-6 3,0 4,2 4,5 1,1 1,3 1,4 0,2 -9,50 -8,51 2,1 9,-53 11,-54 4,-3 12,3 20,-9 1,-2 0,-2 2,-4 2,0 2,3 6,4 4,2 6,0 10,1 3,4 -1,2 5,6 3,3 6,1 8,3 2,1 3,4 5,5 2,2 5,2 8,3 -5,1 -5,0 -6,10 0,6 -1,11 -1,16 1,9 8,8 10,14 1,3 1,5 1,8 -6,4 -7,1 -7,14 -2,27 9,24 14,30 1,2 6,11 7,15 3,8 6,15 11,21 3,5 5,9 8,14l9 13c2,2 4,3 4,7 0,2 -12,10 -15,10 -6,1 -9,-7 -20,-1 -14,8 -6,27 8,29 7,0 9,-3 13,-6 9,-7 -3,-12 13,-17 3,-2 7,-4 10,-4 1,2 2,4 3,5l4 5c4,4 9,8 13,13 2,2 3,3 5,4 3,3 1,2 1,6 0,2 1,4 1,8 0,6 0,8 2,13 1,3 6,9 9,10 4,1 3,-1 6,2 5,3 5,5 8,10 1,2 1,5 3,6 1,-1 1,-1 1,-2 0,-2 -1,-12 -3,-13 -2,-2 -3,0 -3,-3 5,-2 11,-2 15,-4l-3 -4c-6,0 -2,-2 -5,-4 -1,1 0,0 -1,1l-2 4c-3,0 -3,-2 -3,-4 -1,-4 -2,-5 -1,-8 4,0 5,1 6,5 5,-1 3,-3 9,1 2,2 4,1 8,2 -1,5 5,3 10,3 -3,4 -20,-3 -18,4 4,2 17,-2 20,2 2,3 0,30 -3,32 -2,0 -3,0 -5,0 -2,1 -1,2 -1,4 -3,1 -4,-1 -7,-1 -3,0 -5,1 -8,1 -1,-2 -3,-12 -5,-16 0,0 0,0 -1,0 -2,2 3,20 6,21 4,2 3,0 6,9 1,2 1,3 2,5 1,4 4,13 4,18 -5,3 -3,1 -6,6 -1,3 -3,6 -3,10 -1,6 4,14 7,17 7,6 4,0 9,17 1,7 3,14 4,21 1,3 1,7 1,11 1,4 2,5 2,11 0,11 1,24 2,35 1,4 0,8 1,12 1,7 1,9 1,11 1,2 1,9 1,11 -5,4 -4,2 -8,10 -2,4 -2,10 -3,15 -7,4 -25,-1 -30,3 -4,6 -2,11 -1,17 1,5 2,17 -1,20 -2,2 -2,4 -5,5 -4,1 -5,2 -7,4 -2,1 -1,1 -2,3 0,2 0,4 0,5 1,2 5,3 8,4 4,1 3,6 9,11 5,4 16,0 19,3 1,1 2,5 3,7 1,3 3,4 4,7 1,2 3,4 4,6 2,1 3,3 6,3 0,0 32,-3 32,-3 0,-1 -31,2 -31,1 -2,-3 -7,-4 -7,-8 5,0 19,11 22,1 -3,0 -3,2 -5,2 -2,-1 -12,-5 -15,-6 -6,-3 -5,0 -8,-6 -1,-3 -2,-7 -2,-11 2,1 4,3 6,5l6 4c3,1 8,-4 10,-6 2,-1 2,-1 3,-4 -5,1 -7,6 -12,7 -3,-1 -4,-3 -5,-5 -3,-2 -3,-2 -5,-5 -2,-1 -4,-3 -4,-5 -1,-2 -1,-8 -1,-10 7,1 8,14 17,13 3,-1 5,-5 7,-7 3,-2 4,-3 6,-5 1,-2 0,-2 2,-2 1,2 1,13 2,17 1,5 3,10 3,16 3,3 2,4 6,7 2,2 4,6 5,7 3,2 4,-1 6,-2 4,-2 2,0 6,-4 2,-3 2,-1 4,-5 1,-2 2,-5 3,-6 3,2 1,6 9,11 3,2 2,2 6,2 6,0 14,-3 25,-3 4,0 8,-1 11,-3 6,-4 10,-9 12,-16 1,-4 2,-8 3,-11 8,0 23,2 27,-8 2,-3 5,-2 8,-4 2,-1 2,-1 3,-2 5,-4 7,-2 4,-12 -1,-5 -1,-5 -7,-6 -5,0 -8,2 -11,1 -4,-5 -1,-11 -3,-18 -2,-11 0,-23 -8,-24 -9,0 -29,3 -32,2 -1,-4 -1,-4 -4,-7 -2,-3 -1,-3 -5,-6 -4,-1 -6,0 -10,-2 -3,-1 -4,-3 -4,-7 -2,-11 -2,-21 -1,-31 0,-27 2,-51 4,-82l-1 -3c-6,6 -9,118 -11,122 -3,-1 -3,-4 -3,-8 1,-6 3,-110 1,-114 -2,0 -2,0 -3,3 0,5 -3,95 -3,100 -1,3 -1,17 -1,18 -1,2 -7,6 -8,12 -1,5 2,15 -7,12 -1,-6 2,-8 -3,-15 -2,-3 -1,-3 -5,-4 -10,-2 -11,-4 -13,-14 -1,-2 -2,-5 -2,-7 -1,-3 -1,-5 -2,-8 0,-2 -1,-6 -1,-8l-4 -32c0,-4 -1,-5 -2,-8 0,-6 -1,-7 -1,-12 0,-1 0,-1 -1,-2 0,-3 -1,-9 -1,-9 0,0 -1,0 -1,0l1 12c0,2 0,3 0,5 1,5 1,6 1,11 0,4 1,6 1,10l2 31c1,3 1,6 2,9 0,1 3,12 -2,9 -1,-1 -1,-2 -1,-2 -4,0 -1,-1 -3,1 -3,-7 -1,-19 -3,-27 -1,-8 1,-22 -1,-29l-4 -27c-1,-5 -1,-8 -2,-13 -1,-3 0,-4 0,-6 0,-2 -2,-3 -2,-6 1,-1 4,-2 7,-1 1,1 2,3 1,4 -1,2 -2,0 -4,3 2,1 2,0 4,0 2,5 0,10 2,14 1,1 1,1 2,2 0,-1 0,0 0,-1 2,-4 -2,-23 2,-28 8,-8 6,-12 2,-23 -1,-4 -4,-7 -6,-9 -5,-5 -6,-2 -6,-10 -1,-4 -1,-4 -2,-7 -1,-4 -2,-9 -2,-14 -1,-6 1,-3 3,-7 1,-3 1,-7 1,-10 1,-5 2,-8 3,-14 1,-15 -4,-18 15,-17 14,0 29,-3 43,-5 4,0 4,0 6,2 1,1 3,2 5,4 1,6 -1,12 0,19 0,6 -3,14 -2,17 1,4 4,3 4,6 0,2 -1,8 -1,9 -1,3 -3,13 -5,14 -1,1 -6,2 -7,3 -6,2 -10,13 -10,19 2,11 10,13 12,18 0,2 1,6 2,8 2,-2 0,-3 2,-6 3,0 5,0 7,1 5,3 2,3 4,5 2,-2 1,-5 4,-6 5,-2 9,-4 11,-9 2,-7 -2,-19 -5,-24 -3,-4 -3,-3 -2,-8 1,-5 5,-19 10,-21 4,-2 2,-1 4,-6 2,-7 10,-37 12,-39 2,-1 5,0 10,-3 7,-3 6,-5 6,-12 0,-2 1,-3 1,-5 0,-10 -3,-14 5,-20 6,-4 3,-3 7,-6 3,-2 3,-3 7,-4 11,-3 5,8 10,13 4,5 13,8 19,5 2,-1 5,-4 6,-6 2,-3 4,-4 4,-9 0,-7 -6,-12 -12,-13 -9,0 -7,2 -11,2 -2,0 -3,-1 -3,-3 0,-2 6,-9 7,-11 1,-2 1,-2 3,-3 2,-2 1,-1 2,-4l1 -2c1,-1 1,-4 3,-7 1,-2 1,-6 2,-10 1,-3 3,-5 4,-9l6 -18c1,-4 1,-7 2,-10 2,-4 5,-14 8,-17 1,-1 2,-1 3,-3 2,-1 2,-1 3,-3 4,-9 4,-23 2,-33 -1,-6 -1,-4 -5,-7 -1,-6 4,-6 5,-11 2,-6 0,-9 -1,-15 -2,-24 -4,-18 -12,-21 0,-4 7,-4 11,-5 3,-1 2,-3 3,-5 2,-2 4,-1 6,-2 3,-1 3,-2 4,-4 3,-5 7,-2 12,-7 2,-2 3,-1 6,-2 2,-1 2,-2 6,0 8,3 5,2 9,17 1,5 1,9 1,15 0,3 1,5 1,8 0,1 0,2 0,4l0 2c1,1 1,12 2,13 3,-4 0,-17 0,-21 -1,-2 0,-4 0,-6 0,-5 -1,-12 -1,-16 0,-4 -2,-8 1,-10 4,1 1,10 4,14l1 -5c0,-5 -1,-13 1,-17 2,-8 2,-6 3,-8 0,-1 -1,-8 -2,-9 0,-1 -10,-9 -15,-8 -10,1 -10,5 -13,10 -10,0 -8,-1 -13,-2 -3,0 -5,1 -7,1 -6,-2 -5,-4 -13,-1 -2,0 -4,0 -6,0 -6,-1 -9,1 -14,1 -1,-2 -2,-5 -3,-7 -2,-3 -3,-4 -4,-8 -3,-9 -9,-18 -15,-26 -3,-5 -4,-9 -8,-13 -5,-5 -8,-7 -4,-12 5,-5 5,-6 9,-12 2,-2 4,-2 4,-6 1,-8 -7,-11 -3,-16 2,-2 21,-25 21,-28 -5,1 -24,29 -27,26 -2,-3 5,-11 6,-13 2,-2 4,-5 6,-7 2,-2 2,-3 3,-4 1,-2 5,-6 6,-7 3,0 5,2 6,5 5,-1 11,-2 17,-1 1,0 5,1 8,2 6,2 11,-4 10,-9 0,-2 -1,-6 -4,-7 -1,2 -1,17 -9,12 0,-3 2,-4 4,-6 1,-1 2,-1 2,-2 3,-4 4,-2 4,-8 -1,-3 -1,-3 -2,-4 -2,2 -1,4 -4,9 -2,4 -2,5 -6,7 -6,4 -8,3 -14,1 -7,-2 -7,-6 -8,-12 -1,-5 -2,-4 0,-10 1,-2 1,-2 3,-4 10,-9 28,-2 29,9 3,-13 -16,-15 -16,-16 -1,-2 -7,-3 -11,-5 -3,-2 -7,-2 -10,-3 -3,0 1,0 -2,-1 -1,2 -3,4 -2,6 2,3 1,0 2,5 1,6 1,7 3,12 1,1 1,11 1,14 0,6 -6,9 -9,13l-11 12c-2,2 -2,2 -3,4 -1,1 -2,3 -5,2 -10,-5 -9,-1 -18,8 -4,3 -5,1 -10,5 -1,2 -1,2 -3,4 -1,1 -3,3 -4,3 -1,0 -4,-2 -6,-2 -6,-2 -11,-4 -17,-5 -5,-1 -8,-2 -13,-3 -9,-2 -17,-2 -26,-3 -3,-1 -4,0 -7,-1 -9,0 -9,-2 -20,0 -5,0 -9,0 -14,0 -5,1 -24,6 -31,7 -2,0 -3,1 -5,2 -4,1 -8,1 -12,2 -8,2 -17,10 -22,3 -1,-2 -3,-6 -4,-10 -4,-15 -13,-3 -19,-3 -3,0 -4,-4 -6,-7l0 0 0 -1c-1,-2 -2,-4 -3,-5 -3,-2 -4,-6 -6,-9 -1,-1 -2,-2 -3,-4 -1,-3 -1,-4 -1,-7l0 -3c0,-4 1,-8 1,-9 3,-5 3,-5 5,-11 1,-5 0,-2 3,-5 1,-2 -1,-4 -2,-6 -3,0 1,1 -2,1 -3,0 -7,0 -11,2 -4,1 -9,1 -11,4 0,0 -14,0 -17,9zm-3 15c2,5 3,5 8,9 0,0 0,0 0,1 0,0 0,0 0,0 -7,3 -7,-5 -8,-10z"/>
   <path class="fil0" d="M654 165c4,-5 7,-10 7,-11 -2,0 -7,5 -11,11l4 0zm-12 0c1,-2 2,-4 4,-5 2,-2 2,-3 3,-4 1,-2 5,-6 6,-7 3,0 5,2 6,5 5,-1 11,-2 17,-1 2,0 14,2 14,-1 0,-1 0,2 0,1 0,-3 2,-6 4,-7 0,-2 -1,-6 -4,-7 -1,2 -1,17 -9,12 0,-3 2,-4 4,-6 1,-1 2,-1 2,-2 3,-4 4,-2 4,-8 -1,-3 -1,-3 -2,-4 -2,2 -1,4 -4,9 -2,4 -2,5 -6,7 -6,4 -8,3 -14,1 -7,-2 -7,-6 -8,-12 -1,-5 -2,-4 0,-10 1,-2 1,-2 3,-4 10,-9 28,-2 29,9 3,-13 -16,-15 -16,-16 -1,-2 -7,-3 -11,-5 -3,-2 -7,-2 -10,-3 -3,0 1,0 -2,-1 -1,2 -3,4 -2,6 2,3 1,0 2,5 1,6 1,7 3,12 1,1 1,11 1,14 0,6 -6,9 -9,13l-8 9 3 0z"/>
   <path class="fil1" d="M345 337c3,1 3,1 6,3 8,6 16,10 27,14 3,1 7,4 11,6l17 8c6,2 16,9 30,12 24,4 31,8 58,9 10,0 23,0 33,0 5,-1 11,-1 16,-1 3,0 5,0 8,0 3,-1 6,-1 8,-1 17,-1 39,-7 54,-13 4,-1 7,-3 12,-5 3,-1 3,-2 5,-3 2,-1 3,-1 5,-3 14,-9 17,-11 28,-22 11,-10 10,-12 7,-23 0,-3 -2,-10 -3,-13 -5,-11 -5,-14 -9,-24 -1,-2 -2,-4 -2,-6 -6,-12 -4,-10 -12,-22 -1,-2 -2,-4 -3,-6 -4,-5 -10,-13 -15,-18 -4,-4 -7,-3 -10,-6 -3,-3 -4,-7 -7,-11 -9,-11 -6,-5 -13,-11 -5,-3 -5,-5 -17,-9 -8,-3 -31,-6 -42,-8 -15,-2 -33,-1 -48,-1 -8,1 -19,5 -28,7 -7,1 -18,4 -25,8 -1,1 -3,2 -4,3 -4,2 -5,6 -9,8 -2,2 -2,3 -5,4 -3,3 -22,15 -25,16 -3,1 -3,2 -5,4 -2,1 -2,2 -5,4 -11,8 -8,9 -11,13 -1,1 -2,1 -2,2 -1,1 -1,2 -2,3 -3,7 2,4 -2,9l-5 8c-2,7 0,6 -3,9 -1,2 0,2 -1,4 0,2 -1,2 -2,5 -3,12 -2,7 -4,13 -2,5 -2,9 -3,14 -1,2 -4,9 -3,14 0,1 1,1 1,3 0,2 -1,0 -1,3z"/>
   <path class="fil2" d="M594 256c-4,1 -4,4 -8,6 -4,2 -13,4 -18,6 -4,2 -7,3 -10,4 -15,5 -6,2 -20,5 -12,2 -12,2 -24,3 -23,2 -47,0 -69,-6 -3,0 -7,-2 -10,-3 -3,-2 -6,-2 -10,-3 -3,-1 -4,-3 -9,-4 -3,-1 -5,-3 -8,-5 -4,-2 -2,-4 -8,-1 -4,4 -8,11 -9,17 -1,3 -2,6 -3,10 -2,3 -2,7 -4,10 -1,3 -1,6 -2,10 -3,7 -8,38 -4,45 2,4 11,8 16,10 7,3 10,6 18,8 3,1 6,2 10,3 1,0 3,1 5,2l27 4c4,1 8,1 12,1 4,1 7,2 11,2 5,0 8,1 12,1 4,1 9,0 13,0 8,-1 16,1 24,0 4,-1 8,-1 12,-2 3,0 8,-1 11,-1 4,-1 7,-2 11,-2 15,-2 7,0 22,-5 3,-1 6,-2 10,-3 5,-1 33,-10 37,-14 2,-1 2,-1 4,-2 2,-1 2,-2 3,-3 10,-9 -1,-23 -2,-30l-5 -21c-3,-8 -1,-7 -8,-18 -4,-8 -9,-16 -16,-22 -3,-2 -8,-2 -11,-2z"/>
   <path class="fil1" d="M357 437c0,4 6,16 9,21 1,4 5,8 6,11 2,3 3,5 5,8 3,6 9,12 13,17 4,6 1,5 8,3 3,-1 3,-1 3,-4 1,-6 3,-5 5,-10 5,0 5,0 8,-3 8,-6 5,-6 7,-8 1,0 4,0 6,0 2,0 6,2 7,3 7,4 17,27 1,27 -14,0 -7,0 -18,5 -7,3 -7,-6 -16,2 2,6 10,12 12,16 6,7 18,16 27,21 2,1 4,2 6,3 2,1 4,2 6,3 5,2 9,4 14,5 19,5 7,6 34,6 12,0 15,-1 23,-2 6,0 4,-1 10,-1 1,0 4,-1 5,-1 12,-1 13,-3 19,-4 2,0 4,0 5,-1 3,-1 1,-2 3,-3 2,-1 2,0 5,-1 1,-1 2,-2 4,-2 1,-1 3,-2 4,-3 3,-2 8,-4 12,-6 2,-2 5,-4 7,-5l8 -5c3,-2 4,-3 8,-5 2,0 5,-4 7,-5 2,-2 4,-4 5,-7 -1,-2 -4,-4 -7,-5 -3,-1 -6,1 -10,0 -3,-1 -5,-3 -8,-4 -5,-3 -4,-1 -10,-1 -4,0 -5,-2 -7,-4 -2,-1 -5,-3 -5,-7 -1,-6 3,-13 7,-16 5,-3 11,-7 15,-4 2,2 5,3 7,5 0,1 1,3 1,4 5,7 13,7 15,15 1,2 1,2 2,3 2,2 6,3 8,4 2,2 2,2 3,3 2,-3 4,-5 6,-7l10 -18c3,-6 8,-20 9,-26 1,-10 8,-21 8,-28 -3,0 -14,6 -16,8 -3,2 -2,4 -7,4 -3,0 -10,4 -13,5 -6,3 -34,12 -41,13l-30 5c-5,0 -2,1 -10,1 -4,0 -8,1 -11,1 -7,1 -64,2 -70,2 -6,-1 -15,-2 -22,-3 -6,0 -14,-1 -20,-2 -13,-3 -26,-6 -38,-10 -3,-1 -6,-2 -9,-3 -4,-1 -21,-10 -25,-10z"/>
   <path class="fil0" d="M255 407c-2,0 -1,-1 -1,-4 -1,-1 -1,-4 -2,-5 0,-4 4,-7 2,-10 -3,1 -2,7 -3,9 -1,2 -1,3 -2,5 0,2 1,4 0,6 -2,3 -3,0 -5,7 -1,1 -1,3 -2,4 -1,2 0,4 -1,6 -2,3 -4,-3 -4,13 0,3 -2,8 0,9 2,-1 1,-7 2,-9 0,-3 -1,-5 1,-6 5,-2 3,7 5,9 2,-1 0,-5 4,-9l2 0c1,2 2,14 1,16 -3,2 -4,0 -7,0 -5,1 -4,0 -8,-1 -3,1 -3,1 -6,1 -3,0 -5,1 -7,2 0,2 0,3 1,4 2,1 2,0 4,0l33 0c4,0 6,1 10,2 3,1 4,2 5,6 0,4 0,18 -2,21 -1,0 -12,1 -14,2 -13,1 -17,1 -30,-1 -7,-1 -2,-29 -6,-30 -2,3 0,27 -4,30l-6 7c-4,4 -8,6 -12,8 -2,2 -2,3 -4,4 -4,-3 -2,-3 -8,-3 -10,0 -14,10 -11,19 1,6 3,10 5,16 2,6 1,10 2,14 0,3 1,2 0,5 -3,3 -4,1 -7,3 -5,4 -2,11 0,16 2,3 4,2 6,5 7,11 1,14 8,25 2,3 6,2 7,4 1,1 1,4 4,7 1,0 2,0 3,-1 1,0 8,9 8,9 1,0 -3,-9 -2,-12 1,-4 2,-4 5,-4 1,6 -4,13 -2,18 3,1 3,-1 5,-2 3,-2 4,-3 6,-4 4,-3 3,-8 4,-13 8,-1 11,20 15,23 1,-2 -6,-14 -6,-16 0,-2 0,-5 0,-7 2,-1 8,-3 10,-1 2,2 2,7 3,11 0,6 -1,6 -4,9 -1,1 -6,6 -1,8 5,-8 11,-8 8,-22 -1,-5 -5,-6 -3,-11 1,-4 0,-11 -2,-14 -2,-6 -5,-7 -5,-9 -1,-3 -2,-13 -2,-15 2,-5 4,-5 7,-9 4,-4 2,-9 2,-14 0,-1 17,-17 19,-15 3,1 3,18 1,20 -3,4 -11,3 -11,15 0,8 4,5 -2,12 -5,9 -10,13 -2,24 8,10 12,4 15,10 1,2 3,5 5,3 2,-1 1,-15 2,-19 1,-2 1,-4 2,-6 3,-9 5,-6 9,-12 4,-6 6,-5 3,-16 -1,-9 -6,-4 4,-20 1,-2 1,-3 3,-5 2,-1 3,0 4,-3 3,-6 4,-17 -1,-23 -4,-4 -3,-3 -9,-6 -5,-3 -16,-5 -16,-13 0,-5 1,-8 1,-13 1,-24 2,-18 -8,-21 -1,-3 1,-8 0,-13 0,-2 -1,-4 -2,-5 -1,-4 -1,-2 -3,-5 0,-5 0,-6 -2,-11 -4,-7 -9,-1 -5,-20 0,-2 2,-8 1,-10 0,-3 1,0 0,-2 -3,1 -3,2 -3,5 -1,3 -1,3 -1,7 0,4 -2,5 -3,8 0,2 1,2 0,3z"/>
   <path class="fil1" d="M471 367c0,-3 -3,-1 -8,-10 -3,-5 -2,-12 -1,-17 0,-2 4,-12 6,-13 7,-9 25,-5 28,-1 7,8 9,27 0,37 -1,2 -4,3 -4,5 2,2 21,1 26,-1 -1,-3 -5,-6 -7,-9 -2,-3 -3,-7 -4,-11 0,-7 -1,-6 1,-13 1,-3 3,-7 6,-9 2,-2 7,-4 10,-5 5,0 9,2 13,3 4,2 5,4 8,8 5,8 3,12 1,23 -1,9 -3,5 -3,10 6,0 11,-3 16,-3 6,-1 11,-1 16,-3 11,-3 25,-10 34,-12 2,-1 5,-1 7,-3 7,-4 6,-3 6,-13 -1,-8 -1,-8 -3,-16 -4,-10 -4,-6 -6,-12 -3,-5 -9,-23 -13,-26 -3,-2 -10,3 -13,4 -5,2 -10,3 -15,5 -5,1 -9,3 -14,4 -17,6 -27,9 -47,10 -21,1 -56,-3 -75,-9 -3,-1 -4,-2 -7,-3 -3,0 -4,-1 -7,-2 -7,-2 -2,0 -7,-2 -7,-3 -6,3 -8,8 -1,3 -1,5 -2,8 -1,3 -2,3 -2,7 -1,3 -2,5 -3,7 -2,4 -3,12 -4,15 -1,3 -1,3 -2,7 0,1 -1,8 -1,8 0,1 9,7 11,7 7,3 2,2 6,4 3,1 4,2 7,3 2,1 4,2 6,3 10,4 44,9 48,7z"/>
   <path class="fil0" d="M738 359c-2,0 -2,-1 -2,4 0,2 0,4 -1,6 -1,3 -5,2 -6,5 -1,4 1,7 2,9 1,8 -7,0 -6,17 0,3 2,9 0,10 -3,3 -14,-2 -14,11 0,8 2,16 2,24 -4,3 -8,9 -12,11 -5,2 -11,-4 -16,5 -2,4 -6,13 -4,18 1,1 4,4 5,6 1,2 2,5 3,8 4,9 5,4 3,16 0,4 1,7 3,9 7,8 8,4 14,8 2,2 3,4 4,7l4 8c2,5 8,9 7,0 0,-3 0,-3 2,-5 3,-2 4,-13 0,-14 -2,4 3,9 -1,13 -1,1 -3,1 -4,2 -1,1 0,2 -2,3 -3,-1 -2,-5 -4,-9 -1,-2 -4,-5 -4,-9 1,-1 5,-4 7,-4 3,1 3,3 8,4 -1,-6 -7,-5 -6,-10 1,-3 2,-3 1,-7 -2,-4 -5,-6 -8,-8 -2,-2 -3,-1 -4,-4 -2,-7 -1,-8 2,-13 2,-3 6,-4 11,-5 6,-3 7,0 12,2 6,3 6,1 8,8 2,5 3,7 6,10 0,3 -1,6 -3,9 -1,3 -1,6 -2,9 -2,4 -2,5 -4,8 -6,8 -1,13 -2,20 -1,4 -1,7 -2,10 -1,3 -2,8 -2,11 1,6 -3,6 -2,10 5,0 4,-3 5,-6 6,-2 2,2 6,0 1,0 2,-3 3,-4 8,-8 7,-20 7,-21 0,1 -2,18 -9,20 -2,1 -4,1 -6,1 -4,-5 0,-12 2,-17 2,-8 1,-8 9,-6 3,1 2,1 4,2 0,0 1,0 1,0l2 -2c2,-3 6,-4 7,-8 3,-6 -2,-11 -4,-14 -4,0 -7,2 -11,0 -2,-4 3,-10 5,-15 0,-1 1,-3 2,-5 2,0 6,0 8,2 1,2 1,2 2,4 3,5 -7,9 -6,14 0,2 7,3 8,6 0,2 0,4 1,7 0,0 -4,11 -9,18 -2,3 -4,-2 -7,4 0,0 5,0 8,-3 5,-6 10,-17 10,-17 1,0 1,-1 1,-3 0,-3 0,-3 2,-4 4,-3 5,-2 6,-1 1,0 -3,8 -7,15 -1,2 -3,4 -6,6 -1,0 -2,0 -2,1 -2,0 -3,1 -3,2 -1,1 10,-4 12,-7 3,-7 8,-17 9,-17 1,-3 2,-9 4,-10 4,-1 3,5 2,9 0,0 -5,8 -9,12 -1,1 -3,1 -4,2 0,1 -1,1 -1,1 5,1 16,-13 17,-14 4,-2 6,-8 7,-13 2,-3 1,-4 1,-7 1,-4 5,-7 3,-12 -2,-5 -7,-5 -10,-6 -1,-5 1,-12 6,-12 0,4 -3,14 1,15 1,-3 1,-12 2,-15 1,-2 3,-6 4,-9 0,0 3,-7 1,-12 -2,-4 -8,-6 -8,-6 0,0 6,3 7,7 2,4 -1,10 -1,10 -5,0 -3,3 -7,6 -1,2 -7,4 -9,2 0,0 -1,0 -1,0l0 -3c-1,-3 -5,-4 -7,-7 -1,-2 0,-4 3,-6 2,-1 5,1 7,-1 0,0 0,-1 0,-1l3 -6c3,0 3,1 5,-1 -2,-2 -5,-1 -7,0 -2,1 -2,3 -4,6 -6,1 -8,0 -10,5 -3,5 -5,6 -10,7 -7,3 -13,0 -20,6 -6,5 -3,6 -10,1 -3,-2 -3,-3 -7,-4 -6,0 -13,4 -16,3l-1 0c-1,-3 1,-5 -2,-7 -5,-4 -5,-5 0,-9 7,-5 1,-7 19,-8 5,0 10,-1 15,-2 1,0 2,-1 3,-1 4,-1 22,-2 30,-3 0,0 10,3 14,5 1,0 2,0 2,0 1,0 -6,-4 -14,-6 -1,0 -2,-1 -2,-1 0,-10 -4,-24 -5,-29 0,-2 -11,-2 -11,-1 0,0 10,0 10,2 0,6 1,18 2,24 1,4 2,4 -4,5 -9,0 -25,3 -30,3 -3,0 -19,0 -20,-1 -1,-1 -1,0 -2,-2 0,-3 0,-7 0,-11 0,-4 -2,-10 1,-12 3,-3 8,-2 12,-3 3,-1 3,-1 7,-1 3,0 23,-2 24,-4 -7,-2 -25,3 -27,-5 -1,-3 -1,-11 2,-12 2,3 1,12 4,14 2,-6 -5,-18 5,-14 1,3 0,5 3,6 1,-4 -2,-4 1,-7 10,0 3,15 8,17 1,1 2,1 4,1 2,-12 -1,-12 -5,-19 -2,-2 -2,-2 -5,-3 0,-3 1,-4 1,-6 -1,-10 -6,-8 -7,-28 0,-4 -1,-31 -3,-33 -3,4 4,43 1,48 -1,1 -3,2 -5,0 -1,-1 0,-3 0,-5 1,-2 1,-3 0,-4z"/>
   <path class="fil1" d="M603 409c1,-4 8,-4 12,-6 3,-2 -1,-1 5,-3 4,-1 4,-2 12,-5 2,0 5,-2 5,-3 1,-2 1,-14 0,-16 0,0 0,0 0,0l-7 2c-11,4 -9,4 -23,8 -11,3 -20,7 -32,8 -3,1 -5,1 -8,2 -3,0 -7,-1 -10,0 -4,1 -14,2 -18,2 -22,1 -36,3 -59,1 -21,-2 -30,-3 -52,-9 -2,0 -5,-1 -8,-2 -2,0 -4,-2 -7,-3 -2,0 -5,-1 -7,-2 -3,-1 -3,-2 -7,-4 -2,0 -5,-2 -7,-3l-14 -6c-2,-1 -3,-4 -7,-3 0,0 -5,18 2,23 2,1 4,1 6,2 6,4 10,5 14,6 6,3 8,6 12,7 3,1 4,2 8,2 4,0 14,3 16,3 6,1 1,2 11,3 2,0 3,0 4,1 8,0 20,0 27,2 11,3 24,3 36,3 6,0 12,-1 18,-1 4,1 13,-1 18,-1 3,-1 7,0 9,0 2,-1 2,-1 4,-1 6,-1 33,-4 37,-6l10 -1z"/>
   <path class="fil1" d="M362 423l3 0c0,7 1,10 7,14 5,3 18,8 23,9 4,0 8,3 17,4 4,1 6,1 9,2 7,2 11,1 14,2 3,1 2,1 5,1 7,1 11,3 18,3 25,3 36,2 61,1 8,0 16,1 20,0 6,0 13,-2 19,-2 6,-2 13,-2 19,-3 14,-2 24,-6 35,-7 7,-2 27,-10 30,-13 0,-4 0,-13 -2,-16 -1,0 -12,6 -15,7 -7,2 -18,5 -25,6 -5,1 -15,4 -18,4 -4,1 -6,2 -9,2 -7,1 -13,2 -19,3 -7,1 -33,3 -40,3 -7,0 -38,0 -43,-1 -5,-2 -12,-2 -18,-3 -13,-3 -25,-4 -37,-8 -10,-3 -22,-5 -33,-10 -2,-1 -4,-3 -6,-4l-9 -3c-1,-1 -2,-2 -3,-2 -1,0 -3,2 -3,2 -2,2 -1,6 0,9z"/>
   <path class="fil1" d="M402 358c-1,-2 -6,-4 -9,-6 -2,-1 -7,-7 -7,-9 -3,-5 5,-18 5,-25 0,-3 -1,-4 0,-7 1,-2 2,-2 2,-6 1,-6 4,-14 5,-19 1,-4 4,-6 5,-11 1,-3 2,-3 3,-5 7,0 10,4 16,6 3,1 4,3 7,3 7,2 19,6 26,7 4,0 7,-1 10,0 2,1 3,2 4,2 1,0 2,0 2,0 2,1 1,0 2,2 -3,2 -6,-1 -9,1 4,3 22,4 30,4 5,0 11,0 17,0 3,0 6,0 8,0 4,-1 0,-1 8,-2 4,0 9,-2 14,-4 5,-1 8,-2 13,-4 6,-2 9,-2 13,-4l14 -5c11,-3 16,-12 23,-3 6,7 9,15 12,24 1,2 1,3 2,6 2,3 7,17 7,20 4,31 -4,18 -5,28 3,0 4,-1 6,-2 4,-4 11,-5 8,-14 -1,-4 -3,-8 -4,-12 -1,-4 -2,-11 -3,-14 -1,-3 -2,-8 -3,-12l-4 -12c-4,-6 -9,-15 -14,-18 -5,-4 -4,-5 -12,-3 -5,2 -12,4 -17,7 -2,1 -12,3 -18,6 -6,2 -34,8 -40,8l-32 0c-6,0 -10,-1 -15,-1 -5,0 -10,0 -15,-1 -5,0 -10,-2 -13,-2 -9,-2 -4,-2 -12,-4 -2,-1 -4,-2 -7,-2 -4,-1 -7,-5 -16,-8 -5,-2 -3,-5 -9,3 -2,3 -2,8 -4,12 -2,5 -9,25 -10,30 -1,3 -1,4 -1,7 -1,2 -1,4 -2,6 -3,20 -4,20 9,28 3,2 7,4 10,5z"/>
   <path class="fil1" d="M200 507c2,3 6,1 11,6 1,1 1,2 2,3 3,1 5,0 7,2 0,2 0,1 -1,3 7,4 7,2 15,3 10,0 16,8 21,3 2,-2 2,-4 10,-8 2,-1 6,-2 7,-3 1,-2 -2,-7 5,-14 6,-5 10,-4 4,-9 -2,-2 -4,-2 -5,-4 -2,-3 -3,-3 -7,-3 -4,0 -4,1 -8,2l-18 0c-3,0 -5,0 -8,-1 -13,-2 -7,-3 -19,7 -2,1 -4,2 -5,4 -7,7 -9,7 -11,9z"/>
   <path class="fil2" d="M540 516c0,3 -3,2 -6,3 -8,1 -43,2 -48,1 -7,-1 -4,10 0,12 10,2 27,0 38,-1 3,0 16,0 18,-1 3,-1 5,-5 3,-11 -1,-3 -1,0 -1,-4 2,-1 4,-1 5,-4 1,-3 1,-6 -1,-9l-14 0c-2,1 -2,1 -4,2 -6,0 -13,1 -19,0 -6,0 -13,1 -19,0 -7,0 -8,-2 -13,-2 -2,0 -2,0 -3,2 -1,4 1,10 8,11 15,2 25,1 38,2 2,0 12,-3 18,-1z"/>
   <path class="fil3" d="M531 896c-4,1 -5,2 -10,0 -5,-1 -9,-8 -10,-13 -3,-14 0,-11 3,-13 4,-1 1,-2 9,-2 6,0 5,0 4,-11 0,-4 -1,-6 -3,-8 -6,-8 -8,-4 -11,3 -6,11 -8,35 -6,49 1,3 2,6 2,9 1,5 1,4 3,8 1,2 3,6 5,7 2,0 6,-2 8,-3 5,-7 10,-17 6,-26zm-36 5c-1,3 -1,3 -3,4 -2,2 -7,7 -10,6l-6 -4c-2,-2 -4,-4 -6,-5 0,4 1,8 2,11 3,6 2,3 8,6 3,1 13,5 15,6 2,0 2,-2 5,-2 -3,10 -17,-1 -22,-1 0,4 5,5 7,8 0,1 29,-2 31,-1 -1,-1 -3,-5 -5,-7 -4,-3 -3,-4 -6,-7 0,-6 -2,-11 -3,-16 -1,-4 -1,-15 -2,-17 -2,0 -1,0 -2,2 -2,2 -3,3 -6,5 -2,2 -4,6 -7,7 -9,1 -10,-12 -17,-13 0,2 0,8 1,10 0,2 2,4 4,5 2,3 2,3 5,5 1,2 2,4 5,5 5,-1 7,-6 12,-7zm99 -61c0,2 5,16 6,18 2,1 7,0 7,-1 2,-3 1,-12 0,-15 -1,-2 -3,-2 -5,-2 -3,1 -5,0 -8,0zm-95 40c1,-3 1,-6 0,-8 -6,3 -4,6 -17,8 -3,0 -3,0 -4,-1 -5,-6 -5,-10 -7,-12 -6,6 2,11 5,16 5,7 5,12 13,4 7,-6 3,-4 10,-7zm64 -13l1 8c2,1 2,-1 4,1 1,1 0,2 0,4 1,1 7,4 9,5 2,1 3,0 5,-1 1,-1 2,-2 4,-3l7 -9c1,-1 2,-2 2,-4 -1,-2 -2,-5 -3,-6 -2,2 -11,11 -12,11 -3,1 -7,-1 -9,-2 -6,-2 -4,-3 -8,-4zm-118 24c2,-1 0,-1 2,-3 3,2 7,6 5,11 -3,-1 -3,-6 -7,-6 -1,4 -1,9 4,10 3,1 11,2 14,1 3,-3 0,-9 0,-13 0,-3 0,-13 0,-14 -1,0 -8,-1 -8,0 -2,0 -3,2 -4,5 -2,3 -3,2 -6,3 -2,0 -1,4 0,6zm120 -5c0,3 1,6 1,9 -1,7 2,9 9,12 4,1 8,-3 11,-7 2,-1 4,-2 6,-4 1,-2 1,-2 2,-3 2,-2 2,-10 1,-12 -4,0 -10,9 -13,10 -4,3 -10,-4 -17,-5zm50 -22c-11,2 -10,0 -13,11 0,2 -1,9 -1,11 1,4 14,1 19,-1 6,-3 5,-14 2,-17 -3,-3 -1,-5 -7,-4zm-94 13l-4 0c-4,6 3,14 8,15 2,0 11,-2 12,-2 4,-1 5,-3 7,-6 2,-2 4,-3 3,-8 0,-4 -4,-6 -7,-6 -2,0 -4,1 -5,1 -3,1 -3,1 -6,1 -7,0 -7,2 -8,4 0,0 0,1 0,1 0,0 0,0 0,0zm14 -12c8,1 13,-5 17,7 2,8 2,14 -4,19 -6,5 -14,-2 -9,12 1,4 3,10 5,14 2,3 1,1 1,4 13,0 14,-7 16,-18 1,-10 -4,-40 -9,-50 -2,-3 -1,-3 -4,-5 -4,-2 -7,-4 -10,4 0,3 -4,8 -3,13z"/>
   <path class="fil4" d="M521 243c0,1 -1,3 -1,4 0,3 1,3 2,4 3,4 0,5 7,7 9,2 9,-1 22,-2 7,-1 36,-7 41,-10 1,-1 2,-1 2,-4 2,-17 -15,-6 -29,-4l-32 6c-8,0 -8,-1 -12,-1z"/>
   <path class="fil2" d="M545 485c-7,2 -17,1 -24,1 -4,0 -7,1 -11,1 -4,0 -8,0 -12,0l-18 -1c-2,0 -3,-1 -5,-1 -4,0 -4,7 -3,9 1,2 6,3 9,4 2,1 7,2 10,2 4,1 7,1 11,2 2,0 29,-3 34,-2 2,0 8,-1 10,-2 2,0 5,-4 5,-7 0,-5 -1,-7 -6,-6z"/>
   <path class="fil1" d="M649 370c-2,0 -4,1 -4,2 -1,1 -1,1 -1,2 0,2 -1,2 -1,3 -1,2 -1,10 0,11 1,1 -1,2 4,-1 5,-3 4,-4 7,-6l10 -4c0,-1 1,-1 1,-1l1 -2c1,-1 4,-2 5,-3 2,-1 1,0 3,-2 2,-4 3,-1 9,-6 2,-2 4,-5 5,-9 0,-4 -3,-19 -6,-21 -4,1 -6,7 -11,12l-8 10c-4,5 -7,5 -5,10 1,4 3,6 1,9 -3,6 -10,5 -11,1 -1,-1 1,-3 1,-5z"/>
   <path class="fil1" d="M559 602c1,1 3,1 4,1 3,1 10,4 12,4 4,-2 10,-23 12,-29 2,-11 3,-7 -18,-8 -3,0 -4,1 -6,1 -3,1 -3,1 -3,4 0,4 -2,26 -1,27z"/>
   <path class="fil4" d="M418 236c-2,1 -1,7 0,9 2,5 16,5 26,8 6,3 14,4 20,4 6,-1 18,0 21,-3 6,-4 1,-11 -8,-10 -3,1 -7,1 -11,1 -10,-1 -20,-1 -30,-4 -4,-1 -13,-7 -18,-5z"/>
   <path class="fil4" d="M534 536l-16 1c-7,1 -9,1 -16,1 -3,-1 -14,-2 -14,2 -1,1 1,6 1,7 1,0 6,2 7,2 8,1 25,0 32,-1 6,-1 10,-1 13,-5 4,-6 0,-9 -7,-7z"/>
   <path class="fil1" d="M363 384c1,-3 1,-10 1,-14 1,-8 1,-7 -3,-11 -2,-1 -15,-9 -18,-10 -2,0 -2,0 -3,0 -2,4 -5,15 -1,19 2,1 3,2 4,4 9,8 9,6 15,9 2,1 2,3 5,3z"/>
   <path class="fil1" d="M284 503c-5,2 -5,2 -6,7 -3,6 0,4 2,9 3,9 15,9 18,7 5,-3 8,-10 6,-18 -1,-4 -4,-5 -9,-5 -3,0 -8,-2 -11,0z"/>
   <path class="fil1" d="M226 550c9,6 11,8 21,-1 6,-5 2,-11 0,-14 -3,-6 -8,-4 -13,-5 -3,0 -4,0 -5,2 -9,11 -3,8 -3,18z"/>
   <path class="fil1" d="M666 289c0,1 2,9 2,10 1,4 3,6 4,10 1,2 1,9 4,9 2,0 8,-2 9,-4 4,-5 -1,-16 -3,-21 -3,-10 -6,-8 -16,-4z"/>
   <path class="fil1" d="M356 514c-7,2 -11,6 -6,14 2,3 1,4 6,6 7,2 16,-1 17,-4 3,-4 0,-6 -1,-9 -4,-6 -9,-9 -16,-7z"/>
   <path class="fil1" d="M339 402c0,4 0,9 0,12 1,10 4,6 17,16 1,1 2,2 4,2 0,-4 -1,-7 -2,-11 -1,-3 0,-9 -1,-13 -4,-2 0,1 -7,-4 -3,-3 -3,-3 -8,-4l-3 2z"/>
   <path class="fil1" d="M277 598c1,-2 1,-9 2,-12 0,-3 2,-9 2,-11 -3,-1 -5,-1 -7,-2 -1,-1 -5,-3 -6,-3 -1,1 -14,14 -4,24 4,4 12,4 13,4z"/>
   <path class="fil1" d="M215 568c3,0 8,-1 9,2 -1,2 -1,-1 -3,3 -3,0 -4,0 -6,3 -1,2 -1,4 0,6 1,3 5,10 10,6 0,-2 0,-4 1,-6 1,-3 1,-2 3,-4 2,-2 0,-7 -1,-10 -1,-3 0,-4 -1,-6 -1,-1 -2,-2 -3,-4 -2,-4 -3,-6 -7,-4 -2,-1 -1,-1 -2,-2 -2,0 -4,0 -5,0 0,4 0,5 2,8 1,2 2,5 3,8z"/>
   <path class="fil1" d="M748 477c0,2 0,3 0,5 0,2 -1,2 0,5 2,10 20,4 22,0 0,-3 0,-3 1,-5 1,-2 1,-2 0,-4 -3,-4 -11,-7 -16,-5 -3,0 -5,2 -7,4z"/>
   <path class="fil1" d="M277 568c0,-2 -2,-1 -2,-4 3,0 5,4 8,3 5,-1 6,1 8,-3 2,-3 3,-5 2,-9 -1,-2 -2,-1 -4,-2 -1,-1 -1,-1 -2,-2 -2,-1 0,0 -3,0 -3,-1 -1,-4 -9,-2 -9,2 -8,8 -5,15 1,2 4,5 7,4z"/>
   <path class="fil1" d="M729 276c-2,1 -5,4 -6,5 -2,3 -1,5 -1,9 1,8 7,10 13,6 22,-11 -1,-22 -6,-20z"/>
   <path class="fil1" d="M339 331c1,-1 6,-28 5,-30 -5,-1 -9,-2 -11,1 -2,3 -2,8 -2,13 0,3 -2,8 -2,12 1,4 6,5 10,4z"/>
   <path class="fil1" d="M692 463c-2,1 -7,10 -6,14 2,7 19,8 20,0 0,-3 0,-2 1,-4 1,-2 1,-3 0,-5 0,0 -6,-5 -6,-5 -1,0 -8,-1 -9,0z"/>
   <path class="fil1" d="M488 818c-2,2 -4,11 -3,14 3,1 5,0 7,-1 2,0 3,0 5,0 1,0 3,-1 4,-1 4,0 5,0 9,-1 2,0 6,0 8,-1 2,-5 -1,-17 -5,-13 -2,1 -1,4 -8,8 -3,2 -11,0 -12,-1 -3,-2 -2,-4 -5,-4z"/>
   <path class="fil1" d="M213 524c-5,1 -7,8 -8,13 -1,5 0,4 3,7 2,2 1,3 7,3 6,0 2,-1 6,-14 1,-4 2,-4 -1,-7 -1,-2 -4,-3 -7,-2z"/>
   <path class="fil1" d="M706 501c-3,1 -5,2 -6,3 -3,3 -5,11 0,14 2,1 5,0 8,-1 4,-1 9,-5 9,-9 1,-7 -8,-8 -11,-7z"/>
   <path class="fil1" d="M749 520c-4,1 -5,0 -7,3 -1,2 -3,3 -2,6 0,3 0,4 4,6 2,0 6,1 8,1 5,-1 10,-4 9,-10 -1,-3 -3,-3 -5,-4 -3,-2 -2,-3 -7,-2z"/>
   <path class="fil1" d="M237 583c-4,3 -4,0 -5,5 0,3 -2,4 -2,7 1,5 9,7 14,4 1,-1 1,-1 2,-2 1,-1 6,-2 3,-9 0,-2 -1,-1 -2,-2 -1,-1 -1,-1 -3,-2 -2,-2 -6,-2 -7,-1z"/>
   <path class="fil1" d="M776 484c4,1 7,-2 10,-3 0,5 -1,3 -3,6 -2,2 -3,4 -2,7 4,0 4,-3 5,-7 1,-3 3,-6 3,-9 -1,0 -1,0 -3,0l-1 -6c-2,-1 -1,-1 -2,-3 -1,-2 -1,-2 -4,-3 -3,-1 -7,-1 -9,1 -3,3 3,9 4,12 1,3 0,3 2,5z"/>
   <path class="fil1" d="M659 410c5,4 3,5 6,10 3,0 3,-2 6,-3 2,-1 9,-7 9,-8 1,-3 0,-3 0,-4 -2,-4 2,-12 -11,-3 -2,1 -3,2 -5,4 -3,1 -4,2 -5,4z"/>
   <path class="fil1" d="M195 567c-1,1 -1,0 -2,2 -2,3 -3,12 5,14 1,0 7,1 8,1 10,-1 -3,-22 -11,-17z"/>
   <path class="fil1" d="M311 317c1,-2 1,-14 0,-15 0,0 -11,-5 -12,-1 -1,2 0,12 1,14 2,4 7,4 11,2z"/>
   <path class="fil1" d="M611 490c-3,-2 -2,-2 -10,-7 -4,-3 -8,4 -7,8 0,3 6,6 9,8 4,1 5,0 6,-3 1,-2 2,-4 2,-6z"/>
   <path class="fil1" d="M735 375c-2,1 -3,1 -3,4 1,9 7,8 14,8 4,0 3,-1 3,-5 -1,-2 0,-5 -1,-6 -2,-2 -11,-2 -13,-1z"/>
   <path class="fil1" d="M653 519c-2,1 0,0 -4,3 -2,1 -3,3 -2,5 3,3 6,6 11,6 3,0 7,-5 6,-9 -1,-5 -9,-6 -11,-5z"/>
   <path class="fil1" d="M190 524c1,-5 2,-9 5,-12 2,-1 4,-3 4,-5 -1,-2 -5,-3 -7,-2 -4,1 -8,5 -9,9 -2,4 2,10 7,10z"/>
   <path class="fil1" d="M288 546l5 -12c0,-1 0,-1 0,-1l-11 -3c-2,3 -3,8 -3,11 0,4 0,4 3,4 3,0 4,1 6,1z"/>
   <path class="fil5" d="M413 489c1,2 2,3 3,4 2,2 2,2 3,5 3,0 4,-1 6,-3 2,-1 4,-1 5,-2 1,-4 -3,-9 -6,-10 -1,0 -10,5 -11,6z"/>
   <path class="fil1" d="M260 427c2,-3 3,-8 -1,-10 -1,0 -8,-3 -10,-3 -3,1 -3,9 -1,11 3,2 9,2 12,2z"/>
   <path class="fil1" d="M242 576c0,-2 -1,-14 -1,-15 -2,-1 -6,0 -9,1 -4,0 -2,3 -1,6 1,2 2,5 3,6 1,0 7,2 8,2z"/>
   <path class="fil1" d="M771 507c-2,1 -5,6 -5,8 0,2 5,6 8,5 2,0 10,-6 2,-12 -1,-1 -2,-3 -5,-1z"/>
   <path class="fil2" d="M372 377c1,3 3,7 5,8 6,1 10,-6 7,-10 -1,-1 -4,-3 -7,-2 0,0 -2,1 -3,1l-1 2c-1,1 -1,1 -1,1z"/>
   <path class="fil2" d="M374 422c-5,3 -2,15 6,11 2,-1 3,-5 2,-9 -1,-2 -5,-4 -8,-2z"/>
   <path class="fil2" d="M629 267c-7,4 -1,14 6,10 6,-2 0,-13 -6,-10z"/>
   <path class="fil2" d="M620 250c-7,3 0,12 5,11 5,-1 3,-14 -5,-11z"/>
   <path class="fil6" d="M471 333c-3,6 -3,7 5,7 2,0 2,-12 -4,-8l-1 1z"/>
   <path class="fil6" d="M519 330c4,3 4,7 1,9 -3,2 -9,1 -5,-6 2,-4 1,-3 4,-3z"/>
   <path class="fil7" d="M286 315c-7,-7 -1,-12 -10,-14 -5,-2 -6,4 -11,4 1,2 0,1 0,1 0,2 0,3 -1,4 0,4 4,11 6,13 6,5 14,4 18,-1 4,-4 1,-5 -2,-7z"/>
   <path class="fil6" d="M424 483c-1,0 -10,5 -11,6 1,2 2,3 3,4 2,2 2,2 3,5 3,0 4,-1 6,-3 2,-1 4,-1 5,-2 1,-4 -3,-9 -6,-10z"/>
   <path class="fil8" d="M373 530c3,-4 0,-6 -1,-9 -4,-6 -9,-9 -16,-7 -7,2 -11,6 -6,14 2,3 1,4 6,6 7,2 16,-1 17,-4z"/>
   <path class="fil9" d="M206 584c10,-1 -3,-22 -11,-17 -1,1 -1,0 -2,2 -2,3 -3,12 5,14 1,0 7,1 8,1z"/>
   <path class="fil10" d="M190 524c1,-5 2,-9 5,-12 2,-1 4,-3 4,-5 -1,-2 -5,-3 -7,-2 -4,1 -8,5 -9,9 -2,4 2,10 7,10z"/>
   <path class="fil11" d="M213 524c-5,1 -7,8 -8,13 -1,5 0,4 3,7 2,2 1,3 7,3 6,0 2,-1 6,-14 1,-4 2,-4 -1,-7 -1,-2 -4,-3 -7,-2z"/>
   <path class="fil12" d="M229 532c-9,11 -3,8 -3,18 9,6 11,8 21,-1 6,-5 2,-11 0,-14 -3,-6 -8,-4 -13,-5 -3,0 -4,0 -5,2z"/>
   <path class="fil13" d="M244 584c-2,-2 -6,-2 -7,-1 -4,3 -4,0 -5,5 0,3 -2,4 -2,7 1,5 9,7 14,4 1,-1 1,-1 2,-2 1,-1 6,-2 3,-9 0,-2 -1,-1 -2,-2 -1,-1 -1,-1 -3,-2z"/>
   <path class="fil14" d="M275 564c3,0 5,4 8,3 5,-1 6,1 8,-3 2,-3 3,-5 2,-9 -1,-2 -2,-1 -4,-2 -1,-1 -1,-1 -2,-2 -2,-1 0,0 -3,0 -3,-1 -1,-4 -9,-2 -9,2 -8,8 -5,15 1,2 4,5 7,4 0,-2 -2,-1 -2,-4z"/>
   <path class="fil15" d="M280 519c3,9 15,9 18,7 5,-3 8,-10 6,-18 -1,-4 -4,-5 -9,-5 -3,0 -8,-2 -11,0 -5,2 -5,2 -6,7 -3,6 0,4 2,9z"/>
   <path class="fil16" d="M351 303c-2,5 -2,9 -3,14 -1,2 -4,9 -3,14 0,1 1,1 1,3 0,2 -1,0 -1,3 3,1 3,1 6,3 8,6 16,10 27,14 3,1 7,4 11,6l17 8c6,2 16,9 30,12 24,4 31,8 58,9 10,0 23,0 33,0 5,-1 11,-1 16,-1 3,0 5,0 8,0 3,-1 6,-1 8,-1 17,-1 39,-7 54,-13 4,-1 7,-3 12,-5 3,-1 3,-2 5,-3 2,-1 3,-1 5,-3 14,-9 17,-11 28,-22 11,-10 10,-12 7,-23 0,-3 -2,-10 -3,-13 -5,-11 -5,-14 -9,-24 -1,-2 -2,-4 -2,-6 -6,-12 -4,-10 -12,-22 -1,-2 -2,-4 -3,-6 -4,-5 -10,-13 -15,-18 -4,-4 -7,-3 -10,-6 -3,-3 -4,-7 -7,-11 -9,-11 -6,-5 -13,-11 -5,-3 -5,-5 -17,-9 -8,-3 -31,-6 -42,-8 -15,-2 -33,-1 -48,-1 -8,1 -19,5 -28,7 -7,1 -18,4 -25,8 -1,1 -3,2 -4,3 -4,2 -5,6 -9,8 -2,2 -2,3 -5,4 -3,3 -22,15 -25,16 -3,1 -3,2 -5,4 -2,1 -2,2 -5,4 -11,8 -8,9 -11,13 -1,1 -2,1 -2,2 -1,1 -1,2 -2,3 -3,7 2,4 -2,9l-5 8c-2,7 0,6 -3,9 -1,2 0,2 -1,4 0,2 -1,2 -2,5 -3,12 -2,7 -4,13zm98 159c-6,0 -14,-1 -20,-2 -13,-3 -26,-6 -38,-10 -3,-1 -6,-2 -9,-3 -4,-1 -21,-10 -25,-10 0,4 6,16 9,21 1,4 5,8 6,11 2,3 3,5 5,8 3,6 9,12 13,17 4,6 1,5 8,3 3,-1 3,-1 3,-4 1,-6 3,-5 5,-10 5,0 5,0 8,-3 8,-6 5,-6 7,-8 1,0 4,0 6,0 2,0 6,2 7,3 7,4 17,27 1,27 -14,0 -7,0 -18,5 -7,3 -7,-6 -16,2 2,6 10,12 12,16 6,7 18,16 27,21 2,1 4,2 6,3 2,1 4,2 6,3 5,2 9,4 14,5 19,5 7,6 34,6 12,0 15,-1 23,-2 6,0 4,-1 10,-1 1,0 4,-1 5,-1 12,-1 13,-3 19,-4 2,0 4,0 5,-1 3,-1 1,-2 3,-3 2,-1 2,0 5,-1 1,-1 2,-2 4,-2 1,-1 3,-2 4,-3 3,-2 8,-4 12,-6 2,-2 5,-4 7,-5l8 -5c3,-2 4,-3 8,-5 2,0 5,-4 7,-5 2,-2 4,-4 5,-7 -1,-2 -4,-4 -7,-5 -3,-1 -6,1 -10,0 -3,-1 -5,-3 -8,-4 -5,-3 -4,-1 -10,-1 -4,0 -5,-2 -7,-4 -2,-1 -5,-3 -5,-7 -1,-6 3,-13 7,-16 5,-3 11,-7 15,-4 2,2 5,3 7,5 0,1 1,3 1,4 5,7 13,7 15,15 1,2 1,2 2,3 2,2 6,3 8,4 2,2 2,2 3,3 2,-3 4,-5 6,-7l10 -18c3,-6 8,-20 9,-26 1,-10 8,-21 8,-28 -3,0 -14,6 -16,8 -3,2 -2,4 -7,4 -3,0 -10,4 -13,5 -6,3 -34,12 -41,13l-30 5c-5,0 -2,1 -10,1 -4,0 -8,1 -11,1 -7,1 -64,2 -70,2 -6,-1 -15,-2 -22,-3zm23 32c-1,-2 -1,-9 3,-9 2,0 3,1 5,1l18 1c4,0 8,0 12,0 4,0 7,-1 11,-1 7,0 17,1 24,-1 5,-1 6,1 6,6 0,3 -3,7 -5,7 -2,1 -8,2 -10,2 -5,-1 -32,2 -34,2 -4,-1 -7,-1 -11,-2 -3,0 -8,-1 -10,-2 -3,-1 -8,-2 -9,-4zm7 8c5,0 6,2 13,2 6,1 13,0 19,0 6,1 13,0 19,0 2,-1 2,-1 4,-2l14 0c2,3 2,6 1,9 -1,3 -3,3 -5,4 0,4 0,1 1,4 2,6 0,10 -3,11 -2,1 -15,1 -18,1 -11,1 -28,3 -38,1 -4,-2 -7,-13 0,-12 5,1 40,0 48,-1 3,-1 6,0 6,-3 -6,-2 -16,1 -18,1 -13,-1 -23,0 -38,-2 -7,-1 -9,-7 -8,-11 1,-2 1,-2 3,-2zm39 35l16 -1c7,-2 11,1 7,7 -3,4 -7,4 -13,5 -7,1 -24,2 -32,1 -1,0 -6,-2 -7,-2 0,-1 -2,-6 -1,-7 0,-4 11,-3 14,-2 7,0 9,0 16,-1zm-140 -187c-4,-7 1,-38 4,-45 1,-4 1,-7 2,-10 2,-3 2,-7 4,-10 1,-4 2,-7 3,-10 1,-6 5,-13 9,-17 6,-3 4,-1 8,1 3,2 5,4 8,5 5,1 6,3 9,4 4,1 7,1 10,3 3,1 7,3 10,3 22,6 46,8 69,6 12,-1 12,-1 24,-3 14,-3 5,0 20,-5 3,-1 6,-2 10,-4 5,-2 14,-4 18,-6 4,-2 4,-5 8,-6 3,0 8,0 11,2 7,6 12,14 16,22 7,11 5,10 8,18l5 21c1,7 12,21 2,30 -1,1 -1,2 -3,3 -2,1 -2,1 -4,2 -4,4 -32,13 -37,14 -4,1 -7,2 -10,3 -15,5 -7,3 -22,5 -4,0 -7,1 -11,2 -3,0 -8,1 -11,1 -4,1 -8,1 -12,2 -8,1 -16,-1 -24,0 -4,0 -9,1 -13,0 -4,0 -7,-1 -12,-1 -4,0 -7,-1 -11,-2 -4,0 -8,0 -12,-1l-27 -4c-2,-1 -4,-2 -5,-2 -4,-1 -7,-2 -10,-3 -8,-2 -11,-5 -18,-8 -5,-2 -14,-6 -16,-10zm142 -103c0,-1 1,-3 1,-4 4,0 4,1 12,1l32 -6c14,-2 31,-13 29,4 0,3 -1,3 -2,4 -5,3 -34,9 -41,10 -13,1 -13,4 -22,2 -7,-2 -4,-3 -7,-7 -1,-1 -2,-1 -2,-4zm105 14c-5,1 -12,-8 -5,-11 8,-3 10,10 5,11zm-207 -16c-1,-2 -2,-8 0,-9 5,-2 14,4 18,5 10,3 20,3 30,4 4,0 8,0 11,-1 9,-1 14,6 8,10 -3,3 -15,2 -21,3 -6,0 -14,-1 -20,-4 -10,-3 -24,-3 -26,-8zm217 32c-7,4 -13,-6 -6,-10 6,-3 12,8 6,10z"/>
   <path class="fil17" d="M464 291c4,3 22,4 30,4 5,0 11,0 17,0 3,0 6,0 8,0 4,-1 0,-1 8,-2 4,0 9,-2 14,-4 5,-1 8,-2 13,-4 6,-2 9,-2 13,-4l14 -5c11,-3 16,-12 23,-3 6,7 9,15 12,24 1,2 1,3 2,6 2,3 7,17 7,20 4,31 -4,18 -5,28 3,0 4,-1 6,-2 4,-4 11,-5 8,-14 -1,-4 -3,-8 -4,-12 -1,-4 -2,-11 -3,-14 -1,-3 -2,-8 -3,-12l-4 -12c-4,-6 -9,-15 -14,-18 -5,-4 -4,-5 -12,-3 -5,2 -12,4 -17,7 -2,1 -12,3 -18,6 -6,2 -34,8 -40,8l-32 0c-6,0 -10,-1 -15,-1 -5,0 -10,0 -15,-1 -5,0 -10,-2 -13,-2 -9,-2 -4,-2 -12,-4 -2,-1 -4,-2 -7,-2 -4,-1 -7,-5 -16,-8 -5,-2 -3,-5 -9,3 -2,3 -2,8 -4,12 -2,5 -9,25 -10,30 -1,3 -1,4 -1,7 -1,2 -1,4 -2,6 -3,20 -4,20 9,28 3,2 7,4 10,5 -1,-2 -6,-4 -9,-6 -2,-1 -7,-7 -7,-9 -3,-5 5,-18 5,-25 0,-3 -1,-4 0,-7 1,-2 2,-2 2,-6 1,-6 4,-14 5,-19 1,-4 4,-6 5,-11 1,-3 2,-3 3,-5 7,0 10,4 16,6 3,1 4,3 7,3 7,2 19,6 26,7 4,0 7,-1 10,0 2,1 3,2 4,2 1,0 2,0 2,0 2,1 1,0 2,2 -3,2 -6,-1 -9,1zm16 108c-21,-2 -30,-3 -52,-9 -2,0 -5,-1 -8,-2 -2,0 -4,-2 -7,-3 -2,0 -5,-1 -7,-2 -3,-1 -3,-2 -7,-4 -2,0 -5,-2 -7,-3l-14 -6c-2,-1 -3,-4 -7,-3 0,0 -5,18 2,23 2,1 4,1 6,2 6,4 10,5 14,6 6,3 8,6 12,7 3,1 4,2 8,2 4,0 14,3 16,3 6,1 1,2 11,3 2,0 3,0 4,1 8,0 20,0 27,2 11,3 24,3 36,3 6,0 12,-1 18,-1 4,1 13,-1 18,-1 3,-1 7,0 9,0 2,-1 2,-1 4,-1 6,-1 33,-4 37,-6l10 -1c1,-4 8,-4 12,-6 3,-2 -1,-1 5,-3 4,-1 4,-2 12,-5 2,0 5,-2 5,-3 1,-2 1,-14 0,-16 0,0 0,0 0,0l-7 2c-11,4 -9,4 -23,8 -11,3 -20,7 -32,8 -3,1 -5,1 -8,2 -3,0 -7,-1 -10,0 -4,1 -14,2 -18,2 -22,1 -36,3 -59,1zm-96 -24c3,4 -1,11 -7,10 -2,-1 -4,-5 -5,-8 0,0 0,0 1,-1l1 -2c1,0 3,-1 3,-1 3,-1 6,1 7,2zm69 64c-13,-3 -25,-4 -37,-8 -10,-3 -22,-5 -33,-10 -2,-1 -4,-3 -6,-4l-9 -3c-1,-1 -2,-2 -3,-2 -1,0 -3,2 -3,2 -2,2 -1,6 0,9l3 0c0,7 1,10 7,14 5,3 18,8 23,9 4,0 8,3 17,4 4,1 6,1 9,2 7,2 11,1 14,2 3,1 2,1 5,1 7,1 11,3 18,3 25,3 36,2 61,1 8,0 16,1 20,0 6,0 13,-2 19,-2 6,-2 13,-2 19,-3 14,-2 24,-6 35,-7 7,-2 27,-10 30,-13 0,-4 0,-13 -2,-16 -1,0 -12,6 -15,7 -7,2 -18,5 -25,6 -5,1 -15,4 -18,4 -4,1 -6,2 -9,2 -7,1 -13,2 -19,3 -7,1 -33,3 -40,3 -7,0 -38,0 -43,-1 -5,-2 -12,-2 -18,-3zm-71 -15c1,4 0,8 -2,9 -8,4 -11,-8 -6,-11 3,-2 7,0 8,2zm-42 -75c-2,4 -5,15 -1,19 2,1 3,2 4,4 9,8 9,6 15,9 2,1 2,3 5,3 1,-3 1,-10 1,-14 1,-8 1,-7 -3,-11 -2,-1 -15,-9 -18,-10 -2,0 -2,0 -3,0zm2 51l-3 2c0,4 0,9 0,12 1,10 4,6 17,16 1,1 2,2 4,2 0,-4 -1,-7 -2,-11 -1,-3 0,-9 -1,-13 -4,-2 0,1 -7,-4 -3,-3 -3,-3 -8,-4zm324 -26c1,-1 4,-2 5,-3 2,-1 1,0 3,-2 2,-4 3,-1 9,-6 2,-2 4,-5 5,-9 0,-4 -3,-19 -6,-21 -4,1 -6,7 -11,12l-8 10c-4,5 -7,5 -5,10 1,4 3,6 1,9 -3,6 -10,5 -11,1 -1,-1 1,-3 1,-5 -2,0 -4,1 -4,2 -1,1 -1,1 -1,2 0,2 -1,2 -1,3 -1,2 -1,10 0,11 1,1 -1,2 4,-1 5,-3 4,-4 7,-6l10 -4c0,-1 1,-1 1,-1l1 -2zm-1 46c3,0 3,-2 6,-3 2,-1 9,-7 9,-8 1,-3 0,-3 0,-4 -2,-4 2,-12 -11,-3 -2,1 -3,2 -5,4 -3,1 -4,2 -5,4 5,4 3,5 6,10z"/>
   <path class="fil6" d="M511 299c-21,1 -56,-3 -75,-9 -3,-1 -4,-2 -7,-3 -3,0 -4,-1 -7,-2 -7,-2 -2,0 -7,-2 -7,-3 -6,3 -8,8 -1,3 -1,5 -2,8 -1,3 -2,3 -2,7 -1,3 -2,5 -3,7 -2,4 -3,12 -4,15 -1,3 -1,3 -2,7 0,1 -1,8 -1,8 0,1 9,7 11,7 7,3 2,2 6,4 3,1 4,2 7,3 2,1 4,2 6,3 10,4 44,9 48,7 0,-3 -3,-1 -8,-10 -3,-5 -2,-12 -1,-17 0,-2 4,-12 6,-13 7,-9 25,-5 28,-1 7,8 9,27 0,37 -1,2 -4,3 -4,5 2,2 21,1 26,-1 -1,-3 -5,-6 -7,-9 -2,-3 -3,-7 -4,-11 0,-7 -1,-6 1,-13 1,-3 3,-7 6,-9 2,-2 7,-4 10,-5 5,0 9,2 13,3 4,2 5,4 8,8 5,8 3,12 1,23 -1,9 -3,5 -3,10 6,0 11,-3 16,-3 6,-1 11,-1 16,-3 11,-3 25,-10 34,-12 2,-1 5,-1 7,-3 7,-4 6,-3 6,-13 -1,-8 -1,-8 -3,-16 -4,-10 -4,-6 -6,-12 -3,-5 -9,-23 -13,-26 -3,-2 -10,3 -13,4 -5,2 -10,3 -15,5 -5,1 -9,3 -14,4 -17,6 -27,9 -47,10z"/>
   <path class="fil6" d="M601 483c-4,-3 -8,4 -7,8 0,3 6,6 9,8 4,1 5,0 6,-3 1,-2 2,-4 2,-6 -3,-2 -2,-2 -10,-7z"/>
   <path class="fil18" d="M653 519c-2,1 0,0 -4,3 -2,1 -3,3 -2,5 3,3 6,6 11,6 3,0 7,-5 6,-9 -1,-5 -9,-6 -11,-5z"/>
   <path class="fil19" d="M735 296c22,-11 -1,-22 -6,-20 -2,1 -5,4 -6,5 -2,3 -1,5 -1,9 1,8 7,10 13,6z"/>
   <path class="fil20" d="M755 473c-3,0 -5,2 -7,4 0,2 0,3 0,5 0,2 -1,2 0,5 2,10 20,4 22,0 0,-3 0,-3 1,-5 1,-2 1,-2 0,-4 -3,-4 -11,-7 -16,-5z"/>
   <path class="fil21" d="M770 467c-3,3 3,9 4,12 1,3 0,3 2,5 4,1 7,-2 10,-3 0,5 -1,3 -3,6 -2,2 -3,4 -2,7 4,0 4,-3 5,-7 1,-3 3,-6 3,-9 -1,0 -1,0 -3,0l-1 -6c-2,-1 -1,-1 -2,-3 -1,-2 -1,-2 -4,-3 -3,-1 -7,-1 -9,1z"/>
   <path class="fil22" d="M779 462c2,3 6,4 7,7l0 3c0,0 1,0 1,0 2,2 8,0 9,-2 4,-3 2,-6 7,-6 0,0 3,-6 1,-10 -1,-4 -7,-7 -7,-7 -2,2 -2,1 -5,1l-3 6c0,0 0,1 0,1 -2,2 -5,0 -7,1 -3,2 -4,4 -3,6z"/>
   <path class="fil23" d="M707 473c1,-2 1,-3 0,-5 0,0 -6,-5 -6,-5 -1,0 -8,-1 -9,0 -2,1 -7,10 -6,14 2,7 19,8 20,0 0,-3 0,-2 1,-4z"/>
   <path class="fil24" d="M717 508c1,-7 -8,-8 -11,-7 -3,1 -5,2 -6,3 -3,3 -5,11 0,14 2,1 5,0 8,-1 4,-1 9,-5 9,-9z"/>
   <path class="fil25" d="M744 535c2,0 6,1 8,1 5,-1 10,-4 9,-10 -1,-3 -3,-3 -5,-4 -3,-2 -2,-3 -7,-2 -4,1 -5,0 -7,3 -1,2 -3,3 -2,6 0,3 0,4 4,6z"/>
   <path class="fil26" d="M766 515c0,2 5,6 8,5 2,0 10,-6 2,-12 -1,-1 -2,-3 -5,-1 -2,1 -5,6 -5,8z"/>
   <path class="fil27" d="M396 203c1,0 2,-1 3,-2 3,-2 12,-9 13,-12 -3,0 -6,1 -7,0 0,-2 6,-3 5,-6 0,-5 -7,-1 -8,0 -2,1 -3,0 -5,2l-8 4c-1,2 -2,2 -3,2 0,0 -4,3 -8,4 -1,1 -2,1 -2,2 1,-1 1,0 2,1 1,2 1,2 2,3 2,0 4,-2 6,-3 4,-1 3,0 3,1 -1,1 0,0 -1,1 0,0 -8,5 -4,8 2,2 6,-2 10,-4 2,0 1,0 2,-1zm167 400c3,1 10,4 12,4 4,-2 10,-23 12,-29 2,-11 3,-7 -18,-8 -3,0 -4,1 -6,1 -3,1 -3,1 -3,4 0,4 -2,26 -1,27 1,1 3,1 4,1zm-85 3c3,-2 5,-29 3,-32 -3,-4 -16,0 -20,-2 -2,-7 15,0 18,-4 -5,0 -11,2 -10,-3 -4,-1 -6,0 -8,-2 -6,-4 -4,-2 -9,-1 -1,-4 -2,-5 -6,-5 -1,3 0,4 1,8 0,2 0,4 3,4l2 -4c0,-1 0,-1 0,-1 0,0 0,0 1,0 3,2 -1,4 5,4l3 4c-4,2 -10,2 -15,4 0,3 1,1 3,3 2,1 3,11 3,13 0,1 0,1 -1,2 1,0 1,0 1,0 2,4 4,14 5,16 3,0 5,-1 8,-1 3,0 4,2 7,1 0,-2 -1,-3 1,-4 2,0 3,0 5,0zm117 -50c0,0 0,0 0,0zm9 -11c1,5 0,7 -1,11 -1,4 -1,6 -5,6l-3 -5c0,-1 0,-1 0,-1 0,0 0,0 -1,-1 -4,4 1,6 -7,7l-4 5c2,-10 -21,-1 -25,-5 7,-1 15,1 13,-5 5,-2 8,0 12,-3 8,-6 6,-3 12,-2 2,-5 3,-7 9,-7zm-152 19c0,0 0,0 0,0zm296 -188c-2,-2 -11,-2 -13,-1 -2,1 -3,1 -3,4 1,9 7,8 14,8 4,0 3,-1 3,-5 -1,-2 0,-5 -1,-6zm-511 71c4,1 3,2 8,1 3,0 4,2 7,0 1,-2 0,-14 -1,-16l-2 0c-4,4 -2,8 -4,9 -2,-2 0,-11 -5,-9 -2,1 -1,3 -1,6 -1,2 0,8 -2,9zm11 -22c3,2 9,2 12,2 2,-3 3,-8 -1,-10 -1,0 -8,-3 -10,-3 -3,1 -3,9 -1,11zm13 60c2,-1 13,-2 14,-2 2,-3 2,-17 2,-21 -1,-4 -2,-5 -5,-6 -4,-1 -6,-2 -10,-2l-33 0c-2,0 -2,1 -3,0 2,3 -2,29 5,30 13,2 17,2 30,1zm500 -76c-1,2 -21,4 -24,4 -4,0 -4,0 -7,1 -4,1 -9,0 -12,3 -3,2 -1,8 -1,12 0,4 0,8 0,11 1,2 1,1 2,2 1,1 17,1 20,1 5,0 21,-3 30,-3 6,-1 5,-1 4,-5 -1,-6 -2,-18 -2,-24 0,-2 -10,-2 -10,-2zm-16 -17c-10,-4 -3,8 -5,14 -3,-2 -2,-11 -4,-14 -3,1 -3,9 -2,12 2,7 15,4 23,4 0,0 0,0 0,0 -5,-2 2,-17 -8,-17 -3,3 0,3 -1,7 -3,-1 -2,-3 -3,-6zm-445 -77c2,4 7,4 11,2 1,-2 1,-14 0,-15 0,0 -11,-5 -12,-1 -1,2 0,12 1,14zm33 -13c-2,3 -2,8 -2,13 0,3 -2,8 -2,12 1,4 6,5 10,4 1,-1 6,-28 5,-30 -5,-1 -9,-2 -11,1zm-63 31c0,-1 0,-3 -1,-4 0,-3 -1,-5 -4,-5 0,1 -1,5 -1,6 -1,3 -8,57 -10,58 2,3 -2,6 -2,10 1,1 1,4 2,5 0,3 -1,4 1,4 1,-1 0,-1 0,-3 1,-3 3,-4 3,-8 0,-4 0,-4 1,-7 0,-3 0,-4 3,-5 -1,-1 8,-49 8,-51zm398 -34c1,4 3,6 4,10 1,2 1,9 4,9 2,0 8,-2 9,-4 4,-5 -1,-16 -3,-21 -3,-10 -6,-8 -16,-4 0,1 2,9 2,10zm70 60c1,1 1,2 0,4 0,2 -1,4 0,5 2,2 4,1 5,0 3,-5 -4,-44 -1,-48 -3,-4 0,-13 -4,-14 -3,2 -1,6 -1,10 0,4 1,11 1,16 0,2 -1,4 0,6 0,4 3,17 0,21zm-466 157c1,-2 -2,-7 5,-14 6,-5 10,-4 4,-9 -2,-2 -4,-2 -5,-4 -2,-3 -3,-3 -7,-3 -4,0 -4,1 -8,2l-18 0c-3,0 -5,0 -8,-1 -13,-2 -7,-3 -19,7 -2,1 -4,2 -5,4 -7,7 -9,7 -11,9 2,3 6,1 11,6 1,1 1,2 2,3 3,1 5,0 7,2 0,2 0,1 -1,3 7,4 7,2 15,3 10,0 16,8 21,3 2,-2 2,-4 10,-8 2,-1 6,-2 7,-3zm-47 72c0,-2 0,-4 1,-6 1,-3 1,-2 3,-4 2,-2 0,-7 -1,-10 -1,-3 0,-4 -1,-6 -1,-1 -2,-2 -3,-4 -2,-4 -3,-6 -7,-4 -2,-1 -1,-1 -2,-2 -2,0 -4,0 -5,0 0,4 0,5 2,8 1,2 2,5 3,8 3,0 8,-1 9,2 -1,2 -1,-1 -3,3 -3,0 -4,0 -6,3 -1,2 -1,4 0,6 1,3 5,10 10,6zm-6 18c-3,0 -4,0 -5,4 -1,3 2,9 2,11 0,-4 4,-10 3,-15zm22 -45c-2,-1 -6,0 -9,1 -4,0 -2,3 -1,6 1,2 2,5 3,6 1,0 7,2 8,2 0,-2 -1,-14 -1,-15zm13 54c-1,-4 -1,-9 -3,-11 -2,-2 -8,0 -10,1 0,2 0,5 0,7 0,2 7,13 6,15 1,-1 2,-2 3,-3 3,-3 4,-3 4,-9zm14 -45c-1,1 -14,14 -4,24 4,4 12,4 13,4 1,-2 1,-9 2,-12 0,-3 2,-9 2,-11 -3,-1 -5,-1 -7,-2 -1,-1 -5,-3 -6,-3zm14 -25c3,0 4,1 6,1l5 -12c0,-1 0,-1 0,-1l-11 -3c-2,3 -3,8 -3,11 0,4 0,4 3,4zm457 0c-2,5 -6,12 -2,17 2,0 4,0 6,-1 7,-2 9,-19 9,-20 0,1 1,6 -1,11 3,-6 5,-1 7,-4 5,-7 9,-18 9,-18 -1,-3 -1,-5 -1,-7 -1,-3 -6,-3 -8,-5 3,3 6,8 4,13 -1,4 -5,5 -7,8l-2 2c0,0 -1,0 -1,0 -2,-1 -1,-1 -4,-2 -8,-2 -7,-2 -9,6zm-21 -27c-2,0 -6,3 -7,4 0,4 3,7 4,9 2,4 1,8 4,9 2,-1 1,-2 2,-3 1,-1 3,-1 4,-2 4,-4 -1,-9 1,-13 -5,-1 -5,-3 -8,-4zm29 -1c4,2 7,0 11,0 -1,-5 9,-9 6,-14 -1,-2 -1,-2 -2,-4 -2,-2 -6,-2 -8,-2 -1,2 -2,4 -2,5 -2,5 -7,11 -5,15zm-1 -46c7,-6 13,-3 20,-6 5,-1 7,-2 10,-7 2,-5 4,-4 10,-5 2,-3 2,-5 4,-6 1,-1 2,-1 3,-1 0,0 -1,0 -2,0 -4,-2 -14,-5 -14,-5 -8,1 -26,2 -30,3 -1,0 -2,1 -3,1 -5,1 -10,2 -15,2 -18,1 -12,3 -19,8 -5,4 -5,5 0,9 3,2 1,4 2,7l1 0c3,1 10,-3 16,-3 4,1 4,2 7,4 7,5 4,4 10,-1zm45 15c2,1 4,1 6,2 -2,-2 0,-11 0,-14 -5,0 -7,7 -6,12zm-10 38c-1,0 -4,8 -8,14 0,0 1,-1 1,-1 1,-1 3,-1 4,-2 4,-4 9,-12 9,-12 1,-4 2,-10 -2,-9 -2,1 -3,7 -4,10zm-10 15c4,-7 8,-15 7,-15 -1,-1 -2,-2 -6,1 -2,1 -2,1 -2,4 0,2 0,3 -1,3 0,0 -4,10 -9,16 0,-1 1,-2 3,-2 0,-1 1,-1 2,-1 3,-2 5,-4 6,-6zm-280 182l-1 -12c0,0 1,0 1,0 -1,-1 -1,-1 -2,-2 -2,-4 0,-9 -2,-14 -2,0 -2,1 -4,0 2,-3 3,-1 4,-3 1,-1 0,-3 -1,-4 -3,-1 -6,0 -7,1 0,3 2,4 2,6 0,2 -1,3 0,6 1,5 1,8 2,13l4 27c2,7 0,21 1,29 2,8 0,20 3,27 2,-2 -1,-1 3,-1 0,0 0,1 1,2 5,3 2,-8 2,-9 -1,-3 -1,-6 -2,-9l-2 -31c0,-4 -1,-6 -1,-10 0,-5 0,-6 -1,-11 0,-2 0,-3 0,-5zm57 -38c2,4 0,108 -1,114 0,4 0,7 3,8 2,-4 5,-116 11,-122 -2,-2 1,-2 -4,-5 -2,-1 -4,-1 -7,-1 -2,3 0,4 -2,6zm-63 149c3,1 5,0 7,-1 2,0 3,0 5,0 1,0 3,-1 4,-1 4,0 5,0 9,-1 2,0 6,0 8,-1 2,-5 -1,-17 -5,-13 -2,1 -1,4 -8,8 -3,2 -11,0 -12,-1 -3,-2 -2,-4 -5,-4 -2,2 -4,11 -3,14z"/>
   <path class="fil28" d="M649 156c-1,1 -1,2 -3,4 -2,2 -4,5 -6,7 -1,2 -8,10 -6,13 3,3 22,-25 27,-26 -1,-3 -3,-5 -6,-5 -1,1 -5,5 -6,7z"/>
   <path class="fil29" d="M570 657c-1,6 -3,8 -8,11 -5,3 -11,-1 -13,-5 -3,-3 -4,-12 -1,-16 1,-1 4,-3 6,-4 3,-1 5,1 9,1 -1,-3 -7,-3 -10,-3 -2,-1 -8,2 -10,3 -1,2 -4,6 -4,9 -1,19 24,26 30,16 2,-3 3,-9 1,-12z"/>
   <path class="fil30" d="M492 665c-1,5 -3,7 -7,10 -5,2 -10,-1 -12,-4 -2,-3 -3,-11 0,-14 0,-1 3,-3 5,-4 3,-1 4,1 7,1 0,-3 -5,-3 -8,-3 -2,0 -7,2 -8,3 -2,1 -4,5 -4,8 -2,16 21,22 26,13 2,-2 2,-7 1,-10z"/>
   <path class="fil28" d="M341 145c1,5 1,13 8,10 0,0 0,0 0,0 0,-1 0,-1 0,-1 -5,-4 -6,-4 -8,-9z"/>
   <path class="fil31" d="M346 144c2,2 2,4 3,5 2,2 3,4 7,4 2,1 4,1 5,2 2,-1 3,-1 5,-1 0,0 0,0 1,0l0 0c2,-2 4,-2 5,-3 1,-2 2,-5 2,-8 2,-5 3,-4 1,-10 0,-2 0,-2 -1,-4 -9,-10 -24,-7 -29,2 0,3 -1,2 0,6 0,2 0,3 0,4 1,1 1,2 1,3z"/>
   <path class="fil32" d="M659 136c1,6 1,10 8,12 6,2 8,3 14,-1 4,-2 4,-3 6,-7 3,-5 2,-7 4,-9 -1,-11 -19,-18 -29,-9 -2,2 -2,2 -3,4 -2,6 -1,5 0,10z"/>
   <path class="fil28" d="M687 145c-2,2 -4,3 -4,6 8,5 8,-9 9,-11 0,0 -1,1 -3,3 0,1 -1,1 -2,2z"/>
   <path class="fil33" d="M385 114c12,-4 6,-2 18,-6 0,-3 3,-30 4,-36l0 0 0 0c0,-1 0,-2 1,-2 0,0 0,1 0,2l0 0 0 0c2,7 8,38 11,56 -1,-18 -2,-47 -1,-49 3,-6 6,13 6,13l1 5c1,-7 2,-16 4,-16 1,-1 6,10 8,17 3,-15 3,-14 8,0 2,-21 6,-68 7,-81l0 0 1 0c0,-2 0,-3 0,-3 7,-11 9,70 9,70l3 43c1,-26 3,-63 4,-72l0 0 0 0c0,-1 0,-2 0,-2 3,-5 5,16 5,16l2 12c7,-16 5,-17 8,-3 13,-12 9,-14 15,13l7 -46c0,0 0,-14 1,-11 0,0 0,0 0,0l0 0 0 0c0,4 2,64 2,81 4,-13 16,-51 17,-51 1,1 3,8 4,13 5,-10 4,-9 9,7l2 7c4,-16 17,-70 21,-83l0 0 0 0c0,-2 0,-3 1,-3 1,-1 2,1 2,3 0,1 -2,73 -3,103 6,-17 17,-48 19,-49 3,-3 3,12 3,12l0 5c6,-7 5,-7 8,5 3,-3 9,-9 10,-8 1,1 4,20 5,31 4,-16 14,-58 16,-66l0 0 0 0c0,-1 1,-1 1,-1 0,-1 1,0 1,1 0,0 -1,58 -1,67 12,-12 6,-12 18,-5l8 6c-10,-7 -5,-4 -16,-10 -1,1 -10,11 -10,11 -1,0 -1,-42 -1,-61l-6 30c-1,1 -7,44 -11,38 -1,-1 -4,-25 -6,-34 -10,11 -10,13 -12,-1 -2,3 -5,6 -6,5 -1,0 -2,-7 -2,-13 -3,7 -2,4 -7,17l-6 18c0,0 -6,25 -9,17 -1,-2 1,-68 3,-100l-7 28c0,0 -9,45 -13,45 -1,1 -6,-15 -8,-22 -5,9 -4,8 -7,-6l-8 23c0,0 -8,30 -10,26 0,-1 -1,-74 -1,-84 -2,10 -8,58 -8,58 0,0 0,0 0,-1l0 0 0 0c-2,-3 -5,-17 -6,-21 -10,10 -8,13 -11,1 -2,4 -6,13 -7,13 0,0 -3,-12 -4,-21l-2 38c0,1 1,60 -5,51 0,0 0,-1 0,-2l0 0 0 -1c-2,-15 -7,-78 -10,-112l-2 24c0,0 -2,47 -6,48 -1,0 -4,-6 -5,-12 -1,4 -2,8 -3,8 -2,1 -6,-10 -8,-17l-1 5c0,1 -1,16 -4,13 -1,-1 -3,-9 -4,-16l0 3c0,3 1,48 1,48 0,2 -1,2 -2,2 0,0 0,-1 0,-2l0 0 0 0c-3,-10 -10,-55 -12,-68 -2,9 -5,33 -5,34 0,0 -17,5 -18,5z"/>
  </g>
 </g>
</svg>
