<?xml version="1.0" encoding="UTF-8"?>
<!DOCTYPE svg PUBLIC "-//W3C//DTD SVG 1.1//EN" "http://www.w3.org/Graphics/SVG/1.1/DTD/svg11.dtd">
<!-- Creator: CorelDRAW X7 -->
<svg xmlns="http://www.w3.org/2000/svg" xml:space="preserve" width="160px" height="200px" version="1.1" style="shape-rendering:geometricPrecision; text-rendering:geometricPrecision; image-rendering:optimizeQuality; fill-rule:evenodd; clip-rule:evenodd"
viewBox="0 0 160 200"
 xmlns:xlink="http://www.w3.org/1999/xlink">
 <defs>
  <style type="text/css">
   <![CDATA[
    .str0 {stroke:#2B2A29;stroke-width:2.36222}
    .fil4 {fill:#FEFEFE}
    .fil1 {fill:#9D9E9E}
    .fil6 {fill:#898989}
    .fil5 {fill:#2B2A29}
    .fil0 {fill:#2B2A29}
    .fil2 {fill:#FFED00}
    .fil7 {fill:#E31E24}
    .fil3 {fill:#B0CB1F}
    .fil8 {fill:#636F21}
   ]]>
  </style>
 </defs>
 <g id="Layer_x0020_1">
  <metadata id="CorelCorpID_0Corel-Layer"/>
  <g id="_421866624">
   <path class="fil0" d="M89 60c0,1 0,2 0,3 0,2 -1,2 0,5l1 3c0,1 1,3 2,4 0,0 0,0 1,1 0,1 0,5 0,6 -1,0 -4,2 -6,2 -2,1 -4,2 -6,2 0,-1 0,-2 -1,-4 0,0 0,-1 -1,-1 0,-1 0,-1 -1,-1 0,-1 0,-1 -1,-2 -1,0 -2,0 -3,0 -1,-1 -3,-1 -5,0 -1,0 -1,0 -2,1 0,0 -1,0 -1,0l-2 3c-1,0 -1,1 -1,2 0,0 -6,-1 -6,-3 0,-1 0,-6 1,-7 0,-2 1,-6 1,-7 1,-1 1,-3 1,-4 1,-2 2,-2 2,-3 1,-3 6,-6 10,-7 5,-1 9,0 13,3 2,1 3,2 4,3l0 1zm5 -30c-2,-2 -2,0 -4,-2 0,0 -1,-1 -1,-1 -1,1 0,1 -1,1 0,0 0,0 0,0 -1,-1 0,-1 -1,-2 -1,1 0,1 -1,1 -1,1 0,0 -1,1 0,0 0,0 0,0 -1,0 0,0 -1,0l0 -1c0,0 0,0 0,0 -1,1 -1,2 -1,3 -1,2 -1,4 -2,4 0,-2 1,-16 0,-18l-1 4c-1,1 -1,1 -1,2l-2 3c0,1 0,1 0,2 0,-1 0,-1 -1,-1l0 0c-1,0 -1,0 -2,1l-1 -1 0 0c-1,1 -1,0 -1,1 -1,0 -1,1 -2,3 0,1 0,4 0,5 -1,-1 0,-1 -1,-4 0,-1 0,-3 0,-4 0,-1 0,-7 -1,-8 0,4 -1,5 -1,8l0 1c0,0 0,0 0,0 0,0 0,0 0,0 -1,0 0,-1 -1,-2 0,1 -1,1 -1,2 0,-1 -1,-2 -1,-2 0,0 0,1 0,1 0,1 0,1 0,2 -1,0 -1,0 -1,-2 0,0 -1,-1 -1,-1 0,0 0,0 0,0 0,0 0,1 0,1 0,1 -2,1 -5,2 1,2 0,2 0,4 1,1 1,1 2,2 0,1 1,2 1,3 1,1 1,2 1,3l1 0c1,1 3,6 4,7 0,1 0,2 1,3 3,0 1,0 3,2 1,-1 4,-1 5,-1 2,-1 4,0 6,0 0,-1 1,-2 3,-1 0,0 4,-8 5,-11 0,0 0,0 1,0l2 -5c1,-1 1,-1 2,-2 0,-1 0,-1 0,-2 0,-1 0,0 0,-1zm-16 50l2 4c0,2 0,3 0,5 -1,1 -1,1 -1,2 -3,3 -5,3 -9,3 -2,-1 -2,-1 -3,-1 0,-1 -1,-1 -2,-2 -1,-1 -2,-4 -1,-6 0,-2 0,-3 1,-4 0,0 1,-1 1,-1 1,-1 2,-1 2,-1 0,0 -1,0 -1,1 1,-1 3,-2 5,-2 2,0 5,1 6,2zm-12 13c1,1 3,2 5,2 2,0 6,-1 8,-3 0,-1 0,0 0,-1 1,-1 2,-3 2,-4 0,0 3,0 3,-1 2,0 8,-2 9,-3l0 9c0,0 0,1 -1,1 -1,1 -3,2 -4,3 -2,0 -3,0 -4,0 -1,0 -1,0 -2,0 -1,1 -1,1 -2,1l-11 -1c-3,0 -4,-1 -6,-1 -2,0 -2,-1 -4,-1l-3 -3c0,0 0,-7 1,-8 1,0 4,2 6,2 0,2 -1,2 1,5 1,1 0,1 2,3zm-10 -19c0,1 0,2 0,4 0,1 0,2 -1,4l0 6c0,0 0,2 0,2 -2,0 -2,0 -3,1 -1,1 -1,0 -1,2 0,2 0,6 1,7 0,0 0,0 1,1 1,0 2,0 2,3 0,0 -1,0 -1,0 -3,3 -2,2 -2,5 0,2 0,2 0,4 1,1 2,1 2,2 1,1 1,1 2,2l0 8c0,1 0,3 0,3 -2,1 -2,1 -3,2 0,2 0,1 -2,2 -1,0 0,2 -3,0l-3 -3 -3 -4c-1,-2 -2,-3 -3,-6 -1,-1 -1,-1 -1,-2 -3,-5 -5,-12 -5,-18 0,-2 -1,-4 -1,-5 0,-4 0,-9 1,-12 0,-1 3,-7 3,-8l1 -2c0,0 0,0 0,0 1,-1 2,-2 3,-2 1,-1 5,-3 7,-3 1,0 1,0 1,0 1,0 1,0 2,0 0,2 0,2 2,3 1,0 0,1 2,3 1,1 1,1 2,1zm-3 22l0 -2c0,0 0,0 0,0 3,2 3,2 6,3 1,0 2,1 3,1 3,1 8,2 12,2 4,0 8,-1 12,-1 2,-1 10,-2 11,-4 0,1 -1,3 -1,4 0,3 -1,3 -5,5 -3,1 -9,2 -12,2 -3,0 -5,0 -8,0l-4 -1c-3,0 -8,-3 -11,-4 0,0 -1,0 -1,0 -1,-1 -2,-1 -2,-2 0,0 0,-2 0,-3zm4 15c0,1 0,1 2,1 2,1 5,3 7,3 6,1 8,2 14,1 1,0 2,0 3,-1 3,0 7,-2 10,-4 1,0 3,-1 3,-2 0,2 0,3 0,4 -1,2 -2,2 -2,3 -2,1 -4,2 -5,2 -4,2 -7,2 -9,3 -2,0 -5,0 -7,0 -1,0 -2,0 -3,0 -4,-1 -6,-2 -9,-3 -2,-1 -4,-2 -6,-3 -1,-1 -2,-2 -2,-2 0,-1 0,-4 0,-5 0,1 3,2 4,3zm39 4c1,-1 2,-6 1,-8 0,-1 -2,-1 -2,-3l1 -1c-2,-1 1,0 1,-2 1,-2 0,-3 1,-5 0,-2 0,-5 -3,-6 0,0 0,0 -1,0 0,-5 1,-2 0,-9 -1,-1 0,-2 0,-4 0,-3 0,-2 2,-3 -1,0 -1,0 -1,0 0,0 0,0 0,0 -1,0 -1,0 -1,0 -1,0 -2,0 -2,-1 -1,-1 -2,-4 -2,-6 -1,-1 0,-5 0,-6 1,-1 1,-1 2,-1 1,0 0,0 0,3 0,2 0,3 0,5 1,5 2,4 3,5 0,0 0,0 0,0 0,1 0,1 0,1 0,0 1,0 1,0 1,-1 1,-2 1,-3 1,-1 3,-1 4,-1 0,-1 0,0 0,-1 2,0 4,0 5,1 1,0 1,1 2,1l2 2c2,2 4,6 4,9 1,3 1,4 0,7 -2,8 -2,6 -6,12 -2,4 -1,3 -3,8 -1,1 -2,3 -2,4 -1,3 -1,2 -1,5 0,4 2,5 1,10l0 1c0,1 -1,3 -1,4 0,-1 -1,-1 -2,-1 0,-1 -1,-2 -1,-3 0,-1 -1,-1 -1,-1 -1,0 -1,0 -2,0 0,-2 -1,-12 0,-13zm7 18c0,0 -1,0 0,0 1,1 2,2 2,2 1,1 1,2 1,2 0,1 0,2 -1,2 -2,2 -3,2 -3,0 -1,-1 -1,-3 -1,-5 1,0 1,0 2,-1zm3 7l2 -2c0,0 1,-1 1,-2 1,-1 0,0 1,-2 0,-2 0,-3 0,-4 0,-2 0,-1 0,-3l0 -2c0,-2 0,-1 -1,-3 0,-1 0,-2 0,-2 0,-5 1,-6 3,-10l5 -8c0,0 0,0 -1,0 2,-3 3,-4 4,-7 0,-1 0,-1 1,-1 0,-1 -1,-1 0,-2 1,-1 1,-3 1,-5 0,-2 1,-5 0,-7 0,-1 0,-2 -1,-3 -1,-4 -1,-4 -3,-6 -1,-1 -2,-3 -3,-4 -1,-2 -2,-2 -3,-3 0,0 0,0 -1,0 -7,-5 -11,-3 -12,-3 -1,0 -2,0 -3,0 0,-1 -1,-1 -1,-2l-1 0c0,0 -1,0 -1,0 0,0 0,0 0,0 -1,-1 0,-1 -1,0 0,0 -1,-1 -1,0 -1,0 -1,0 -2,0 0,-1 -2,-2 -2,-3 1,-1 0,-2 -1,-3 0,-1 1,-4 2,-5 0,-1 1,-2 2,-4 0,-1 0,-2 1,-3 0,-1 0,0 0,-2 1,0 1,-1 1,-2 1,-1 2,-3 3,-4 0,0 0,0 1,-1 1,0 1,-1 1,-3 -2,0 -2,0 -3,0 0,0 0,0 -1,0 -2,-1 -2,-1 -3,-2 0,0 0,0 -1,-1 -1,1 0,1 -1,1 0,-1 0,-1 -1,-2 0,1 0,1 0,1l-1 0c0,0 0,0 -1,1 0,-1 0,-2 -1,-2l0 0c0,1 0,1 0,1 0,1 -1,1 -1,1 0,1 0,3 -1,3 0,-2 0,-5 0,-7 0,-3 0,-5 0,-8 -1,1 -1,2 -2,2l-2 6c-1,1 -1,1 -1,2 -1,0 -1,0 -1,0 -1,0 -1,1 -2,1 -1,-1 0,-1 -1,-1l-2 1c0,0 0,-1 0,-2 -1,1 -1,0 -1,1l0 2c0,1 0,1 0,2 0,0 0,0 0,1l-1 0c0,-2 0,-5 0,-7 0,-2 0,-4 -1,-6 0,-1 0,-1 0,-1 0,0 0,2 0,3 0,2 0,4 -1,5 0,1 0,2 0,3l-1 -2c-1,1 0,1 -1,1 0,1 0,0 0,1 -1,-1 -1,-2 -2,-2l0 1c0,-1 0,-1 -1,-1 -1,0 0,2 -1,3 -2,0 -6,1 -7,1 0,1 1,2 1,3 1,0 2,0 2,1 1,1 0,0 1,1 0,1 0,2 1,3 0,1 1,3 2,4l-1 1c1,1 4,10 4,10 0,1 0,0 0,1 0,1 0,1 1,2 -1,0 -1,0 -1,0 -1,1 -2,2 -2,3 -3,0 -4,-2 -6,2 0,-1 -1,-1 -1,-1 -2,0 -2,0 -2,1 0,0 -3,0 -4,0 -4,-1 -8,-1 -11,1 -2,1 -5,3 -7,5l-3 4c-1,1 -2,4 -3,6 -1,4 0,4 -1,8 0,6 -1,10 1,16l2 8c0,1 0,2 1,3 0,2 1,5 2,7 0,1 1,2 1,3l3 4c1,4 3,7 6,10 1,1 2,2 3,3 1,0 1,0 1,1 1,1 2,1 3,2 1,0 2,1 4,1 0,0 0,1 1,1 2,1 0,1 2,3 1,0 1,0 1,0 0,1 0,1 1,1 0,3 1,7 1,10 -1,1 -3,1 -3,2 0,1 0,2 0,3 -2,1 -2,0 -3,2 -1,1 -1,1 -2,1 0,1 0,1 -2,1 0,-1 0,-1 0,-2 0,-2 0,-2 -1,-2 0,-1 -1,-3 -1,-4l0 0c0,0 0,0 1,-1 -1,0 -1,1 -1,0 -1,-2 -1,-3 -3,-4 -1,-1 0,0 -1,-1 -2,-1 -2,0 -3,-1 -4,-1 -9,-1 -12,-1 -1,0 -2,0 -3,0 -2,0 -6,4 -7,5 0,1 0,1 0,1 0,1 0,1 1,1 -2,2 -1,3 -4,3 1,1 1,0 0,2 0,1 -1,6 0,7 0,0 1,1 1,1 0,2 0,3 -1,4 0,3 0,5 1,7 1,2 1,2 2,2 1,1 1,1 2,2 0,0 0,0 0,1 -1,0 -1,-1 -1,1 -1,1 0,1 0,2 1,0 1,0 1,1 0,0 0,0 1,0l0 0c2,0 6,1 8,1 3,0 7,0 10,-1 3,0 5,-2 6,-4 1,0 2,-1 2,-2 0,-1 0,-1 -1,-2 0,0 0,0 1,0 0,0 -1,0 0,0 1,0 -1,0 0,0 0,-1 0,-2 0,-2 0,-1 -1,1 0,0 0,-1 0,0 0,-1 1,0 1,0 2,-1l1 -7c2,0 2,1 4,1 0,1 0,1 1,1 0,1 0,1 1,0 0,0 0,0 0,0 0,-1 0,0 -1,-1 0,0 0,0 -1,-1 0,-1 0,-2 0,-3 0,-1 0,-3 0,-4l2 -1c0,2 1,4 0,6 0,1 0,5 0,6 2,1 2,2 5,3 1,1 2,1 3,2 2,1 6,1 9,1 2,1 5,1 7,1 5,0 9,0 13,-2 1,0 2,0 3,-1 2,-1 3,-1 5,-3 1,0 1,0 1,-2 1,0 3,0 3,-1 1,0 1,-1 1,-2 3,0 9,-1 10,0l0 0c0,0 0,1 0,1 -1,0 -1,0 -1,1 0,2 1,5 1,7 1,1 0,0 1,1 0,0 1,1 2,1 0,1 0,2 1,3 -1,0 -1,0 -1,0 1,1 0,0 0,1 1,1 2,1 3,1 1,1 1,1 1,1l1 0c1,0 2,0 3,1 2,0 9,1 10,0l1 1c1,0 1,-1 2,-1 2,0 3,-1 3,-1 1,0 0,0 1,0 1,-1 2,-3 3,-4 1,-2 1,-2 1,-3 -1,-1 0,-1 0,-2 0,-2 0,-3 0,-4 1,0 1,0 2,0 0,-1 0,-2 1,-4 0,-1 0,-3 -1,-4l-1 -1c0,-1 0,-3 0,-4 1,-1 2,0 0,-4 0,-1 0,-1 -1,-2 0,0 0,-1 0,-1 0,0 0,0 -1,-1l-1 0c0,0 -1,-3 -1,-3 0,0 -4,-1 -5,-2l-3 -1c-1,0 -1,0 -2,0 -2,0 -10,1 -11,1 0,0 0,0 -1,1 0,0 0,0 -1,0 0,1 -2,3 -2,3 0,1 0,1 0,1 0,1 -1,3 -1,3 0,0 0,0 0,0 -2,0 -1,2 -2,3l-1 4c0,1 1,1 1,3 0,1 0,2 0,3 -1,0 -1,0 -1,0 -1,0 -1,0 -1,0 -2,0 -2,0 -4,0l-6 0c0,-1 0,-2 0,-3 1,-1 2,-1 3,-2 2,0 4,0 6,0 0,0 1,0 1,0 1,0 1,0 1,0 0,0 0,0 0,-1 -1,0 -2,0 -2,1 -1,0 -2,-1 -3,0 -1,0 -3,0 -4,0 -1,-4 -4,-3 -5,-3 0,0 0,0 0,0l1 0c-1,-2 0,-4 -1,-6 0,0 0,0 -1,0 0,-1 -1,-2 -2,-2l-1 -7 2 -1c0,0 0,0 0,0 2,-1 2,-2 2,-3 1,-1 1,-1 2,-1 1,0 3,-1 4,-2z"/>
   <path class="fil1" d="M147 167c0,0 0,0 0,0 0,-1 0,0 0,-1 0,0 0,-1 0,-2 0,-1 -1,-1 -1,-2 0,0 0,-1 1,-1l0 0c0,-1 -1,-2 -1,-3l-1 -3c-1,0 0,0 -1,0 -1,-1 -2,-1 -2,-3 0,0 0,0 0,0 -2,0 -2,0 -3,-1 -1,-1 -1,-1 -1,-1 -1,0 -1,0 -1,0 -2,1 -5,2 -5,3l-2 2 0 -2c2,-1 1,0 3,-1 1,-1 1,-1 2,-1 0,-1 1,-1 1,-1 -4,-1 -5,-1 -10,-1 -3,0 -4,1 -6,3 -1,0 -1,1 -1,1l2 2c1,0 2,1 3,1 1,-1 6,-2 6,-2 0,1 0,1 -1,1 -1,0 -4,1 -4,2 0,0 0,0 0,0l0 0c-2,0 -4,-2 -5,-2 -1,0 -2,1 -2,2 1,1 1,1 1,1 1,0 1,0 1,1l2 1c1,0 1,0 2,0 1,-1 4,-2 4,-2 1,0 1,0 1,1 0,0 -2,1 -3,1 0,0 -1,0 -2,0 -2,1 -2,1 -4,0 -1,-1 -2,-2 -3,-2 0,1 -1,6 -2,6 1,1 4,3 5,4 0,0 1,0 2,0 2,1 4,-1 6,-2 1,0 1,0 2,0 -1,1 -4,2 -5,3 -1,0 -2,1 -2,1 -1,0 -3,-1 -4,-1 0,-1 0,-1 -1,-2 0,0 -1,0 -1,0 0,0 0,0 -1,0 0,0 0,4 0,5 1,1 2,1 3,2l3 2c2,0 6,-3 7,-3 0,2 0,1 -2,2 -1,0 -3,2 -5,2 0,0 0,0 0,0 -1,0 -2,-1 -2,-1 -1,0 -2,-1 -2,-1 -1,-1 -3,-2 -4,-2 0,1 1,7 2,8 1,0 3,1 4,1 1,0 3,1 3,1 1,0 2,-1 3,-1 1,-1 3,-2 4,-2 0,0 0,0 0,0l0 1c-1,0 -4,2 -5,3 0,0 0,0 0,0l-2 1c-1,-1 0,-1 -4,-2 0,0 -1,0 -1,0 0,1 1,1 1,2 0,0 0,0 1,0l4 2c0,0 2,0 1,1l1 0c-1,1 0,0 0,0 1,-1 2,-1 3,-2 1,0 2,-2 3,-1 0,1 0,0 0,1 0,0 0,0 0,1l2 1c1,0 1,0 2,0l0 1c0,0 0,0 0,0 1,-1 3,-1 4,-2l0 0c0,0 1,0 1,0 1,0 1,0 1,0l1 -1c0,-1 2,-3 2,-5 -1,0 -1,0 -1,-1 1,-1 2,-4 2,-5 0,-1 0,0 0,-1 1,0 1,0 2,-2 0,-2 0,-3 0,-5 0,0 -1,0 -1,0z"/>
   <path class="fil1" d="M38 172c0,0 0,0 0,0 0,0 0,0 0,0l0 0c0,0 0,0 0,1 -1,0 -1,0 -1,0 0,0 -1,1 -1,1 -2,0 -2,-4 -2,-6 0,-1 0,-1 1,-2 0,-1 2,-1 2,-1 1,0 1,-1 1,-1 0,-1 0,0 0,-1 0,0 0,0 0,0l1 -1c0,0 0,0 1,-1 1,-1 2,-1 3,1 1,1 1,1 -1,2 0,0 0,0 -1,1 -1,0 -2,1 -2,1l-1 -1c0,0 0,0 0,0l0 0c0,1 0,1 1,1 2,1 6,0 8,0 0,-1 0,-3 -1,-3l-1 0c0,-1 0,-2 -1,-3 -1,-3 1,-2 0,-3 0,-1 0,-1 0,-1l-2 -2c0,0 0,0 1,0 0,0 0,0 0,0 0,0 0,0 0,0 -2,0 -4,-2 -6,-2 -1,0 -1,-1 -2,-1 -1,0 -1,0 -2,0 -1,0 -2,0 -4,0 -2,0 -4,0 -7,0 0,0 0,0 0,0 -2,1 -4,3 -4,5 1,1 4,2 4,3 1,0 2,-1 4,-1 0,-1 1,-1 2,-1 1,-1 0,0 0,-1 1,0 3,0 4,-1l1 0c0,0 0,0 0,0 1,-1 1,-1 2,-1 0,1 0,1 -1,1 0,1 0,1 -1,1 0,0 -1,0 -2,0 -2,1 -8,4 -9,4 -1,-1 -2,-1 -2,-2 -1,0 -2,-1 -3,0 0,0 0,0 0,0 0,1 0,0 0,1 0,0 0,-1 0,0 0,0 -1,1 -1,1 1,1 2,2 4,3 2,1 2,0 4,-1 1,0 3,-1 4,-1l2 -1c0,0 1,-1 1,0 1,0 1,0 1,0l0 1c-1,1 0,1 -1,1 0,0 -1,0 0,-2 -1,1 -1,1 -2,1l-3 1c0,1 0,1 -1,1 0,0 0,0 0,-1 0,0 0,0 0,0 0,1 -3,2 -4,3l-1 -1c0,0 0,0 0,0 -1,-1 -4,-2 -5,-3 -1,2 -2,5 -2,7 1,1 1,1 2,2l4 2c2,1 2,0 4,-1 1,0 2,-1 2,-1 2,-1 3,-2 5,-2l-1 1c0,0 0,0 -1,1l-5 3c-1,0 -1,0 -1,0 0,0 0,0 -1,0 -1,1 -2,0 -3,0 0,-1 -1,-1 -1,-1 -1,0 -1,-1 -2,-1 0,1 0,3 0,3 2,1 4,2 6,2 1,1 1,1 2,1 2,-1 5,-4 7,-4 0,1 0,3 0,4 -1,-1 -1,-2 -1,-3 -1,1 -6,4 -6,4 -2,0 -3,0 -4,-1 0,-1 -1,-1 -3,-2l0 1c0,-1 0,0 -1,-1 0,0 0,0 -1,0 0,2 1,3 1,5 1,2 0,1 0,2 2,1 4,2 6,2 1,1 1,1 3,1 0,0 1,-1 2,-1l1 -1c0,0 0,0 0,0l1 -1c1,-1 1,0 2,-1 0,0 0,0 0,0l0 -1c1,1 0,1 -1,2l-4 3c-1,1 -1,0 -1,1 -2,-1 -4,-1 -6,-2 1,1 1,3 3,3 1,1 3,1 4,2 1,0 1,0 2,-1 1,0 2,-1 3,-2 1,0 2,-1 2,-1 0,1 -1,1 -2,2 0,0 0,0 1,0 -1,0 -2,1 -3,2l-1 1c0,0 0,0 0,0 -1,0 -1,0 -2,-1l-4 -1c0,0 -1,0 -1,0l0 0c-1,-1 -2,-1 -3,-1 1,3 8,3 11,3 2,0 4,0 7,0 1,0 2,0 3,0 1,-1 0,-1 1,-1 0,0 1,-1 1,-1 0,0 1,-1 1,-1 0,0 1,-1 1,-1 3,-2 2,-2 1,-3 0,-2 0,0 0,-2 1,0 1,0 1,-1l1 -2c0,-1 0,0 0,-1l1 0c0,-1 0,-2 0,-2 1,-1 1,-1 1,-2 0,0 0,0 0,-1 0,-1 0,0 0,0 -3,0 -5,0 -8,0 0,0 0,0 0,0 0,0 0,0 0,0l-1 0z"/>
   <path class="fil2" d="M89 60l0 -1c-1,-1 -2,-2 -4,-3 -4,-3 -8,-4 -13,-3 -4,1 -9,4 -10,7 0,1 -1,1 -2,3 0,1 0,3 -1,4 0,1 -1,5 -1,7 -1,1 -1,6 -1,7 0,2 6,3 6,3 0,-1 0,-2 1,-2l2 -3c0,0 1,0 1,0 1,-1 1,-1 2,-1 2,-1 4,-1 5,0 1,0 2,0 3,0 1,1 1,1 1,2 1,0 1,0 1,1 1,0 1,1 1,1 1,2 1,3 1,4 2,0 4,-1 6,-2 2,0 5,-2 6,-2 0,-1 0,-5 0,-6 -1,-1 -1,-1 -1,-1 -1,-1 -2,-3 -2,-4l-1 -3c-1,-3 0,-3 0,-5 0,-1 0,-2 0,-3z"/>
   <path class="fil2" d="M55 161c0,1 0,0 0,2 0,1 0,2 0,3 0,1 0,2 0,3 0,1 0,5 2,7 0,0 0,0 0,1 1,1 1,0 3,1 2,1 8,2 10,2 1,0 3,0 5,1 1,0 2,-1 3,0 4,0 9,0 13,-2 1,0 3,-1 4,-1 2,-1 4,-3 5,-4 0,-1 -3,-2 -3,-7 0,-1 1,-2 2,-4 1,-1 1,-2 1,-3 0,0 0,-1 0,-1 -3,1 -2,3 -10,5 -8,3 -17,4 -25,1 -3,0 -6,-1 -9,-2 0,-1 -1,-1 -1,-2z"/>
   <path class="fil3" d="M81 132c-2,0 -2,0 -4,0 -2,0 -4,0 -5,0 -2,0 -3,0 -4,-1 -1,0 -4,0 -4,0 0,2 1,5 2,10 0,2 0,3 0,5 0,5 0,3 0,6 0,2 -1,3 2,4 1,0 3,0 5,0 2,1 8,0 10,-1 0,-4 -1,-8 -1,-12 0,-2 0,-10 -1,-11z"/>
   <path class="fil2" d="M94 117l-4 2 -5 2c-1,0 -5,0 -6,0 -1,0 -2,1 -3,1 -1,0 -2,-1 -3,0l0 7c1,0 1,-1 1,-1 1,0 2,1 5,1 3,-1 3,-1 6,-1 0,2 0,3 0,5 2,0 2,0 1,3 -1,0 -2,1 -3,-1 -1,-2 1,-2 1,-2 0,-1 0,-2 0,-2 0,-1 0,-2 0,-2 -1,0 0,0 -1,1 -2,2 -1,1 -1,4 0,1 0,2 0,3 1,1 1,3 1,4l1 14c1,-1 1,-2 1,-3 0,-3 0,-9 0,-12 -1,0 -1,0 -1,-1 -2,-1 1,-4 3,-2 0,0 1,2 -1,2 0,0 0,0 0,1 0,1 0,2 0,4 0,2 0,4 0,5 3,0 5,0 8,-2 1,0 1,0 1,0 -1,0 -2,-2 -3,-2 0,-1 -1,-2 -1,-4 -2,-4 -1,-9 2,-12 0,-1 1,-1 1,-1 1,-1 1,-1 1,-2 0,-2 0,-4 0,-5l0 -2c0,-1 -1,-2 -1,-2z"/>
   <path class="fil0" d="M73 64c-2,-2 -5,-6 -10,0 -1,1 -2,2 -2,4 0,3 1,5 3,6 0,0 0,0 0,0 0,1 1,1 1,1 2,1 5,1 7,0 1,-1 1,-1 1,-1 1,0 2,0 2,1 1,0 1,0 1,0 2,1 3,1 4,1 2,0 1,0 3,0 1,-1 1,0 3,-3 0,-1 1,-4 1,-5 0,-2 -1,-5 -3,-6 0,0 -1,-1 -2,-1 -1,-1 -3,0 -5,0 -1,1 -2,1 -2,1 -1,1 -1,1 -2,2z"/>
   <path class="fil2" d="M95 148c0,0 1,0 -1,0l-5 2c-1,0 -2,0 -3,0 0,1 0,2 0,2 -1,1 0,2 -1,3 -1,1 -1,1 -3,2 -2,0 -4,0 -6,0 -2,0 -5,0 -8,0 -3,-1 -3,-1 -3,-2 0,-1 -2,0 -2,-1 -1,0 -1,-2 -1,-2 1,-1 2,0 3,-1 0,0 0,0 0,0 -1,0 -1,0 -1,0 0,0 -1,0 -1,0 -1,0 0,-1 -1,-2 -1,0 -2,0 -3,0 0,0 -1,0 -2,0 0,1 0,8 1,9 1,1 4,3 5,3 3,1 6,2 9,2 5,0 13,0 17,-2 2,-1 4,-2 5,-3l2 -2c0,-1 -1,-3 -1,-4 0,-1 1,-1 0,-1 0,-1 0,0 0,-1 0,-1 1,0 0,-2z"/>
   <path class="fil2" d="M72 122c-1,-1 -4,-1 -8,-2l-6 -3c-1,0 -1,0 -1,0 0,3 0,6 0,8 0,0 0,1 0,1 0,1 0,3 0,5 0,1 0,2 0,4 0,1 0,2 0,4 0,2 0,5 0,7 0,0 0,0 0,1 0,0 0,0 1,0 0,1 3,2 4,2 1,-1 1,-1 3,-1 0,-1 0,-2 0,-3 0,-2 0,-5 -1,-9 -1,-1 -1,-5 -1,-6 1,-1 2,-1 3,-2 0,-1 -1,0 0,-1 1,0 2,1 3,1 0,0 3,1 3,1 0,-2 0,-7 0,-7z"/>
   <path class="fil3" d="M53 96c0,1 0,3 0,3 0,1 1,1 2,2 0,0 1,0 1,0 3,1 8,4 11,4l4 1c3,0 5,0 8,0 3,0 9,-1 12,-2 4,-2 5,-2 5,-5 0,-1 1,-3 1,-4 -1,2 -9,3 -11,4 -4,0 -8,1 -12,1 -4,0 -9,-1 -12,-2 -1,0 -2,-1 -3,-1 -3,-1 -3,-1 -6,-3 0,0 0,0 0,0l0 2z"/>
   <path class="fil4" d="M73 72c1,0 0,0 3,2 1,0 4,1 5,1 1,0 3,-1 3,-2 1,-1 1,-3 2,-4 0,-3 -1,-6 -4,-7 -3,-1 -5,0 -7,1 0,0 0,1 0,1 -1,0 -2,2 -3,0 0,0 0,0 -1,-1 -1,-1 -2,-1 -4,-1 -2,0 -5,3 -5,5 0,3 1,5 2,6l1 1c2,2 8,1 8,-2z"/>
   <path class="fil2" d="M66 93c-2,-2 -1,-2 -2,-3 -2,-3 -1,-3 -1,-5 -2,0 -5,-2 -6,-2 -1,1 -1,8 -1,8l3 3c2,0 2,1 4,1 2,0 3,1 6,1l11 1c1,0 1,0 2,-1 1,0 1,0 2,0 1,0 2,0 4,0 1,-1 3,-2 4,-3 1,0 1,-1 1,-1l0 -9c-1,1 -7,3 -9,3 0,1 -3,1 -3,1 0,1 -1,3 -2,4 0,1 0,0 0,1 -2,2 -6,3 -8,3 -2,0 -4,-1 -5,-2z"/>
   <path class="fil2" d="M78 80c-1,-1 -4,-2 -6,-2 -2,0 -4,1 -5,2 0,-1 1,-1 1,-1 -1,0 -2,1 -3,2 -1,1 -1,2 -1,4 -1,2 0,5 1,6 1,1 2,1 2,2 1,0 1,0 3,1 4,0 6,0 9,-3 0,-1 0,-1 1,-2 0,-2 0,-3 0,-5l-2 -4z"/>
   <path class="fil3" d="M57 111c-1,-1 -4,-2 -4,-3 0,1 0,4 0,5 0,0 1,1 2,2 2,1 4,2 6,3 3,1 5,2 9,3 1,0 2,0 3,0 2,0 5,0 7,0 2,-1 5,-1 9,-3 1,0 3,-1 5,-2 0,-1 1,-1 2,-3 0,-1 0,-2 0,-4 0,1 -2,2 -3,2 -3,2 -7,4 -10,4 -1,1 -2,1 -3,1 -6,1 -8,0 -14,-1 -2,0 -5,-2 -7,-3 -2,0 -2,0 -2,-1z"/>
   <path class="fil5" d="M132 161c0,-1 0,-1 0,-1 1,-2 2,-3 3,-4 1,-2 0,-1 1,-2 1,0 0,0 1,0 0,-1 1,-1 1,0 1,0 1,0 2,1 2,1 2,2 3,4 0,2 0,2 0,3 1,4 1,2 0,5 0,1 1,1 0,2 0,3 0,8 -1,11 -1,2 -2,2 -3,3 -1,1 -1,0 -2,0 0,0 0,0 0,0l0 0c0,0 0,0 0,0l-1 0c0,-1 0,-1 0,-1 0,0 -1,0 -1,-1 -1,-1 -1,-2 -2,-3 1,1 2,3 3,4 2,1 2,0 3,-1 0,-1 0,-1 1,-1 -1,-1 -1,-2 -2,-2 -1,-1 0,-1 -1,-2 -1,-1 -1,-2 -2,-3 0,0 0,0 0,0 0,0 0,0 0,-1 -2,0 -2,0 -2,1 0,0 -1,-2 -1,-2 1,0 1,0 2,0l1 -1c1,-1 1,-5 -1,-6 1,-1 3,-2 4,-2l1 -1c1,-1 1,0 2,-2 0,-1 0,-1 0,-1 -1,-2 -1,-1 -2,-3 -1,-1 -2,-1 -3,0l0 1c-1,1 -2,4 -3,6l-1 4c0,1 0,0 0,1l0 0c-1,1 0,3 0,4 0,1 0,3 0,4 0,0 0,0 0,1 0,2 1,4 2,5 0,1 1,1 1,2l0 0c1,1 2,1 3,1 1,0 2,0 3,-1 1,0 0,0 1,-1 0,0 0,0 1,-1 1,-2 0,-3 1,-5 0,0 0,0 0,-1 0,0 1,-5 1,-7 0,-1 0,-1 0,-2 0,-4 1,-3 -1,-7 -1,-4 -2,-6 -5,-7l-2 0c0,0 0,0 0,0 -1,1 -2,0 -3,3 -1,0 -3,4 -3,5l1 1z"/>
   <path class="fil6" d="M79 85c-1,-1 -1,-3 -2,-4 -2,-4 -9,-2 -11,0 -2,3 -2,7 -1,8 1,2 3,3 4,4 4,1 10,-2 10,-8z"/>
   <path class="fil7" d="M78 85c0,-2 -1,-4 -2,-4 -1,-1 -2,-1 -3,-1 -1,0 -1,-1 -2,0 -2,0 -4,1 -4,2 -1,1 -2,4 -1,5 0,2 1,3 2,4 2,2 12,1 10,-6z"/>
   <path class="fil0" d="M68 146l5 0c0,0 0,0 1,0 0,0 0,0 0,0l1 1c1,0 3,-1 4,-1 0,0 0,-1 0,-2 0,0 0,0 0,-1l-4 -7c0,0 0,0 -1,-1 -1,0 -1,1 -1,1 -1,1 -1,1 -1,2l-2 4c-1,2 -2,1 -2,4z"/>
   <path class="fil3" d="M83 69c0,0 0,0 0,0 1,0 0,0 1,0 0,-2 -1,-3 -2,-4 0,-1 -2,-1 -3,-1 -1,0 -3,0 -4,1 0,0 0,0 0,1 -1,0 -1,0 -1,2 0,5 5,6 7,5 0,0 0,0 1,0l1 -3c1,-1 1,-1 0,-1z"/>
   <path class="fil3" d="M72 67c-1,-3 -5,-5 -8,-1 0,1 -1,2 0,3 0,2 0,2 1,3 5,2 8,-2 7,-5z"/>
   <path class="fil2" d="M98 146c-1,-1 -3,-2 -3,-4 0,-1 -1,-3 -1,-5 0,-1 0,-1 1,-2 0,-2 0,-3 2,-6 0,0 0,0 1,0 -2,0 -4,0 -5,1 -1,1 -2,5 -2,7 0,2 1,7 2,8 1,0 1,0 1,0 2,1 1,1 4,1z"/>
   <path class="fil8" d="M57 73c0,-1 2,-8 3,-10 0,-1 1,-3 1,-4 -1,0 -2,-1 -4,1 -2,2 -3,7 -3,9 0,2 0,2 1,3 0,0 0,0 0,0 0,0 1,1 2,1z"/>
   <path class="fil0" d="M82 67c0,-1 -2,-3 -4,-3 -1,1 -2,1 -3,2 0,1 -1,4 2,6 2,1 4,1 5,-1 0,-1 0,-3 0,-4z"/>
   <path class="fil4" d="M81 107c-2,0 -4,0 -7,0 0,1 0,6 0,6 3,1 6,0 8,0 0,0 0,0 0,-1l0 -1c0,0 0,-4 -1,-4z"/>
   <path class="fil8" d="M49 167l-5 0c-2,0 -4,0 -6,0 -1,1 -1,1 -1,2 0,0 0,1 0,1 0,1 0,1 1,1 0,0 0,0 0,0 1,-1 1,0 2,0 1,0 2,0 3,0 3,0 5,-1 6,-1 0,-1 0,-2 0,-3z"/>
   <path class="fil0" d="M71 68c0,0 -1,-3 -3,-3 -2,0 -5,2 -3,6 2,2 7,1 6,-3z"/>
   <path class="fil5" d="M141 165c-1,0 -4,1 -5,2 0,0 0,1 0,2 0,0 0,1 0,1 1,1 4,2 5,2 2,-2 2,-5 0,-7z"/>
   <path class="fil3" d="M115 80c1,0 1,-1 1,-1 2,-1 4,0 5,0 0,-2 -1,-3 -1,-5 -1,-1 -2,-2 -4,-1 -2,1 -2,1 -2,3 0,2 0,1 0,2 1,1 1,1 1,2zm-67 -14l2 0c1,-2 2,-3 2,-5 0,0 -1,0 -1,-1 -1,0 -1,0 -2,1 -1,2 -1,3 -1,5zm-2 66c0,1 0,2 -1,3 0,0 0,0 -1,1 -1,0 0,0 -1,0 1,2 0,1 3,3 0,-1 1,-1 1,-1 1,-1 1,-1 1,-2 0,-1 0,-3 -1,-3l-1 -1zm-3 -4c0,2 1,2 -1,3 -1,1 -2,1 -4,1 1,1 3,3 3,3l1 1c0,-1 1,0 2,-1 1,0 1,-1 2,-2 0,-2 -3,-3 -3,-5zm-10 -20c0,0 -1,1 -2,1 -1,1 -2,0 -3,0 1,3 0,5 4,4 2,0 2,-1 2,-2 1,0 0,-3 -1,-3zm-1 -6c-1,1 0,1 -2,2 -2,0 -2,0 -3,0 0,0 1,4 1,4 1,0 3,1 5,-1 0,-1 0,-1 0,-2 0,-1 0,-2 -1,-3zm-7 -17l0 4c1,1 3,2 4,1 3,0 3,-2 3,-4 -2,0 -3,1 -4,0 -2,0 -2,-1 -3,-1zm15 39c0,1 0,1 0,1 -2,2 -3,2 -5,2 1,1 2,2 2,3 1,1 1,1 2,1 2,0 4,-1 4,-3 0,0 0,0 -1,-1 0,0 -1,-2 -2,-3zm3 -64c0,0 1,0 0,0 0,0 1,0 1,0 -1,1 -1,1 -2,2 0,2 1,5 2,5 0,0 2,-1 3,-1 0,-1 -1,-2 0,-3 0,-1 1,-2 1,-3l-5 0zm-5 59l0 0c-2,2 -3,3 -6,2 1,1 2,2 2,4 1,1 1,1 2,1 1,0 2,0 3,-1 2,-2 -1,-3 -1,-6zm-13 -28c1,5 -2,6 5,5 2,0 1,-2 1,-5 -3,1 -1,2 -6,0zm7 6c-2,0 -3,1 -7,1 0,1 1,4 1,4 1,1 3,1 4,1 1,-1 2,-1 2,-2 0,-1 -1,-3 0,-4zm11 -37c-2,0 -4,1 -5,2 -1,1 -2,2 -1,3 0,1 0,2 1,2 0,1 1,2 1,2l4 -2c-1,0 -1,-2 -2,-3 0,-1 0,-3 2,-4 0,0 -1,0 0,0zm-8 53c0,1 -1,1 -2,2 -2,0 -2,0 -3,0 0,1 1,5 2,5 1,1 2,1 3,0 1,0 2,-1 2,-2 0,0 0,0 0,0 0,0 -1,0 -1,0 1,0 1,0 1,0l-1 -4c-1,0 -1,-1 -1,-1zm-9 -36c0,1 -1,5 -1,7 1,1 6,2 7,1l0 -3c0,-1 1,-1 1,-2 -2,0 -5,0 -6,-2 0,0 -1,-1 -1,-1zm3 -7c0,0 0,1 -1,1 0,1 0,2 -1,3 0,1 -1,2 1,4 1,0 4,2 5,0 1,-1 1,-1 1,-3 0,0 1,0 1,-1 -2,0 -3,0 -4,-1 -1,-1 -2,-2 -2,-3zm7 -7c-1,1 -2,1 -2,2 -1,1 -3,2 -3,3 -1,2 0,3 1,4 0,0 2,1 3,1 1,-1 1,0 1,-1 0,0 1,0 1,-1 0,0 1,-1 2,-1 -1,-1 -2,-2 -3,-3 -1,-1 0,-3 0,-4zm68 63c1,0 2,0 3,0 0,0 2,0 2,0 0,0 0,-2 -1,-2 0,-1 -1,-2 -2,-2 -3,0 -1,2 -2,4zm1 1c0,1 0,2 0,3 0,0 2,1 3,2 1,0 1,0 1,0l0 -4c0,-1 -1,-1 -2,-1 -1,0 -2,0 -2,0zm-1 -15c1,-1 2,-1 3,-1 1,0 2,1 2,1 1,-1 2,-1 2,-2 -1,-1 -2,-2 -3,-2 -2,-1 -3,1 -4,4zm4 7l0 0c0,0 0,-1 -2,-1 -1,0 -2,1 -2,0 -1,0 0,1 -1,0 1,0 1,0 2,-1 -1,0 -2,1 -2,2 1,1 0,2 1,3 2,0 3,-1 5,0l-1 -3zm-5 -57l0 0c0,1 0,1 0,1 -1,1 -1,4 0,5 0,0 1,0 2,0 0,0 0,-3 2,-5 0,0 0,0 0,0 -1,-1 -2,-1 -4,-1zm0 55c1,0 4,-1 5,0 0,0 0,-1 0,-1 1,-1 1,-2 1,-2 0,-2 -4,-3 -5,-1 0,1 -1,4 -1,4zm12 -26c0,0 0,0 1,0 1,-1 1,-1 2,0 2,0 1,0 2,1 0,-1 1,-3 1,-4 0,0 0,0 0,-1l0 0c-1,-1 -4,-1 -4,-1 -1,1 -2,2 -2,3 0,1 0,1 0,2zm-5 10c2,0 5,2 5,2l1 -2c1,-2 1,-3 -1,-4 -1,0 -3,0 -3,1l-1 1c0,1 -1,2 -1,2zm-4 -33l3 2c0,-2 2,-4 4,-4 0,0 0,0 0,0l-1 -1c-1,0 -3,-2 -4,-2 0,0 -1,1 -1,1 -1,1 -1,4 -1,4 0,1 0,0 0,0zm1 39c1,0 3,1 4,2 0,-1 0,0 1,-1l0 -1c1,-1 2,-3 2,-3 0,0 -3,-4 -5,0 -1,0 -2,3 -2,3zm-4 26c-1,1 -1,1 -2,1 0,2 0,4 1,5 0,2 1,2 3,0 1,0 1,-1 1,-2 0,0 0,-1 -1,-2 0,0 -1,-1 -2,-2 -1,0 0,0 0,0zm10 -37c1,0 1,0 2,1 2,0 2,1 2,1 1,-1 2,-4 3,-5 -1,-1 -1,-1 -2,-1 -1,-1 -2,0 -3,0 -1,1 -1,1 -2,3 0,1 0,1 0,1zm3 -11c1,0 2,0 3,0 0,0 1,0 1,0 1,1 1,1 1,1 0,0 1,-6 0,-6 -2,-1 -4,-1 -5,1 -1,1 0,3 0,4zm-6 -14c1,1 2,3 3,4 1,-1 0,-1 2,-2 1,-1 1,-2 3,-1 0,-1 -2,-3 -3,-4 -1,-1 -1,-1 -3,-1 -1,1 -2,3 -2,4z"/>
   <path class="fil4" d="M66 106c0,2 0,4 0,6 1,1 5,2 6,1 0,-1 0,-6 1,-6 -1,0 -1,0 -3,0 -1,0 -3,-1 -4,-1z"/>
   <path class="fil2" d="M102 172l0 -1c-1,-1 -2,-2 -2,-4 1,-1 1,-2 2,-3 1,-1 1,-1 1,-1 -3,0 -5,1 -5,5 0,1 0,4 2,5 1,0 2,0 2,-1z"/>
   <path class="fil1" d="M137 167c0,1 0,2 0,3 1,1 2,1 4,1 0,0 1,-5 -2,-5 -1,1 -1,1 -2,1z"/>
   <path class="fil2" d="M54 169c1,-2 0,-4 0,-6l-2 1c0,1 0,3 0,4 0,1 0,2 0,3 1,1 1,1 1,1 1,1 1,0 1,1 0,-2 0,-3 0,-4z"/>
   <path class="fil8" d="M103 167c0,1 0,2 0,3l6 0c2,0 2,0 4,0 0,0 0,0 1,0 0,0 0,0 1,0 0,-1 0,-2 0,-3 0,-2 -1,-2 -1,-2 0,0 0,0 -1,0 0,0 -1,0 -1,0 -2,0 -4,0 -6,0 -1,1 -2,1 -3,2z"/>
   <path class="fil2" d="M69 145l4 1c0,0 0,0 1,0 0,0 0,0 0,0l1 0c1,0 3,0 4,0 0,-1 0,-1 0,-2 0,-1 0,0 -1,-1l-3 -6c0,-1 -1,-1 -1,-1 -1,0 -1,0 -1,1 0,0 -1,0 -1,1l-2 4c-1,2 -1,1 -1,3z"/>
   <path class="fil0" d="M73 138c0,1 -1,2 -1,3 0,1 0,1 0,1 1,0 1,0 1,0 0,0 2,0 2,0 0,0 -2,2 -2,2 0,0 0,-1 0,0 0,0 0,1 0,1 0,0 1,-1 2,-1 0,0 0,0 -1,0 0,0 0,0 0,0 0,0 0,0 1,-1 0,-1 1,-2 1,-2 0,0 0,0 -1,0 0,0 -2,0 -2,0 0,-1 1,-2 2,-3 -1,1 -2,0 -2,0z"/>
   <path class="fil4" d="M77 66c1,0 1,0 1,1 0,1 0,1 -1,1 0,0 -1,0 -1,-1 0,-1 1,-1 1,-1z"/>
   <path class="fil4" d="M77 70c0,0 0,0 0,0 0,1 0,1 0,1 0,0 -1,0 -1,-1 0,0 1,0 1,0z"/>
   <path class="fil4" d="M78 71c0,0 0,0 0,0 0,0 0,0 0,0 0,0 0,0 0,0 0,0 0,0 0,0z"/>
   <path class="fil4" d="M67 66c0,0 1,0 1,1 0,1 -1,1 -1,1 -1,0 -1,0 -1,-1 0,-1 0,-1 1,-1z"/>
   <path class="fil4" d="M66 70c1,0 1,0 1,0 0,1 0,1 -1,1 0,0 0,0 0,-1 0,0 0,0 0,0z"/>
   <path class="fil4" d="M67 71c1,0 1,0 1,0 0,0 0,0 -1,0 0,0 0,0 0,0 0,0 0,0 0,0z"/>
   <path class="fil4" d="M75 82c0,0 0,0 0,0 -1,0 -2,-1 -2,-1 -1,0 -1,0 -2,0 -1,0 -3,1 -3,2 -1,1 -2,3 -1,4 0,1 0,2 1,2 0,0 0,0 0,0 -1,-1 0,-4 1,-5 0,-1 2,-2 3,-2 2,-1 2,0 3,0z"/>
   <path class="fil8 str0" d="M90 67c0,2 1,5 2,6 0,1 1,1 2,1 0,0 0,0 1,0 0,0 0,0 0,0 0,0 0,0 0,-1 0,0 0,0 0,0 -1,-1 -2,0 -3,-5 0,-2 0,-3 0,-5 0,-3 1,-3 0,-3 -1,0 -1,0 -2,1 0,1 -1,5 0,6z"/>
  </g>
 </g>
</svg>
