<?xml version="1.0" encoding="UTF-8"?>
<!DOCTYPE svg PUBLIC "-//W3C//DTD SVG 1.1//EN" "http://www.w3.org/Graphics/SVG/1.1/DTD/svg11.dtd">
<!-- Creator: CorelDRAW X7 -->
<svg xmlns="http://www.w3.org/2000/svg" xml:space="preserve" width="400px" height="408px" version="1.1" style="shape-rendering:geometricPrecision; text-rendering:geometricPrecision; image-rendering:optimizeQuality; fill-rule:evenodd; clip-rule:evenodd"
viewBox="0 0 400 408"
 xmlns:xlink="http://www.w3.org/1999/xlink">
 <defs>
  <style type="text/css">
   <![CDATA[
    .str0 {stroke:#2B2A29;stroke-width:2.36221}
    .fil4 {fill:#FEFEFE}
    .fil1 {fill:#9D9E9E}
    .fil6 {fill:#898989}
    .fil5 {fill:#2B2A29}
    .fil0 {fill:#2B2A29}
    .fil2 {fill:#FFED00}
    .fil7 {fill:#E31E24}
    .fil3 {fill:#B0CB1F}
    .fil8 {fill:#636F21}
   ]]>
  </style>
 </defs>
 <g id="Layer_x0020_1">
  <metadata id="CorelCorpID_0Corel-Layer"/>
  <g id="_392044608">
   <path class="fil0" d="M222 102c-1,3 -2,4 -2,6 0,5 -1,6 1,13l2 7c1,2 3,7 4,8 2,1 2,0 2,2 1,3 2,12 1,15 -3,1 -9,5 -13,5 -4,2 -10,3 -15,3 0,-1 0,-3 -2,-7 0,-2 -1,-2 -1,-4 -1,-2 -1,-1 -2,-2 -2,-2 -2,-2 -4,-4 -2,-1 -4,-1 -6,-2 -4,-1 -7,0 -12,1 -2,0 -3,1 -5,2 -1,0 -1,1 -2,1l-5 6c-1,2 -1,3 -2,5 -1,0 -15,-3 -15,-6 1,-3 2,-13 3,-17 1,-5 2,-13 3,-17 1,-2 2,-5 3,-8 1,-4 3,-6 4,-8 2,-6 15,-13 22,-15 13,-3 21,-1 31,6 4,3 6,5 9,9l1 1zm10 -70c-4,-3 -5,1 -9,-4 -1,0 -1,-1 -2,-2 -1,2 -1,2 -3,3 0,-1 0,-1 0,-1 0,-2 0,-2 -1,-4 -2,3 0,2 -3,3 -1,0 0,-1 -2,1 -1,1 0,0 -1,1 -1,-2 0,0 -1,-2l0 0c-1,-2 0,-1 -1,-1 -1,2 -2,5 -3,8 -1,2 -2,7 -3,8 -1,-4 2,-36 0,-41l-4 9c0,1 0,2 -1,3l-4 9c-1,1 -1,2 -2,3 0,0 0,-1 0,-1l-2 -2c-2,1 -1,2 -3,3l-3 -2 -1 1c-2,1 0,0 -2,1 -3,1 -3,3 -3,7 0,2 -2,10 -1,11 -2,0 -1,-2 -2,-8 0,-2 -1,-6 -1,-9 0,-3 0,-17 -1,-19 0,10 -2,12 -2,20l0 1c0,1 0,1 0,1 0,0 0,0 0,0 -3,-1 -2,-3 -4,-5 0,1 0,2 -1,3 -2,-1 -2,-3 -3,-4 0,1 0,2 0,3 0,2 0,3 1,4 -3,-1 -2,-1 -3,-3 -1,-2 -1,-3 -2,-4 0,0 0,1 0,1 0,0 0,1 0,1 -1,4 -5,3 -11,6 0,4 -2,4 0,8 1,2 2,3 4,6 0,2 2,4 2,6 1,2 2,5 3,7l3 -1c2,3 5,15 7,18 1,1 2,4 3,6 7,-1 4,0 7,4 2,-1 9,-2 12,-2 5,-1 9,1 13,2 1,-4 3,-5 7,-3 0,-1 10,-20 11,-25 1,-1 1,-1 3,0l6 -12c1,-2 2,-4 3,-6 1,-2 1,-2 0,-3 0,-2 0,-1 0,-4zm-37 117l5 8c1,4 1,8 0,12 -1,3 -1,2 -3,4 -5,6 -11,8 -20,7 -4,-1 -4,-1 -7,-3 -1,0 -3,-2 -3,-3 -4,-3 -6,-9 -5,-14 1,-4 2,-6 4,-10 1,0 2,-1 3,-2 1,-2 3,-3 5,-3 -2,1 -3,2 -4,3 3,-2 7,-5 12,-5 4,1 12,2 13,6zm-27 29c2,3 7,4 11,5 6,1 14,-2 18,-7 1,-1 1,-1 2,-2 2,-2 3,-7 3,-10 1,1 7,-1 8,-1 4,-1 19,-6 20,-8l1 21c-1,1 -1,1 -2,2 -3,2 -7,5 -11,6 -3,1 -5,2 -8,2 -3,0 -4,0 -6,0 -1,0 -2,1 -5,1l-25 -1c-6,-1 -8,-2 -13,-3 -4,-1 -6,-2 -9,-4l-6 -4c-2,-2 0,-18 0,-21 3,2 10,5 15,5 0,6 -2,6 2,12 2,3 0,2 5,7zm-22 -44c-1,3 -1,6 -2,9 0,2 0,5 -1,9l-1 14c0,1 0,4 0,4 -4,0 -4,1 -6,3 -2,2 -2,1 -2,6 0,3 0,14 1,15 1,1 1,1 3,2 3,1 4,1 4,8 0,0 -1,0 -1,1 -7,5 -5,3 -5,10 0,4 0,5 0,9 1,2 3,4 5,5 2,2 3,1 3,5l0 18c0,2 0,7 0,8 -5,0 -4,1 -5,4 -2,5 -2,2 -5,3 -2,1 -1,5 -7,1l-8 -7 -6 -8c-3,-5 -6,-9 -8,-15 -1,-1 -2,-3 -2,-5 -6,-12 -10,-27 -12,-40 0,-5 -1,-9 -1,-13 -1,-8 0,-20 2,-27 1,-2 5,-17 7,-19l2 -3c0,-1 1,-1 1,-2 1,-1 4,-3 6,-5 3,-2 12,-6 16,-5 3,0 2,0 3,0 1,-1 3,0 4,0 1,4 1,3 5,5 3,1 0,3 4,7 2,3 2,2 6,3zm-9 51l0 -6c0,1 1,2 2,2 5,4 7,5 13,7 2,0 4,1 6,2 7,1 20,4 28,4 10,0 19,-1 29,-3 5,0 22,-4 24,-8 0,3 -1,6 -1,9 0,7 -3,7 -13,11 -6,3 -21,5 -28,5 -5,1 -11,1 -16,0l-11 -2c-7,0 -19,-6 -25,-9 -1,0 -2,-1 -3,-1 -2,-1 -4,-2 -5,-3 0,-2 0,-6 0,-8zm9 35c2,2 2,1 5,3 5,2 12,6 16,6 14,3 19,5 33,3 3,-1 4,-2 6,-2 9,-1 18,-4 25,-9 1,-1 6,-3 6,-5 0,4 0,6 -1,9 -1,4 -2,4 -4,6 -3,2 -8,4 -11,6 -9,4 -17,3 -21,5 -5,1 -11,1 -16,0 -2,0 -5,0 -7,0 -10,-1 -14,-3 -21,-6 -5,-2 -10,-4 -14,-8 -1,-1 -3,-3 -4,-4 -1,-3 1,-8 0,-11 1,2 6,6 8,7zm91 9c2,-3 4,-14 3,-19 -1,-2 -6,-3 -4,-7l0 -1c-2,-2 2,-1 4,-5 2,-5 1,-7 1,-11 1,-7 1,-12 -5,-14 -1,0 -2,0 -3,-1 0,-12 1,-5 -1,-20 -1,-4 0,-6 0,-9 0,-7 1,-4 4,-7 0,-1 -1,-1 -1,-1 0,0 -1,0 -1,0 -1,0 -2,1 -2,1 -1,0 -3,-1 -3,-2 -2,-3 -5,-10 -6,-14 -1,-4 -1,-13 1,-16 1,-2 2,0 3,-2 3,0 0,0 0,8 0,4 0,7 1,11 3,13 4,9 6,12 0,1 0,1 0,1 1,1 0,0 1,1 1,1 2,0 3,0 1,-2 2,-4 2,-7 2,-1 7,-2 8,-3 2,0 1,0 2,-1 4,-1 7,0 10,2 2,1 3,1 5,2l5 5c3,5 9,15 10,20 1,7 2,11 -1,18 -6,18 -5,12 -13,27 -5,8 -4,6 -9,18 -1,3 -3,6 -4,9 -1,7 -1,6 -1,12 0,10 3,11 2,23l0 2c1,3 -2,7 -4,9 2,-3 -2,-1 -4,-2 0,-1 -1,-5 -2,-7 -1,-1 -2,-1 -3,-2 -2,-1 -2,0 -4,0 -1,-4 -1,-28 0,-30zm15 42c1,0 0,-1 1,0 2,1 5,4 6,5 0,2 1,3 1,5 0,1 -1,4 -1,5 -5,3 -7,3 -9,-1 -2,-3 -1,-9 -1,-12 2,-1 2,-1 3,-2zm8 16l4 -4c1,-1 2,-3 3,-4 2,-3 1,-2 2,-6 2,-4 1,-7 1,-10 0,-4 0,-1 -1,-7l0 -3c0,-5 0,-4 -1,-8 0,-2 0,-3 0,-4 -1,-13 2,-15 6,-24l11 -19c0,0 0,0 -1,1 4,-7 6,-9 9,-17 0,-2 0,-1 2,-2 -1,-2 -1,-1 0,-4 1,-4 1,-7 2,-11 1,-5 2,-12 0,-17 0,-3 0,-6 -1,-8 -3,-7 -3,-7 -7,-13 -2,-3 -5,-6 -7,-9 -4,-4 -6,-5 -7,-6 -1,-1 -1,-1 -3,-2 -16,-10 -25,-5 -28,-5 -3,-1 -4,0 -7,0 -1,-3 -2,-3 -3,-5l0 -1c-1,0 -3,0 -4,0 0,0 0,0 0,0 -1,-1 0,-1 -2,0 -1,0 -1,-1 -3,0 -2,1 -2,1 -3,0 -2,-3 -5,-4 -7,-7 3,-2 1,-5 -1,-7 0,-2 4,-8 4,-10 2,-3 4,-6 5,-9 1,-3 1,-5 3,-7 -1,-2 -1,-1 0,-5 1,-1 2,-3 3,-5 2,-3 3,-6 5,-10 1,0 1,0 2,-1 3,-1 3,-4 2,-7 -2,-1 -2,0 -4,0 -2,0 -1,-1 -5,-2 -3,0 -4,-1 -6,-3 0,-1 -1,-1 -1,-2 -2,1 -2,2 -3,2 0,-2 0,-2 -2,-4 -1,1 -1,1 -1,3l-2 -2c0,1 -1,2 -2,2 0,-1 -1,-3 -2,-4l0 1c-1,1 -1,1 -1,2 -1,1 -1,2 -1,3 -1,2 -2,5 -3,6 0,-6 1,-11 1,-17 -1,-6 -1,-12 -2,-18 -2,1 -3,4 -3,6l-6 12c-1,2 -2,4 -2,6 -2,-1 -1,-1 -3,-1 0,0 -2,2 -3,2 -3,-1 -1,-1 -3,-2l-5 3c0,-2 1,-2 -1,-4 0,0 0,-1 0,1l-1 6c0,1 0,2 0,3 0,1 -1,1 -1,2l0 2c0,-7 -1,-12 -1,-19 0,-4 -1,-8 -2,-12 0,-2 1,-3 -1,-4 0,2 0,5 0,7 0,5 0,9 -1,14 -1,2 -1,4 -1,6l-2 -4c-1,1 -1,1 -2,2 0,1 0,0 -1,1 -1,-2 -1,-4 -3,-5l-1 3c-1,-1 -1,-3 -2,-3 -2,2 -1,6 -4,7 -3,2 -13,2 -14,4 0,2 1,4 2,6 3,0 4,-1 4,4 1,0 0,-1 1,1 2,2 3,5 3,7 2,3 3,6 4,10l-1 1c2,3 10,23 10,24 0,1 -2,0 -1,3 0,2 1,2 2,4 -1,0 -1,0 -1,0 -3,2 -5,4 -6,7 -7,-1 -9,-4 -12,3 -2,0 -3,-1 -5,-1 -2,0 -2,1 -3,1 -1,0 -8,0 -9,0 -9,-1 -19,-1 -27,3 -4,3 -11,8 -14,12l-7 9c-3,3 -6,9 -7,14 -2,9 -2,9 -2,18 -1,14 -3,23 1,38l4 17c1,3 1,5 2,8 1,5 3,10 6,15 1,2 1,5 3,7l5 11c3,7 8,16 14,21 3,3 6,6 8,8 1,1 2,1 3,2 2,2 4,3 6,4 2,2 5,3 8,3 1,1 2,2 4,3 4,1 0,2 5,6 1,1 1,1 1,2 1,1 1,0 2,1 1,8 2,15 2,23 -2,1 -5,2 -6,5 0,2 0,4 0,6 -4,2 -4,1 -6,6 -2,1 -4,0 -5,2 -1,1 -1,2 -4,1 -1,-1 -1,-3 -1,-4 -1,-4 -1,-4 -3,-4 0,-3 -1,-8 -2,-9l0 0c1,-1 1,-1 2,-2 -1,-1 0,1 -1,-1 -2,-4 -4,-7 -7,-10 -3,-1 0,1 -4,-1 -3,-2 -4,-2 -7,-3 -8,-3 -19,-1 -27,-2 -3,0 -5,0 -7,0 -4,1 -13,8 -14,12 -1,1 -1,2 -1,3 0,2 0,1 1,2 -3,3 -1,7 -8,6 1,3 1,0 0,4 0,3 -2,14 -2,16 1,1 4,3 5,3 0,4 -2,7 -3,10 0,5 0,11 2,16 1,4 2,3 5,5 2,1 3,1 3,3 1,1 1,1 1,2 -3,0 -3,0 -3,3 0,3 0,3 2,5 0,1 0,1 1,1 1,0 1,0 2,1l1 0c3,1 14,2 17,2 8,1 17,0 25,-1 6,-1 10,-4 14,-9 1,-2 4,-4 4,-6 0,-2 0,-3 -2,-4 0,0 0,-1 1,-1 1,0 -1,0 0,0 2,2 -1,0 1,1 0,-2 0,-4 -1,-5 1,-2 -1,2 1,0 0,-1 0,-1 0,-2 2,-1 3,-1 4,-3l3 -15c3,0 3,3 8,2 0,1 1,2 2,3 1,0 2,0 3,0 1,-1 0,0 1,-1 0,-2 0,-1 -3,-2 -1,0 -1,-1 -2,-2 0,-3 0,-5 0,-8 -1,-3 -1,-6 1,-8l3 -2c1,4 1,9 1,13 -1,3 0,11 0,15 4,2 5,4 11,6 3,2 3,2 6,3 5,4 15,3 22,4 5,1 11,1 16,1 11,1 21,0 31,-4 2,-1 4,-1 6,-2 4,-1 7,-3 11,-6 2,-2 4,-2 3,-6 2,0 5,-1 7,-2 1,-1 2,-3 3,-5 5,-1 20,-1 23,1l-1 0c0,0 0,1 0,1 -2,1 -3,1 -3,4 0,4 3,11 4,15 0,2 0,1 1,2 1,1 2,2 4,2 0,3 1,5 2,7 -1,1 -1,0 -2,1 2,1 0,0 1,1 2,2 5,2 7,4 1,1 1,1 2,1l3 1c2,0 3,0 6,1 4,2 20,3 24,2l1 1c3,-1 4,-2 6,-2 3,-1 5,-3 6,-3 2,0 1,1 3,1 1,-2 5,-7 6,-10 2,-5 3,-4 2,-7 -1,-2 0,-3 0,-5 1,-3 1,-5 2,-8 2,-1 0,0 3,0 1,-3 1,-5 2,-9 0,-4 0,-7 -1,-11l-2 -1c0,-3 0,-6 -1,-9 3,-3 4,-1 1,-9 -1,-2 -1,-3 -2,-5 -1,-1 -1,-1 -1,-2 -1,-1 -1,-1 -2,-2l-3 0c0,-1 -2,-7 -2,-7 -1,-2 -8,-4 -11,-5l-7 -3c-3,-1 -3,0 -5,0 -5,1 -22,1 -25,3 -2,1 0,0 -2,1 -1,1 -1,1 -2,2 -2,0 -6,5 -7,6 1,3 1,1 2,3 0,0 -3,5 -3,5 0,0 -1,0 -1,0 -3,1 -3,5 -3,8l-3 10c0,2 2,1 2,5 0,3 0,5 0,7 -1,0 -2,0 -3,0 -1,0 -2,0 -2,0 -4,1 -3,1 -8,1l-14 0c-2,-3 -1,-5 0,-7 1,-3 3,-3 7,-3 4,-1 9,-1 14,-1 0,0 1,0 2,0 2,0 2,0 2,-1 0,-1 0,0 -1,-1 -1,0 -3,0 -4,0 -2,0 -4,0 -6,0 -3,0 -8,1 -10,1 -2,-10 -8,-5 -11,-6 0,-1 -1,0 0,-1l1 -1c-1,-3 1,-9 -1,-11 -1,-1 -1,-1 -2,-2 -2,-2 -3,-3 -6,-5l-1 -15 3 -1c1,-1 1,-1 2,-1 2,-2 4,-5 4,-8 2,-1 3,-1 4,-1 3,-2 6,-3 9,-5z"/>
   <path class="fil1" d="M354 349c0,0 0,0 1,0 0,-1 0,0 0,-1 0,-2 0,-5 -1,-6 0,-2 0,-2 -1,-4 0,-1 0,-2 1,-3l1 0c-1,-3 -2,-5 -2,-7l-3 -7c-1,1 -1,1 -2,0 -1,-2 -3,-2 -4,-7 -1,0 0,0 -1,0 -3,0 -4,-1 -7,-2 -1,-1 -2,-1 -2,-3 -2,1 -2,1 -3,2 -3,2 -10,4 -12,7l-2 4 -1 -4c4,-2 2,-2 7,-5 2,0 2,-1 4,-2 1,0 3,-1 4,-2 -12,-2 -13,-2 -25,-1 -6,1 -9,2 -13,6 -2,2 -3,2 -4,4l6 3c2,1 4,3 7,2 2,-1 13,-4 14,-3 0,1 -1,1 -2,2 -2,1 -9,2 -10,4 -1,0 0,0 0,0l-1 1c-3,-1 -8,-5 -11,-6 -1,1 -3,4 -3,6 1,1 1,1 2,1 1,1 2,1 3,2l4 2c2,1 3,1 4,0 2,-1 9,-3 10,-3 2,0 1,0 2,1 0,2 -6,3 -7,3 -2,0 -3,1 -4,1 -5,1 -6,1 -11,-2 -3,-1 -5,-3 -7,-4 0,2 -3,14 -3,15 1,2 8,6 10,7 2,1 3,2 4,2 7,1 10,-3 16,-5 1,0 2,0 3,0 -1,2 -9,5 -12,6 -1,1 -3,2 -4,2 -3,2 -6,-1 -8,-2 -1,-1 -2,-2 -3,-3 -1,0 -1,-1 -2,-1 -1,-1 -1,-1 -3,-1 1,2 0,11 0,14 3,1 5,2 8,3l7 4c3,2 12,-6 16,-5 0,3 -1,1 -4,3 -3,1 -9,4 -12,5 -1,0 0,1 -2,0 -1,0 -3,-2 -4,-2 -2,-1 -3,-2 -4,-3 -3,-1 -6,-4 -9,-5 0,3 1,16 5,19 2,1 6,2 8,3 3,1 7,2 8,3 2,-1 5,-3 7,-4 2,-1 6,-3 8,-3 0,0 0,0 0,0l0 1c0,1 -9,5 -11,7 0,0 0,0 -1,0l-2 2c-5,-2 -2,-2 -10,-3 -1,-1 -2,-1 -4,-1 1,2 3,2 4,4 0,2 -1,1 1,2l9 3c2,1 5,1 4,3l2 0c-2,1 -1,0 -2,-1 3,-1 6,-2 8,-3 2,-1 5,-5 7,-3 0,2 0,-1 -1,2 1,0 2,1 2,1l5 3c1,1 2,1 3,1l1 2c0,0 0,0 0,0 3,-2 6,-3 8,-4l1 -1c1,-1 2,-1 3,0 1,0 0,0 1,1l2 -3c2,-3 5,-7 6,-11 -2,0 -4,-1 -2,-3 1,-2 3,-9 4,-12 0,-3 -1,0 -1,-2 4,0 3,0 4,-4 1,-4 2,-7 1,-11 -1,0 -2,-1 -3,-1z"/>
   <path class="fil1" d="M104 361c0,0 -1,-1 0,0 0,0 0,0 -1,0l0 0c0,1 0,1 -1,1 0,1 0,1 -1,1 0,1 -2,2 -3,2 -4,-1 -4,-9 -4,-12 1,-3 1,-5 2,-7 1,-1 4,-3 6,-1 0,-1 1,-2 1,-4 0,0 0,0 0,-1 0,0 0,0 0,0l2 -2c1,-1 1,-1 2,-2 3,-3 5,-4 8,1 2,3 1,3 -2,5 -1,1 -1,1 -3,2 -2,1 -4,3 -6,3l0 -1c0,0 0,0 0,-1l-2 1c1,1 1,2 4,2 4,0 13,-1 17,-1 0,-2 0,-7 -2,-8l-2 0c0,-2 0,-3 -1,-5 -3,-8 2,-5 -1,-9 0,0 0,-1 0,-1l-4 -4c0,0 0,0 1,-1 0,0 0,0 0,0 0,0 0,0 0,1 -5,-2 -7,-6 -13,-7 -1,0 -3,0 -4,0 -3,0 -3,0 -5,0 -3,0 -6,-1 -9,-1 -5,1 -11,0 -16,1 -2,0 0,0 -1,0 -3,2 -9,6 -10,10 3,2 9,5 11,7 2,0 5,-1 7,-2 2,-1 5,-1 6,-3 2,-2 -1,0 1,-1 1,0 6,-1 7,-1l4 -2c0,0 0,0 0,0 1,-1 2,-2 3,-2 1,2 1,2 0,3 -1,1 -2,1 -3,1 -1,1 -3,1 -5,2 -5,1 -18,9 -22,7 -1,0 -2,-2 -4,-3 -2,-1 -4,-2 -5,-2 -1,1 -1,1 -1,2 0,1 0,0 0,1 -1,1 0,-1 -1,0 0,2 -1,2 -1,4 2,1 4,3 8,5 5,3 5,1 9,-1 3,-1 7,-3 10,-4l4 -1c1,-1 2,-1 3,-1 1,1 2,1 2,2l-1 2c-1,2 1,1 -1,2 -1,-1 -2,-1 -1,-4 -1,0 -2,1 -3,1l-7 4c-2,0 -1,1 -2,0 0,0 0,0 0,0 0,0 0,0 0,0 -1,1 -8,4 -10,4l-2 -1c0,0 0,0 0,0 -4,-2 -9,-4 -13,-6 -1,5 -2,11 -3,16 2,1 3,2 4,3l9 5c5,2 6,0 10,-2 2,0 3,-1 5,-2 3,-1 6,-4 10,-4l-1 2c-1,0 -2,1 -2,1l-13 7c-1,0 -1,1 -2,1 0,1 -1,1 -2,1 -2,0 -5,-1 -7,-2 0,0 -2,-1 -2,-1 -2,-1 -2,-2 -4,-3 0,3 -1,7 0,8 4,0 9,3 12,5 2,1 3,1 5,0 4,-1 12,-8 16,-8 0,1 1,7 0,8 -2,-1 -1,-2 -2,-5 -2,2 -12,8 -14,8 -3,1 -6,0 -8,-2 -2,-2 -4,-2 -7,-4l0 1c-1,-1 -1,0 -3,-1 -1,0 0,-1 -2,-1 0,4 1,8 3,12 1,4 0,3 -1,4 5,2 9,4 14,6 2,1 3,2 6,1 1,0 3,-1 5,-2l2 -2c0,0 0,0 0,0l3 -2c3,-3 2,-1 4,-3 0,0 0,0 0,-1l2 -1c0,3 -1,3 -3,4l-11 8c-1,1 0,1 -1,2 -5,-1 -8,-2 -13,-4 2,2 2,5 6,7 2,1 7,2 9,3 3,1 3,0 5,-1 3,-1 5,-3 8,-5 1,-1 3,-2 4,-2 0,1 -3,3 -4,4 0,0 -2,1 1,0 -3,1 -5,2 -7,4l-2 2c0,0 0,0 0,1 -3,-1 -2,0 -5,-1l-8 -3c-1,0 -3,-1 -4,0l0 0c-1,-2 -4,-2 -6,-2 3,6 17,6 25,7 6,0 10,-1 16,-1 2,0 6,0 7,-1 2,-1 0,0 2,-1 1,0 4,-2 4,-2 -1,0 1,-3 1,-3 1,-1 2,-1 3,-2 6,-5 5,-5 1,-7 1,-4 1,0 2,-4 0,-1 1,-2 1,-3l2 -5c1,-2 0,0 1,-1l1 -1c1,-2 1,-3 1,-5 1,-2 1,-2 1,-4 0,-1 0,-1 0,-2 1,-1 1,1 1,-1 -6,0 -12,1 -18,1 -1,0 0,0 -1,0 0,0 0,0 0,0l-1 0z"/>
   <path class="fil2" d="M222 102l-1 -1c-3,-4 -5,-6 -9,-9 -10,-7 -18,-9 -31,-6 -7,2 -20,9 -22,15 -1,2 -3,4 -4,8 -1,3 -2,6 -3,8 -1,4 -2,12 -3,17 -1,4 -2,14 -3,17 0,3 14,6 15,6 1,-2 1,-3 2,-5l5 -6c1,0 1,-1 2,-1 2,-1 3,-2 5,-2 5,-1 8,-2 12,-1 2,1 4,1 6,2 2,2 2,2 4,4 1,1 1,0 2,2 0,2 1,2 1,4 2,4 2,6 2,7 5,0 11,-1 15,-3 4,0 10,-4 13,-5 1,-3 0,-12 -1,-15 0,-2 0,-1 -2,-2 -1,-1 -3,-6 -4,-8l-2 -7c-2,-7 -1,-8 -1,-13 0,-2 1,-3 2,-6z"/>
   <path class="fil2" d="M142 335c0,3 1,0 0,6 0,1 0,4 0,6 1,2 1,5 1,6 0,3 -1,13 3,17 2,1 1,0 2,1 2,3 2,1 7,3 4,3 16,5 21,6 4,0 9,0 13,0 2,0 4,0 6,0 9,2 22,0 31,-2 3,-1 6,-3 9,-4 3,-2 10,-5 10,-9 1,-3 -6,-3 -5,-15 1,-4 2,-7 4,-9 2,-3 1,-5 1,-7 0,-2 1,-2 1,-4 -6,3 -4,7 -22,13 -18,6 -40,8 -59,2 -7,-2 -12,-2 -19,-6 -2,-1 -3,-2 -4,-4z"/>
   <path class="fil3" d="M203 268c-5,0 -4,1 -11,1 -3,0 -7,-1 -10,-1 -4,0 -6,-1 -10,-1 -2,-1 -8,-2 -9,-2 0,6 3,13 4,23 0,5 0,9 0,13 1,12 0,6 0,14 0,5 -1,6 5,8 3,1 7,2 11,2 6,0 20,-1 24,-4 0,-8 -1,-18 -2,-27 0,-5 -1,-23 -2,-26z"/>
   <path class="fil2" d="M234 233l-10 5 -12 4c-2,1 -11,2 -13,2 -3,0 -5,0 -7,0 -3,1 -5,0 -8,0l0 16c2,0 2,0 3,0 2,0 5,1 10,1 7,-1 7,-3 14,-1 1,3 1,6 1,10 4,1 3,0 3,6 -3,1 -5,3 -7,0 -3,-6 2,-6 3,-6 -1,-1 -1,-3 -1,-5 0,-1 -1,-3 -1,-4 -1,1 0,1 -2,2 -4,6 -2,2 -1,9 0,3 0,5 0,8 0,3 1,6 1,8l2 32c3,0 2,-3 3,-6 1,-6 -1,-20 0,-27 -2,0 -2,1 -3,-2 -3,-4 4,-9 6,-6 1,0 3,4 0,6 -1,0 -1,0 -2,1 0,4 1,6 1,10 0,4 0,9 0,12 7,-1 12,-1 19,-4 1,0 2,0 2,-1 -2,-1 -5,-4 -6,-5 -2,-2 -3,-5 -4,-8 -3,-11 -1,-21 5,-29 1,-1 3,-2 4,-3 0,0 0,-2 0,-5 0,-3 0,-8 0,-11l0 -4c0,-2 0,-4 0,-5z"/>
   <path class="fil0" d="M185 110c-5,-2 -13,-13 -25,1 -1,2 -3,6 -3,9 -1,7 2,11 6,15 0,0 0,0 1,0 0,1 1,1 2,2 4,2 11,1 15,-1 3,-1 3,-1 4,-3 2,1 3,2 5,3 1,0 1,0 2,1 3,2 6,1 9,1 4,1 2,2 5,0 3,-2 4,0 8,-6 1,-2 3,-8 3,-11 0,-4 -2,-12 -7,-14 -2,-1 -3,-2 -5,-3 -3,-1 -8,-1 -12,1 -1,0 -3,1 -4,2 -2,1 -3,3 -4,3z"/>
   <path class="fil2" d="M236 305c-2,0 0,0 -2,1l-13 4c-2,1 -5,0 -7,0 -1,2 -1,3 -1,5 0,3 1,4 0,6 -3,3 -5,3 -9,4 -4,1 -8,1 -13,1 -6,0 -12,1 -19,-1 -6,-1 -5,-2 -6,-3 -1,-3 -4,-1 -6,-2 0,-1 -1,-4 0,-6 2,-2 3,0 5,-1 0,-1 1,0 0,-1 -1,0 -1,0 -2,1 -1,0 -2,0 -3,-1 -2,-1 1,-3 -2,-4 -1,0 -4,0 -5,0 -2,-1 -4,-1 -5,-1 0,3 0,19 1,22 2,3 9,6 12,6 7,3 13,5 21,6 11,0 31,-2 38,-6 5,-3 10,-4 13,-8l4 -3c-1,-4 -1,-7 -1,-10 0,-2 0,-2 0,-3 0,-1 0,1 0,-1 -1,-1 0,0 0,-5z"/>
   <path class="fil2" d="M182 244c-2,-1 -10,0 -19,-4l-14 -6c-1,-1 -1,-1 -2,0 -1,6 0,13 0,19 0,0 0,1 0,1 -1,3 -1,8 0,12 0,2 -1,4 0,9 0,3 0,6 0,8 0,6 0,12 0,18 0,0 0,0 1,1 0,1 0,1 0,2 1,2 10,3 12,3 0,-2 0,-2 6,-1 0,-2 0,-5 0,-7 -1,-6 0,-12 -3,-20 -1,-4 -3,-13 -1,-16 1,-2 3,-2 5,-4 1,-1 0,-1 1,-1 2,-1 5,1 7,2 1,0 7,1 7,1 0,-3 1,-15 0,-17z"/>
   <path class="fil3" d="M137 185c0,2 0,6 0,8 1,1 3,2 5,3 1,0 2,1 3,1 6,3 18,9 25,9l11 2c5,1 11,1 16,0 7,0 22,-2 28,-5 10,-4 13,-4 13,-11 0,-3 1,-6 1,-9 -2,4 -19,8 -24,8 -10,2 -19,3 -29,3 -8,0 -21,-3 -28,-4 -2,-1 -4,-2 -6,-2 -6,-2 -8,-3 -13,-7 -1,0 -2,-1 -2,-2l0 6z"/>
   <path class="fil4" d="M184 129c3,1 -1,1 8,5 1,1 8,2 10,2 3,0 6,-3 8,-4 2,-3 3,-6 3,-9 1,-7 -1,-15 -8,-17 -7,-2 -12,0 -17,4 0,0 0,0 0,0 -1,1 -3,5 -6,2 -1,-1 -1,-2 -2,-2 -2,-3 -6,-3 -9,-3 -6,-1 -12,5 -12,12 0,5 1,11 5,14l2 2c4,3 17,1 18,-6z"/>
   <path class="fil2" d="M168 178c-5,-5 -3,-4 -5,-7 -4,-6 -2,-6 -2,-12 -5,0 -12,-3 -15,-5 0,3 -2,19 0,21l6 4c3,2 5,3 9,4 5,1 7,2 13,3l25 1c3,0 4,-1 5,-1 2,0 3,0 6,0 3,0 5,-1 8,-2 4,-1 8,-4 11,-6 1,-1 1,-1 2,-2l-1 -21c-1,2 -16,7 -20,8 -1,0 -7,2 -8,1 0,3 -1,8 -3,10 -1,1 -1,1 -2,2 -4,5 -12,8 -18,7 -4,-1 -9,-2 -11,-5z"/>
   <path class="fil2" d="M195 149c-1,-4 -9,-5 -13,-6 -5,0 -9,3 -12,5 1,-1 2,-2 4,-3 -4,0 -6,4 -8,5 -2,4 -3,6 -4,10 -1,5 1,11 5,14 0,1 2,3 3,3 3,2 3,2 7,3 9,1 15,-1 20,-7 2,-2 2,-1 3,-4 1,-4 1,-8 0,-12l-5 -8z"/>
   <path class="fil3" d="M146 220c-2,-1 -7,-5 -8,-7 1,3 -1,8 0,11 1,1 3,3 4,4 4,4 9,6 14,8 7,3 11,5 21,6 2,0 5,0 7,0 5,1 11,1 16,0 4,-2 12,-1 21,-5 3,-2 8,-4 11,-6 2,-2 3,-2 4,-6 1,-3 1,-5 1,-9 0,2 -5,4 -6,5 -7,5 -16,8 -25,9 -2,0 -3,1 -6,2 -14,2 -19,0 -33,-3 -4,0 -11,-4 -16,-6 -3,-2 -3,-1 -5,-3z"/>
   <path class="fil5" d="M320 335c1,-1 1,-1 1,-3 1,-3 3,-6 5,-9 3,-4 2,-1 4,-4 1,0 1,0 1,-1 2,0 3,0 4,0 2,0 2,1 4,2 4,4 4,5 6,11 1,3 1,4 2,7 1,9 0,5 0,11 0,2 0,2 0,4 -2,9 -1,19 -5,27 -1,4 -2,5 -6,6 -2,1 -1,0 -4,0 0,0 0,1 0,-1l-1 1c0,0 0,0 0,-1l-1 0c0,0 0,0 0,0 -1,-1 -2,-2 -3,-4 -2,-2 -2,-5 -3,-6 1,3 3,7 6,8 3,2 3,1 6,-2 1,-1 1,-2 2,-2 0,-3 -1,-4 -3,-5 -2,-2 -2,-2 -3,-4 -2,-2 -3,-4 -4,-6 -1,0 -1,-1 -1,-1 0,-1 -1,-1 -1,-1 -3,-1 -3,-1 -4,1 0,-1 0,-4 -1,-5 1,1 2,0 3,0l2 -2c3,-2 4,-12 0,-14 2,-2 5,-3 7,-5l3 -2c3,-2 3,-1 4,-4 1,-3 1,-2 0,-4 -2,-4 -1,-2 -4,-5 -1,-2 -4,-2 -6,0l-1 2c-3,3 -5,9 -6,13l-3 11c0,2 0,-1 0,1l-1 1c0,2 1,6 1,8 0,2 0,7 0,9 0,1 0,1 1,3 0,4 1,8 3,12 1,1 2,2 4,4l0 1c1,1 4,2 6,2 3,0 6,-1 7,-2 2,-1 1,-1 2,-2 1,-1 2,-2 2,-3 2,-4 1,-8 3,-11 0,-1 0,-1 0,-2 0,-2 1,-14 2,-16 0,-3 0,-4 0,-6 0,-10 3,-7 -2,-17 -3,-8 -4,-12 -13,-15l-2 0c0,0 0,0 0,0 -3,2 -5,0 -9,6 -1,1 -5,9 -5,11l1 3z"/>
   <path class="fil6" d="M197 161c0,-3 -2,-7 -3,-9 -6,-10 -21,-7 -26,-1 -4,6 -4,15 -1,19 2,3 5,6 8,8 9,4 23,-4 22,-17z"/>
   <path class="fil7" d="M195 159c0,-3 -3,-8 -5,-9 -2,-1 -4,-2 -5,-2 -3,-1 -3,-1 -7,-1 -3,1 -7,3 -8,6 -2,2 -4,8 -3,12 1,3 4,7 5,9 5,5 27,1 23,-15z"/>
   <path class="fil0" d="M173 300l12 1c0,0 0,0 0,0 0,0 1,1 1,1l2 0c3,1 9,0 10,-1 1,-1 1,-3 1,-4 -1,-2 -1,-1 -1,-2l-9 -17c0,-1 -1,-2 -3,-2 -2,0 -2,1 -3,2 0,1 -1,2 -1,3l-6 11c-1,4 -3,3 -3,8z"/>
   <path class="fil3" d="M208 125c0,0 0,0 1,0 0,-1 -1,0 0,-1 0,-3 0,-6 -3,-8 -2,-1 -5,-4 -8,-4 -3,1 -7,2 -8,4 -1,0 0,0 -1,1 -2,2 -3,2 -2,7 1,11 12,13 16,10 0,0 1,0 1,-1l5 -6c0,-2 0,-1 -1,-2z"/>
   <path class="fil3" d="M181 123c-2,-8 -12,-12 -18,-3 -1,2 -2,4 -2,8 1,2 2,4 4,6 12,5 17,-5 16,-11z"/>
   <path class="fil2" d="M241 300c-2,-1 -5,-5 -6,-8 -1,-4 -1,-7 -2,-11 0,-3 1,-4 1,-6 1,-5 1,-8 5,-13 1,-1 0,-1 2,-1 -4,-1 -7,0 -10,3 -3,3 -6,12 -6,17 0,4 3,14 6,17 1,0 1,1 2,1 3,3 3,2 8,1z"/>
   <path class="fil8" d="M146 131c1,-1 5,-18 7,-23 1,-2 2,-6 3,-7 -1,-1 -5,-4 -8,0 -4,5 -9,18 -8,22 0,4 0,4 2,6 0,0 0,0 0,0 1,1 3,2 4,2z"/>
   <path class="fil0" d="M204 122c0,-2 -5,-8 -10,-6 -3,1 -4,1 -6,3 -1,2 -2,10 4,14 5,2 9,3 12,-2 0,-2 1,-7 0,-9z"/>
   <path class="fil4" d="M204 210c-7,0 -11,1 -17,1 0,1 0,13 1,14 4,2 13,-1 17,-2 0,0 0,2 0,0l-1 -2c0,-2 0,-10 0,-11z"/>
   <path class="fil8" d="M128 349l-12 0c-4,1 -8,1 -12,1 -2,3 -2,2 -2,4 0,1 -1,2 -1,3 0,1 1,1 1,1 1,0 1,0 1,0 2,-1 3,-1 5,0 3,0 5,0 7,0 6,0 12,-1 14,-1 -1,-2 0,-5 -1,-8z"/>
   <path class="fil0" d="M177 126c-1,-2 -4,-9 -8,-9 -4,0 -12,6 -5,14 3,5 15,3 13,-5z"/>
   <path class="fil5" d="M342 345c-4,0 -10,2 -12,3 0,2 0,3 0,5 0,2 0,2 0,4 3,2 8,4 11,4 4,-4 5,-11 1,-16z"/>
   <path class="fil3" d="M282 148c1,0 1,-1 3,-2 4,-3 7,-1 9,0 0,-4 -1,-8 -2,-11 -2,-4 -3,-5 -8,-3 -5,1 -4,2 -5,7 -1,3 -1,2 1,5 1,1 1,2 2,4zm-156 -32l5 0c2,-4 3,-8 5,-12 -1,0 -2,-1 -3,-1 -2,0 -3,0 -4,1 -3,5 -4,7 -3,12zm-3 152c0,2 -2,6 -3,7 0,1 -1,1 -2,2 -3,2 -1,1 -4,2 4,3 2,2 7,5 2,-1 3,-1 4,-2 1,-2 1,-3 2,-5 0,-2 0,-6 -2,-8l-2 -1zm-7 -8c-2,3 0,3 -4,6 -2,2 -5,2 -8,2 1,2 6,6 7,8l1 1c2,-2 2,0 5,-2 1,-1 3,-2 4,-4 0,-6 -5,-8 -5,-11zm-23 -48c-1,1 -3,3 -5,3 -4,1 -5,0 -8,0 3,8 -1,12 10,11 3,-1 5,-3 5,-5 0,-1 -2,-8 -2,-9zm-3 -12c-2,1 -1,2 -5,3 -4,1 -5,0 -8,0 0,2 2,9 2,10 4,1 9,1 12,-2 2,-2 1,-2 1,-5 -1,-2 -1,-5 -2,-6zm-16 -41l-2 11c3,2 8,3 12,2 5,-1 4,-6 4,-10 -3,0 -5,1 -8,0 -4,-1 -4,-2 -6,-3zm35 91c-1,2 -1,2 -2,3 -3,4 -5,4 -10,3 1,3 3,6 4,8 1,2 2,3 4,2 5,0 9,-2 9,-7 0,-1 0,-1 0,-1 -1,-2 -4,-7 -5,-8zm7 -148c0,0 0,0 0,0 0,0 0,0 0,1 -1,2 -2,0 -3,4 -1,5 2,10 4,11 1,0 6,-1 7,-2 0,-4 -1,-5 -1,-8 1,-2 2,-4 3,-6l-10 0zm-13 136l-1 0c-2,4 -6,7 -11,5 1,3 3,5 4,8 1,2 1,2 3,3 4,2 6,0 8,-3 3,-3 -2,-7 -3,-13zm-30 -64c2,10 -4,14 11,12 5,-1 4,-5 4,-12 -8,2 -4,4 -15,0zm15 12c-3,2 -5,5 -14,3 0,2 2,9 3,11 2,1 5,1 8,0 2,0 3,-2 5,-3 -1,-2 -2,-8 -2,-11zm26 -84c-4,1 -9,2 -11,5 -2,3 -4,4 -3,7 1,2 2,4 3,5 0,1 2,3 3,4l9 -4c-2,-1 -4,-5 -4,-8 0,-3 0,-7 3,-8 0,-1 0,-1 0,-1zm-17 123c-2,1 -2,2 -6,3 -4,2 -3,1 -7,0 1,3 4,12 5,13 2,1 5,1 7,0 2,0 4,-3 5,-4 -1,-1 0,0 -1,-1 0,0 0,0 0,0 1,-1 0,0 1,-1l-3 -8c-1,-1 -1,-2 -1,-2zm-21 -85c-1,3 -3,14 -2,16 2,4 12,5 14,3l2 -5c0,-2 1,-4 1,-6 -5,0 -11,-1 -13,-4 -1,-1 -2,-3 -2,-4zm7 -16c0,1 -1,3 -2,5 -1,1 -2,2 -3,5 -1,2 -3,5 3,9 2,1 8,5 11,2 2,-3 2,-5 2,-8 1,-1 1,-2 1,-2 -4,-1 -5,-1 -8,-4 -1,-1 -3,-3 -4,-7zm15 -14c-2,0 -3,2 -3,3 -3,2 -7,5 -9,8 -1,3 1,6 3,8 1,2 5,4 8,3 2,-3 1,-1 2,-3 1,0 1,0 1,-1 2,-1 3,-2 5,-3 -2,-3 -5,-3 -6,-6 -2,-4 0,-7 -1,-9zm159 145c2,-1 2,-1 5,-1 1,0 4,0 5,2 0,-2 -1,-6 -1,-7 -1,-2 -2,-3 -5,-3 -9,0 -4,4 -4,9zm0 3c1,1 0,4 0,6 2,0 5,1 8,3 1,1 1,1 2,2l0 -9c0,-3 -2,-4 -5,-4 -2,0 -4,1 -5,2zm0 -37c2,0 4,-1 6,-1 3,1 4,2 5,3 1,-4 3,-4 3,-6 -1,-2 -3,-4 -5,-5 -6,-1 -7,3 -9,9zm9 17l-1 0c-1,-1 0,-3 -4,-3 -4,0 -5,2 -6,2 -2,-1 0,1 -1,-1 1,-1 2,-1 4,-2 -3,1 -4,2 -4,4 1,2 0,4 1,7 5,0 7,-2 11,1l0 -8zm-12 -132l0 1c-1,1 -1,1 -1,2 -3,3 -1,10 0,11 0,0 4,0 4,0 2,-1 1,-7 5,-10 1,-1 1,-1 2,-2 -4,-2 -6,-1 -10,-2zm0 128c2,-1 9,-2 12,1 0,-2 0,-3 0,-4 0,-2 1,-3 1,-5 1,-3 -10,-6 -11,0 -1,1 -2,7 -2,8zm27 -61c1,0 1,0 2,-1 2,0 3,0 4,0 5,1 4,2 6,4 1,-2 2,-6 2,-9 0,0 0,-1 0,-2l-1 -1c-1,-2 -7,-2 -8,-2 -3,2 -4,4 -4,7 -1,2 -1,3 -1,4zm-11 24c4,-1 10,5 10,5l3 -5c2,-4 4,-6 -1,-9 -2,-1 -7,-1 -8,1l-2 4c-1,1 -2,3 -2,4zm-10 -76l7 5c1,-5 5,-9 10,-9 0,0 0,0 -1,-1l-2 -2c-2,-1 -7,-4 -8,-4 -1,0 -2,1 -3,1 -2,3 -2,8 -3,10 0,2 1,-1 0,0zm2 90c3,-1 8,1 10,3 1,0 0,1 1,0l2 -3c1,-3 5,-7 4,-8 0,0 -8,-8 -13,1 0,1 -4,6 -4,7zm-10 60c-1,1 -1,1 -3,2 0,3 -1,9 1,12 2,4 4,4 9,1 0,-1 1,-4 1,-5 0,-2 -1,-3 -1,-5 -1,-1 -4,-4 -6,-5 -1,-1 0,0 -1,0zm23 -85c3,-1 5,0 7,1 3,1 3,2 5,3 1,-4 4,-8 5,-12 -2,-2 -2,-3 -5,-3 -2,-1 -4,0 -6,1 -3,1 -2,3 -4,7 -1,1 -1,2 -2,3zm8 -25c2,-1 4,-2 7,-1 1,0 2,0 3,1 3,0 2,0 2,1 0,-1 2,-13 -1,-14 -4,-3 -9,-2 -11,2 -1,3 1,7 0,11zm-13 -33c2,1 5,7 6,9 2,-2 0,-3 4,-6 3,-2 4,-3 8,-2 -1,-2 -5,-6 -7,-8 -1,-2 -2,-4 -6,-2 -3,2 -5,5 -5,9z"/>
   <path class="fil4" d="M167 208c1,5 0,9 1,15 3,0 12,3 15,2 0,-2 -1,-14 0,-15 -2,0 -2,0 -6,0 -2,-1 -8,-2 -10,-2z"/>
   <path class="fil2" d="M252 362l-2 -3c-2,-3 -3,-5 -2,-9 0,-3 1,-6 4,-8 1,-1 1,-1 2,-3 -8,0 -11,4 -13,12 0,3 2,11 6,12 2,0 3,-1 5,-1z"/>
   <path class="fil1" d="M333 349c0,3 0,5 -1,8 3,0 5,2 9,2 -1,-1 2,-12 -4,-11 -2,0 -3,1 -4,1z"/>
   <path class="fil2" d="M141 354c0,-4 0,-9 -1,-13l-3 2c-2,2 -2,5 -1,8 0,3 0,5 0,8 1,1 1,2 2,2 2,1 3,0 3,1 0,-3 0,-6 0,-8z"/>
   <path class="fil8" d="M254 349c-1,2 -2,4 0,7l14 0c5,0 4,0 8,-1 0,0 1,0 2,0 1,0 2,0 3,0 0,-2 0,-4 0,-7 0,-3 -1,-3 -2,-4 0,1 0,1 -2,1 -1,0 -2,0 -2,0 -5,0 -10,0 -14,1 -4,0 -6,0 -7,3z"/>
   <path class="fil2" d="M174 299l11 1c0,0 0,0 0,0 0,0 1,1 1,1l2 0c2,1 8,0 9,-1 0,-1 1,-3 0,-4 0,-1 0,-1 0,-2l-8 -15c-1,0 -2,-1 -3,-1 -2,-1 -2,0 -2,1 -1,1 -1,2 -2,3l-5 9c-1,4 -3,3 -3,8z"/>
   <path class="fil0" d="M184 283c0,1 -2,5 -3,7 0,1 0,1 2,1 0,0 0,0 1,0 1,0 4,-1 4,-1 0,1 -3,6 -3,6 0,0 -2,-3 -2,0 0,1 0,3 1,3 0,0 3,-2 4,-2 0,0 0,-1 -1,0 -1,0 -1,0 -1,0 0,-1 1,-2 3,-4 1,-2 1,-3 2,-3 0,-1 0,-1 -1,-1 -1,0 -6,0 -6,0 0,-1 3,-4 4,-6 -1,1 -3,0 -4,0z"/>
   <path class="fil4" d="M198 118c1,0 3,2 3,3 0,2 -2,3 -3,3 -2,0 -3,-1 -3,-3 0,-1 1,-3 3,-3z"/>
   <path class="fil4" d="M193 126c1,0 1,0 1,1 0,1 0,1 -1,1 0,0 -1,0 -1,-1 0,-1 1,-1 1,-1z"/>
   <path class="fil4" d="M195 127c1,0 1,0 1,1 0,0 0,0 -1,0 0,0 0,0 0,0 0,-1 0,-1 0,-1z"/>
   <path class="fil4" d="M170 118c1,0 3,1 3,3 0,2 -2,3 -3,3 -2,0 -3,-1 -3,-3 0,-2 1,-3 3,-3z"/>
   <path class="fil4" d="M169 127c0,0 1,1 1,1 0,1 -1,1 -1,1 -1,0 -2,0 -2,-1 0,0 1,-1 2,-1z"/>
   <path class="fil4" d="M171 127c1,0 1,0 1,0 0,1 0,1 -1,1 0,0 0,0 0,-1 0,0 0,0 0,0z"/>
   <path class="fil4" d="M188 153c0,0 0,0 0,0 -1,-1 -3,-1 -4,-2 -3,-1 -2,-1 -5,0 -3,0 -6,2 -8,4 -1,2 -2,7 -1,10 0,2 1,3 2,5 0,0 0,-1 0,-1 -1,-3 1,-9 2,-11 2,-3 6,-5 9,-6 3,-1 3,0 5,1z"/>
   <path class="fil8 str0" d="M223 119c1,4 4,11 6,14 0,1 2,2 3,2 0,0 1,-1 2,-1 0,0 1,0 1,0 -1,-1 0,0 -1,-1 0,0 0,0 0,-1 -2,-3 -3,1 -6,-12 -1,-4 -1,-7 -1,-11 0,-8 3,-8 0,-8 -1,2 -2,0 -3,2 -2,3 -2,12 -1,16z"/>
  </g>
 </g>
</svg>
