<?xml version="1.0" encoding="UTF-8"?>
<!DOCTYPE svg PUBLIC "-//W3C//DTD SVG 1.1//EN" "http://www.w3.org/Graphics/SVG/1.1/DTD/svg11.dtd">
<!-- Creator: CorelDRAW X7 -->
<svg xmlns="http://www.w3.org/2000/svg" xml:space="preserve" width="100px" height="100px" version="1.1" style="shape-rendering:geometricPrecision; text-rendering:geometricPrecision; image-rendering:optimizeQuality; fill-rule:evenodd; clip-rule:evenodd"
viewBox="0 0 100 100"
 xmlns:xlink="http://www.w3.org/1999/xlink">
 <defs>
  <style type="text/css">
   <![CDATA[
    .fil1 {fill:#FFF386}
    .fil0 {fill:#49498B}
   ]]>
  </style>
 </defs>
 <g id="Layer_x0020_1">
  <metadata id="CorelCorpID_0Corel-Layer"/>
  <g id="_593249848">
   <path class="fil0" d="M40 49l3 -4c3,-4 8,-10 10,-13 -3,-3 -18,-10 -21,-9 -1,0 -4,5 -5,6 -1,1 -1,1 -2,2 0,3 11,16 15,18z"/>
   <path class="fil0" d="M64 73l1 -11c-2,-1 -4,-2 -6,-3 -1,-1 -4,-2 -5,-3 -2,-1 -3,-3 -5,-4 -3,-1 -3,-1 -7,-1l0 6c1,1 10,7 11,8 2,2 10,8 11,8z"/>
   <path class="fil0" d="M72 52l11 -5c-3,-3 -3,-2 -6,-4 -1,-1 -2,-2 -3,-3 -1,-1 -2,-1 -4,-2l-6 -5c-5,-3 -1,-2 -8,0 1,7 3,5 7,10 3,2 4,3 7,6 1,1 2,2 2,3z"/>
   <path class="fil0" d="M25 31l4 -7c1,-1 1,0 2,-2 -1,-1 -1,-1 -2,-1 -3,-3 -8,-7 -11,-8 -11,-2 -9,7 -2,11 1,1 2,2 4,3 2,2 3,3 5,4z"/>
   <path class="fil0" d="M67 60l-16 -12c-2,-1 -3,-4 -3,-7 3,-1 5,-1 7,1l17 12c-1,-3 -7,-8 -10,-10 -1,-1 -3,-3 -5,-5 -3,-2 -2,-2 -3,-6 -2,0 -8,10 -10,12 -1,2 -3,3 -3,5 6,-1 6,-1 8,1l11 7c2,1 5,3 7,2z"/>
   <path class="fil0" d="M70 61c0,-3 0,-3 1,-4 1,0 1,0 1,0 1,-1 0,-1 1,-1 -2,0 -5,-3 -6,-3l-11 -8c-3,-3 -2,-3 -7,-3 1,6 5,7 10,10l11 9z"/>
   <path class="fil1" d="M93 80c0,-5 -3,-12 -6,-15 -2,-4 -8,-6 -15,-5 0,7 1,10 8,13 2,1 4,1 7,3 4,1 3,2 6,4z"/>
  </g>
 </g>
</svg>
