<?xml version="1.0" encoding="UTF-8"?>
<!DOCTYPE svg PUBLIC "-//W3C//DTD SVG 1.1//EN" "http://www.w3.org/Graphics/SVG/1.1/DTD/svg11.dtd">
<!-- Creator: CorelDRAW X7 -->
<svg xmlns="http://www.w3.org/2000/svg" xml:space="preserve" width="3333px" height="2388px" version="1.1" style="shape-rendering:geometricPrecision; text-rendering:geometricPrecision; image-rendering:optimizeQuality; fill-rule:evenodd; clip-rule:evenodd"
viewBox="0 0 3333 2388"
 xmlns:xlink="http://www.w3.org/1999/xlink">
 <defs>
  <style type="text/css">
   <![CDATA[
    .fil3 {fill:white;fill-rule:nonzero}
    .fil2 {fill:#7E71B1;fill-rule:nonzero;fill-opacity:0.501961}
    .fil0 {fill:white;fill-rule:nonzero;fill-opacity:0.501961}
    .fil1 {fill:white;fill-rule:nonzero;fill-opacity:0.701961}
   ]]>
  </style>
 </defs>
 <g id="Layer_x0020_1">
  <metadata id="CorelCorpID_0Corel-Layer"/>
  <g id="_387458944">
   <path class="fil0" d="M2659 1171c19,-18 27,-45 18,-72 -11,-37 -51,-58 -88,-46 -23,7 -39,24 -46,45 -37,-48 -102,-92 -212,-88 8,-20 10,-43 3,-65 -16,-50 -70,-78 -120,-62 -15,5 -28,13 -38,23l-130 -779 -115 -3 -156 900c-50,-47 -123,-66 -194,-44 -71,22 -120,81 -133,149 -63,-60 -155,-85 -243,-57 -128,40 -199,177 -159,305 1,2 2,4 2,6 -37,-7 -75,-5 -114,7 -125,40 -195,174 -155,299 2,6 4,12 6,18 -28,-4 -58,-1 -87,8 -109,34 -170,151 -135,261 12,38 34,71 63,96l2150 4 273 -2c-24,31 112,-48 114,-138 1,-98 -94,-136 -127,-150 -78,-35 4,-61 -2,-134 -9,-99 -67,-196 -245,-215 66,-21 -9,-112 -30,-179 -15,-47 -55,-79 -100,-87z"/>
   <path class="fil1" d="M2825 1944c0,0 137,-15 132,-30 -5,-16 -22,-79 -32,-106 -9,-27 -56,-34 -67,-70 -11,-35 -174,-60 -166,-101 23,-117 -2,-143 -16,-164 -18,-26 -37,-45 -117,-89 -15,-8 -14,-71 -14,-118 -1,-28 -131,-155 -281,-97 6,-17 14,-64 8,-83 -13,-42 -56,-66 -96,-54 -11,4 -29,39 -37,47l-136 -916 -35 -12 -110 956c-40,-40 -99,-58 -154,-40 -69,21 -110,89 -106,162 -17,-4 -34,-3 -51,2 -51,16 -80,70 -69,125 -10,4 -20,10 -30,15 -40,-18 -86,-23 -130,-9 -99,31 -152,142 -119,248 2,5 4,10 5,14 -22,-3 -45,-1 -68,6 -86,27 -133,124 -104,216 11,33 29,60 52,81l1741 17z"/>
   <path class="fil2" d="M2457 661c7,-20 9,-43 2,-66 -17,-53 -74,-83 -127,-66 -53,17 -83,74 -66,127 10,31 33,53 61,64 -3,9 -3,19 0,29 7,24 33,38 58,30 15,-5 27,-18 30,-33 14,20 39,30 63,22 29,-9 45,-40 36,-69 -8,-25 -32,-40 -57,-38z"/>
   <path class="fil2" d="M1835 498c7,22 -6,47 -28,54 -23,7 -47,-6 -54,-28 -7,-23 5,-47 28,-54 23,-7 47,5 54,28z"/>
   <path class="fil2" d="M1749 581c4,13 -4,27 -17,32 -13,4 -28,-4 -32,-17 -4,-13 3,-28 17,-32 13,-4 27,3 32,17z"/>
   <path class="fil2" d="M2071 1258c-5,1 -9,3 -13,5l-52 -836 -28 8 -51 751c-20,-3 -41,-1 -62,6 -79,25 -123,109 -98,188 7,21 19,41 33,56 -34,26 -49,70 -36,113 17,53 74,83 128,66 54,-17 83,-74 66,-128 -1,-3 -2,-6 -3,-9 0,0 0,0 0,0 41,-13 72,-41 89,-76 21,16 50,23 77,14 44,-14 68,-60 54,-104 -14,-44 -60,-68 -104,-54z"/>
   <path class="fil3" d="M1555 1275c-6,0 -11,2 -11,5 0,3 5,5 11,5l0 -10z"/>
   <g>
    <path class="fil3" d="M1565 1280c0,-3 -5,-5 -10,-5 -6,0 -11,2 -11,5 0,3 5,5 11,5 5,0 10,-2 10,-5z"/>
   </g>
   <path class="fil3" d="M1553 1276c-4,0 -7,2 -7,4 0,2 3,4 7,4l0 -8z"/>
   <path class="fil3" d="M212 1252c-6,0 -10,3 -10,6 0,2 4,5 10,5l0 -11z"/>
   <path class="fil3" d="M191 1543c-6,0 -10,2 -10,5 0,3 4,5 10,5l0 -10z"/>
   <path class="fil3" d="M179 893c-6,0 -10,2 -10,5 0,3 4,5 10,5l0 -10z"/>
   <path class="fil3" d="M2021 1139c-5,0 -10,3 -10,5 0,3 5,6 10,6l0 -11z"/>
   <path class="fil3" d="M2232 1599c-5,0 -10,3 -10,5 0,3 5,6 10,6l0 -11z"/>
   <path class="fil3" d="M2284 1866c-5,0 -10,2 -10,5 0,3 5,6 10,6l0 -11z"/>
   <path class="fil3" d="M1925 1998c-5,0 -10,2 -10,5 0,3 5,5 10,5l0 -10z"/>
   <path class="fil3" d="M942 1956c-6,0 -10,3 -10,5 0,3 4,6 10,6l0 -11z"/>
   <path class="fil3" d="M25 1936c-5,0 -10,2 -10,5 0,3 5,5 10,5l0 -10z"/>
   <path class="fil3" d="M2216 2110c-6,0 -10,3 -10,6 0,3 4,5 10,5l0 -11z"/>
   <path class="fil3" d="M2659 1731c-6,0 -10,3 -10,6 0,2 4,5 10,5l0 -11z"/>
  </g>
 </g>
 <g id="Background">
  <metadata id="CorelCorpID_1Corel-Layer"/>
  <path class="fil3" d="M-487 2246c-5,0 -10,3 -10,6 0,3 5,5 10,5l0 -11z"/>
 </g>
</svg>
