<?xml version="1.0" encoding="UTF-8"?>
<!DOCTYPE svg PUBLIC "-//W3C//DTD SVG 1.1//EN" "http://www.w3.org/Graphics/SVG/1.1/DTD/svg11.dtd">
<!-- Creator: CorelDRAW X7 -->
<svg xmlns="http://www.w3.org/2000/svg" xml:space="preserve" width="200px" height="168px" version="1.1" style="shape-rendering:geometricPrecision; text-rendering:geometricPrecision; image-rendering:optimizeQuality; fill-rule:evenodd; clip-rule:evenodd"
viewBox="0 0 200 168"
 xmlns:xlink="http://www.w3.org/1999/xlink">
 <defs>
  <style type="text/css">
   <![CDATA[
    .fil2 {fill:#FEFEFE}
    .fil0 {fill:#2B2A29}
    .fil1 {fill:url(#id0)}
   ]]>
  </style>
  <radialGradient id="id0" gradientUnits="userSpaceOnUse" gradientTransform="matrix(1.47499 0.147783 -0.147784 1.475 -29 -50)" cx="84.7318" cy="78.6242" r="89.2094" fx="84.7318" fy="78.6242">
   <stop offset="0" style="stop-opacity:1; stop-color:#FEFEFE"/>
   <stop offset="0.14902" style="stop-opacity:1; stop-color:#C7D766"/>
   <stop offset="0.270588" style="stop-opacity:1; stop-color:#B0CB1F"/>
   <stop offset="0.568627" style="stop-opacity:1; stop-color:#6EB535"/>
   <stop offset="1" style="stop-opacity:1; stop-color:#429437"/>
  </radialGradient>
 </defs>
 <g id="Layer_x0020_1">
  <metadata id="CorelCorpID_0Corel-Layer"/>
  <g id="_386197848">
   <path class="fil0" d="M110 72c0,1 0,0 1,1 0,1 1,1 2,2 0,0 1,0 2,1 1,1 3,2 3,3 1,0 1,0 2,1 2,0 0,0 3,0 1,0 2,0 3,0 0,1 0,2 -1,2 0,0 0,0 0,0l0 0c0,1 0,1 0,1 -1,1 -4,2 -5,2 -1,0 -2,0 -4,1 -2,0 -7,0 -8,0 -3,1 -3,1 -6,0 -1,0 -1,1 -2,1 -1,0 -1,0 -2,0 -1,0 -4,-2 -7,-1l-7 1c-1,0 -1,0 -1,0 -2,1 -5,1 -6,1l-4 0c-1,1 -2,1 -4,0 0,0 0,-1 1,-1 0,-1 2,-2 3,-2 1,0 1,0 2,-1 2,-1 3,-1 3,-2l2 -2c0,0 0,0 0,0 0,0 0,0 0,0 0,0 0,0 0,0l0 0c0,0 0,0 0,0 0,-1 1,-2 2,-2l2 -3c0,0 0,0 0,0l0 -1c1,0 1,0 1,-1l-1 0 -1 -1c0,-1 -1,-2 -1,-2 -1,-2 -1,-3 -1,-4l-1 -3c0,-1 0,-1 0,-1 0,-1 0,-1 0,-1 0,-1 0,-2 0,-3 0,0 0,0 0,0 0,-1 0,0 0,-1 0,0 0,0 0,0l0 -2c1,-2 2,-6 2,-8 0,0 1,-3 1,-4 -1,-1 -1,0 -2,-1 0,-1 -1,-1 -1,-2 -1,-3 -2,-5 0,-8 1,0 1,0 1,-1l0 0c0,0 0,0 0,0l2 -1c1,-1 3,0 4,0 1,0 4,2 4,3 1,0 1,0 1,1l0 0c0,0 0,0 0,0 1,3 0,4 -1,6 -1,1 -1,2 -2,3 -1,0 -3,1 -4,1 -1,2 -1,0 -1,4 1,1 1,1 1,1l-1 1c0,0 0,0 0,0 0,2 0,2 0,3 0,0 0,0 0,1 -1,2 -1,2 -1,3 0,1 1,0 0,0 0,1 0,3 0,4 0,4 -1,3 1,5l1 2c0,0 0,0 0,0 1,1 2,2 3,2 -1,0 0,1 0,1 1,1 2,-1 2,-1 3,-2 4,0 8,-2 1,0 2,0 3,0 1,1 2,2 5,2 0,-2 0,-2 0,-4l-1 -2c0,-1 -1,-1 -1,-2l-3 -5c0,-1 0,0 -1,-1 -1,0 -3,-2 -3,-3 -1,-1 -1,-3 -1,-5 1,-1 2,-2 2,-2 1,-1 1,-1 2,-1 1,-1 2,0 3,0 0,0 0,0 0,0l0 0c0,0 0,0 0,0 1,0 1,0 2,1 0,0 0,0 0,0 0,1 0,1 1,2 0,0 0,0 0,0 2,2 0,7 -2,8 1,0 1,1 1,1 1,2 1,2 2,4 0,1 0,1 1,2 0,2 1,6 2,8l0 1zm-28 1c0,2 -1,2 -1,3l-1 2c-1,0 -1,0 -2,-1 -2,0 0,0 -2,-1 -1,0 0,0 -1,0 0,0 0,0 0,-1 -2,-1 -2,-1 -4,-2l-2 -1c-1,-1 0,-1 -1,-2 -1,-1 -2,-1 -3,-1 -5,1 -3,5 -2,6 1,1 3,-1 6,1 0,1 1,1 2,1 1,1 4,3 5,4 1,0 1,0 1,1 -1,1 -2,1 -4,1 -1,0 -2,1 -3,2 -1,0 -1,0 -2,1l0 0c0,1 0,2 0,3l2 2c-1,0 -1,0 -1,1 -1,3 1,2 2,4 0,2 -2,5 -3,6l-3 3c0,0 0,0 0,0 0,1 -2,2 -2,3 0,0 0,0 0,1 -1,0 -1,-1 -2,0l-9 7c-2,2 -1,0 -2,2 -1,1 0,1 -1,2l-2 3c0,1 -4,5 -5,5 0,1 -1,1 -1,1l-2 2c0,0 -1,1 -1,1 0,0 0,0 -1,1 0,0 -1,1 -1,1 -1,1 -1,1 -2,1 -1,1 -1,1 -2,1 -3,0 -6,0 -9,1l-2 2c-2,1 -3,2 -4,4 -1,1 -1,1 -2,2 -1,1 -1,0 -2,1 -2,1 -3,2 -4,4 0,1 0,3 0,3 1,2 1,2 2,2l7 1c0,0 0,0 0,0l0 0c0,0 1,0 1,0 0,0 0,0 0,0l3 0c1,0 1,0 2,0 1,0 2,1 3,1 2,0 14,-1 15,-1 1,0 2,-1 3,-1 0,-2 1,-2 1,-3 0,0 -1,-2 -1,-2 -1,-3 -2,-2 -4,-3l1 -1c0,-1 0,-1 -1,-2 0,0 0,-1 0,-2l-2 -2c0,0 0,0 -1,-1 1,0 1,0 1,-1 1,0 1,-1 2,-1 0,0 1,-1 1,-1 1,-1 1,-1 1,-1 2,-1 3,-3 4,-4 2,-2 3,-4 5,-6 0,0 1,-1 1,-1 2,-1 5,-3 7,-3 0,3 0,4 1,7 1,2 3,3 4,4 2,2 5,3 7,5 0,0 0,0 1,1 1,0 1,0 1,0 1,1 1,1 1,1l0 0c0,0 1,0 1,0 -2,0 -5,0 -7,0l-2 1c-2,1 -1,0 -2,1 -1,1 -5,2 -6,4 -1,1 -3,2 -3,4 -3,-1 -7,1 -7,4 0,0 0,1 0,1 0,0 1,3 3,3 0,0 1,0 2,0 1,1 0,1 1,1 2,0 3,0 5,0 2,0 5,0 8,0 0,1 0,0 0,0 3,0 2,0 4,0 3,0 6,1 10,1 1,0 2,0 4,0 3,0 5,0 7,0l2 0c2,0 1,0 3,0 1,0 2,0 3,-1 2,-1 2,0 2,-3 0,-1 0,-2 -2,-3 -2,-1 -1,0 -2,-1 0,-1 -1,-1 -1,-1 -1,-1 2,-1 3,-2 0,0 1,0 1,0l2 -1c0,0 2,0 3,0 1,0 2,1 3,2 -1,0 -1,1 -1,2 0,0 0,0 0,-1 0,-1 1,-1 1,-1 1,0 1,0 1,1 0,1 -1,1 -1,2l1 0c0,0 1,0 2,0 1,1 0,0 1,1 -1,1 -1,0 -3,0l-1 1c0,0 -1,0 -1,1 -1,-1 0,0 -1,-1 0,0 0,0 -1,0 0,1 0,1 -1,1 -1,1 0,1 0,2 1,0 2,0 3,0 0,1 0,1 -1,1l-3 0c0,-1 0,0 0,-1 0,0 0,0 0,0 0,2 0,1 2,1 0,0 0,0 0,0 1,0 0,0 1,0 0,0 1,1 1,1l1 0c1,0 1,0 1,-1 1,0 2,1 3,0 2,0 3,0 5,0 0,0 0,0 0,0 1,0 1,0 2,0 0,0 -1,0 0,0 2,0 0,0 2,0 2,0 2,1 3,0 1,0 1,0 1,0l1 0c1,0 1,0 1,0l1 0c0,0 1,1 1,1 1,0 2,0 2,0 1,0 2,0 3,0 0,0 1,0 1,0 1,0 0,0 1,0 1,0 1,0 2,0 0,0 0,0 0,0 0,0 0,0 1,0l1 0c3,0 2,0 3,0 2,0 3,0 4,0 1,0 2,0 3,0l1 0c2,-1 3,-1 3,-4 0,-1 0,-1 0,-2l-1 -2c-1,-2 -4,-2 -5,-2 -3,0 -3,1 -4,-1 0,0 -1,-1 -1,-1 -2,-1 -3,-3 -5,-3 0,-1 -1,-1 -1,-1 -1,0 -1,0 -2,0 1,-1 1,-1 1,-1 2,-1 2,-1 3,-2l1 -1c1,-2 1,-1 1,-3 1,-1 1,0 1,0 1,-1 1,-1 1,-2 1,-1 1,-2 1,-3 1,-1 1,-1 1,-2 1,-1 1,-2 1,-3 1,0 2,0 3,1 0,0 0,1 1,1 0,1 2,1 2,2 1,0 1,0 1,0l1 0c2,2 3,1 4,4 1,1 1,1 2,2 1,1 1,1 2,2 0,0 1,0 1,1 1,0 0,0 1,1 0,-1 0,-1 0,-2 1,1 0,1 1,1 1,1 0,0 1,1 0,0 0,0 0,0 1,0 1,0 2,-1 -2,0 -1,2 -4,-1 -1,-2 -1,-1 -2,-2 -1,-1 -1,-1 -1,-2 -2,-2 -1,-3 -5,-4 0,0 0,0 0,-1l-2 0c-5,-3 -3,-3 -6,-5 -1,-1 -2,-1 -2,-2 -1,-1 -1,-1 -1,-2 -1,-2 -1,-2 -2,-4 0,0 0,0 0,0l0 -1c0,0 0,0 0,0 0,0 0,-1 0,-1 -1,0 -1,-1 -1,-1l-1 -3c1,1 2,1 2,2 1,0 1,0 2,1 4,2 5,5 8,8 0,0 1,1 1,1 0,0 0,0 0,-1l-1 0 2 0c-1,0 -1,0 -1,0l-1 -1c-1,-2 -2,-4 -3,-4 0,-1 0,-1 -1,-1l-3 -3c0,0 -1,0 -1,-1 -1,0 -2,-1 -3,-2 0,0 0,0 -1,0l0 -1c-1,-1 -2,-2 -3,-3 -1,-1 0,0 -1,-1 0,-1 0,-1 -1,-1l0 -1c-1,0 -2,-1 -3,-2l-4 -4c-1,0 -1,-1 -1,-1 -1,0 -1,0 -2,-1 -1,-2 -1,-2 -1,-4l1 0c0,0 0,0 0,0 0,0 0,0 0,0 0,-1 1,-1 1,-2 0,-1 0,-2 -1,-3 0,-1 0,-1 0,-1 0,-1 0,0 0,-1 0,0 0,0 0,0 0,0 0,0 0,0l0 -1c0,0 0,-1 0,-1 -1,-1 -1,-1 -1,-2 -2,0 -3,0 -4,-1 -1,0 0,0 -2,0 0,0 -1,0 -1,-1 1,-1 0,0 2,-1 1,-1 0,-1 2,-1 1,-1 1,-1 2,-1 3,-2 4,0 6,-1 1,-1 1,-4 0,-5 -1,-1 -3,-2 -5,0 0,2 0,2 -1,2 -2,1 -4,2 -7,3 -2,1 -3,1 -4,0 0,0 0,0 -1,0l0 0c-1,-1 -1,-1 -2,-2 0,0 -1,-1 -1,-2 0,0 0,0 -1,-1 0,-2 -1,-3 -1,-4 -1,-1 -1,-3 -1,-4 -1,-1 -2,-3 -2,-4 1,0 0,0 1,0 1,-3 2,-6 0,-9 0,-1 -2,-2 -3,-3 -2,0 -4,-1 -5,0 -2,1 -3,2 -4,3 -1,2 -1,3 -1,5 0,1 0,2 1,2 0,1 0,1 0,1l1 1c0,0 0,0 0,0 1,1 2,2 4,2 1,0 1,1 1,1l1 2c1,1 2,5 3,7 -1,0 -1,-1 -2,-1 -3,0 -3,0 -6,0 -2,0 -5,1 -7,1 0,1 -1,0 -2,0 -1,0 -1,-1 -2,-2 -1,-2 -1,-2 -2,-4 0,-1 0,-2 0,-4 0,-5 1,-6 2,-10 0,-1 -1,-2 1,-2l3 -2c0,0 1,0 1,-1 0,0 0,-1 1,-1 0,-1 0,0 1,-1 0,-1 1,-2 1,-3 0,-2 0,-3 0,-4l-2 -2c-1,-3 -8,-5 -11,-3 0,0 0,1 -1,1 -1,1 0,0 -1,2 -1,2 -2,4 -1,6 0,0 0,0 0,0 1,4 3,3 3,7 -1,2 -1,5 -1,7 -1,2 -2,7 -2,9 1,1 1,3 1,4 0,0 0,1 0,1 0,1 1,1 1,2l-1 0c0,0 0,0 0,0 0,0 0,0 0,0 0,1 0,1 1,2 0,0 0,0 0,0l2 3z"/>
   <path class="fil0" d="M156 122l3 3c1,1 0,1 0,1 0,0 1,1 2,2l0 0c0,0 0,0 0,0l1 1c0,0 0,0 0,0 1,1 1,1 2,2 2,2 1,1 2,2l2 3c1,2 3,2 2,3 -1,1 -1,1 -2,1 0,0 0,0 0,0 -1,-1 0,0 -1,-1 -1,0 0,0 -1,-1 0,1 0,1 0,2 0,0 1,0 1,1 -1,0 -2,1 -2,2 -1,0 -1,1 -2,2 -2,2 -1,3 -2,6l-2 1c-1,0 -2,4 -1,5l1 0c2,2 4,2 7,2l2 0c0,0 0,0 0,0 0,0 0,0 0,0 0,0 1,0 1,0 0,0 0,0 0,0 0,0 1,0 1,0l0 0c1,0 0,0 1,0 0,0 0,0 1,0 1,0 0,0 1,0 1,0 0,0 1,0 0,0 1,0 1,0 1,0 1,0 2,0l1 0c1,0 2,1 3,1 1,0 1,0 1,0l3 0c0,0 0,0 1,0 1,0 4,0 4,-1l1 0c1,-1 2,-5 0,-6 -1,-1 -3,-1 -4,-1 0,-1 0,-1 0,-1l0 -1c0,-2 -1,-3 -2,-4 -1,-2 -4,-4 -6,-6 -1,-1 0,-1 -2,-1 -1,-1 -2,-1 -3,-1 -2,0 -1,0 -3,-1 0,0 0,0 0,-1 -1,-1 -1,0 -1,-1l-4 -4c0,0 0,1 0,0 0,0 0,0 -1,0l0 -1c-1,-1 -2,-1 -3,-2 0,-1 0,-1 -1,-2 -1,-1 -1,-1 -2,-2 0,0 0,0 0,0 -1,-1 -1,-2 -2,-2 0,-1 0,-1 0,-1l-2 0 1 0c0,1 0,1 0,1z"/>
   <path class="fil0" d="M109 151l-1 1c-3,1 -3,1 -3,5 0,0 0,0 0,0 0,1 0,0 0,1l3 0c1,0 1,0 1,-1 -1,0 -2,0 -3,0 0,-1 -1,-1 0,-2 1,0 1,0 1,-1 1,0 1,0 1,0 1,1 0,0 1,1 0,-1 1,-1 1,-1l1 -1c2,0 2,1 3,0 -1,-1 0,0 -1,-1 -1,0 -2,0 -2,0l-1 0c0,-1 1,-1 1,-2 0,-1 0,-1 -1,-1 0,0 -1,0 -1,1 0,1 0,1 0,1z"/>
   <path class="fil1" d="M131 130c1,1 0,1 1,1 1,1 3,5 4,6 1,0 3,0 4,-1 0,0 1,-1 1,0 0,0 4,-7 4,-7 1,-1 1,-2 1,-3 0,-2 0,-2 -1,-4 0,-2 -1,-6 -2,-8 0,-1 0,0 0,-1l0 0c-1,-2 -2,-4 -3,-5 -2,-3 -3,-3 -5,-6l-7 -6c-2,-1 -1,-1 -2,-2 -1,-1 -1,-2 -1,-3l-2 0c0,1 0,2 0,1 0,0 0,0 0,0 -1,0 0,0 -1,0 0,0 1,0 0,0 -1,0 -2,0 -3,0 -1,0 -1,0 -1,0 -2,0 -2,0 -4,0 -2,0 -3,0 -4,0l-4 0c-1,0 -1,0 -1,1 0,-1 -1,-1 -1,0l-2 0c0,0 0,0 -1,0 -1,0 -2,0 -3,0l-7 0c0,0 -1,1 -2,1 -1,0 -2,-1 -3,0 0,0 0,0 -1,0 0,0 0,0 -1,0l0 0c0,0 0,0 -1,0 0,0 -1,0 -1,0 -2,0 -3,1 -5,1 0,0 -1,0 -1,1 -2,0 -3,-1 -4,1 0,1 0,1 0,1 -1,1 -1,2 -3,4 -1,2 -3,3 -4,6 -1,2 -2,3 -2,6 0,2 -1,5 -1,7 1,6 1,7 6,11 0,0 0,0 0,0l0 0c1,2 3,4 5,4 1,1 3,2 4,2 2,-2 0,-4 2,-6 2,-1 5,0 7,1 2,0 4,2 6,3 1,0 2,1 3,1 0,0 0,0 1,1 0,0 0,1 1,1 -1,0 -1,0 -1,1 -1,-1 -1,-1 -1,-1 0,0 -1,0 -1,-1 0,0 -1,0 -2,0l-3 -2c-2,-1 -4,-3 -7,-3 -1,0 -1,0 -2,1 0,1 0,1 0,2 0,1 -1,2 0,3 1,1 4,2 5,2 0,-2 0,-4 1,-5l0 1c1,1 0,2 1,3 0,1 -1,1 -1,1 1,1 3,1 4,2l5 4c0,0 1,0 1,-1 1,0 2,0 3,0l1 0c0,0 0,0 0,-1 0,0 0,0 0,0l3 0c2,0 5,1 6,1 3,1 2,1 3,0 1,-1 1,-1 2,-2 1,0 2,0 3,-1 1,0 5,-1 5,-2 0,0 0,0 0,0 0,-1 0,-1 0,-1 1,-1 0,0 0,-1l1 -1c0,-1 1,-2 2,-2 0,0 0,0 1,0 0,0 0,0 0,0l-1 2c0,1 0,1 0,2 0,0 0,1 1,1 2,0 4,0 6,0 0,0 0,-1 0,-1 0,-3 1,-4 -1,-7 0,-2 -1,-1 -3,-2 -2,0 -3,0 -5,1l1 0c0,0 0,0 0,0 -1,0 -1,1 -1,1 -2,1 -4,2 -7,3 -2,1 -3,2 -5,2 -1,1 0,0 -1,1 0,0 1,0 0,0 0,0 -1,0 -1,0 0,-1 0,-1 1,-1l2 -2c0,0 0,0 1,0l1 -1c1,-1 1,0 1,-1 1,0 2,0 2,-1 0,0 0,0 0,0l3 -1c0,0 0,0 1,-1l4 -1c2,-1 3,-1 4,-1 1,1 1,1 2,1zm-54 -51c1,-1 0,0 -1,-1 -1,0 -1,0 -2,-1l-3 -2c-4,-2 -3,-4 -5,-4 0,-1 -3,0 -2,1 0,1 0,2 1,2l0 0c1,1 0,1 1,0 2,0 2,1 4,2l1 0c0,1 0,0 0,1l1 0c0,0 1,0 2,1l1 1c0,0 0,0 0,0 1,0 1,1 2,0zm40 -4c1,1 1,0 2,0 1,0 1,0 2,-1l4 -1c4,-2 5,0 6,-2 1,0 2,-2 0,-2 -1,-1 -1,-1 -2,0l0 0c-1,0 -1,0 -1,1 -1,1 -2,1 -3,2l-1 0c0,0 0,0 -1,0l0 0c-1,1 -1,1 -2,1l-2 1c0,0 0,0 0,0 0,1 -1,1 -2,1zm-34 15c-2,0 -4,0 -6,0l-6 1c0,0 0,0 0,0 -1,1 -1,1 -2,3 2,1 2,1 4,1 1,0 2,0 3,-1 9,-2 5,-2 15,-2 4,1 4,0 6,0 2,0 2,0 4,-1 1,0 1,0 2,0 4,0 8,0 12,0 2,0 3,0 4,0 1,0 2,0 3,-1 0,0 0,0 0,0 3,-1 2,0 4,-2 0,0 0,0 0,0 1,-1 1,-1 1,-3l-2 0c-1,0 -1,0 -2,1 -2,0 -1,0 -3,0l-3 1c-1,0 0,0 -2,0 -1,0 0,1 -1,1l-1 0c-1,0 0,0 -1,0 -1,0 -3,1 -4,1 -1,-1 -1,-1 -1,0 0,0 0,0 0,0 -1,0 -2,0 -3,0 0,0 -1,0 -1,0l-4 0c-2,0 -3,-1 -4,0 -1,0 -2,0 -4,0l-6 0c0,0 0,0 -1,0l-1 0c0,0 0,0 0,0 0,0 0,1 0,1zm1 -17l1 0c0,1 0,1 -1,1l0 1c0,0 0,0 0,0l-2 3c-1,0 -2,1 -2,2 0,0 0,0 0,0l0 0c0,0 0,0 0,0 0,0 0,0 0,0 0,0 0,0 0,0l-2 2c0,1 -1,1 -3,2 -1,1 -1,1 -2,1 -1,0 -3,1 -3,2 -1,0 -1,1 -1,1 2,1 3,1 4,0l4 0c1,0 4,0 6,-1 0,0 0,0 1,0l7 -1c3,-1 6,1 7,1 1,0 1,0 2,0 1,0 1,-1 2,-1 3,1 3,1 6,0 1,0 6,0 8,0 2,-1 3,-1 4,-1 1,0 4,-1 5,-2 0,0 0,0 0,-1l0 0c0,0 0,0 0,0 1,0 1,-1 1,-2 -1,0 -2,0 -3,0 -3,0 -1,0 -3,0 -1,-1 -1,-1 -2,-1 0,-1 -2,-2 -3,-3 -1,-1 -2,-1 -2,-1 -1,-1 -2,-1 -2,-2 -1,-1 -1,0 -1,-1l0 -1c-1,-2 -2,-6 -2,-8 -1,-1 -1,-1 -1,-2 -1,-2 -1,-2 -2,-4 0,0 0,-1 -1,-1 2,-1 4,-6 2,-8 0,0 0,0 0,0 -1,-1 -1,-1 -1,-2 0,0 0,0 0,0 -1,-1 -1,-1 -2,-1 0,0 0,0 0,0l0 0c0,0 0,0 0,0 -1,0 -2,-1 -3,0 -1,0 -1,0 -2,1 0,0 -1,1 -2,2 0,2 0,4 1,5 0,1 2,3 3,3 1,1 1,0 1,1l3 5c0,1 1,1 1,2l1 2c0,2 0,2 0,4 -3,0 -4,-1 -5,-2 -1,0 -2,0 -3,0 -4,2 -5,0 -8,2 0,0 -1,2 -2,1 0,0 -1,-1 0,-1 -1,0 -2,-1 -3,-2 0,0 0,0 0,0l-1 -2c-2,-2 -1,-1 -1,-5 0,-1 0,-3 0,-4 1,0 0,1 0,0 0,-1 0,-1 1,-3 0,-1 0,-1 0,-1 0,-1 0,-1 0,-3 0,0 0,0 0,0l1 -1c0,0 0,0 -1,-1 0,-4 0,-2 1,-4 1,0 3,-1 4,-1 1,-1 1,-2 2,-3 1,-2 2,-3 1,-6 0,0 0,0 0,0l0 0c0,-1 0,-1 -1,-1 0,-1 -3,-3 -4,-3 -1,0 -3,-1 -4,0l-2 1c0,0 0,0 0,0l0 0c0,1 0,1 -1,1 -2,3 -1,5 0,8 0,1 1,1 1,2 1,1 1,0 2,1 0,1 -1,4 -1,4 0,2 -1,6 -2,8l0 2c0,0 0,0 0,0 0,1 0,0 0,1 0,0 0,0 0,0 0,1 0,2 0,3 0,0 0,0 0,1 0,0 0,0 0,1l1 3c0,1 0,2 1,4 0,0 1,1 1,2l1 1zm86 66c1,-1 -1,-1 -2,-3l-2 -3c-1,-1 0,0 -2,-2 -1,-1 -1,-1 -2,-2 0,0 0,0 0,0l-1 -1c0,0 0,0 0,0l0 0c-1,-1 -2,-2 -2,-2 0,0 1,0 0,-1l-3 -3c0,0 -1,-1 -1,-1 -3,-3 -4,-6 -8,-8 -1,-1 -1,-1 -2,-1 0,-1 -1,-1 -2,-2l1 3c0,0 0,1 1,1 0,0 0,1 0,1 0,0 0,0 0,0l0 1c0,0 0,0 0,0 1,2 1,2 2,4 0,1 0,1 1,2 0,1 1,1 2,2 3,2 1,2 6,5l2 0c0,1 0,1 0,1 4,1 3,2 5,4 0,1 0,1 1,2 1,1 1,0 2,2 3,3 2,1 4,1zm-12 17c1,0 3,1 4,2 3,0 4,0 6,0 1,0 1,0 1,0 4,0 7,0 11,0 3,1 6,0 9,0 0,0 1,0 1,-1 0,-1 0,-2 0,-3 -1,0 -2,0 -2,-1l-1 1 -1 0c0,0 0,0 -1,0 -2,-1 -3,-1 -4,-1l-2 0c-3,0 -4,0 -6,0 -2,0 -1,-1 -3,0 -1,0 -1,0 -2,0 0,-1 -1,0 -2,-1l-3 0c-1,1 0,1 -1,1 0,0 -1,0 -1,0 -1,0 -1,0 -1,0 0,1 -1,1 -1,1 0,0 -1,1 -1,2zm11 -14c1,0 1,0 1,1l0 0c0,0 0,-1 -1,-1 -2,0 -3,3 -3,3 -1,1 -1,3 -2,4 0,1 0,1 -1,2 2,0 2,0 5,0 1,0 2,0 3,0 2,0 5,0 7,0 2,0 5,0 6,0 0,-4 -1,-5 -3,-7 0,0 0,0 0,0 0,-1 -3,-3 -4,-3 -1,-1 -4,-1 -5,0 -1,0 -1,0 -2,0 0,0 0,0 0,0 0,1 0,0 -1,1zm-60 13l0 2c2,1 8,0 12,0 2,0 3,0 4,0l10 1c0,0 0,0 1,0 2,0 3,0 5,0 1,0 2,0 3,0 1,0 2,0 4,0 1,0 4,0 5,-1 0,0 0,0 0,0l1 -1c1,-2 0,-4 -1,-5 -5,0 -1,0 -5,1 -3,0 -6,0 -8,1l-2 0c0,0 0,0 -1,0 -1,0 -1,1 -3,1l-4 0c-3,0 -5,0 -7,0 -1,0 -2,0 -3,0 -2,0 -8,-1 -10,1 0,0 -1,0 -1,0zm2 -3l5 0c2,0 3,0 5,0 1,0 1,0 2,0 1,0 2,1 2,0 2,0 3,1 4,0 0,0 0,0 0,0 1,0 7,-1 8,-1 2,0 8,-1 9,-1 0,-1 0,-1 -2,-2l-2 -1c-1,0 -1,-1 -1,-1l-2 -1c-1,0 -1,0 -2,0 0,-1 0,-1 0,-1l-3 0c0,0 0,0 0,0 -1,-1 -3,-1 -4,-1 -1,0 -1,0 -3,0 -1,0 -3,0 -4,0 -2,1 -1,1 -3,1l-3 1c-2,1 -1,2 -3,3 0,0 0,0 0,0 -1,0 -1,1 -2,1 -1,1 0,1 -1,2 0,1 0,0 0,1zm-76 -15c1,0 1,1 2,1l2 -2c0,0 0,0 0,0l2 -2c0,0 0,0 1,0 0,0 0,0 0,0 0,-1 0,-1 0,-1l2 -2c0,0 0,0 0,0l3 -3c1,0 1,-1 2,-1 0,0 0,0 0,0l1 -1c0,-1 0,-1 1,-1 0,-1 0,-1 1,-2l2 -2c0,0 1,0 1,0l2 -1c0,0 0,0 0,0l1 0c0,-1 2,-1 2,-1 0,0 0,-1 0,-1 1,0 1,0 1,0 0,0 0,-2 1,-3 0,-1 0,-2 0,-4 1,0 1,-1 1,-2 -1,1 -2,2 -3,3l-2 0c0,1 0,1 0,1 -1,1 -2,2 -2,2l-1 0c0,1 -1,1 -1,1 0,0 0,0 0,0l-1 1c-1,1 0,0 -1,1l-1 0c0,1 1,0 0,0 0,1 0,1 -1,2l0 0c0,0 0,0 0,0l-2 4c0,0 0,0 0,0 0,0 0,1 -1,1 0,1 -1,0 -1,1 0,1 1,0 -1,1 0,0 0,1 0,1l-5 4c0,0 0,0 -1,1 0,0 0,0 -1,1 0,0 0,0 -1,0 0,1 0,1 0,1 -1,1 -2,2 -2,2zm-10 2c-1,0 -2,0 -3,1l1 0 -1 1c-2,1 -1,2 -3,1 0,1 -1,2 -2,4 3,0 2,1 6,1 2,0 2,0 3,0 1,0 2,0 3,0 3,0 10,0 12,0 -1,0 -1,0 -1,-1l-2 -3c0,-1 0,0 -1,-1 0,-1 0,-1 0,-1 0,0 0,0 0,0 -1,-1 0,-1 -2,-2l-2 -1c-1,0 -4,0 -5,0 0,0 -2,1 -3,1 0,0 0,0 0,0zm75 15c-4,-1 -4,0 -7,0 -1,0 -3,0 -4,0 -1,0 -2,0 -5,0 0,0 0,0 -1,0 -1,0 -1,0 -1,0 -1,1 -3,0 -4,0 -1,1 -1,1 -3,0 0,0 1,0 0,0 -1,0 -2,0 -3,0 -1,0 -3,-1 -4,-1 -1,0 -2,0 -4,0 0,0 0,0 -1,-1 -2,0 -1,0 -2,0 0,0 -2,0 -3,0 0,0 -1,0 -1,0 -1,0 0,0 -1,-1 -2,0 -3,1 -3,1 -2,0 -2,2 -2,2 0,1 1,2 2,2 1,0 1,0 1,0 4,1 5,1 9,1l11 0c1,0 1,-1 2,0 2,0 5,0 7,0 2,0 3,0 4,0 2,0 10,0 11,0l1 0c1,-1 0,-1 1,-1 0,0 0,0 0,0 0,-1 1,-2 0,-2zm-85 -7c0,0 0,0 0,0l-1 1c0,0 0,0 0,0 0,0 0,0 -1,0 0,1 0,1 0,1 -1,1 -1,0 -1,0 0,1 -1,0 0,1 0,0 0,0 0,0 0,0 0,-1 0,1 0,0 0,3 0,3 1,0 3,0 4,0 2,0 0,1 2,1l10 0c0,0 0,0 1,0 2,0 7,0 9,0 1,-1 1,0 1,-1 0,0 0,0 0,0l1 1c0,0 2,-1 2,-1 1,0 0,0 1,0 0,-2 1,-1 1,-2 0,-1 0,-2 0,-2 -1,-1 -1,-1 -3,-2 -1,0 -9,0 -11,1 -1,0 -10,-1 -11,-1 -1,0 -2,0 -2,0 -2,0 -1,0 -2,-1zm45 3l0 0c2,1 1,0 2,0 0,1 0,1 2,1 1,0 3,1 4,1l5 0c1,0 1,0 1,0 0,0 1,0 1,0 1,0 2,0 3,0 2,0 3,0 5,0 1,0 1,0 2,0 2,0 1,0 3,0 0,0 1,0 2,0 1,0 1,0 2,0 2,0 3,0 5,0 0,0 0,0 0,0 -1,-1 0,0 0,0 -1,-1 -1,-1 -2,-3 0,0 0,0 0,0 0,0 0,0 0,-1 -1,0 -1,0 -2,-1 -2,-2 -6,-3 -8,-4 -1,0 -1,0 -2,0 -1,0 0,-1 -1,-1 -1,0 -3,0 -4,0l-2 0c-1,0 -2,0 -3,0 -1,0 -4,1 -4,1l-1 0c-2,1 -1,1 -2,1 -1,0 -3,2 -4,2 0,0 0,1 0,1l-1 0c-1,2 -1,2 -1,3 0,0 0,0 0,0z"/>
   <path class="fil0" d="M85 32c-2,0 -2,0 -4,1 0,1 -1,3 0,5 0,2 3,4 5,4 1,0 3,0 4,-1 0,-2 1,-5 0,-7 0,0 -2,-1 -3,-2 -1,0 -1,0 -2,0z"/>
   <path class="fil0" d="M99 99c1,1 0,1 0,1 0,0 -1,0 -1,0 -1,1 -1,1 -2,1 0,0 -2,1 -3,1l-2 1c0,1 -1,1 -1,1 -1,0 0,0 -1,0l-3 2c-1,1 -1,2 -2,3 -1,0 -1,0 -1,0l-4 4c0,0 0,0 0,0 -1,1 -1,2 -1,3 -1,2 -1,2 -1,3 0,1 1,1 1,1l0 0c1,-1 1,-2 2,-4 1,-2 3,-4 4,-5 1,-2 4,-3 6,-4l1 0c-1,0 -2,0 -3,0 0,0 0,0 0,0 1,0 0,0 1,0l0 0c0,-1 1,-1 2,-2l4 -2c0,0 0,0 0,0 1,-1 3,-1 4,-2 1,0 1,0 2,0 2,0 8,-1 11,-1 1,0 1,0 2,0 0,0 0,0 0,0l0 0c0,0 1,0 1,0 0,0 0,0 1,0 0,-1 -3,-1 -4,-2l-4 0c-1,0 -1,1 -2,1 -1,0 -1,0 -2,0 -1,0 -2,0 -2,0 -1,1 -2,1 -3,0z"/>
   <path class="fil0" d="M109 80c0,1 0,1 -1,1 -1,0 -1,0 -2,0 -1,0 -2,0 -4,0 -2,1 -5,0 -5,0 -2,0 -4,1 -6,1 -1,0 -6,-1 -6,0 0,0 0,0 0,0 -1,0 -1,0 -1,0 -3,0 -1,0 -3,0 -1,0 -1,0 -1,1 0,1 1,0 2,1 1,0 3,-1 4,-1 1,0 6,0 7,0 1,0 1,0 2,0l11 0c2,0 5,-1 7,-1 0,0 0,0 1,-1 2,-1 2,0 2,-1 -1,-1 -3,0 -5,0 0,1 -1,1 -2,0z"/>
   <path class="fil2" d="M84 33c0,0 -1,0 -1,0l-1 1c0,1 -1,3 -1,4 1,1 3,4 5,2 1,0 1,0 1,0 0,0 1,0 1,-1 1,0 1,-2 1,-3 0,-1 0,-1 0,-1 0,-1 0,-1 -1,-1 0,0 -2,-2 -4,-1z"/>
   <path class="fil0" d="M103 54c0,0 0,0 0,0l0 0c0,-1 0,0 0,0 0,0 0,0 0,0 1,0 1,0 1,-1 0,0 1,0 1,-1 0,-1 0,-2 0,-3 -1,-2 -1,-1 -2,-2 -2,-1 -3,0 -4,0 -1,1 -1,1 -1,1 0,1 0,3 0,4 0,0 0,1 1,1 0,0 0,0 0,0 2,1 1,1 3,1 0,0 0,0 1,0z"/>
   <path class="fil0" d="M92 96c-1,-1 -1,-1 -2,-1 0,1 0,1 0,2 3,0 6,1 9,0 0,0 1,0 1,0 2,-1 1,0 2,-1l2 0c1,-1 1,-1 2,-1 1,0 1,-1 0,-1 0,-1 -1,0 -2,0 -2,1 -5,2 -8,2 -1,0 -2,-1 -2,-1 -2,0 -2,0 -2,1z"/>
   <path class="fil0" d="M83 25c0,-1 0,-1 0,-2 0,0 0,0 0,0 -3,-1 -3,-1 -5,1 0,1 -2,3 -2,4 0,2 1,2 2,1 1,-1 1,-1 1,-2 1,-1 3,-1 4,-2z"/>
   <path class="fil0" d="M130 112c1,0 0,-3 3,-1 1,0 1,1 1,2 0,1 -1,0 -2,1 0,1 0,0 0,1 1,0 1,0 2,-1l1 0c0,0 0,0 0,0l0 0c0,0 1,-1 0,-3 -1,-3 -3,-3 -5,-2 0,1 -1,3 0,3z"/>
   <path class="fil0" d="M84 33c-2,1 -2,2 -2,3 0,1 1,2 2,2 1,0 2,0 2,0 0,-1 0,-2 0,-2 0,-2 -1,-3 -2,-3z"/>
   <path class="fil0" d="M127 119c1,1 1,1 1,1 1,0 1,-1 1,-2 0,0 0,1 1,1 1,0 1,0 1,1 0,1 0,1 0,1 -1,1 -1,1 -2,1 0,1 1,1 1,1 0,0 1,0 2,0 0,0 0,-1 1,-1 2,-3 -2,-5 -3,-5 -1,0 -1,1 -2,1 0,0 -1,1 -1,1z"/>
   <path class="fil0" d="M135 119c1,1 1,1 2,1l1 -1c1,1 1,2 0,3 0,0 -1,0 -2,-1l0 3c0,0 0,0 0,0 2,0 4,0 4,-3 1,-1 1,-1 -1,-2 -1,-1 -1,-1 -2,-1 -1,1 -1,1 -2,1z"/>
   <path class="fil2" d="M99 49c1,0 3,-1 3,1 0,2 -1,2 -1,2l-1 0c0,0 0,1 0,1 1,0 1,0 2,0 0,0 0,0 1,-1 1,-1 0,0 1,-1 0,-1 0,-1 0,-2 -1,0 0,-1 -1,-1 -1,-1 -2,-1 -3,0 0,0 -1,0 -1,1z"/>
   <path class="fil0" d="M105 43c0,1 1,2 3,3 1,1 0,0 1,1 0,0 1,1 1,1 0,0 0,0 0,-1 0,0 0,-1 0,-1 0,-2 -2,-5 -5,-3z"/>
   <path class="fil0" d="M95 110c3,1 6,-1 5,-3 -1,-1 -3,0 -4,1 0,0 0,0 -1,1 0,0 -1,0 0,1z"/>
   <path class="fil0" d="M72 105c-2,-1 -2,2 -1,3 3,1 3,0 4,-2 1,0 1,0 1,-1 -2,-1 0,1 -3,2 -1,0 -1,0 -2,-1 0,-1 1,0 1,-1z"/>
   <path class="fil0" d="M103 79c0,0 1,-2 1,-3 -1,0 0,0 -1,-1 0,0 0,0 -1,0 -1,1 -1,2 -1,3 0,1 0,1 2,1z"/>
   <path class="fil0" d="M97 79c1,0 1,-2 1,-3 -1,0 -2,-2 -3,0 0,0 0,1 0,2l1 1c0,0 0,0 1,0z"/>
   <path class="fil0" d="M92 80c0,-1 0,-1 0,-1 0,-2 -2,-3 -3,-3 0,3 1,4 3,4z"/>
   <path class="fil0" d="M123 109c1,0 0,0 1,0 0,0 0,0 0,0 0,0 0,0 0,0 1,-1 1,-1 1,-2 0,0 0,0 1,0 1,0 1,0 1,-1 -4,-2 -5,2 -4,3z"/>
   <path class="fil0" d="M77 101c0,-1 0,-2 -1,-2 0,0 0,0 0,0l0 1c-1,0 -1,3 3,2 1,0 1,-1 1,-2 0,-1 0,-1 -1,-1 0,2 0,2 -2,2z"/>
  </g>
 </g>
</svg>
