<?xml version="1.0" encoding="UTF-8"?>
<!DOCTYPE svg PUBLIC "-//W3C//DTD SVG 1.1//EN" "http://www.w3.org/Graphics/SVG/1.1/DTD/svg11.dtd">
<!-- Creator: CorelDRAW X7 -->
<svg xmlns="http://www.w3.org/2000/svg" xml:space="preserve" width="1700px" height="926px" version="1.1" style="shape-rendering:geometricPrecision; text-rendering:geometricPrecision; image-rendering:optimizeQuality; fill-rule:evenodd; clip-rule:evenodd"
viewBox="0 0 1700 926"
 xmlns:xlink="http://www.w3.org/1999/xlink">
 <defs>
  <style type="text/css">
   <![CDATA[
    .str0 {stroke:#2B2A29;stroke-width:2.36221}
    .fil4 {fill:#FEFEFE}
    .fil1 {fill:#2B2A29}
    .fil5 {fill:#FFF9C9}
    .fil2 {fill:#FFD339}
    .fil3 {fill:#E63A29}
    .fil0 {fill:#7072AF}
   ]]>
  </style>
 </defs>
 <g id="Layer_x0020_1">
  <metadata id="CorelCorpID_0Corel-Layer"/>
  <g id="_590374824">
   <polygon class="fil0" points="7,-3 1688,-3 1688,923 7,923 "/>
   <g>
    <path class="fil1" d="M1279 674c0,5 0,15 -2,20l-1 1c-1,12 -15,21 -26,25 -10,2 -85,0 -101,0 -16,0 -33,0 -49,0l-67 -1 -98 -1 -124 -1c-9,1 -25,0 -36,0 -11,0 -23,0 -34,0l-7 0 -57 -1 -208 0 -30 0c-24,1 -48,-1 -72,-1 -13,0 -21,0 -29,-7 -4,-3 -6,-2 -9,-7 -2,-2 -5,-8 -7,-11 -3,-11 -1,-54 -1,-70 0,-23 0,-47 0,-71l1 0 0 -29 -1 -2 1 -24 2 -206c1,-22 0,-49 0,-72 0,-16 -3,-54 4,-66l8 -10c13,-16 26,-13 38,-14l70 -2 63 0 22 -1 62 0 22 -1c5,1 10,0 15,0 2,0 7,1 7,1 2,0 3,0 6,0l1 -1 28 0 53 0c15,-2 145,-5 153,-3 3,-2 66,-1 72,-1 5,-1 7,-1 11,0l84 -2 22 -1 34 -1 3 0c11,0 48,-2 54,0 3,-2 6,-1 9,-1 4,0 7,0 10,0l56 -1c21,0 41,9 46,31 2,7 0,172 0,195l-1 0c2,11 1,35 1,47 -1,15 -1,32 -1,47l1 72 0 37c0,15 0,31 0,47 0,9 2,36 0,44 0,1 0,0 0,2l1 9c0,4 0,7 0,11 0,8 1,12 1,20zm2 -459l0 -66c-1,-16 -12,-31 -28,-37 -12,-4 -27,-3 -41,-3 -57,1 -113,4 -170,4 -14,0 -29,0 -43,1 -13,1 -28,0 -42,1 -29,1 -58,1 -87,1 -28,1 -57,2 -86,2 -14,0 -29,-1 -43,0 -15,0 -24,0 -38,0l-190 2c-51,-2 -100,3 -146,2 -14,0 -20,3 -28,9 -4,3 -2,2 -5,5 -2,3 -2,2 -4,5 -15,17 -9,55 -9,83 -1,49 0,97 -1,146 0,24 -1,49 -1,74 0,24 1,48 -1,72 -1,23 0,49 0,73 -1,23 -2,48 -2,72 0,14 -1,20 4,33 1,5 3,6 5,9 7,9 6,5 13,11 8,7 7,5 29,6 12,0 23,-1 35,-1 48,1 98,-1 147,0 24,1 49,0 73,0l68 0c3,0 2,0 3,1 8,-1 26,-1 36,-1 11,0 23,1 34,1 23,0 46,0 69,0 46,1 91,0 137,1 16,0 260,4 274,2 18,-1 34,-15 38,-31 5,-19 -1,-77 0,-101 0,-12 0,-24 -1,-35 0,-22 0,-46 1,-69 0,-23 -1,-45 -2,-67 0,-23 1,-46 0,-69 0,-24 0,-115 2,-136z"/>
    <path class="fil1" d="M1322 709l32 0 10 -1 31 -2 17 0c8,-3 21,-1 25,-1 2,1 4,0 7,-1 7,-1 18,1 31,-1 7,-1 8,0 15,0 10,0 46,-2 51,-1 2,-2 -1,-1 5,-2 1,0 3,0 4,0 4,0 5,1 8,1 7,0 19,3 23,-2 1,-3 1,0 0,-4 -7,-1 -6,1 -12,2 -4,1 -10,0 -13,0l-53 1 -31 1c-13,4 -41,-1 -57,3l-14 0 -19 1c-4,1 -57,2 -59,1l-32 0c-2,-3 -1,-18 -1,-26l0 -28c1,-15 0,-30 1,-45 0,-14 -1,-30 0,-44l0 -27c0,-9 0,-19 0,-28 0,-9 0,-18 0,-27 0,-9 0,-19 0,-28 1,-33 -10,-22 42,-26 6,-1 33,-5 35,-4 8,-1 17,-2 25,-2 9,0 19,0 27,0 10,-1 46,-3 53,-1 3,-2 30,-4 34,-3l0 -4c-2,-1 -3,0 -5,0 0,0 0,0 -1,0l-2 2c-5,1 -23,1 -27,1 -7,0 -20,1 -29,2 -21,1 -43,0 -61,0 -1,-1 -2,1 -2,-9 0,-12 -3,-19 -2,-25 0,-2 0,-1 -1,-3 0,-1 0,-1 0,-3l0 -17c0,-8 0,-16 0,-24 1,-23 -1,-47 1,-70 1,-13 -3,-48 -1,-65 -1,-29 0,-58 -2,-85l0 -21 -4 -39c0,-5 1,-9 -1,-14 0,-2 -1,-5 -1,-7 -1,-3 0,-3 -5,-3l1 9c2,4 1,3 1,7 1,4 1,3 1,7 1,7 1,12 1,18l2 9c0,5 0,7 1,13 0,5 1,8 1,14l1 54 0 33c1,2 1,143 1,159l0 49c1,6 1,2 3,6 0,3 1,6 -1,7l-39 5c-3,0 -7,0 -11,0 -4,1 -17,2 -21,2 -10,0 -8,-5 -14,2l0 -13 1 -130c0,-26 1,-52 1,-78 -1,-13 0,-26 0,-39 0,-12 -1,-27 -1,-39 -6,-5 -2,-13 -14,-19 -8,-4 -15,-8 -23,-10 -9,-1 -13,4 -18,0 -11,3 -66,2 -81,2 -14,1 -28,1 -41,1 -9,0 -35,3 -42,0 -3,2 -10,1 -14,1l-68 2 -31 1c4,-9 -1,-20 0,-32 0,-8 -1,-4 -1,-11 0,0 -4,-37 -4,-41 -3,2 -5,-1 -3,9 1,4 1,7 2,12l2 25c-10,3 -52,4 -64,3 -21,-1 -43,-3 -63,-2l-31 0 -16 -1c1,5 0,1 3,4 6,-1 19,1 26,1 9,0 20,1 29,0 6,0 14,1 21,0 8,0 18,1 25,1l49 0 22 -2 1 33 -19 1 -99 1 -62 1 -9 1c-8,-1 -28,0 -33,-1l-74 1 -21 1 -71 0 -3 3c11,0 24,-1 35,-1 24,0 84,2 100,-1 8,1 80,0 94,0 31,0 64,-2 94,-1 14,0 32,0 46,-1 14,-1 30,0 45,-1 31,-1 61,-1 92,-2 14,0 172,-5 183,-2 5,1 21,9 24,11 12,11 10,31 10,47 1,11 1,90 -1,93 3,11 -2,121 0,147 0,12 0,24 0,36l-1 109c0,46 2,102 1,147 0,21 -17,37 -33,41l-73 -1c1,1 1,0 3,1 1,0 3,0 3,0l18 0c5,0 19,2 22,-1 -13,2 -30,1 -43,1 -9,-1 -35,-2 -43,0 2,2 -1,1 4,1 0,0 4,0 4,0 3,0 6,0 9,0 6,0 12,0 17,0 12,0 24,1 35,0l26 1c15,1 20,1 32,-6 8,-5 14,-11 17,-22 10,3 26,-1 35,2z"/>
    <path class="fil1" d="M1143 733c8,-2 34,-1 43,0 13,0 30,1 43,-1 -3,3 -17,1 -22,1l-18 0c0,0 -2,0 -3,0 -2,-1 -2,0 -3,-1 -22,0 -46,-1 -68,-1 -23,0 -46,0 -69,0 -46,-2 -91,-1 -138,-2 -91,-1 -183,1 -274,-1l-93 0c-59,-2 -121,0 -182,-1 -7,0 -22,-1 -28,-3 -5,-2 -13,-7 -17,-12 -3,-6 -8,-12 -7,-22 0,-11 -1,-20 -1,-31 0,-19 1,-39 2,-58 1,-28 0,-61 1,-89 0,-5 0,-10 0,-15 1,-9 2,-8 2,-9 0,0 1,0 1,-2 -3,-4 -2,0 -3,-5l0 -25c0,-12 1,-24 1,-35 1,-22 0,-45 2,-68 0,-11 -1,-22 0,-33 0,-11 0,-24 0,-34 0,-41 2,-93 5,-133 2,-14 3,-16 10,-25 3,-3 5,-6 8,-9 13,-7 62,-7 79,-7 11,0 23,0 35,0 10,0 23,-1 33,0l86 -1c-3,-1 -1,-2 -13,-2 -27,1 -57,0 -86,1l-74 1c2,-6 5,-28 5,-36 2,-13 1,-26 2,-38 1,-8 4,-34 3,-40 -2,1 -2,1 -4,2l1 6c-1,5 -1,25 -3,27 0,6 1,28 -1,32l-5 44c0,3 1,1 0,3l-47 -1c-4,2 -9,0 -13,3 -8,5 -17,18 -19,30 -3,6 -2,17 -3,25 -10,-3 -12,-2 -22,-2 -4,1 -42,4 -45,3l-6 1c-14,1 -58,-2 -70,-4 -8,-1 -16,-2 -24,-3 -6,0 -27,-2 -30,1l0 2c4,0 5,0 9,0 13,0 44,3 57,5 8,1 25,1 34,2 12,0 25,-1 37,-1 3,0 5,0 7,0 12,-2 8,-2 22,-2 6,0 9,-1 15,-1 6,0 9,2 14,1 3,1 2,-2 2,6l-1 50c0,10 0,52 -1,58 4,8 0,46 0,57 0,7 -1,55 -2,56l0 86c-4,0 -5,1 -8,1 -4,1 -5,0 -8,0l-56 -2c-14,-1 -26,-2 -39,-2 -13,-1 -25,0 -38,0 -9,-1 -26,-3 -31,0 1,4 5,4 10,4l46 1 24 1 61 1c4,0 4,1 8,1l8 1c0,0 0,0 1,0 0,1 0,0 1,1 6,-2 14,-1 20,-1l-2 97 0 3 -1 50c-1,7 0,18 0,26 0,4 0,9 0,12 1,6 1,7 1,12 0,4 0,9 1,12 1,4 3,4 4,9 2,2 2,3 4,6 14,18 39,15 64,14l4 0 49 2 5 -1 75 0 33 0 32 0 30 0 19 0 20 0 98 1c6,-1 29,0 38,-1 16,2 35,1 51,1 14,-1 37,-1 51,0l44 0 5 0 48 1 15 0c16,-1 37,0 53,0 16,1 35,1 52,0l3 1c4,-1 8,0 11,0l10 1c6,-2 13,-1 20,-2z"/>
    <path class="fil1" d="M271 698l33 -2 0 -4c-10,0 -26,-1 -35,1 -7,1 -39,-1 -53,0l1 5c23,1 31,0 54,0z"/>
    <path class="fil1" d="M205 415c1,-5 1,-10 1,-14 1,-6 2,-5 3,-10 1,-36 11,-98 18,-145 2,-15 1,-23 2,-31 0,-6 2,-12 2,-23 0,-4 1,-12 0,-17 -8,1 -3,-2 -5,3 2,3 -21,207 -23,217 -1,7 -2,9 -3,17 0,2 -2,14 -3,15l-3 38c-1,6 -3,8 1,12 4,-1 4,0 4,-7 0,-2 0,-4 0,-6 1,-8 4,-46 6,-49z"/>
    <path class="fil1" d="M1386 757c1,-13 0,-31 1,-37 0,-3 1,-5 1,-6 -1,-10 2,-3 -5,-6 -3,9 -1,24 -1,34 -2,12 -1,40 -1,54 0,112 9,83 10,121 5,-2 7,0 8,6 -11,-43 -13,-42 -13,-166z"/>
    <path class="fil1" d="M1078 770c-25,-1 -14,-1 -41,4l-36 0c-5,0 -6,-1 -11,-1 -6,1 -8,-2 -8,-9 4,5 -1,-1 2,7 0,0 0,0 0,1 0,0 0,0 1,1 1,-3 2,-1 2,-9 3,1 8,3 11,3 3,0 9,0 13,0l81 1c19,0 27,-1 43,-2 10,0 23,2 33,2 -4,2 -9,0 -15,3 4,0 11,-1 16,-1 5,1 9,0 14,1 0,1 1,1 1,1l2 1c-19,0 -27,1 -47,0 -3,0 -5,0 -7,0 -6,0 -6,-2 -6,-2l24 0 -72 -1zm74 6c7,-1 19,0 27,0 7,-1 16,-2 23,-1 10,0 17,-1 27,-1 9,0 18,1 27,0 5,1 17,-3 22,-3 -1,-6 -2,-9 -4,-12 -10,-1 -13,3 -21,3 -2,1 -18,2 -21,2 -9,0 -16,-1 -24,-1 -4,2 -12,2 -17,1 -7,0 -36,0 -39,-2l-18 0 -22 2 -23 0c-9,0 -21,-1 -30,-2 -10,0 -20,0 -30,-1 -9,-1 -19,1 -27,0l-17 -2c-4,1 -2,2 -7,2 -2,5 -1,3 -1,8 3,3 -1,5 6,8 11,3 20,0 31,0 12,1 59,1 69,0l22 -2c8,1 42,-1 47,1z"/>
    <g>
     <path class="fil1" d="M877 872c6,1 14,1 17,0 14,-4 8,-3 17,-7 4,-2 5,-2 8,-3 5,-2 2,-3 7,-4 1,-3 -1,0 2,-3 1,-1 2,-2 4,-3 3,-3 4,-3 3,-7 -4,1 -7,6 -9,9 -2,-4 2,-6 3,-7 11,-17 5,-31 -2,-49 -2,-5 -2,-5 -5,-8l-6 -7c-2,-1 -4,-2 -6,-3 -3,-2 -7,-4 -10,-5 -6,-2 -11,-1 -12,-5 -4,-2 -4,-1 -9,1 -3,1 -7,1 -11,2 -10,2 -15,7 -19,8 -1,3 -2,3 -4,6 -2,2 -3,4 -5,6 -2,3 -7,11 -7,11 -1,6 -3,7 -4,14 -3,4 -1,17 0,22 1,4 2,5 5,9 2,3 3,4 6,6 6,6 9,6 15,10 6,3 12,7 19,7 1,0 2,0 3,1l0 -1zm-39 -53c1,-15 1,-14 10,-23 2,-2 7,-6 10,-8 4,-2 9,-3 14,-5 3,-1 11,-1 14,1 -4,-6 -14,-3 -21,-2 18,-7 35,-6 48,8 1,1 1,1 1,1l9 16c10,21 -12,45 -18,47 -4,2 -15,5 -19,5l-6 0c-9,3 -27,-4 -31,-10 -3,-4 -6,-8 -9,-13 -3,-6 0,-9 -2,-17z"/>
    </g>
    <path class="fil1" d="M1187 856c8,-2 21,0 30,0 3,-2 2,-1 6,0l2 -1c9,-2 33,7 46,0l0 -6c-1,0 0,0 -3,-1l-1 3c-1,0 -1,0 -1,1 0,0 1,0 1,1 -16,2 -19,0 -33,-1l-51 0c-6,1 -11,0 -16,-1 -12,0 -24,0 -35,0 -16,0 -56,6 -66,5 -29,-4 -36,0 -58,-2 -1,0 -2,0 -4,0 -2,-1 0,0 -2,-1l1 -1c0,0 0,-1 0,-1 3,-3 119,-3 130,-3 22,1 45,2 68,1 13,-1 20,0 32,1 6,0 25,2 31,1 3,-1 1,0 3,-2 -7,-3 -20,-1 -31,-2 -26,-3 -74,0 -87,-2 -27,-1 -53,0 -79,1 -22,0 -57,-2 -77,3l2 3c-9,-1 -5,3 -8,5 -1,-2 -1,-7 -1,-10 0,0 0,1 0,0l-2 11c8,3 14,-1 21,0l16 0c8,0 16,-1 25,0 8,0 16,1 24,1l0 0c16,0 35,-4 56,-4 10,-1 20,0 31,-1 10,0 20,2 30,2z"/>
    <path class="fil1" d="M1267 814c-13,1 -27,3 -41,2 -8,-1 -12,-2 -20,-2 -8,0 -16,2 -24,0 -2,2 -19,1 -24,1 -16,1 -35,0 -51,1 -8,0 -14,1 -23,1 -17,1 -33,-1 -49,-1 -9,0 -16,1 -24,1 -16,-1 -20,-5 -18,3 3,-2 12,0 17,0 18,1 24,-2 52,0 29,3 50,-3 67,-2 24,2 47,-2 70,-1 12,0 24,2 35,2 12,0 30,-3 34,1 -10,3 -57,4 -71,5 -25,2 -84,4 -109,1 -25,-2 -65,-4 -90,-3 -15,1 -5,-3 -14,-4l-3 10 10 -1c7,-4 68,-1 81,-1 13,1 26,3 40,3 5,0 38,1 40,2 10,-3 20,-1 31,-3 15,-1 77,-3 89,-7 1,-6 0,-7 -5,-8z"/>
    <path class="fil1" d="M1273 793c-2,11 -20,6 -30,5 -13,0 -26,1 -38,0 -25,-1 -49,3 -74,2 -25,0 -48,-2 -72,-3 -15,-1 -22,1 -35,3l-36 -1 -2 -5c6,1 12,2 18,2 19,0 37,-1 56,-1 13,-1 25,0 38,-1 12,0 24,2 36,1 29,-2 65,1 90,0 11,-1 43,-4 49,-2zm-117 11c20,-4 41,-2 62,-2 11,0 22,-1 34,0 11,2 19,2 26,-5 -2,-13 -17,-6 -28,-6 -12,1 -25,0 -37,1 -25,1 -50,-2 -75,0 -6,1 -58,-1 -76,0 -12,1 -29,2 -40,1 -15,0 -26,0 -41,-3l3 15c13,2 -5,-3 9,-2l32 0c9,-1 10,-3 21,-3 38,0 66,5 110,4z"/>
    <path class="fil1" d="M759 831c2,-8 -2,-27 -4,-35l0 -2 -4 -3c-4,-4 -4,-3 -8,-8l-8 -7c-5,-4 -9,-5 -16,-7 -5,-1 -8,-1 -13,-2 -8,-1 -6,0 -11,3l-20 9c-3,5 -3,6 -6,8 -3,2 -2,0 -4,3 -1,2 -2,3 -3,6 -2,1 0,0 -2,3 -1,1 -1,3 -2,4 -1,2 -3,5 -2,9 0,12 -3,2 1,20 2,6 4,10 8,14 1,1 2,2 3,3 12,11 4,6 22,15 5,1 11,3 16,3 8,2 9,-1 16,-1l2 -1c6,-1 18,-9 22,-13 3,-2 6,-6 8,-10 1,-4 3,-6 5,-11zm-89 -31c1,-3 0,-3 3,-5 8,-8 -3,0 7,-9 5,-5 9,-9 16,-9 6,-2 17,-2 21,-2 8,2 11,4 16,7 6,2 10,8 12,15 3,1 -2,1 1,-1 0,0 1,-2 2,2 7,23 1,29 -12,47 -1,1 -2,2 -2,3 -2,2 0,1 -2,1 -1,2 -1,2 -2,4l-5 0c-6,6 -28,7 -35,2l-10 -6c-5,-4 -4,-2 -7,-6 -5,-5 -9,-20 -8,-27l2 -6 3 -10z"/>
    <path class="fil1" d="M230 825c-1,-17 -3,-36 -4,-52 0,-9 -1,-18 -2,-27 -1,-8 -3,-15 -3,-24 -2,-2 -3,-16 -3,-21 0,-1 0,-2 -1,-3l-1 -5c-8,-2 6,0 -2,0 -4,0 0,0 -3,0 -2,0 -4,0 -6,0 -15,0 -27,1 -41,-1 -11,2 -11,0 -31,-1 0,2 -5,3 -5,3l6 1 11 1c10,1 62,4 68,1l1 18c4,14 6,30 7,44 1,14 4,34 4,49 2,3 0,18 0,22 0,19 -3,16 4,20l1 -25z"/>
    <path class="fil1" d="M506 828c-1,-3 -2,-4 -7,-5 1,0 1,0 1,0l4 -2c4,0 10,3 13,6 -2,9 -7,15 -15,18 -16,5 -11,-12 -10,-14 4,-7 8,-5 14,-3zm18 1c1,-5 -16,-12 -24,-11 -3,2 -8,4 -10,9 -4,6 -4,10 -5,18 4,10 13,11 26,9 5,-2 3,0 6,-4 1,-2 2,-3 4,-5 3,-4 5,-9 3,-16z"/>
    <path class="fil1" d="M560 765c-1,1 -1,1 -1,1 0,0 0,1 0,1 -3,6 -2,7 -6,10 -2,-17 24,-25 35,-15 8,7 -7,31 -27,18 -2,-9 3,-9 -1,-15zm33 11l2 -9 0 -2c-1,-3 -6,-6 -8,-8 -4,-2 -6,-3 -11,-3 -12,1 -16,5 -22,11 -4,4 -8,9 -2,17 2,3 1,1 4,3 5,3 11,11 23,7 12,-4 7,-11 14,-16z"/>
    <path class="fil1" d="M381 839c2,2 3,2 3,2 1,1 3,1 4,1 -15,3 -23,-16 -12,-17 0,0 -1,0 -1,0l-3 -4c7,-8 22,-11 27,0 2,6 1,10 -3,14 -6,6 -11,1 -15,4zm16 7c1,-2 1,-3 2,-5 2,-2 1,-1 2,-2 2,-6 7,-11 7,-18 0,-11 -6,-7 -9,-13 -10,-2 -9,1 -15,3 -5,2 -9,4 -12,7 -3,3 -5,10 -4,15 1,7 4,7 7,11 4,1 6,2 10,3 7,0 7,0 12,-1z"/>
    <path class="fil1" d="M442 763c8,-8 28,-4 23,9 -2,6 -11,14 -17,13 -3,0 -2,0 -4,-1 0,-1 -1,-1 -1,-2l-2 2c-1,3 1,-1 0,2l-2 -6c-1,0 -1,0 -1,1 -3,5 0,2 -3,3 -5,-11 4,-23 15,-15 0,-4 0,-3 -3,-4l-5 -2c0,0 0,0 0,0zm2 -5c-16,7 -17,24 -9,31 4,3 10,4 15,4 4,-3 19,-4 21,-21 2,-21 -26,-17 -27,-14z"/>
    <path class="fil1" d="M439 830c-1,0 2,-6 -6,-1 0,0 -1,2 -1,2l-3 3c-3,-16 28,-21 27,-7 0,3 -10,22 -20,16 0,0 -10,-8 3,-13zm18 11l3 -12c-4,-7 2,-21 -23,-12 -2,1 -5,3 -8,5 -6,5 -6,11 -2,18 4,8 5,13 15,13 19,-8 9,-9 15,-12z"/>
    <path class="fil1" d="M561 828c-2,-2 0,0 -4,-3l-2 -2c19,-5 18,1 23,5 -4,23 -28,25 -27,8 1,-10 7,-7 8,-7 0,0 0,0 0,0l2 -1zm14 21c2,-2 2,-3 3,-4 1,-2 1,-1 2,-2l1 -2c0,-4 1,-9 1,-15 -4,-4 -1,-4 -7,-7 -3,-2 -6,-4 -10,-3 -10,2 -26,13 -20,26 2,6 9,9 14,10 6,2 12,0 16,-3z"/>
    <path class="fil1" d="M502 769c-2,-3 -3,-1 -5,-5 4,-2 8,-5 14,-5 21,-2 19,14 9,20 -4,3 -13,6 -18,6 -12,-5 -10,-19 0,-16zm31 0c1,-11 -7,-11 -13,-12 -4,-1 -6,-2 -11,-1 -10,1 -10,5 -16,9 -4,8 -4,10 0,19 2,4 3,4 7,6 5,1 9,1 14,0 6,-3 8,-2 12,-7 3,-3 6,-9 7,-14z"/>
    <path class="fil1" d="M339 816c0,0 -6,0 -8,-2 10,-2 11,-3 20,2 1,9 -1,11 -6,16 -14,13 -31,0 -19,-11 5,-4 5,-1 11,-3 2,-1 1,-1 2,-2zm14 -1c-5,-3 -5,-6 -13,-6 -7,1 -10,3 -15,5 -3,6 -8,11 -5,21 3,7 10,11 17,12 3,-1 7,-3 9,-5 0,-1 4,-6 5,-8 5,-7 6,-11 2,-19z"/>
    <path class="fil1" d="M380 763c11,-8 25,-2 27,0 3,5 -9,21 -10,21 -5,1 -4,0 -7,0l-5 2c-11,-5 -7,-21 -4,-17l-1 -6zm23 -5c-23,-8 -36,11 -26,27 3,5 8,3 13,6 7,0 20,1 23,-12 3,-15 -2,-18 -10,-21z"/>
    <path class="fil1" d="M337 759c0,-2 -1,-2 -1,-3 12,-2 18,6 17,16 0,-2 0,-4 -1,-6l-2 3c-1,3 0,8 -3,11 -7,9 -26,1 -20,-11 2,-3 6,-8 10,-10zm13 -4c-3,0 -1,1 -3,-1 -9,-1 -12,-1 -18,5 -5,6 -5,9 -6,18 3,2 2,2 4,6 2,1 2,3 8,5 5,1 9,0 14,1 3,-4 7,-11 8,-18 0,-5 -5,-13 -7,-16z"/>
    <path class="fil1" d="M204 727c-3,-2 -2,-1 -3,-4 -10,3 -3,1 -11,6l-1 9 6 2c7,-1 8,-5 9,-13z"/>
    <path class="fil1" d="M908 50c7,5 21,0 16,-7 -4,-4 -18,-8 -16,7z"/>
    <path class="fil1" d="M377 72c4,-22 0,-15 -5,-16 -4,0 -1,-3 -5,0l0 6c2,7 0,14 10,10z"/>
    <path class="fil1" d="M1394 450c5,-5 -7,-15 -15,-7 -6,7 3,8 8,9 7,1 6,-1 7,-2z"/>
    <path class="fil1" d="M753 17c4,-4 5,-5 5,-12 -7,-1 -6,-2 -13,0 -3,5 -4,2 -5,10l3 -4c0,0 0,0 0,0 0,0 1,-1 1,-1 1,2 2,5 4,8l5 -1z"/>
    <path class="fil1" d="M154 515l0 -2c-2,1 -3,1 -3,1 -1,0 -1,1 -3,1 -1,-6 0,-2 -2,-3 -3,0 0,-1 -2,0 -1,1 -3,3 -4,3 -2,2 -2,3 -2,7 1,3 1,3 4,4 3,-1 3,-2 6,-4 2,-1 3,-1 6,-2l0 -5z"/>
    <path class="fil1" d="M149 668l-8 0 4 -3c0,1 0,0 1,0 -1,-2 -3,-2 -3,-2 0,0 -1,0 -1,0 2,-6 8,-6 11,-5 1,6 -2,6 -4,10zm0 0l3 0c1,-4 2,-1 3,-9 1,-4 0,-4 -5,-5 -5,1 -11,3 -12,8 0,6 -2,9 3,10 2,0 4,-1 5,-1 4,-3 2,-1 3,-3z"/>
    <path class="fil1" d="M1413 282c-1,3 2,4 -8,6 -1,-5 -2,-3 1,-5 5,-3 6,-1 7,-1zm2 -5c-4,-1 -6,-1 -10,0 -3,4 -4,6 -3,12l4 2c6,-1 8,-1 10,-5 3,-4 1,-7 -1,-9z"/>
    <path class="fil1" d="M277 134c-3,0 -3,2 -5,5 -1,3 -1,5 -1,8l3 3c3,0 7,0 10,-4 0,-5 -1,-3 -3,-7 -3,-4 0,-3 -4,-5z"/>
    <path class="fil1" d="M1322 610c0,-10 0,-12 -9,-12 -2,5 -2,8 -2,15l4 1c2,-1 4,-3 7,-4z"/>
    <path class="fil1" d="M236 515c2,4 2,3 1,8 -11,2 -4,-4 -3,-6 2,-2 0,0 2,-2zm3 1c-1,-3 -6,-6 -9,-7 -1,4 0,5 -3,8 -2,-3 -2,-4 -3,-7l-1 2c1,4 6,12 8,14 2,1 5,0 7,-1 2,-2 2,-5 1,-9z"/>
    <path class="fil1" d="M1415 188c0,-2 0,-4 0,-6 0,-3 -2,-3 -3,-7l-5 0c0,2 0,2 -1,3l-2 2c0,1 0,1 0,1 0,5 1,7 2,10 6,0 6,0 9,-3z"/>
    <path class="fil1" d="M1506 667l-8 1 -2 0c-3,4 -3,5 -6,8 2,1 5,-1 6,4 9,1 11,-3 10,-13z"/>
    <path class="fil1" d="M1412 382c-2,1 -2,1 -3,2 0,9 2,6 5,11l5 0c-1,-8 3,-10 -2,-16 -2,1 -1,0 -3,1 0,0 -1,1 -1,1 -1,1 -1,1 -1,1z"/>
    <path class="fil1" d="M379 16l0 -3c-2,0 -3,0 -2,-2l2 -4 4 1c0,1 0,1 0,1 2,-1 2,4 2,-3 -5,-1 -19,-5 -15,5 1,4 1,3 3,7 2,0 2,0 4,1l2 -3zm6 -10c0,7 0,2 -2,3 0,0 0,0 0,-1l-4 -1 -2 4c-1,2 0,2 2,2l0 3 1 0 5 -2c0,0 1,-4 1,-4 0,-3 0,-2 -1,-4z"/>
    <path class="fil1" d="M201 147l0 -3 -4 -1c0,-5 1,-3 -1,-6 -5,2 -9,6 -7,13 3,3 6,0 9,-2 0,0 0,0 0,0 1,0 1,0 1,0l1 -1c0,0 1,0 1,0z"/>
    <path class="fil1" d="M1484 441c-6,0 -6,0 -9,4 -2,2 -3,5 -2,9l12 -3c1,-5 0,-5 -1,-10z"/>
    <path class="fil1" d="M1317 684c2,-4 6,-3 9,-1 -2,5 -6,4 -9,1zm9 5c1,-2 2,-3 3,-7 -5,-5 -6,-5 -13,-2l0 0c-2,5 -1,5 -2,12 4,0 4,1 7,-1 3,-1 0,0 2,-1 3,-1 -1,0 3,-1z"/>
    <path class="fil1" d="M987 26l0 0c-6,0 -7,0 -10,4 -2,3 -5,7 1,8 3,1 1,-1 2,2l3 -1c0,-8 0,-2 5,-7l-1 -6z"/>
    <path class="fil1" d="M231 440c-3,5 -7,6 -6,12l6 1c0,0 11,-8 5,-13 0,0 0,0 0,0l-5 0z"/>
    <path class="fil1" d="M253 329c-2,-1 -1,-1 -4,-2 -3,2 -5,4 -7,7 -1,4 1,6 2,9 7,-3 9,-5 9,-14z"/>
    <path class="fil1" d="M1306 520l3 2 5 -3c4,-2 5,-4 5,-8 -11,-4 -7,-1 -11,-5 1,4 2,2 0,6 -1,4 -2,2 -2,8z"/>
    <path class="fil1" d="M1414 825c-2,4 -4,3 -4,9 4,2 3,1 8,1 4,-2 3,-1 6,-5 -1,-5 -4,-5 -10,-5z"/>
    <path class="fil1" d="M252 664c0,1 0,1 0,1l0 3c0,5 -5,5 -9,5 1,-4 3,-9 5,-9 5,-2 4,0 4,0zm-7 -3l-4 2 0 12c7,1 10,-1 13,-5 4,-9 -2,-11 -9,-9z"/>
    <path class="fil1" d="M266 211c0,3 0,2 -2,4 -3,4 -2,5 -6,5 4,-8 0,-10 8,-9zm-9 1c-1,2 -1,10 -1,11l5 0c4,-3 9,-10 7,-15 -6,-1 -7,2 -11,4z"/>
    <path class="fil1" d="M993 72c-2,-2 -5,-3 -9,-2 -3,5 -4,10 2,12 3,-2 4,-4 7,-7l0 -3z"/>
    <path class="fil1" d="M1427 739l-2 -2c-3,-2 -1,-1 -5,-1l-3 1 -1 9c11,2 9,3 11,-7z"/>
    <path class="fil1" d="M806 46c-3,3 -6,4 -11,3 1,-4 6,-9 11,-3zm-13 -2c0,4 -1,4 1,7 4,2 14,-1 14,-6 1,-7 -11,-6 -15,-1z"/>
    <path class="fil1" d="M202 818c-7,2 -5,3 -6,7 -1,2 -5,8 0,9 2,-2 2,-1 4,-3 2,-2 2,-1 3,-4 1,-4 0,-7 -1,-9z"/>
    <path class="fil1" d="M1418 675l-1 -2c-2,-3 -1,-2 -3,-4l-5 0c0,3 0,1 -2,5 -1,3 -1,2 -1,6 1,3 2,2 2,5l5 0c-1,-5 -4,-5 -2,-8 2,-4 3,0 7,-2z"/>
    <path class="fil1" d="M752 50c0,0 0,-2 -6,-1 0,1 -2,2 -4,2l0 8c5,1 11,-6 10,-9z"/>
    <path class="fil1" d="M1323 450c-2,-5 -3,-7 -6,-9 -5,1 -1,0 -5,3 -3,2 -2,0 -4,4l2 1c1,-1 1,-1 1,-2 3,4 0,2 4,6l3 0c-1,-2 1,0 -2,-2l-2 -5c2,1 3,1 5,2l4 2z"/>
    <path class="fil1" d="M1414 86c0,-6 0,-5 -3,-10l-2 0c-4,4 -2,14 5,13l0 -3z"/>
    <path class="fil1" d="M751 86c0,-4 1,-3 -3,-4 -12,3 3,-2 -4,1 0,1 0,1 -1,1 -2,1 -2,1 -2,3 -1,5 0,2 1,3 5,3 6,-2 9,-4z"/>
    <path class="fil1" d="M993 849c-3,0 -3,-1 -4,-3l-3 1c0,3 0,8 1,10 3,-2 -1,-6 8,-5l-2 -3z"/>
    <g>
     <path class="fil2 str0" d="M347 780c3,-3 2,-8 3,-11l2 -3c1,1 1,3 1,5 0,-10 -6,-17 -17,-15 0,1 1,1 1,3 -4,2 -8,7 -10,10 -6,12 13,20 20,11z"/>
     <path class="fil2 str0" d="M380 763l1 6c-3,-4 -7,12 4,17l5 -2c3,0 2,1 7,0 1,0 13,-16 10,-21 -2,-2 -16,-8 -27,0z"/>
     <path class="fil2 str0" d="M447 765c3,1 3,0 3,4 -11,-8 -20,4 -15,15 1,0 1,0 2,0 0,0 0,-1 1,-3 0,-1 0,-1 1,-1l2 6c1,-3 -1,1 0,-2l2 -2c0,1 1,1 1,2 2,1 1,1 4,1 6,1 15,-7 17,-13 5,-13 -15,-17 -23,-9 0,0 0,0 0,0l5 2z"/>
     <path class="fil2 str0" d="M502 769c-10,-3 -12,11 0,16 5,0 14,-3 18,-6 10,-6 12,-22 -9,-20 -6,0 -10,3 -14,5 2,4 3,2 5,5z"/>
     <path class="fil2 str0" d="M560 765c4,6 -1,6 1,15 20,13 35,-11 27,-18 -11,-10 -37,-2 -35,15 4,-3 3,-4 6,-10 0,0 0,-1 0,-1 0,0 0,0 1,-1z"/>
     <path class="fil2 str0" d="M578 828c-5,-4 -4,-10 -23,-5l2 2c4,3 2,1 4,3l-2 1 0 0c-1,0 -7,-3 -8,7 -1,17 23,15 27,-8z"/>
     <path class="fil2 str0" d="M502 845c8,-3 13,-9 15,-18 -3,-3 -9,-6 -13,-6l-4 2c0,0 0,0 -1,0 5,1 6,2 7,5 -6,-2 -10,-4 -14,3 -1,2 -6,19 10,14z"/>
     <path class="fil2 str0" d="M436 843c10,6 20,-13 20,-16 1,-14 -30,-9 -27,7l3 -3c0,0 1,-2 1,-2 8,-5 5,1 6,1 -13,5 -3,13 -3,13z"/>
     <path class="fil2 str0" d="M396 835c4,-4 5,-8 3,-14 -5,-11 -20,-8 -27,0l3 4c0,0 1,0 1,0 -11,1 -3,20 12,17 -1,0 -3,0 -4,-1 0,0 -1,0 -3,-2 4,-3 9,2 15,-4z"/>
     <path class="fil2 str0" d="M345 832c5,-5 7,-7 6,-16 -9,-5 -10,-4 -20,-2 2,2 8,2 8,2 -1,1 0,1 -2,2 -6,2 -6,-1 -11,3 -12,11 5,24 19,11z"/>
    </g>
    <path class="fil3 str0" d="M745 797c0,0 0,0 0,0 3,1 -1,1 0,0zm-80 19c-1,7 3,22 8,27 3,4 2,2 7,6l10 6c7,5 29,4 35,-2l5 0c1,-2 1,-2 2,-4 1,0 1,0 1,0 0,0 0,-1 1,-1 0,-1 1,-2 2,-3 13,-18 19,-24 12,-47 -1,-4 -2,-2 -2,-2 0,0 -1,0 -1,1 -2,-7 -6,-13 -12,-15 -5,-3 -8,-5 -16,-7 -4,0 -15,0 -21,2 -7,0 -11,4 -16,9 -10,9 1,1 -7,9 -3,2 -2,2 -3,5l-3 10 -2 6z"/>
    <path class="fil3 str0" d="M848 796c-9,9 -9,8 -10,23 2,8 -1,11 2,17 3,5 6,9 9,13 4,6 22,13 31,10l6 0c4,0 15,-3 19,-5 6,-2 28,-26 18,-47l-9 -16c0,0 0,0 -1,-1 -13,-14 -30,-15 -48,-8 7,-1 17,-4 21,2 -3,-2 -11,-2 -14,-1 -5,2 -10,3 -14,5 -3,2 -8,6 -10,8z"/>
    <path class="fil4" d="M673 815c0,3 0,7 1,11l2 -7 3 -11c2,-2 1,-3 4,-5 8,-8 -4,0 7,-9 5,-6 10,-11 18,-10 2,-1 5,-1 8,-2 0,0 -1,0 -1,0 -3,0 -12,0 -17,1 -5,0 -9,4 -13,8 -8,7 1,0 -6,7 -2,2 -1,2 -2,4l-3 8 -1 5z"/>
    <path class="fil4" d="M844 822c0,2 0,6 1,10l2 -7 3 -10c1,-3 1,-3 3,-6 9,-8 -3,1 7,-9 6,-5 11,-10 19,-10 2,0 5,-1 8,-1 0,0 -1,0 -1,0 -3,-1 -12,-1 -17,1 -6,0 -9,3 -13,7 -8,8 1,1 -6,7 -2,2 -1,2 -3,4l-2 8 -1 6z"/>
   </g>
   <path class="fil5" d="M1279 674c0,5 0,15 -2,20l-1 1c-1,12 -15,21 -26,25 -10,2 -85,0 -101,0 -16,0 -33,0 -49,0l-67 -1 -98 -1 -124 -1c-9,1 -25,0 -36,0 -11,0 -23,0 -34,0l-7 0 -57 -1 -208 0 -30 0c-24,1 -48,-1 -72,-1 -13,0 -21,0 -29,-7 -4,-3 -6,-2 -9,-7 -2,-2 -5,-8 -7,-11 -3,-11 -1,-54 -1,-70 0,-23 0,-47 0,-71l1 0 0 -29 -1 -2 1 -24 2 -206c1,-22 0,-49 0,-72 0,-16 -3,-54 4,-66l8 -10c13,-16 26,-13 38,-14l70 -2 63 0 22 -1 62 0 22 -1c5,1 10,0 15,0 2,0 7,1 7,1 2,0 3,0 6,0l1 -1 28 0 53 0c15,-2 145,-5 153,-3 3,-2 66,-1 72,-1 5,-1 7,-1 11,0l84 -2 22 -1 34 -1 3 0c11,0 48,-2 54,0 3,-2 6,-1 9,-1 4,0 7,0 10,0l56 -1c21,0 41,9 46,31 2,7 0,172 0,195l-1 0c2,11 1,35 1,47 -1,15 -1,32 -1,47l1 72 0 37c0,15 0,31 0,47 0,9 2,36 0,44 0,1 0,0 0,2l1 9c0,4 0,7 0,11 0,8 1,12 1,20z"/>
  </g>
 </g>
</svg>
